M48
; DRILL file {KiCad (5.1.2-1)-1} date Monday, 02 September 2019 at 17:54:35
; FORMAT={-:-/ absolute / metric / decimal}
; #@! TF.CreationDate,2019-09-02T17:54:35+01:00
; #@! TF.GenerationSoftware,Kicad,Pcbnew,(5.1.2-1)-1
; #@! TF.FileFunction,Plated,1,2,PTH
FMAT,2
METRIC
T1C0.400
T2C0.800
T3C1.000
T4C2.700
%
G90
G05
T1
X60.938Y-100.271
X62.098Y-80.724
X62.91Y-90.919
X62.95Y-92.094
X63.137Y-86.18
X63.599Y-84.635
X64.787Y-84.578
X65.126Y-86.096
X65.761Y-92.38
X66.144Y-87.873
X66.224Y-95.95
X67.07Y-99.012
X67.216Y-90.913
X67.358Y-95.239
X67.598Y-87.91
X68.105Y-98.779
X68.45Y-91.865
X68.789Y-88.072
X69.474Y-91.878
X70.392Y-84.578
X70.669Y-86.518
X71.168Y-92.609
X71.343Y-88.168
X72.637Y-94.597
X72.797Y-87.062
X72.893Y-93.365
X73.143Y-84.578
X73.16Y-92.231
X73.546Y-97.076
X73.972Y-92.834
X74.297Y-98.44
X74.48Y-80.65
X74.553Y-102.101
X75.876Y-82.877
X76.313Y-102.736
X76.874Y-99.275
X78.618Y-89.635
X78.722Y-103.491
X79.638Y-90.057
X80.305Y-102.841
X81.9Y-83.931
X82.311Y-82.03
X83.035Y-102.789
X83.382Y-80.802
X83.397Y-98.89
X83.744Y-84.619
X84.126Y-96.371
X84.457Y-91.37
X85.323Y-83.564
X85.411Y-80.834
X85.459Y-91.014
X85.525Y-114.893
X86.514Y-85.567
X86.533Y-91.021
X86.561Y-80.239
X87.561Y-91.024
X88.135Y-97.518
X88.391Y-93.472
X89.18Y-88.015
X89.38Y-91.45
X89.914Y-86.367
X90.019Y-80.379
X90.491Y-83.567
X91.409Y-94.489
X91.637Y-93.468
X91.808Y-84.473
X91.852Y-98.822
X92.729Y-102.586
X92.781Y-88.036
X92.848Y-91.074
X92.896Y-80.196
X93.221Y-85.208
X93.316Y-97.651
X93.754Y-86.107
X95.296Y-91.597
X96.299Y-88.274
X97.302Y-89.352
X97.309Y-82.903
X97.317Y-81.903
X100.04Y-89.222
X100.127Y-83.845
X104.193Y-78.964
X109.06Y-96.273
X110.133Y-97.36
X110.6Y-86.694
X113.437Y-119.191
X113.671Y-110.921
X113.676Y-90.691
X113.82Y-71.208
X114.671Y-91.146
X115.56Y-90.587
X116.345Y-116.343
X117.973Y-88.499
X118.355Y-91.73
X118.977Y-99.278
X120.095Y-105.459
X123.359Y-82.027
X124.056Y-89.996
X125.231Y-90.004
T2
X69.351Y-57.116
X69.351Y-72.356
X71.891Y-57.116
X71.891Y-72.356
X74.431Y-57.116
X74.431Y-72.356
X76.971Y-57.116
X76.971Y-72.356
X79.511Y-57.116
X79.511Y-72.356
X82.051Y-57.116
X82.051Y-72.356
X84.591Y-57.116
X84.591Y-72.356
X87.131Y-57.116
X87.131Y-72.356
X89.671Y-57.116
X89.671Y-72.356
X92.211Y-57.116
X92.211Y-72.356
X94.751Y-57.116
X94.751Y-72.356
X97.291Y-57.116
X97.291Y-72.356
X99.831Y-57.116
X99.831Y-72.356
X102.371Y-57.116
X102.371Y-72.356
X104.911Y-57.116
X104.911Y-72.356
X107.451Y-57.116
X107.451Y-72.356
X109.991Y-57.116
X109.991Y-72.356
X112.531Y-57.116
X112.531Y-72.356
X115.071Y-57.116
X115.071Y-72.356
X117.611Y-57.116
X117.611Y-72.356
X69.351Y-62.45
X69.351Y-77.69
X71.891Y-62.45
X71.891Y-77.69
X74.431Y-62.45
X74.431Y-77.69
X76.971Y-62.45
X76.971Y-77.69
X79.511Y-62.45
X79.511Y-77.69
X82.051Y-62.45
X82.051Y-77.69
X84.591Y-62.45
X84.591Y-77.69
X87.131Y-62.45
X87.131Y-77.69
X89.671Y-62.45
X89.671Y-77.69
X92.211Y-62.45
X92.211Y-77.69
X94.751Y-62.45
X94.751Y-77.69
X97.291Y-62.45
X97.291Y-77.69
X99.831Y-62.45
X99.831Y-77.69
X102.371Y-62.45
X102.371Y-77.69
X104.911Y-62.45
X104.911Y-77.69
X107.451Y-62.45
X107.451Y-77.69
X109.991Y-62.45
X109.991Y-77.69
X112.531Y-62.45
X112.531Y-77.69
X115.071Y-62.45
X115.071Y-77.69
X117.611Y-62.45
X117.611Y-77.69
T3
X84.21Y-123.283
X86.75Y-123.283
X89.29Y-123.283
X84.21Y-107.535
X86.75Y-107.535
X89.29Y-107.535
X91.83Y-107.535
X94.37Y-107.535
X96.91Y-107.535
X84.464Y-140.047
X87.004Y-140.047
X89.544Y-140.047
X84.21Y-125.823
X86.75Y-125.823
X89.29Y-125.823
X91.83Y-125.823
X94.37Y-125.823
X96.91Y-125.823
X99.45Y-125.823
X101.99Y-125.823
X104.53Y-125.823
X107.07Y-125.823
X109.61Y-125.823
X112.15Y-125.823
X114.69Y-125.823
X117.23Y-125.823
X84.21Y-104.995
X86.75Y-104.995
X89.29Y-104.995
X91.83Y-104.995
X94.37Y-104.995
X96.91Y-104.995
X99.45Y-104.995
X101.99Y-104.995
X104.53Y-104.995
X107.07Y-104.995
X109.61Y-104.995
X112.15Y-104.995
X114.69Y-104.995
X117.23Y-104.995
X96.91Y-100.931
X99.45Y-100.931
X101.99Y-100.931
X104.53Y-100.931
X107.07Y-100.931
X109.61Y-100.931
X112.15Y-100.931
X114.69Y-100.931
X117.23Y-100.931
X119.77Y-100.931
X81.67Y-130.141
X84.21Y-130.141
X86.75Y-130.141
X89.29Y-130.141
X91.83Y-130.141
X94.37Y-130.141
X96.91Y-130.141
X99.45Y-130.141
X101.99Y-130.141
X104.53Y-130.141
X101.609Y-139.92
X104.149Y-139.92
X106.689Y-139.92
X109.229Y-139.92
X111.769Y-139.92
X114.309Y-139.92
X67.954Y-140.047
X70.494Y-140.047
X73.034Y-140.047
X120.278Y-109.059
X120.278Y-111.599
X120.278Y-114.139
X120.278Y-116.679
X120.278Y-119.219
X120.278Y-121.759
X122.818Y-109.059
X122.818Y-111.599
X122.818Y-114.139
X122.818Y-116.679
X122.818Y-119.219
X122.818Y-121.759
T4
X60.207Y-56.735
X124.469Y-56.735
X60.08Y-140.555
X124.596Y-140.428
T0
M30
