G04 #@! TF.GenerationSoftware,KiCad,Pcbnew,(5.1.2-1)-1*
G04 #@! TF.CreationDate,2019-09-02T17:54:29+01:00*
G04 #@! TF.ProjectId,tranZPUter,7472616e-5a50-4557-9465-722e6b696361,rev?*
G04 #@! TF.SameCoordinates,Original*
G04 #@! TF.FileFunction,Legend,Top*
G04 #@! TF.FilePolarity,Positive*
%FSLAX46Y46*%
G04 Gerber Fmt 4.6, Leading zero omitted, Abs format (unit mm)*
G04 Created by KiCad (PCBNEW (5.1.2-1)-1) date 2019-09-02 17:54:29*
%MOMM*%
%LPD*%
G04 APERTURE LIST*
%ADD10C,0.100000*%
%ADD11C,0.150000*%
%ADD12C,0.200000*%
%ADD13C,0.300000*%
%ADD14C,0.120000*%
%ADD15C,0.127000*%
%ADD16C,0.050000*%
G04 APERTURE END LIST*
D10*
X113723285Y-142152000D02*
X114323285Y-142152000D01*
X114209000Y-142928285D02*
X114180428Y-142956857D01*
X114094714Y-142985428D01*
X114037571Y-142985428D01*
X113951857Y-142956857D01*
X113894714Y-142899714D01*
X113866142Y-142842571D01*
X113837571Y-142728285D01*
X113837571Y-142642571D01*
X113866142Y-142528285D01*
X113894714Y-142471142D01*
X113951857Y-142414000D01*
X114037571Y-142385428D01*
X114094714Y-142385428D01*
X114180428Y-142414000D01*
X114209000Y-142442571D01*
X114323285Y-142152000D02*
X114894714Y-142152000D01*
X114437571Y-142956857D02*
X114523285Y-142985428D01*
X114666142Y-142985428D01*
X114723285Y-142956857D01*
X114751857Y-142928285D01*
X114780428Y-142871142D01*
X114780428Y-142814000D01*
X114751857Y-142756857D01*
X114723285Y-142728285D01*
X114666142Y-142699714D01*
X114551857Y-142671142D01*
X114494714Y-142642571D01*
X114466142Y-142614000D01*
X114437571Y-142556857D01*
X114437571Y-142499714D01*
X114466142Y-142442571D01*
X114494714Y-142414000D01*
X114551857Y-142385428D01*
X114694714Y-142385428D01*
X114780428Y-142414000D01*
X110997571Y-142956857D02*
X111083285Y-142985428D01*
X111226142Y-142985428D01*
X111283285Y-142956857D01*
X111311857Y-142928285D01*
X111340428Y-142871142D01*
X111340428Y-142814000D01*
X111311857Y-142756857D01*
X111283285Y-142728285D01*
X111226142Y-142699714D01*
X111111857Y-142671142D01*
X111054714Y-142642571D01*
X111026142Y-142614000D01*
X110997571Y-142556857D01*
X110997571Y-142499714D01*
X111026142Y-142442571D01*
X111054714Y-142414000D01*
X111111857Y-142385428D01*
X111254714Y-142385428D01*
X111340428Y-142414000D01*
X111940428Y-142928285D02*
X111911857Y-142956857D01*
X111826142Y-142985428D01*
X111769000Y-142985428D01*
X111683285Y-142956857D01*
X111626142Y-142899714D01*
X111597571Y-142842571D01*
X111569000Y-142728285D01*
X111569000Y-142642571D01*
X111597571Y-142528285D01*
X111626142Y-142471142D01*
X111683285Y-142414000D01*
X111769000Y-142385428D01*
X111826142Y-142385428D01*
X111911857Y-142414000D01*
X111940428Y-142442571D01*
X112197571Y-142985428D02*
X112197571Y-142385428D01*
X112540428Y-142985428D02*
X112283285Y-142642571D01*
X112540428Y-142385428D02*
X112197571Y-142728285D01*
X108286142Y-142985428D02*
X108286142Y-142385428D01*
X108486142Y-142814000D01*
X108686142Y-142385428D01*
X108686142Y-142985428D01*
X109086142Y-142385428D02*
X109200428Y-142385428D01*
X109257571Y-142414000D01*
X109314714Y-142471142D01*
X109343285Y-142585428D01*
X109343285Y-142785428D01*
X109314714Y-142899714D01*
X109257571Y-142956857D01*
X109200428Y-142985428D01*
X109086142Y-142985428D01*
X109029000Y-142956857D01*
X108971857Y-142899714D01*
X108943285Y-142785428D01*
X108943285Y-142585428D01*
X108971857Y-142471142D01*
X109029000Y-142414000D01*
X109086142Y-142385428D01*
X109571857Y-142956857D02*
X109657571Y-142985428D01*
X109800428Y-142985428D01*
X109857571Y-142956857D01*
X109886142Y-142928285D01*
X109914714Y-142871142D01*
X109914714Y-142814000D01*
X109886142Y-142756857D01*
X109857571Y-142728285D01*
X109800428Y-142699714D01*
X109686142Y-142671142D01*
X109629000Y-142642571D01*
X109600428Y-142614000D01*
X109571857Y-142556857D01*
X109571857Y-142499714D01*
X109600428Y-142442571D01*
X109629000Y-142414000D01*
X109686142Y-142385428D01*
X109829000Y-142385428D01*
X109914714Y-142414000D01*
X110171857Y-142985428D02*
X110171857Y-142385428D01*
X105746142Y-142985428D02*
X105746142Y-142385428D01*
X105946142Y-142814000D01*
X106146142Y-142385428D01*
X106146142Y-142985428D01*
X106431857Y-142985428D02*
X106431857Y-142385428D01*
X106689000Y-142956857D02*
X106774714Y-142985428D01*
X106917571Y-142985428D01*
X106974714Y-142956857D01*
X107003285Y-142928285D01*
X107031857Y-142871142D01*
X107031857Y-142814000D01*
X107003285Y-142756857D01*
X106974714Y-142728285D01*
X106917571Y-142699714D01*
X106803285Y-142671142D01*
X106746142Y-142642571D01*
X106717571Y-142614000D01*
X106689000Y-142556857D01*
X106689000Y-142499714D01*
X106717571Y-142442571D01*
X106746142Y-142414000D01*
X106803285Y-142385428D01*
X106946142Y-142385428D01*
X107031857Y-142414000D01*
X107403285Y-142385428D02*
X107517571Y-142385428D01*
X107574714Y-142414000D01*
X107631857Y-142471142D01*
X107660428Y-142585428D01*
X107660428Y-142785428D01*
X107631857Y-142899714D01*
X107574714Y-142956857D01*
X107517571Y-142985428D01*
X107403285Y-142985428D01*
X107346142Y-142956857D01*
X107289000Y-142899714D01*
X107260428Y-142785428D01*
X107260428Y-142585428D01*
X107289000Y-142471142D01*
X107346142Y-142414000D01*
X107403285Y-142385428D01*
X104063285Y-142385428D02*
X103777571Y-142385428D01*
X103749000Y-142671142D01*
X103777571Y-142642571D01*
X103834714Y-142614000D01*
X103977571Y-142614000D01*
X104034714Y-142642571D01*
X104063285Y-142671142D01*
X104091857Y-142728285D01*
X104091857Y-142871142D01*
X104063285Y-142928285D01*
X104034714Y-142956857D01*
X103977571Y-142985428D01*
X103834714Y-142985428D01*
X103777571Y-142956857D01*
X103749000Y-142928285D01*
X104291857Y-142585428D02*
X104434714Y-142985428D01*
X104577571Y-142585428D01*
X101223285Y-142414000D02*
X101166142Y-142385428D01*
X101080428Y-142385428D01*
X100994714Y-142414000D01*
X100937571Y-142471142D01*
X100909000Y-142528285D01*
X100880428Y-142642571D01*
X100880428Y-142728285D01*
X100909000Y-142842571D01*
X100937571Y-142899714D01*
X100994714Y-142956857D01*
X101080428Y-142985428D01*
X101137571Y-142985428D01*
X101223285Y-142956857D01*
X101251857Y-142928285D01*
X101251857Y-142728285D01*
X101137571Y-142728285D01*
X101509000Y-142585428D02*
X101509000Y-142985428D01*
X101509000Y-142642571D02*
X101537571Y-142614000D01*
X101594714Y-142585428D01*
X101680428Y-142585428D01*
X101737571Y-142614000D01*
X101766142Y-142671142D01*
X101766142Y-142985428D01*
X102309000Y-142985428D02*
X102309000Y-142385428D01*
X102309000Y-142956857D02*
X102251857Y-142985428D01*
X102137571Y-142985428D01*
X102080428Y-142956857D01*
X102051857Y-142928285D01*
X102023285Y-142871142D01*
X102023285Y-142699714D01*
X102051857Y-142642571D01*
X102080428Y-142614000D01*
X102137571Y-142585428D01*
X102251857Y-142585428D01*
X102309000Y-142614000D01*
X88991619Y-142275904D02*
X89448761Y-142275904D01*
X89220190Y-143075904D02*
X89220190Y-142275904D01*
X89639238Y-143075904D02*
X90058285Y-142542571D01*
X89639238Y-142542571D02*
X90058285Y-143075904D01*
X83822714Y-142314000D02*
X83746523Y-142275904D01*
X83632238Y-142275904D01*
X83517952Y-142314000D01*
X83441761Y-142390190D01*
X83403666Y-142466380D01*
X83365571Y-142618761D01*
X83365571Y-142733047D01*
X83403666Y-142885428D01*
X83441761Y-142961619D01*
X83517952Y-143037809D01*
X83632238Y-143075904D01*
X83708428Y-143075904D01*
X83822714Y-143037809D01*
X83860809Y-142999714D01*
X83860809Y-142733047D01*
X83708428Y-142733047D01*
X84203666Y-142542571D02*
X84203666Y-143075904D01*
X84203666Y-142618761D02*
X84241761Y-142580666D01*
X84317952Y-142542571D01*
X84432238Y-142542571D01*
X84508428Y-142580666D01*
X84546523Y-142656857D01*
X84546523Y-143075904D01*
X85270333Y-143075904D02*
X85270333Y-142275904D01*
X85270333Y-143037809D02*
X85194142Y-143075904D01*
X85041761Y-143075904D01*
X84965571Y-143037809D01*
X84927476Y-142999714D01*
X84889380Y-142923523D01*
X84889380Y-142694952D01*
X84927476Y-142618761D01*
X84965571Y-142580666D01*
X85041761Y-142542571D01*
X85194142Y-142542571D01*
X85270333Y-142580666D01*
X86927809Y-143075904D02*
X86661142Y-142694952D01*
X86470666Y-143075904D02*
X86470666Y-142275904D01*
X86775428Y-142275904D01*
X86851619Y-142314000D01*
X86889714Y-142352095D01*
X86927809Y-142428285D01*
X86927809Y-142542571D01*
X86889714Y-142618761D01*
X86851619Y-142656857D01*
X86775428Y-142694952D01*
X86470666Y-142694952D01*
X87194476Y-143075904D02*
X87613523Y-142542571D01*
X87194476Y-142542571D02*
X87613523Y-143075904D01*
X67312714Y-142314000D02*
X67236523Y-142275904D01*
X67122238Y-142275904D01*
X67007952Y-142314000D01*
X66931761Y-142390190D01*
X66893666Y-142466380D01*
X66855571Y-142618761D01*
X66855571Y-142733047D01*
X66893666Y-142885428D01*
X66931761Y-142961619D01*
X67007952Y-143037809D01*
X67122238Y-143075904D01*
X67198428Y-143075904D01*
X67312714Y-143037809D01*
X67350809Y-142999714D01*
X67350809Y-142733047D01*
X67198428Y-142733047D01*
X67693666Y-142542571D02*
X67693666Y-143075904D01*
X67693666Y-142618761D02*
X67731761Y-142580666D01*
X67807952Y-142542571D01*
X67922238Y-142542571D01*
X67998428Y-142580666D01*
X68036523Y-142656857D01*
X68036523Y-143075904D01*
X68760333Y-143075904D02*
X68760333Y-142275904D01*
X68760333Y-143037809D02*
X68684142Y-143075904D01*
X68531761Y-143075904D01*
X68455571Y-143037809D01*
X68417476Y-142999714D01*
X68379380Y-142923523D01*
X68379380Y-142694952D01*
X68417476Y-142618761D01*
X68455571Y-142580666D01*
X68531761Y-142542571D01*
X68684142Y-142542571D01*
X68760333Y-142580666D01*
X70417809Y-143075904D02*
X70151142Y-142694952D01*
X69960666Y-143075904D02*
X69960666Y-142275904D01*
X70265428Y-142275904D01*
X70341619Y-142314000D01*
X70379714Y-142352095D01*
X70417809Y-142428285D01*
X70417809Y-142542571D01*
X70379714Y-142618761D01*
X70341619Y-142656857D01*
X70265428Y-142694952D01*
X69960666Y-142694952D01*
X70684476Y-143075904D02*
X71103523Y-142542571D01*
X70684476Y-142542571D02*
X71103523Y-143075904D01*
X72481619Y-142275904D02*
X72938761Y-142275904D01*
X72710190Y-143075904D02*
X72710190Y-142275904D01*
X73129238Y-143075904D02*
X73548285Y-142542571D01*
X73129238Y-142542571D02*
X73548285Y-143075904D01*
D11*
X59572000Y-127982000D02*
X59572000Y-102963000D01*
X127644000Y-127982000D02*
X59572000Y-127982000D01*
X127771000Y-102963000D02*
X127644000Y-127982000D01*
X59572000Y-102963000D02*
X127771000Y-102963000D01*
D12*
X126058238Y-75530119D02*
X126058238Y-74063452D01*
X128258238Y-75805119D01*
X128258238Y-74338452D01*
X128258238Y-73500357D02*
X126058238Y-73225357D01*
X126058238Y-72387261D01*
X126163000Y-72190833D01*
X126267761Y-72099166D01*
X126477285Y-72020595D01*
X126791571Y-72059880D01*
X127001095Y-72190833D01*
X127105857Y-72308690D01*
X127210619Y-72531309D01*
X127210619Y-73369404D01*
X126058238Y-71025357D02*
X127839190Y-71247976D01*
X128048714Y-71169404D01*
X128153476Y-71077738D01*
X128258238Y-70881309D01*
X128258238Y-70462261D01*
X128153476Y-70239642D01*
X128048714Y-70121785D01*
X127839190Y-69990833D01*
X126058238Y-69768214D01*
D13*
X126666142Y-80381142D02*
X126666142Y-79771619D01*
X126132809Y-80152571D02*
X127504238Y-80152571D01*
X127656619Y-80076380D01*
X127732809Y-79924000D01*
X127732809Y-79771619D01*
X127732809Y-79238285D02*
X126666142Y-79238285D01*
X126970904Y-79238285D02*
X126818523Y-79162095D01*
X126742333Y-79085904D01*
X126666142Y-78933523D01*
X126666142Y-78781142D01*
X127732809Y-77562095D02*
X126894714Y-77562095D01*
X126742333Y-77638285D01*
X126666142Y-77790666D01*
X126666142Y-78095428D01*
X126742333Y-78247809D01*
X127656619Y-77562095D02*
X127732809Y-77714476D01*
X127732809Y-78095428D01*
X127656619Y-78247809D01*
X127504238Y-78324000D01*
X127351857Y-78324000D01*
X127199476Y-78247809D01*
X127123285Y-78095428D01*
X127123285Y-77714476D01*
X127047095Y-77562095D01*
X126666142Y-76800190D02*
X127732809Y-76800190D01*
X126818523Y-76800190D02*
X126742333Y-76724000D01*
X126666142Y-76571619D01*
X126666142Y-76343047D01*
X126742333Y-76190666D01*
X126894714Y-76114476D01*
X127732809Y-76114476D01*
X126666142Y-69485904D02*
X126666142Y-68876380D01*
X126132809Y-69257333D02*
X127504238Y-69257333D01*
X127656619Y-69181142D01*
X127732809Y-69028761D01*
X127732809Y-68876380D01*
X127656619Y-67733523D02*
X127732809Y-67885904D01*
X127732809Y-68190666D01*
X127656619Y-68343047D01*
X127504238Y-68419238D01*
X126894714Y-68419238D01*
X126742333Y-68343047D01*
X126666142Y-68190666D01*
X126666142Y-67885904D01*
X126742333Y-67733523D01*
X126894714Y-67657333D01*
X127047095Y-67657333D01*
X127199476Y-68419238D01*
X127732809Y-66971619D02*
X126666142Y-66971619D01*
X126970904Y-66971619D02*
X126818523Y-66895428D01*
X126742333Y-66819238D01*
X126666142Y-66666857D01*
X126666142Y-66514476D01*
X126666142Y-64914476D02*
X127732809Y-64533523D01*
X126666142Y-64152571D01*
X127732809Y-62704952D02*
X127732809Y-63619238D01*
X127732809Y-63162095D02*
X126132809Y-63162095D01*
X126361380Y-63314476D01*
X126513761Y-63466857D01*
X126589952Y-63619238D01*
X127580428Y-62019238D02*
X127656619Y-61943047D01*
X127732809Y-62019238D01*
X127656619Y-62095428D01*
X127580428Y-62019238D01*
X127732809Y-62019238D01*
X126132809Y-60952571D02*
X126132809Y-60800190D01*
X126209000Y-60647809D01*
X126285190Y-60571619D01*
X126437571Y-60495428D01*
X126742333Y-60419238D01*
X127123285Y-60419238D01*
X127428047Y-60495428D01*
X127580428Y-60571619D01*
X127656619Y-60647809D01*
X127732809Y-60800190D01*
X127732809Y-60952571D01*
X127656619Y-61104952D01*
X127580428Y-61181142D01*
X127428047Y-61257333D01*
X127123285Y-61333523D01*
X126742333Y-61333523D01*
X126437571Y-61257333D01*
X126285190Y-61181142D01*
X126209000Y-61104952D01*
X126132809Y-60952571D01*
X66203714Y-118686714D02*
X66275142Y-118758142D01*
X66346571Y-118972428D01*
X66346571Y-119115285D01*
X66275142Y-119329571D01*
X66132285Y-119472428D01*
X65989428Y-119543857D01*
X65703714Y-119615285D01*
X65489428Y-119615285D01*
X65203714Y-119543857D01*
X65060857Y-119472428D01*
X64918000Y-119329571D01*
X64846571Y-119115285D01*
X64846571Y-118972428D01*
X64918000Y-118758142D01*
X64989428Y-118686714D01*
X65632285Y-117758142D02*
X66346571Y-117758142D01*
X64846571Y-118258142D02*
X65632285Y-117758142D01*
X64846571Y-117258142D01*
X66203714Y-115901000D02*
X66275142Y-115972428D01*
X66346571Y-116186714D01*
X66346571Y-116329571D01*
X66275142Y-116543857D01*
X66132285Y-116686714D01*
X65989428Y-116758142D01*
X65703714Y-116829571D01*
X65489428Y-116829571D01*
X65203714Y-116758142D01*
X65060857Y-116686714D01*
X64918000Y-116543857D01*
X64846571Y-116329571D01*
X64846571Y-116186714D01*
X64918000Y-115972428D01*
X64989428Y-115901000D01*
X66346571Y-114472428D02*
X66346571Y-115329571D01*
X66346571Y-114901000D02*
X64846571Y-114901000D01*
X65060857Y-115043857D01*
X65203714Y-115186714D01*
X65275142Y-115329571D01*
X64846571Y-113543857D02*
X64846571Y-113401000D01*
X64918000Y-113258142D01*
X64989428Y-113186714D01*
X65132285Y-113115285D01*
X65418000Y-113043857D01*
X65775142Y-113043857D01*
X66060857Y-113115285D01*
X66203714Y-113186714D01*
X66275142Y-113258142D01*
X66346571Y-113401000D01*
X66346571Y-113543857D01*
X66275142Y-113686714D01*
X66203714Y-113758142D01*
X66060857Y-113829571D01*
X65775142Y-113901000D01*
X65418000Y-113901000D01*
X65132285Y-113829571D01*
X64989428Y-113758142D01*
X64918000Y-113686714D01*
X64846571Y-113543857D01*
X64846571Y-112115285D02*
X64846571Y-111972428D01*
X64918000Y-111829571D01*
X64989428Y-111758142D01*
X65132285Y-111686714D01*
X65418000Y-111615285D01*
X65775142Y-111615285D01*
X66060857Y-111686714D01*
X66203714Y-111758142D01*
X66275142Y-111829571D01*
X66346571Y-111972428D01*
X66346571Y-112115285D01*
X66275142Y-112258142D01*
X66203714Y-112329571D01*
X66060857Y-112401000D01*
X65775142Y-112472428D01*
X65418000Y-112472428D01*
X65132285Y-112401000D01*
X64989428Y-112329571D01*
X64918000Y-112258142D01*
X64846571Y-112115285D01*
X64846571Y-110686714D02*
X64846571Y-110543857D01*
X64918000Y-110401000D01*
X64989428Y-110329571D01*
X65132285Y-110258142D01*
X65418000Y-110186714D01*
X65775142Y-110186714D01*
X66060857Y-110258142D01*
X66203714Y-110329571D01*
X66275142Y-110401000D01*
X66346571Y-110543857D01*
X66346571Y-110686714D01*
X66275142Y-110829571D01*
X66203714Y-110901000D01*
X66060857Y-110972428D01*
X65775142Y-111043857D01*
X65418000Y-111043857D01*
X65132285Y-110972428D01*
X64989428Y-110901000D01*
X64918000Y-110829571D01*
X64846571Y-110686714D01*
D14*
X110739000Y-137602000D02*
X110739000Y-133217000D01*
X107719000Y-137602000D02*
X110739000Y-137602000D01*
X107719000Y-133217000D02*
X107719000Y-137602000D01*
X104159000Y-85945000D02*
X104159000Y-89395000D01*
X104159000Y-85945000D02*
X104159000Y-83995000D01*
X113029000Y-85945000D02*
X113029000Y-87895000D01*
X113029000Y-85945000D02*
X113029000Y-83995000D01*
X98444000Y-94454000D02*
X98444000Y-97904000D01*
X98444000Y-94454000D02*
X98444000Y-92504000D01*
X107314000Y-94454000D02*
X107314000Y-96404000D01*
X107314000Y-94454000D02*
X107314000Y-92504000D01*
X97366000Y-94588252D02*
X97366000Y-94065748D01*
X95946000Y-94588252D02*
X95946000Y-94065748D01*
X67961000Y-55786000D02*
X67961000Y-73686000D01*
X119001000Y-55786000D02*
X67961000Y-55786000D01*
X119001000Y-73686000D02*
X119001000Y-55786000D01*
X67961000Y-73686000D02*
X119001000Y-73686000D01*
X68021000Y-58276000D02*
X68021000Y-63736000D01*
X118941000Y-58276000D02*
X68021000Y-58276000D01*
X118941000Y-71196000D02*
X118941000Y-58276000D01*
X68021000Y-71196000D02*
X118941000Y-71196000D01*
X68021000Y-65736000D02*
X68021000Y-71196000D01*
X68021000Y-63736000D02*
G75*
G02X68021000Y-65736000I0J-1000000D01*
G01*
X67961000Y-61120000D02*
X67961000Y-79020000D01*
X119001000Y-61120000D02*
X67961000Y-61120000D01*
X119001000Y-79020000D02*
X119001000Y-61120000D01*
X67961000Y-79020000D02*
X119001000Y-79020000D01*
X68021000Y-63610000D02*
X68021000Y-69070000D01*
X118941000Y-63610000D02*
X68021000Y-63610000D01*
X118941000Y-76530000D02*
X118941000Y-63610000D01*
X68021000Y-76530000D02*
X118941000Y-76530000D01*
X68021000Y-71070000D02*
X68021000Y-76530000D01*
X68021000Y-69070000D02*
G75*
G02X68021000Y-71070000I0J-1000000D01*
G01*
X111717000Y-113130252D02*
X111717000Y-112607748D01*
X110297000Y-113130252D02*
X110297000Y-112607748D01*
X110297000Y-117941748D02*
X110297000Y-118464252D01*
X111717000Y-117941748D02*
X111717000Y-118464252D01*
X83500000Y-115265748D02*
X83500000Y-115788252D01*
X84920000Y-115265748D02*
X84920000Y-115788252D01*
D12*
X61698000Y-90904000D02*
G75*
G03X61698000Y-90904000I-100000J0D01*
G01*
D15*
X75558000Y-88924000D02*
X75558000Y-82724000D01*
X61138000Y-88924000D02*
X61138000Y-82724000D01*
D14*
X71830000Y-99521000D02*
X71830000Y-94721000D01*
X61030000Y-99521000D02*
X61030000Y-94721000D01*
X61430000Y-99521000D02*
X61430000Y-100921000D01*
X61030000Y-99521000D02*
X61430000Y-99521000D01*
X88340000Y-99521000D02*
X88340000Y-94721000D01*
X77540000Y-99521000D02*
X77540000Y-94721000D01*
X77940000Y-99521000D02*
X77940000Y-100921000D01*
X77540000Y-99521000D02*
X77940000Y-99521000D01*
X58481000Y-96732748D02*
X58481000Y-97255252D01*
X59901000Y-96732748D02*
X59901000Y-97255252D01*
X121100000Y-99601000D02*
X121100000Y-100931000D01*
X119770000Y-99601000D02*
X121100000Y-99601000D01*
X118500000Y-99601000D02*
X118500000Y-102261000D01*
X118500000Y-102261000D02*
X95580000Y-102261000D01*
X118500000Y-99601000D02*
X95580000Y-99601000D01*
X95580000Y-99601000D02*
X95580000Y-102261000D01*
X105860000Y-128811000D02*
X105860000Y-130141000D01*
X104530000Y-128811000D02*
X105860000Y-128811000D01*
X103260000Y-128811000D02*
X103260000Y-131471000D01*
X103260000Y-131471000D02*
X80340000Y-131471000D01*
X103260000Y-128811000D02*
X80340000Y-128811000D01*
X80340000Y-128811000D02*
X80340000Y-131471000D01*
X111082000Y-94207252D02*
X111082000Y-93684748D01*
X109662000Y-94207252D02*
X109662000Y-93684748D01*
X126449000Y-94207252D02*
X126449000Y-93684748D01*
X125029000Y-94207252D02*
X125029000Y-93684748D01*
X118702000Y-94207252D02*
X118702000Y-93684748D01*
X117282000Y-94207252D02*
X117282000Y-93684748D01*
X114892000Y-94207252D02*
X114892000Y-93684748D01*
X113472000Y-94207252D02*
X113472000Y-93684748D01*
X122639000Y-94207252D02*
X122639000Y-93684748D01*
X121219000Y-94207252D02*
X121219000Y-93684748D01*
D12*
X83161000Y-91001000D02*
G75*
G03X83161000Y-91001000I-100000J0D01*
G01*
D15*
X97021000Y-89021000D02*
X97021000Y-82821000D01*
X82601000Y-89021000D02*
X82601000Y-82821000D01*
D14*
X118256000Y-85945000D02*
X118256000Y-89395000D01*
X118256000Y-85945000D02*
X118256000Y-83995000D01*
X127126000Y-85945000D02*
X127126000Y-87895000D01*
X127126000Y-85945000D02*
X127126000Y-83995000D01*
X99756000Y-135086748D02*
X99756000Y-135609252D01*
X101176000Y-135086748D02*
X101176000Y-135609252D01*
X77808000Y-85825252D02*
X77808000Y-85302748D01*
X76388000Y-85825252D02*
X76388000Y-85302748D01*
X60155000Y-86079252D02*
X60155000Y-85556748D01*
X58735000Y-86079252D02*
X58735000Y-85556748D01*
X74991000Y-96859748D02*
X74991000Y-97382252D01*
X76411000Y-96859748D02*
X76411000Y-97382252D01*
X90231000Y-67141748D02*
X90231000Y-67664252D01*
X91651000Y-67141748D02*
X91651000Y-67664252D01*
X94041000Y-67141748D02*
X94041000Y-67664252D01*
X95461000Y-67141748D02*
X95461000Y-67664252D01*
X99271000Y-86333252D02*
X99271000Y-85810748D01*
X97851000Y-86333252D02*
X97851000Y-85810748D01*
X102827000Y-85825252D02*
X102827000Y-85302748D01*
X101407000Y-85825252D02*
X101407000Y-85302748D01*
X116924000Y-85952252D02*
X116924000Y-85429748D01*
X115504000Y-85952252D02*
X115504000Y-85429748D01*
X81618000Y-86206252D02*
X81618000Y-85683748D01*
X80198000Y-86206252D02*
X80198000Y-85683748D01*
X104986000Y-135609252D02*
X104986000Y-135086748D01*
X103566000Y-135609252D02*
X103566000Y-135086748D01*
X115146000Y-135609252D02*
X115146000Y-135086748D01*
X113726000Y-135609252D02*
X113726000Y-135086748D01*
X118956000Y-135609252D02*
X118956000Y-135086748D01*
X117536000Y-135609252D02*
X117536000Y-135086748D01*
X115908000Y-113130252D02*
X115908000Y-112607748D01*
X114488000Y-113130252D02*
X114488000Y-112607748D01*
X107653000Y-113248252D02*
X107653000Y-112725748D01*
X106233000Y-113248252D02*
X106233000Y-112725748D01*
X103589000Y-113257252D02*
X103589000Y-112734748D01*
X102169000Y-113257252D02*
X102169000Y-112734748D01*
X99525000Y-113130252D02*
X99525000Y-112607748D01*
X98105000Y-113130252D02*
X98105000Y-112607748D01*
X95461000Y-113003252D02*
X95461000Y-112480748D01*
X94041000Y-113003252D02*
X94041000Y-112480748D01*
X114488000Y-117941748D02*
X114488000Y-118464252D01*
X115908000Y-117941748D02*
X115908000Y-118464252D01*
X106360000Y-117941748D02*
X106360000Y-118464252D01*
X107780000Y-117941748D02*
X107780000Y-118464252D01*
X102042000Y-117941748D02*
X102042000Y-118464252D01*
X103462000Y-117941748D02*
X103462000Y-118464252D01*
X98105000Y-117941748D02*
X98105000Y-118464252D01*
X99525000Y-117941748D02*
X99525000Y-118464252D01*
X94041000Y-117941748D02*
X94041000Y-118464252D01*
X95461000Y-117941748D02*
X95461000Y-118464252D01*
X124148000Y-123089000D02*
X122818000Y-123089000D01*
X124148000Y-121759000D02*
X124148000Y-123089000D01*
X121548000Y-123089000D02*
X118948000Y-123089000D01*
X121548000Y-120489000D02*
X121548000Y-123089000D01*
X124148000Y-120489000D02*
X121548000Y-120489000D01*
X118948000Y-123089000D02*
X118948000Y-107729000D01*
X124148000Y-120489000D02*
X124148000Y-107729000D01*
X124148000Y-107729000D02*
X118948000Y-107729000D01*
X82880000Y-106325000D02*
X82880000Y-104995000D01*
X84210000Y-106325000D02*
X82880000Y-106325000D01*
X85480000Y-106325000D02*
X85480000Y-103665000D01*
X85480000Y-103665000D02*
X118560000Y-103665000D01*
X85480000Y-106325000D02*
X118560000Y-106325000D01*
X118560000Y-106325000D02*
X118560000Y-103665000D01*
X82880000Y-108865000D02*
X82880000Y-107535000D01*
X84210000Y-108865000D02*
X82880000Y-108865000D01*
X85480000Y-108865000D02*
X85480000Y-106205000D01*
X85480000Y-106205000D02*
X98240000Y-106205000D01*
X85480000Y-108865000D02*
X98240000Y-108865000D01*
X98240000Y-108865000D02*
X98240000Y-106205000D01*
X82880000Y-124613000D02*
X82880000Y-123283000D01*
X84210000Y-124613000D02*
X82880000Y-124613000D01*
X85480000Y-124613000D02*
X85480000Y-121953000D01*
X85480000Y-121953000D02*
X90620000Y-121953000D01*
X85480000Y-124613000D02*
X90620000Y-124613000D01*
X90620000Y-124613000D02*
X90620000Y-121953000D01*
X82880000Y-127153000D02*
X82880000Y-125823000D01*
X84210000Y-127153000D02*
X82880000Y-127153000D01*
X85480000Y-127153000D02*
X85480000Y-124493000D01*
X85480000Y-124493000D02*
X118560000Y-124493000D01*
X85480000Y-127153000D02*
X118560000Y-127153000D01*
X118560000Y-127153000D02*
X118560000Y-124493000D01*
X100279000Y-141250000D02*
X100279000Y-139920000D01*
X101609000Y-141250000D02*
X100279000Y-141250000D01*
X102879000Y-141250000D02*
X102879000Y-138590000D01*
X102879000Y-138590000D02*
X115639000Y-138590000D01*
X102879000Y-141250000D02*
X115639000Y-141250000D01*
X115639000Y-141250000D02*
X115639000Y-138590000D01*
X83134000Y-141377000D02*
X83134000Y-140047000D01*
X84464000Y-141377000D02*
X83134000Y-141377000D01*
X85734000Y-141377000D02*
X85734000Y-138717000D01*
X85734000Y-138717000D02*
X90874000Y-138717000D01*
X85734000Y-141377000D02*
X90874000Y-141377000D01*
X90874000Y-141377000D02*
X90874000Y-138717000D01*
X66624000Y-141377000D02*
X66624000Y-140047000D01*
X67954000Y-141377000D02*
X66624000Y-141377000D01*
X69224000Y-141377000D02*
X69224000Y-138717000D01*
X69224000Y-138717000D02*
X74364000Y-138717000D01*
X69224000Y-141377000D02*
X74364000Y-141377000D01*
X74364000Y-141377000D02*
X74364000Y-138717000D01*
D11*
X112126142Y-135954357D02*
X112173761Y-136001976D01*
X112221380Y-136144833D01*
X112221380Y-136240071D01*
X112173761Y-136382928D01*
X112078523Y-136478166D01*
X111983285Y-136525785D01*
X111792809Y-136573404D01*
X111649952Y-136573404D01*
X111459476Y-136525785D01*
X111364238Y-136478166D01*
X111269000Y-136382928D01*
X111221380Y-136240071D01*
X111221380Y-136144833D01*
X111269000Y-136001976D01*
X111316619Y-135954357D01*
X112221380Y-135001976D02*
X112221380Y-135573404D01*
X112221380Y-135287690D02*
X111221380Y-135287690D01*
X111364238Y-135382928D01*
X111459476Y-135478166D01*
X111507095Y-135573404D01*
X111316619Y-134621023D02*
X111269000Y-134573404D01*
X111221380Y-134478166D01*
X111221380Y-134240071D01*
X111269000Y-134144833D01*
X111316619Y-134097214D01*
X111411857Y-134049595D01*
X111507095Y-134049595D01*
X111649952Y-134097214D01*
X112221380Y-134668642D01*
X112221380Y-134049595D01*
X113507380Y-86706904D02*
X114316904Y-86706904D01*
X114412142Y-86659285D01*
X114459761Y-86611666D01*
X114507380Y-86516428D01*
X114507380Y-86325952D01*
X114459761Y-86230714D01*
X114412142Y-86183095D01*
X114316904Y-86135476D01*
X113507380Y-86135476D01*
X113602619Y-85706904D02*
X113555000Y-85659285D01*
X113507380Y-85564047D01*
X113507380Y-85325952D01*
X113555000Y-85230714D01*
X113602619Y-85183095D01*
X113697857Y-85135476D01*
X113793095Y-85135476D01*
X113935952Y-85183095D01*
X114507380Y-85754523D01*
X114507380Y-85135476D01*
X107665380Y-95215904D02*
X108474904Y-95215904D01*
X108570142Y-95168285D01*
X108617761Y-95120666D01*
X108665380Y-95025428D01*
X108665380Y-94834952D01*
X108617761Y-94739714D01*
X108570142Y-94692095D01*
X108474904Y-94644476D01*
X107665380Y-94644476D01*
X108665380Y-93644476D02*
X108665380Y-94215904D01*
X108665380Y-93930190D02*
X107665380Y-93930190D01*
X107808238Y-94025428D01*
X107903476Y-94120666D01*
X107951095Y-94215904D01*
X95363142Y-94493666D02*
X95410761Y-94541285D01*
X95458380Y-94684142D01*
X95458380Y-94779380D01*
X95410761Y-94922238D01*
X95315523Y-95017476D01*
X95220285Y-95065095D01*
X95029809Y-95112714D01*
X94886952Y-95112714D01*
X94696476Y-95065095D01*
X94601238Y-95017476D01*
X94506000Y-94922238D01*
X94458380Y-94779380D01*
X94458380Y-94684142D01*
X94506000Y-94541285D01*
X94553619Y-94493666D01*
X95458380Y-93541285D02*
X95458380Y-94112714D01*
X95458380Y-93827000D02*
X94458380Y-93827000D01*
X94601238Y-93922238D01*
X94696476Y-94017476D01*
X94744095Y-94112714D01*
X120619380Y-62830904D02*
X121428904Y-62830904D01*
X121524142Y-62783285D01*
X121571761Y-62735666D01*
X121619380Y-62640428D01*
X121619380Y-62449952D01*
X121571761Y-62354714D01*
X121524142Y-62307095D01*
X121428904Y-62259476D01*
X120619380Y-62259476D01*
X120952714Y-61354714D02*
X121619380Y-61354714D01*
X120571761Y-61592809D02*
X121286047Y-61830904D01*
X121286047Y-61211857D01*
X64993380Y-64370523D02*
X64993380Y-63703857D01*
X65993380Y-64370523D01*
X65993380Y-63703857D01*
X65421952Y-63180047D02*
X65374333Y-63275285D01*
X65326714Y-63322904D01*
X65231476Y-63370523D01*
X65183857Y-63370523D01*
X65088619Y-63322904D01*
X65041000Y-63275285D01*
X64993380Y-63180047D01*
X64993380Y-62989571D01*
X65041000Y-62894333D01*
X65088619Y-62846714D01*
X65183857Y-62799095D01*
X65231476Y-62799095D01*
X65326714Y-62846714D01*
X65374333Y-62894333D01*
X65421952Y-62989571D01*
X65421952Y-63180047D01*
X65469571Y-63275285D01*
X65517190Y-63322904D01*
X65612428Y-63370523D01*
X65802904Y-63370523D01*
X65898142Y-63322904D01*
X65945761Y-63275285D01*
X65993380Y-63180047D01*
X65993380Y-62989571D01*
X65945761Y-62894333D01*
X65898142Y-62846714D01*
X65802904Y-62799095D01*
X65612428Y-62799095D01*
X65517190Y-62846714D01*
X65469571Y-62894333D01*
X65421952Y-62989571D01*
X64993380Y-62180047D02*
X64993380Y-62084809D01*
X65041000Y-61989571D01*
X65088619Y-61941952D01*
X65183857Y-61894333D01*
X65374333Y-61846714D01*
X65612428Y-61846714D01*
X65802904Y-61894333D01*
X65898142Y-61941952D01*
X65945761Y-61989571D01*
X65993380Y-62084809D01*
X65993380Y-62180047D01*
X65945761Y-62275285D01*
X65898142Y-62322904D01*
X65802904Y-62370523D01*
X65612428Y-62418142D01*
X65374333Y-62418142D01*
X65183857Y-62370523D01*
X65088619Y-62322904D01*
X65041000Y-62275285D01*
X64993380Y-62180047D01*
X65898142Y-60846714D02*
X65945761Y-60894333D01*
X65993380Y-61037190D01*
X65993380Y-61132428D01*
X65945761Y-61275285D01*
X65850523Y-61370523D01*
X65755285Y-61418142D01*
X65564809Y-61465761D01*
X65421952Y-61465761D01*
X65231476Y-61418142D01*
X65136238Y-61370523D01*
X65041000Y-61275285D01*
X64993380Y-61132428D01*
X64993380Y-61037190D01*
X65041000Y-60894333D01*
X65088619Y-60846714D01*
X65993380Y-60418142D02*
X64993380Y-60418142D01*
X64993380Y-60037190D01*
X65041000Y-59941952D01*
X65088619Y-59894333D01*
X65183857Y-59846714D01*
X65326714Y-59846714D01*
X65421952Y-59894333D01*
X65469571Y-59941952D01*
X65517190Y-60037190D01*
X65517190Y-60418142D01*
X64993380Y-59418142D02*
X65802904Y-59418142D01*
X65898142Y-59370523D01*
X65945761Y-59322904D01*
X65993380Y-59227666D01*
X65993380Y-59037190D01*
X65945761Y-58941952D01*
X65898142Y-58894333D01*
X65802904Y-58846714D01*
X64993380Y-58846714D01*
X120619380Y-73752904D02*
X121428904Y-73752904D01*
X121524142Y-73705285D01*
X121571761Y-73657666D01*
X121619380Y-73562428D01*
X121619380Y-73371952D01*
X121571761Y-73276714D01*
X121524142Y-73229095D01*
X121428904Y-73181476D01*
X120619380Y-73181476D01*
X120619380Y-72800523D02*
X120619380Y-72133857D01*
X121619380Y-72562428D01*
X65469571Y-75713190D02*
X65469571Y-75379857D01*
X65993380Y-75237000D02*
X65993380Y-75713190D01*
X64993380Y-75713190D01*
X64993380Y-75237000D01*
X65993380Y-74903666D02*
X65326714Y-74379857D01*
X65326714Y-74903666D02*
X65993380Y-74379857D01*
X65326714Y-74141761D02*
X65326714Y-73760809D01*
X64993380Y-73998904D02*
X65850523Y-73998904D01*
X65945761Y-73951285D01*
X65993380Y-73856047D01*
X65993380Y-73760809D01*
X65945761Y-73046523D02*
X65993380Y-73141761D01*
X65993380Y-73332238D01*
X65945761Y-73427476D01*
X65850523Y-73475095D01*
X65469571Y-73475095D01*
X65374333Y-73427476D01*
X65326714Y-73332238D01*
X65326714Y-73141761D01*
X65374333Y-73046523D01*
X65469571Y-72998904D01*
X65564809Y-72998904D01*
X65660047Y-73475095D01*
X65326714Y-72570333D02*
X65993380Y-72570333D01*
X65421952Y-72570333D02*
X65374333Y-72522714D01*
X65326714Y-72427476D01*
X65326714Y-72284619D01*
X65374333Y-72189380D01*
X65469571Y-72141761D01*
X65993380Y-72141761D01*
X65993380Y-71237000D02*
X64993380Y-71237000D01*
X65945761Y-71237000D02*
X65993380Y-71332238D01*
X65993380Y-71522714D01*
X65945761Y-71617952D01*
X65898142Y-71665571D01*
X65802904Y-71713190D01*
X65517190Y-71713190D01*
X65421952Y-71665571D01*
X65374333Y-71617952D01*
X65326714Y-71522714D01*
X65326714Y-71332238D01*
X65374333Y-71237000D01*
X65945761Y-70379857D02*
X65993380Y-70475095D01*
X65993380Y-70665571D01*
X65945761Y-70760809D01*
X65850523Y-70808428D01*
X65469571Y-70808428D01*
X65374333Y-70760809D01*
X65326714Y-70665571D01*
X65326714Y-70475095D01*
X65374333Y-70379857D01*
X65469571Y-70332238D01*
X65564809Y-70332238D01*
X65660047Y-70808428D01*
X65993380Y-69903666D02*
X65326714Y-69903666D01*
X65517190Y-69903666D02*
X65421952Y-69856047D01*
X65374333Y-69808428D01*
X65326714Y-69713190D01*
X65326714Y-69617952D01*
X113364380Y-113638857D02*
X112888190Y-113972190D01*
X113364380Y-114210285D02*
X112364380Y-114210285D01*
X112364380Y-113829333D01*
X112412000Y-113734095D01*
X112459619Y-113686476D01*
X112554857Y-113638857D01*
X112697714Y-113638857D01*
X112792952Y-113686476D01*
X112840571Y-113734095D01*
X112888190Y-113829333D01*
X112888190Y-114210285D01*
X113364380Y-112686476D02*
X113364380Y-113257904D01*
X113364380Y-112972190D02*
X112364380Y-112972190D01*
X112507238Y-113067428D01*
X112602476Y-113162666D01*
X112650095Y-113257904D01*
X112364380Y-112353142D02*
X112364380Y-111686476D01*
X113364380Y-112115047D01*
X113364380Y-118845857D02*
X112888190Y-119179190D01*
X113364380Y-119417285D02*
X112364380Y-119417285D01*
X112364380Y-119036333D01*
X112412000Y-118941095D01*
X112459619Y-118893476D01*
X112554857Y-118845857D01*
X112697714Y-118845857D01*
X112792952Y-118893476D01*
X112840571Y-118941095D01*
X112888190Y-119036333D01*
X112888190Y-119417285D01*
X113364380Y-117893476D02*
X113364380Y-118464904D01*
X113364380Y-118179190D02*
X112364380Y-118179190D01*
X112507238Y-118274428D01*
X112602476Y-118369666D01*
X112650095Y-118464904D01*
X113364380Y-116941095D02*
X113364380Y-117512523D01*
X113364380Y-117226809D02*
X112364380Y-117226809D01*
X112507238Y-117322047D01*
X112602476Y-117417285D01*
X112650095Y-117512523D01*
X86694380Y-115693666D02*
X86218190Y-116027000D01*
X86694380Y-116265095D02*
X85694380Y-116265095D01*
X85694380Y-115884142D01*
X85742000Y-115788904D01*
X85789619Y-115741285D01*
X85884857Y-115693666D01*
X86027714Y-115693666D01*
X86122952Y-115741285D01*
X86170571Y-115788904D01*
X86218190Y-115884142D01*
X86218190Y-116265095D01*
X85694380Y-114836523D02*
X85694380Y-115027000D01*
X85742000Y-115122238D01*
X85789619Y-115169857D01*
X85932476Y-115265095D01*
X86122952Y-115312714D01*
X86503904Y-115312714D01*
X86599142Y-115265095D01*
X86646761Y-115217476D01*
X86694380Y-115122238D01*
X86694380Y-114931761D01*
X86646761Y-114836523D01*
X86599142Y-114788904D01*
X86503904Y-114741285D01*
X86265809Y-114741285D01*
X86170571Y-114788904D01*
X86122952Y-114836523D01*
X86075333Y-114931761D01*
X86075333Y-115122238D01*
X86122952Y-115217476D01*
X86170571Y-115265095D01*
X86265809Y-115312714D01*
X76677380Y-83023904D02*
X77486904Y-83023904D01*
X77582142Y-82976285D01*
X77629761Y-82928666D01*
X77677380Y-82833428D01*
X77677380Y-82642952D01*
X77629761Y-82547714D01*
X77582142Y-82500095D01*
X77486904Y-82452476D01*
X76677380Y-82452476D01*
X76677380Y-81500095D02*
X76677380Y-81976285D01*
X77153571Y-82023904D01*
X77105952Y-81976285D01*
X77058333Y-81881047D01*
X77058333Y-81642952D01*
X77105952Y-81547714D01*
X77153571Y-81500095D01*
X77248809Y-81452476D01*
X77486904Y-81452476D01*
X77582142Y-81500095D01*
X77629761Y-81547714D01*
X77677380Y-81642952D01*
X77677380Y-81881047D01*
X77629761Y-81976285D01*
X77582142Y-82023904D01*
D16*
X63319142Y-86048142D02*
X63271523Y-86095761D01*
X63128666Y-86143380D01*
X63033428Y-86143380D01*
X62890571Y-86095761D01*
X62795333Y-86000523D01*
X62747714Y-85905285D01*
X62700095Y-85714809D01*
X62700095Y-85571952D01*
X62747714Y-85381476D01*
X62795333Y-85286238D01*
X62890571Y-85191000D01*
X63033428Y-85143380D01*
X63128666Y-85143380D01*
X63271523Y-85191000D01*
X63319142Y-85238619D01*
X63938190Y-85667190D02*
X63938190Y-86143380D01*
X63604857Y-85143380D02*
X63938190Y-85667190D01*
X64271523Y-85143380D01*
X64509619Y-85143380D02*
X65176285Y-85143380D01*
X64747714Y-86143380D01*
X65985809Y-85476714D02*
X65985809Y-86143380D01*
X65747714Y-85095761D02*
X65509619Y-85810047D01*
X66128666Y-85810047D01*
X66842952Y-85619571D02*
X66509619Y-85619571D01*
X66509619Y-86143380D02*
X66509619Y-85143380D01*
X66985809Y-85143380D01*
X67938190Y-86048142D02*
X67890571Y-86095761D01*
X67747714Y-86143380D01*
X67652476Y-86143380D01*
X67509619Y-86095761D01*
X67414380Y-86000523D01*
X67366761Y-85905285D01*
X67319142Y-85714809D01*
X67319142Y-85571952D01*
X67366761Y-85381476D01*
X67414380Y-85286238D01*
X67509619Y-85191000D01*
X67652476Y-85143380D01*
X67747714Y-85143380D01*
X67890571Y-85191000D01*
X67938190Y-85238619D01*
X68223904Y-85143380D02*
X68795333Y-85143380D01*
X68509619Y-86143380D02*
X68509619Y-85143380D01*
X69652476Y-86143380D02*
X69081047Y-86143380D01*
X69366761Y-86143380D02*
X69366761Y-85143380D01*
X69271523Y-85286238D01*
X69176285Y-85381476D01*
X69081047Y-85429095D01*
X70509619Y-85143380D02*
X70319142Y-85143380D01*
X70223904Y-85191000D01*
X70176285Y-85238619D01*
X70081047Y-85381476D01*
X70033428Y-85571952D01*
X70033428Y-85952904D01*
X70081047Y-86048142D01*
X70128666Y-86095761D01*
X70223904Y-86143380D01*
X70414380Y-86143380D01*
X70509619Y-86095761D01*
X70557238Y-86048142D01*
X70604857Y-85952904D01*
X70604857Y-85714809D01*
X70557238Y-85619571D01*
X70509619Y-85571952D01*
X70414380Y-85524333D01*
X70223904Y-85524333D01*
X70128666Y-85571952D01*
X70081047Y-85619571D01*
X70033428Y-85714809D01*
X71509619Y-85143380D02*
X71033428Y-85143380D01*
X70985809Y-85619571D01*
X71033428Y-85571952D01*
X71128666Y-85524333D01*
X71366761Y-85524333D01*
X71462000Y-85571952D01*
X71509619Y-85619571D01*
X71557238Y-85714809D01*
X71557238Y-85952904D01*
X71509619Y-86048142D01*
X71462000Y-86095761D01*
X71366761Y-86143380D01*
X71128666Y-86143380D01*
X71033428Y-86095761D01*
X70985809Y-86048142D01*
X72414380Y-85476714D02*
X72414380Y-86143380D01*
X72176285Y-85095761D02*
X71938190Y-85810047D01*
X72557238Y-85810047D01*
X72842952Y-85143380D02*
X73462000Y-85143380D01*
X73128666Y-85524333D01*
X73271523Y-85524333D01*
X73366761Y-85571952D01*
X73414380Y-85619571D01*
X73462000Y-85714809D01*
X73462000Y-85952904D01*
X73414380Y-86048142D01*
X73366761Y-86095761D01*
X73271523Y-86143380D01*
X72985809Y-86143380D01*
X72890571Y-86095761D01*
X72842952Y-86048142D01*
X73747714Y-85143380D02*
X74319142Y-85143380D01*
X74033428Y-86143380D02*
X74033428Y-85143380D01*
D11*
X72359380Y-97755904D02*
X73168904Y-97755904D01*
X73264142Y-97708285D01*
X73311761Y-97660666D01*
X73359380Y-97565428D01*
X73359380Y-97374952D01*
X73311761Y-97279714D01*
X73264142Y-97232095D01*
X73168904Y-97184476D01*
X72359380Y-97184476D01*
X72787952Y-96565428D02*
X72740333Y-96660666D01*
X72692714Y-96708285D01*
X72597476Y-96755904D01*
X72549857Y-96755904D01*
X72454619Y-96708285D01*
X72407000Y-96660666D01*
X72359380Y-96565428D01*
X72359380Y-96374952D01*
X72407000Y-96279714D01*
X72454619Y-96232095D01*
X72549857Y-96184476D01*
X72597476Y-96184476D01*
X72692714Y-96232095D01*
X72740333Y-96279714D01*
X72787952Y-96374952D01*
X72787952Y-96565428D01*
X72835571Y-96660666D01*
X72883190Y-96708285D01*
X72978428Y-96755904D01*
X73168904Y-96755904D01*
X73264142Y-96708285D01*
X73311761Y-96660666D01*
X73359380Y-96565428D01*
X73359380Y-96374952D01*
X73311761Y-96279714D01*
X73264142Y-96232095D01*
X73168904Y-96184476D01*
X72978428Y-96184476D01*
X72883190Y-96232095D01*
X72835571Y-96279714D01*
X72787952Y-96374952D01*
X89250380Y-97882904D02*
X90059904Y-97882904D01*
X90155142Y-97835285D01*
X90202761Y-97787666D01*
X90250380Y-97692428D01*
X90250380Y-97501952D01*
X90202761Y-97406714D01*
X90155142Y-97359095D01*
X90059904Y-97311476D01*
X89250380Y-97311476D01*
X89250380Y-96406714D02*
X89250380Y-96597190D01*
X89298000Y-96692428D01*
X89345619Y-96740047D01*
X89488476Y-96835285D01*
X89678952Y-96882904D01*
X90059904Y-96882904D01*
X90155142Y-96835285D01*
X90202761Y-96787666D01*
X90250380Y-96692428D01*
X90250380Y-96501952D01*
X90202761Y-96406714D01*
X90155142Y-96359095D01*
X90059904Y-96311476D01*
X89821809Y-96311476D01*
X89726571Y-96359095D01*
X89678952Y-96406714D01*
X89631333Y-96501952D01*
X89631333Y-96692428D01*
X89678952Y-96787666D01*
X89726571Y-96835285D01*
X89821809Y-96882904D01*
X59548142Y-101192857D02*
X59595761Y-101240476D01*
X59643380Y-101383333D01*
X59643380Y-101478571D01*
X59595761Y-101621428D01*
X59500523Y-101716666D01*
X59405285Y-101764285D01*
X59214809Y-101811904D01*
X59071952Y-101811904D01*
X58881476Y-101764285D01*
X58786238Y-101716666D01*
X58691000Y-101621428D01*
X58643380Y-101478571D01*
X58643380Y-101383333D01*
X58691000Y-101240476D01*
X58738619Y-101192857D01*
X59643380Y-100240476D02*
X59643380Y-100811904D01*
X59643380Y-100526190D02*
X58643380Y-100526190D01*
X58786238Y-100621428D01*
X58881476Y-100716666D01*
X58929095Y-100811904D01*
X59643380Y-99288095D02*
X59643380Y-99859523D01*
X59643380Y-99573809D02*
X58643380Y-99573809D01*
X58786238Y-99669047D01*
X58881476Y-99764285D01*
X58929095Y-99859523D01*
X122270380Y-101264333D02*
X122984666Y-101264333D01*
X123127523Y-101311952D01*
X123222761Y-101407190D01*
X123270380Y-101550047D01*
X123270380Y-101645285D01*
X122270380Y-100359571D02*
X122270380Y-100550047D01*
X122318000Y-100645285D01*
X122365619Y-100692904D01*
X122508476Y-100788142D01*
X122698952Y-100835761D01*
X123079904Y-100835761D01*
X123175142Y-100788142D01*
X123222761Y-100740523D01*
X123270380Y-100645285D01*
X123270380Y-100454809D01*
X123222761Y-100359571D01*
X123175142Y-100311952D01*
X123079904Y-100264333D01*
X122841809Y-100264333D01*
X122746571Y-100311952D01*
X122698952Y-100359571D01*
X122651333Y-100454809D01*
X122651333Y-100645285D01*
X122698952Y-100740523D01*
X122746571Y-100788142D01*
X122841809Y-100835761D01*
X112642666Y-97843380D02*
X113214095Y-97843380D01*
X112928380Y-98843380D02*
X112928380Y-97843380D01*
X113928380Y-98795761D02*
X113833142Y-98843380D01*
X113642666Y-98843380D01*
X113547428Y-98795761D01*
X113499809Y-98700523D01*
X113499809Y-98319571D01*
X113547428Y-98224333D01*
X113642666Y-98176714D01*
X113833142Y-98176714D01*
X113928380Y-98224333D01*
X113976000Y-98319571D01*
X113976000Y-98414809D01*
X113499809Y-98510047D01*
X114356952Y-98795761D02*
X114452190Y-98843380D01*
X114642666Y-98843380D01*
X114737904Y-98795761D01*
X114785523Y-98700523D01*
X114785523Y-98652904D01*
X114737904Y-98557666D01*
X114642666Y-98510047D01*
X114499809Y-98510047D01*
X114404571Y-98462428D01*
X114356952Y-98367190D01*
X114356952Y-98319571D01*
X114404571Y-98224333D01*
X114499809Y-98176714D01*
X114642666Y-98176714D01*
X114737904Y-98224333D01*
X115071238Y-98176714D02*
X115452190Y-98176714D01*
X115214095Y-97843380D02*
X115214095Y-98700523D01*
X115261714Y-98795761D01*
X115356952Y-98843380D01*
X115452190Y-98843380D01*
X116547428Y-98843380D02*
X116547428Y-97843380D01*
X116785523Y-97843380D01*
X116928380Y-97891000D01*
X117023619Y-97986238D01*
X117071238Y-98081476D01*
X117118857Y-98271952D01*
X117118857Y-98414809D01*
X117071238Y-98605285D01*
X117023619Y-98700523D01*
X116928380Y-98795761D01*
X116785523Y-98843380D01*
X116547428Y-98843380D01*
X117690285Y-98271952D02*
X117595047Y-98224333D01*
X117547428Y-98176714D01*
X117499809Y-98081476D01*
X117499809Y-98033857D01*
X117547428Y-97938619D01*
X117595047Y-97891000D01*
X117690285Y-97843380D01*
X117880761Y-97843380D01*
X117976000Y-97891000D01*
X118023619Y-97938619D01*
X118071238Y-98033857D01*
X118071238Y-98081476D01*
X118023619Y-98176714D01*
X117976000Y-98224333D01*
X117880761Y-98271952D01*
X117690285Y-98271952D01*
X117595047Y-98319571D01*
X117547428Y-98367190D01*
X117499809Y-98462428D01*
X117499809Y-98652904D01*
X117547428Y-98748142D01*
X117595047Y-98795761D01*
X117690285Y-98843380D01*
X117880761Y-98843380D01*
X117976000Y-98795761D01*
X118023619Y-98748142D01*
X118071238Y-98652904D01*
X118071238Y-98462428D01*
X118023619Y-98367190D01*
X117976000Y-98319571D01*
X117880761Y-98271952D01*
X118499809Y-98462428D02*
X119261714Y-98462428D01*
X120261714Y-98843380D02*
X119690285Y-98843380D01*
X119976000Y-98843380D02*
X119976000Y-97843380D01*
X119880761Y-97986238D01*
X119785523Y-98081476D01*
X119690285Y-98129095D01*
X121166476Y-97843380D02*
X120690285Y-97843380D01*
X120642666Y-98319571D01*
X120690285Y-98271952D01*
X120785523Y-98224333D01*
X121023619Y-98224333D01*
X121118857Y-98271952D01*
X121166476Y-98319571D01*
X121214095Y-98414809D01*
X121214095Y-98652904D01*
X121166476Y-98748142D01*
X121118857Y-98795761D01*
X121023619Y-98843380D01*
X120785523Y-98843380D01*
X120690285Y-98795761D01*
X120642666Y-98748142D01*
X106903380Y-130347333D02*
X107617666Y-130347333D01*
X107760523Y-130394952D01*
X107855761Y-130490190D01*
X107903380Y-130633047D01*
X107903380Y-130728285D01*
X107903380Y-129347333D02*
X107903380Y-129918761D01*
X107903380Y-129633047D02*
X106903380Y-129633047D01*
X107046238Y-129728285D01*
X107141476Y-129823523D01*
X107189095Y-129918761D01*
X88099857Y-132260380D02*
X88671285Y-132260380D01*
X88385571Y-133260380D02*
X88385571Y-132260380D01*
X89385571Y-133212761D02*
X89290333Y-133260380D01*
X89099857Y-133260380D01*
X89004619Y-133212761D01*
X88957000Y-133117523D01*
X88957000Y-132736571D01*
X89004619Y-132641333D01*
X89099857Y-132593714D01*
X89290333Y-132593714D01*
X89385571Y-132641333D01*
X89433190Y-132736571D01*
X89433190Y-132831809D01*
X88957000Y-132927047D01*
X89814142Y-133212761D02*
X89909380Y-133260380D01*
X90099857Y-133260380D01*
X90195095Y-133212761D01*
X90242714Y-133117523D01*
X90242714Y-133069904D01*
X90195095Y-132974666D01*
X90099857Y-132927047D01*
X89957000Y-132927047D01*
X89861761Y-132879428D01*
X89814142Y-132784190D01*
X89814142Y-132736571D01*
X89861761Y-132641333D01*
X89957000Y-132593714D01*
X90099857Y-132593714D01*
X90195095Y-132641333D01*
X90528428Y-132593714D02*
X90909380Y-132593714D01*
X90671285Y-132260380D02*
X90671285Y-133117523D01*
X90718904Y-133212761D01*
X90814142Y-133260380D01*
X90909380Y-133260380D01*
X92004619Y-133260380D02*
X92004619Y-132260380D01*
X92242714Y-132260380D01*
X92385571Y-132308000D01*
X92480809Y-132403238D01*
X92528428Y-132498476D01*
X92576047Y-132688952D01*
X92576047Y-132831809D01*
X92528428Y-133022285D01*
X92480809Y-133117523D01*
X92385571Y-133212761D01*
X92242714Y-133260380D01*
X92004619Y-133260380D01*
X93195095Y-132260380D02*
X93290333Y-132260380D01*
X93385571Y-132308000D01*
X93433190Y-132355619D01*
X93480809Y-132450857D01*
X93528428Y-132641333D01*
X93528428Y-132879428D01*
X93480809Y-133069904D01*
X93433190Y-133165142D01*
X93385571Y-133212761D01*
X93290333Y-133260380D01*
X93195095Y-133260380D01*
X93099857Y-133212761D01*
X93052238Y-133165142D01*
X93004619Y-133069904D01*
X92957000Y-132879428D01*
X92957000Y-132641333D01*
X93004619Y-132450857D01*
X93052238Y-132355619D01*
X93099857Y-132308000D01*
X93195095Y-132260380D01*
X93957000Y-132879428D02*
X94718904Y-132879428D01*
X95099857Y-132260380D02*
X95766523Y-132260380D01*
X95337952Y-133260380D01*
X112729380Y-94112666D02*
X112253190Y-94446000D01*
X112729380Y-94684095D02*
X111729380Y-94684095D01*
X111729380Y-94303142D01*
X111777000Y-94207904D01*
X111824619Y-94160285D01*
X111919857Y-94112666D01*
X112062714Y-94112666D01*
X112157952Y-94160285D01*
X112205571Y-94207904D01*
X112253190Y-94303142D01*
X112253190Y-94684095D01*
X112729380Y-93160285D02*
X112729380Y-93731714D01*
X112729380Y-93446000D02*
X111729380Y-93446000D01*
X111872238Y-93541238D01*
X111967476Y-93636476D01*
X112015095Y-93731714D01*
X128096380Y-94239666D02*
X127620190Y-94573000D01*
X128096380Y-94811095D02*
X127096380Y-94811095D01*
X127096380Y-94430142D01*
X127144000Y-94334904D01*
X127191619Y-94287285D01*
X127286857Y-94239666D01*
X127429714Y-94239666D01*
X127524952Y-94287285D01*
X127572571Y-94334904D01*
X127620190Y-94430142D01*
X127620190Y-94811095D01*
X127096380Y-93334904D02*
X127096380Y-93811095D01*
X127572571Y-93858714D01*
X127524952Y-93811095D01*
X127477333Y-93715857D01*
X127477333Y-93477761D01*
X127524952Y-93382523D01*
X127572571Y-93334904D01*
X127667809Y-93287285D01*
X127905904Y-93287285D01*
X128001142Y-93334904D01*
X128048761Y-93382523D01*
X128096380Y-93477761D01*
X128096380Y-93715857D01*
X128048761Y-93811095D01*
X128001142Y-93858714D01*
X120476380Y-94112666D02*
X120000190Y-94446000D01*
X120476380Y-94684095D02*
X119476380Y-94684095D01*
X119476380Y-94303142D01*
X119524000Y-94207904D01*
X119571619Y-94160285D01*
X119666857Y-94112666D01*
X119809714Y-94112666D01*
X119904952Y-94160285D01*
X119952571Y-94207904D01*
X120000190Y-94303142D01*
X120000190Y-94684095D01*
X119809714Y-93255523D02*
X120476380Y-93255523D01*
X119428761Y-93493619D02*
X120143047Y-93731714D01*
X120143047Y-93112666D01*
X116539380Y-94112666D02*
X116063190Y-94446000D01*
X116539380Y-94684095D02*
X115539380Y-94684095D01*
X115539380Y-94303142D01*
X115587000Y-94207904D01*
X115634619Y-94160285D01*
X115729857Y-94112666D01*
X115872714Y-94112666D01*
X115967952Y-94160285D01*
X116015571Y-94207904D01*
X116063190Y-94303142D01*
X116063190Y-94684095D01*
X115539380Y-93779333D02*
X115539380Y-93160285D01*
X115920333Y-93493619D01*
X115920333Y-93350761D01*
X115967952Y-93255523D01*
X116015571Y-93207904D01*
X116110809Y-93160285D01*
X116348904Y-93160285D01*
X116444142Y-93207904D01*
X116491761Y-93255523D01*
X116539380Y-93350761D01*
X116539380Y-93636476D01*
X116491761Y-93731714D01*
X116444142Y-93779333D01*
X124286380Y-94112666D02*
X123810190Y-94446000D01*
X124286380Y-94684095D02*
X123286380Y-94684095D01*
X123286380Y-94303142D01*
X123334000Y-94207904D01*
X123381619Y-94160285D01*
X123476857Y-94112666D01*
X123619714Y-94112666D01*
X123714952Y-94160285D01*
X123762571Y-94207904D01*
X123810190Y-94303142D01*
X123810190Y-94684095D01*
X123381619Y-93731714D02*
X123334000Y-93684095D01*
X123286380Y-93588857D01*
X123286380Y-93350761D01*
X123334000Y-93255523D01*
X123381619Y-93207904D01*
X123476857Y-93160285D01*
X123572095Y-93160285D01*
X123714952Y-93207904D01*
X124286380Y-93779333D01*
X124286380Y-93160285D01*
X97886380Y-83023904D02*
X98695904Y-83023904D01*
X98791142Y-82976285D01*
X98838761Y-82928666D01*
X98886380Y-82833428D01*
X98886380Y-82642952D01*
X98838761Y-82547714D01*
X98791142Y-82500095D01*
X98695904Y-82452476D01*
X97886380Y-82452476D01*
X98886380Y-81928666D02*
X98886380Y-81738190D01*
X98838761Y-81642952D01*
X98791142Y-81595333D01*
X98648285Y-81500095D01*
X98457809Y-81452476D01*
X98076857Y-81452476D01*
X97981619Y-81500095D01*
X97934000Y-81547714D01*
X97886380Y-81642952D01*
X97886380Y-81833428D01*
X97934000Y-81928666D01*
X97981619Y-81976285D01*
X98076857Y-82023904D01*
X98314952Y-82023904D01*
X98410190Y-81976285D01*
X98457809Y-81928666D01*
X98505428Y-81833428D01*
X98505428Y-81642952D01*
X98457809Y-81547714D01*
X98410190Y-81500095D01*
X98314952Y-81452476D01*
D16*
X84655142Y-86048142D02*
X84607523Y-86095761D01*
X84464666Y-86143380D01*
X84369428Y-86143380D01*
X84226571Y-86095761D01*
X84131333Y-86000523D01*
X84083714Y-85905285D01*
X84036095Y-85714809D01*
X84036095Y-85571952D01*
X84083714Y-85381476D01*
X84131333Y-85286238D01*
X84226571Y-85191000D01*
X84369428Y-85143380D01*
X84464666Y-85143380D01*
X84607523Y-85191000D01*
X84655142Y-85238619D01*
X85274190Y-85667190D02*
X85274190Y-86143380D01*
X84940857Y-85143380D02*
X85274190Y-85667190D01*
X85607523Y-85143380D01*
X85845619Y-85143380D02*
X86512285Y-85143380D01*
X86083714Y-86143380D01*
X87321809Y-85476714D02*
X87321809Y-86143380D01*
X87083714Y-85095761D02*
X86845619Y-85810047D01*
X87464666Y-85810047D01*
X88178952Y-85619571D02*
X87845619Y-85619571D01*
X87845619Y-86143380D02*
X87845619Y-85143380D01*
X88321809Y-85143380D01*
X89274190Y-86048142D02*
X89226571Y-86095761D01*
X89083714Y-86143380D01*
X88988476Y-86143380D01*
X88845619Y-86095761D01*
X88750380Y-86000523D01*
X88702761Y-85905285D01*
X88655142Y-85714809D01*
X88655142Y-85571952D01*
X88702761Y-85381476D01*
X88750380Y-85286238D01*
X88845619Y-85191000D01*
X88988476Y-85143380D01*
X89083714Y-85143380D01*
X89226571Y-85191000D01*
X89274190Y-85238619D01*
X89559904Y-85143380D02*
X90131333Y-85143380D01*
X89845619Y-86143380D02*
X89845619Y-85143380D01*
X90988476Y-86143380D02*
X90417047Y-86143380D01*
X90702761Y-86143380D02*
X90702761Y-85143380D01*
X90607523Y-85286238D01*
X90512285Y-85381476D01*
X90417047Y-85429095D01*
X91845619Y-85143380D02*
X91655142Y-85143380D01*
X91559904Y-85191000D01*
X91512285Y-85238619D01*
X91417047Y-85381476D01*
X91369428Y-85571952D01*
X91369428Y-85952904D01*
X91417047Y-86048142D01*
X91464666Y-86095761D01*
X91559904Y-86143380D01*
X91750380Y-86143380D01*
X91845619Y-86095761D01*
X91893238Y-86048142D01*
X91940857Y-85952904D01*
X91940857Y-85714809D01*
X91893238Y-85619571D01*
X91845619Y-85571952D01*
X91750380Y-85524333D01*
X91559904Y-85524333D01*
X91464666Y-85571952D01*
X91417047Y-85619571D01*
X91369428Y-85714809D01*
X92845619Y-85143380D02*
X92369428Y-85143380D01*
X92321809Y-85619571D01*
X92369428Y-85571952D01*
X92464666Y-85524333D01*
X92702761Y-85524333D01*
X92798000Y-85571952D01*
X92845619Y-85619571D01*
X92893238Y-85714809D01*
X92893238Y-85952904D01*
X92845619Y-86048142D01*
X92798000Y-86095761D01*
X92702761Y-86143380D01*
X92464666Y-86143380D01*
X92369428Y-86095761D01*
X92321809Y-86048142D01*
X93750380Y-85476714D02*
X93750380Y-86143380D01*
X93512285Y-85095761D02*
X93274190Y-85810047D01*
X93893238Y-85810047D01*
X94178952Y-85143380D02*
X94798000Y-85143380D01*
X94464666Y-85524333D01*
X94607523Y-85524333D01*
X94702761Y-85571952D01*
X94750380Y-85619571D01*
X94798000Y-85714809D01*
X94798000Y-85952904D01*
X94750380Y-86048142D01*
X94702761Y-86095761D01*
X94607523Y-86143380D01*
X94321809Y-86143380D01*
X94226571Y-86095761D01*
X94178952Y-86048142D01*
X95083714Y-85143380D02*
X95655142Y-85143380D01*
X95369428Y-86143380D02*
X95369428Y-85143380D01*
D11*
X127731380Y-86706904D02*
X128540904Y-86706904D01*
X128636142Y-86659285D01*
X128683761Y-86611666D01*
X128731380Y-86516428D01*
X128731380Y-86325952D01*
X128683761Y-86230714D01*
X128636142Y-86183095D01*
X128540904Y-86135476D01*
X127731380Y-86135476D01*
X127731380Y-85754523D02*
X127731380Y-85135476D01*
X128112333Y-85468809D01*
X128112333Y-85325952D01*
X128159952Y-85230714D01*
X128207571Y-85183095D01*
X128302809Y-85135476D01*
X128540904Y-85135476D01*
X128636142Y-85183095D01*
X128683761Y-85230714D01*
X128731380Y-85325952D01*
X128731380Y-85611666D01*
X128683761Y-85706904D01*
X128636142Y-85754523D01*
X102728142Y-136244857D02*
X102775761Y-136292476D01*
X102823380Y-136435333D01*
X102823380Y-136530571D01*
X102775761Y-136673428D01*
X102680523Y-136768666D01*
X102585285Y-136816285D01*
X102394809Y-136863904D01*
X102251952Y-136863904D01*
X102061476Y-136816285D01*
X101966238Y-136768666D01*
X101871000Y-136673428D01*
X101823380Y-136530571D01*
X101823380Y-136435333D01*
X101871000Y-136292476D01*
X101918619Y-136244857D01*
X102823380Y-135292476D02*
X102823380Y-135863904D01*
X102823380Y-135578190D02*
X101823380Y-135578190D01*
X101966238Y-135673428D01*
X102061476Y-135768666D01*
X102109095Y-135863904D01*
X101823380Y-134959142D02*
X101823380Y-134340095D01*
X102204333Y-134673428D01*
X102204333Y-134530571D01*
X102251952Y-134435333D01*
X102299571Y-134387714D01*
X102394809Y-134340095D01*
X102632904Y-134340095D01*
X102728142Y-134387714D01*
X102775761Y-134435333D01*
X102823380Y-134530571D01*
X102823380Y-134816285D01*
X102775761Y-134911523D01*
X102728142Y-134959142D01*
X77582142Y-89508857D02*
X77629761Y-89556476D01*
X77677380Y-89699333D01*
X77677380Y-89794571D01*
X77629761Y-89937428D01*
X77534523Y-90032666D01*
X77439285Y-90080285D01*
X77248809Y-90127904D01*
X77105952Y-90127904D01*
X76915476Y-90080285D01*
X76820238Y-90032666D01*
X76725000Y-89937428D01*
X76677380Y-89794571D01*
X76677380Y-89699333D01*
X76725000Y-89556476D01*
X76772619Y-89508857D01*
X77677380Y-88556476D02*
X77677380Y-89127904D01*
X77677380Y-88842190D02*
X76677380Y-88842190D01*
X76820238Y-88937428D01*
X76915476Y-89032666D01*
X76963095Y-89127904D01*
X76677380Y-87937428D02*
X76677380Y-87842190D01*
X76725000Y-87746952D01*
X76772619Y-87699333D01*
X76867857Y-87651714D01*
X77058333Y-87604095D01*
X77296428Y-87604095D01*
X77486904Y-87651714D01*
X77582142Y-87699333D01*
X77629761Y-87746952D01*
X77677380Y-87842190D01*
X77677380Y-87937428D01*
X77629761Y-88032666D01*
X77582142Y-88080285D01*
X77486904Y-88127904D01*
X77296428Y-88175523D01*
X77058333Y-88175523D01*
X76867857Y-88127904D01*
X76772619Y-88080285D01*
X76725000Y-88032666D01*
X76677380Y-87937428D01*
X59802142Y-89159666D02*
X59849761Y-89207285D01*
X59897380Y-89350142D01*
X59897380Y-89445380D01*
X59849761Y-89588238D01*
X59754523Y-89683476D01*
X59659285Y-89731095D01*
X59468809Y-89778714D01*
X59325952Y-89778714D01*
X59135476Y-89731095D01*
X59040238Y-89683476D01*
X58945000Y-89588238D01*
X58897380Y-89445380D01*
X58897380Y-89350142D01*
X58945000Y-89207285D01*
X58992619Y-89159666D01*
X59897380Y-88683476D02*
X59897380Y-88493000D01*
X59849761Y-88397761D01*
X59802142Y-88350142D01*
X59659285Y-88254904D01*
X59468809Y-88207285D01*
X59087857Y-88207285D01*
X58992619Y-88254904D01*
X58945000Y-88302523D01*
X58897380Y-88397761D01*
X58897380Y-88588238D01*
X58945000Y-88683476D01*
X58992619Y-88731095D01*
X59087857Y-88778714D01*
X59325952Y-88778714D01*
X59421190Y-88731095D01*
X59468809Y-88683476D01*
X59516428Y-88588238D01*
X59516428Y-88397761D01*
X59468809Y-88302523D01*
X59421190Y-88254904D01*
X59325952Y-88207285D01*
X76185142Y-100462666D02*
X76232761Y-100510285D01*
X76280380Y-100653142D01*
X76280380Y-100748380D01*
X76232761Y-100891238D01*
X76137523Y-100986476D01*
X76042285Y-101034095D01*
X75851809Y-101081714D01*
X75708952Y-101081714D01*
X75518476Y-101034095D01*
X75423238Y-100986476D01*
X75328000Y-100891238D01*
X75280380Y-100748380D01*
X75280380Y-100653142D01*
X75328000Y-100510285D01*
X75375619Y-100462666D01*
X75708952Y-99891238D02*
X75661333Y-99986476D01*
X75613714Y-100034095D01*
X75518476Y-100081714D01*
X75470857Y-100081714D01*
X75375619Y-100034095D01*
X75328000Y-99986476D01*
X75280380Y-99891238D01*
X75280380Y-99700761D01*
X75328000Y-99605523D01*
X75375619Y-99557904D01*
X75470857Y-99510285D01*
X75518476Y-99510285D01*
X75613714Y-99557904D01*
X75661333Y-99605523D01*
X75708952Y-99700761D01*
X75708952Y-99891238D01*
X75756571Y-99986476D01*
X75804190Y-100034095D01*
X75899428Y-100081714D01*
X76089904Y-100081714D01*
X76185142Y-100034095D01*
X76232761Y-99986476D01*
X76280380Y-99891238D01*
X76280380Y-99700761D01*
X76232761Y-99605523D01*
X76185142Y-99557904D01*
X76089904Y-99510285D01*
X75899428Y-99510285D01*
X75804190Y-99557904D01*
X75756571Y-99605523D01*
X75708952Y-99700761D01*
X93076142Y-67569666D02*
X93123761Y-67617285D01*
X93171380Y-67760142D01*
X93171380Y-67855380D01*
X93123761Y-67998238D01*
X93028523Y-68093476D01*
X92933285Y-68141095D01*
X92742809Y-68188714D01*
X92599952Y-68188714D01*
X92409476Y-68141095D01*
X92314238Y-68093476D01*
X92219000Y-67998238D01*
X92171380Y-67855380D01*
X92171380Y-67760142D01*
X92219000Y-67617285D01*
X92266619Y-67569666D01*
X92171380Y-67236333D02*
X92171380Y-66569666D01*
X93171380Y-66998238D01*
X97013142Y-67569666D02*
X97060761Y-67617285D01*
X97108380Y-67760142D01*
X97108380Y-67855380D01*
X97060761Y-67998238D01*
X96965523Y-68093476D01*
X96870285Y-68141095D01*
X96679809Y-68188714D01*
X96536952Y-68188714D01*
X96346476Y-68141095D01*
X96251238Y-68093476D01*
X96156000Y-67998238D01*
X96108380Y-67855380D01*
X96108380Y-67760142D01*
X96156000Y-67617285D01*
X96203619Y-67569666D01*
X96108380Y-66712523D02*
X96108380Y-66903000D01*
X96156000Y-66998238D01*
X96203619Y-67045857D01*
X96346476Y-67141095D01*
X96536952Y-67188714D01*
X96917904Y-67188714D01*
X97013142Y-67141095D01*
X97060761Y-67093476D01*
X97108380Y-66998238D01*
X97108380Y-66807761D01*
X97060761Y-66712523D01*
X97013142Y-66664904D01*
X96917904Y-66617285D01*
X96679809Y-66617285D01*
X96584571Y-66664904D01*
X96536952Y-66712523D01*
X96489333Y-66807761D01*
X96489333Y-66998238D01*
X96536952Y-67093476D01*
X96584571Y-67141095D01*
X96679809Y-67188714D01*
X98918142Y-89413666D02*
X98965761Y-89461285D01*
X99013380Y-89604142D01*
X99013380Y-89699380D01*
X98965761Y-89842238D01*
X98870523Y-89937476D01*
X98775285Y-89985095D01*
X98584809Y-90032714D01*
X98441952Y-90032714D01*
X98251476Y-89985095D01*
X98156238Y-89937476D01*
X98061000Y-89842238D01*
X98013380Y-89699380D01*
X98013380Y-89604142D01*
X98061000Y-89461285D01*
X98108619Y-89413666D01*
X98013380Y-88508904D02*
X98013380Y-88985095D01*
X98489571Y-89032714D01*
X98441952Y-88985095D01*
X98394333Y-88889857D01*
X98394333Y-88651761D01*
X98441952Y-88556523D01*
X98489571Y-88508904D01*
X98584809Y-88461285D01*
X98822904Y-88461285D01*
X98918142Y-88508904D01*
X98965761Y-88556523D01*
X99013380Y-88651761D01*
X99013380Y-88889857D01*
X98965761Y-88985095D01*
X98918142Y-89032714D01*
X102474142Y-88905666D02*
X102521761Y-88953285D01*
X102569380Y-89096142D01*
X102569380Y-89191380D01*
X102521761Y-89334238D01*
X102426523Y-89429476D01*
X102331285Y-89477095D01*
X102140809Y-89524714D01*
X101997952Y-89524714D01*
X101807476Y-89477095D01*
X101712238Y-89429476D01*
X101617000Y-89334238D01*
X101569380Y-89191380D01*
X101569380Y-89096142D01*
X101617000Y-88953285D01*
X101664619Y-88905666D01*
X101569380Y-88572333D02*
X101569380Y-87953285D01*
X101950333Y-88286619D01*
X101950333Y-88143761D01*
X101997952Y-88048523D01*
X102045571Y-88000904D01*
X102140809Y-87953285D01*
X102378904Y-87953285D01*
X102474142Y-88000904D01*
X102521761Y-88048523D01*
X102569380Y-88143761D01*
X102569380Y-88429476D01*
X102521761Y-88524714D01*
X102474142Y-88572333D01*
X116698142Y-88905666D02*
X116745761Y-88953285D01*
X116793380Y-89096142D01*
X116793380Y-89191380D01*
X116745761Y-89334238D01*
X116650523Y-89429476D01*
X116555285Y-89477095D01*
X116364809Y-89524714D01*
X116221952Y-89524714D01*
X116031476Y-89477095D01*
X115936238Y-89429476D01*
X115841000Y-89334238D01*
X115793380Y-89191380D01*
X115793380Y-89096142D01*
X115841000Y-88953285D01*
X115888619Y-88905666D01*
X115888619Y-88524714D02*
X115841000Y-88477095D01*
X115793380Y-88381857D01*
X115793380Y-88143761D01*
X115841000Y-88048523D01*
X115888619Y-88000904D01*
X115983857Y-87953285D01*
X116079095Y-87953285D01*
X116221952Y-88000904D01*
X116793380Y-88572333D01*
X116793380Y-87953285D01*
X81265142Y-89286666D02*
X81312761Y-89334285D01*
X81360380Y-89477142D01*
X81360380Y-89572380D01*
X81312761Y-89715238D01*
X81217523Y-89810476D01*
X81122285Y-89858095D01*
X80931809Y-89905714D01*
X80788952Y-89905714D01*
X80598476Y-89858095D01*
X80503238Y-89810476D01*
X80408000Y-89715238D01*
X80360380Y-89572380D01*
X80360380Y-89477142D01*
X80408000Y-89334285D01*
X80455619Y-89286666D01*
X80693714Y-88429523D02*
X81360380Y-88429523D01*
X80312761Y-88667619D02*
X81027047Y-88905714D01*
X81027047Y-88286666D01*
X106633380Y-135990857D02*
X106157190Y-136324190D01*
X106633380Y-136562285D02*
X105633380Y-136562285D01*
X105633380Y-136181333D01*
X105681000Y-136086095D01*
X105728619Y-136038476D01*
X105823857Y-135990857D01*
X105966714Y-135990857D01*
X106061952Y-136038476D01*
X106109571Y-136086095D01*
X106157190Y-136181333D01*
X106157190Y-136562285D01*
X105728619Y-135609904D02*
X105681000Y-135562285D01*
X105633380Y-135467047D01*
X105633380Y-135228952D01*
X105681000Y-135133714D01*
X105728619Y-135086095D01*
X105823857Y-135038476D01*
X105919095Y-135038476D01*
X106061952Y-135086095D01*
X106633380Y-135657523D01*
X106633380Y-135038476D01*
X106633380Y-134086095D02*
X106633380Y-134657523D01*
X106633380Y-134371809D02*
X105633380Y-134371809D01*
X105776238Y-134467047D01*
X105871476Y-134562285D01*
X105919095Y-134657523D01*
X116793380Y-135990857D02*
X116317190Y-136324190D01*
X116793380Y-136562285D02*
X115793380Y-136562285D01*
X115793380Y-136181333D01*
X115841000Y-136086095D01*
X115888619Y-136038476D01*
X115983857Y-135990857D01*
X116126714Y-135990857D01*
X116221952Y-136038476D01*
X116269571Y-136086095D01*
X116317190Y-136181333D01*
X116317190Y-136562285D01*
X115888619Y-135609904D02*
X115841000Y-135562285D01*
X115793380Y-135467047D01*
X115793380Y-135228952D01*
X115841000Y-135133714D01*
X115888619Y-135086095D01*
X115983857Y-135038476D01*
X116079095Y-135038476D01*
X116221952Y-135086095D01*
X116793380Y-135657523D01*
X116793380Y-135038476D01*
X115793380Y-134419428D02*
X115793380Y-134324190D01*
X115841000Y-134228952D01*
X115888619Y-134181333D01*
X115983857Y-134133714D01*
X116174333Y-134086095D01*
X116412428Y-134086095D01*
X116602904Y-134133714D01*
X116698142Y-134181333D01*
X116745761Y-134228952D01*
X116793380Y-134324190D01*
X116793380Y-134419428D01*
X116745761Y-134514666D01*
X116698142Y-134562285D01*
X116602904Y-134609904D01*
X116412428Y-134657523D01*
X116174333Y-134657523D01*
X115983857Y-134609904D01*
X115888619Y-134562285D01*
X115841000Y-134514666D01*
X115793380Y-134419428D01*
X120603380Y-135990857D02*
X120127190Y-136324190D01*
X120603380Y-136562285D02*
X119603380Y-136562285D01*
X119603380Y-136181333D01*
X119651000Y-136086095D01*
X119698619Y-136038476D01*
X119793857Y-135990857D01*
X119936714Y-135990857D01*
X120031952Y-136038476D01*
X120079571Y-136086095D01*
X120127190Y-136181333D01*
X120127190Y-136562285D01*
X120603380Y-135038476D02*
X120603380Y-135609904D01*
X120603380Y-135324190D02*
X119603380Y-135324190D01*
X119746238Y-135419428D01*
X119841476Y-135514666D01*
X119889095Y-135609904D01*
X120603380Y-134562285D02*
X120603380Y-134371809D01*
X120555761Y-134276571D01*
X120508142Y-134228952D01*
X120365285Y-134133714D01*
X120174809Y-134086095D01*
X119793857Y-134086095D01*
X119698619Y-134133714D01*
X119651000Y-134181333D01*
X119603380Y-134276571D01*
X119603380Y-134467047D01*
X119651000Y-134562285D01*
X119698619Y-134609904D01*
X119793857Y-134657523D01*
X120031952Y-134657523D01*
X120127190Y-134609904D01*
X120174809Y-134562285D01*
X120222428Y-134467047D01*
X120222428Y-134276571D01*
X120174809Y-134181333D01*
X120127190Y-134133714D01*
X120031952Y-134086095D01*
X117682380Y-113774857D02*
X117206190Y-114108190D01*
X117682380Y-114346285D02*
X116682380Y-114346285D01*
X116682380Y-113965333D01*
X116730000Y-113870095D01*
X116777619Y-113822476D01*
X116872857Y-113774857D01*
X117015714Y-113774857D01*
X117110952Y-113822476D01*
X117158571Y-113870095D01*
X117206190Y-113965333D01*
X117206190Y-114346285D01*
X117682380Y-112822476D02*
X117682380Y-113393904D01*
X117682380Y-113108190D02*
X116682380Y-113108190D01*
X116825238Y-113203428D01*
X116920476Y-113298666D01*
X116968095Y-113393904D01*
X117110952Y-112251047D02*
X117063333Y-112346285D01*
X117015714Y-112393904D01*
X116920476Y-112441523D01*
X116872857Y-112441523D01*
X116777619Y-112393904D01*
X116730000Y-112346285D01*
X116682380Y-112251047D01*
X116682380Y-112060571D01*
X116730000Y-111965333D01*
X116777619Y-111917714D01*
X116872857Y-111870095D01*
X116920476Y-111870095D01*
X117015714Y-111917714D01*
X117063333Y-111965333D01*
X117110952Y-112060571D01*
X117110952Y-112251047D01*
X117158571Y-112346285D01*
X117206190Y-112393904D01*
X117301428Y-112441523D01*
X117491904Y-112441523D01*
X117587142Y-112393904D01*
X117634761Y-112346285D01*
X117682380Y-112251047D01*
X117682380Y-112060571D01*
X117634761Y-111965333D01*
X117587142Y-111917714D01*
X117491904Y-111870095D01*
X117301428Y-111870095D01*
X117206190Y-111917714D01*
X117158571Y-111965333D01*
X117110952Y-112060571D01*
X109300380Y-113629857D02*
X108824190Y-113963190D01*
X109300380Y-114201285D02*
X108300380Y-114201285D01*
X108300380Y-113820333D01*
X108348000Y-113725095D01*
X108395619Y-113677476D01*
X108490857Y-113629857D01*
X108633714Y-113629857D01*
X108728952Y-113677476D01*
X108776571Y-113725095D01*
X108824190Y-113820333D01*
X108824190Y-114201285D01*
X109300380Y-112677476D02*
X109300380Y-113248904D01*
X109300380Y-112963190D02*
X108300380Y-112963190D01*
X108443238Y-113058428D01*
X108538476Y-113153666D01*
X108586095Y-113248904D01*
X108300380Y-111820333D02*
X108300380Y-112010809D01*
X108348000Y-112106047D01*
X108395619Y-112153666D01*
X108538476Y-112248904D01*
X108728952Y-112296523D01*
X109109904Y-112296523D01*
X109205142Y-112248904D01*
X109252761Y-112201285D01*
X109300380Y-112106047D01*
X109300380Y-111915571D01*
X109252761Y-111820333D01*
X109205142Y-111772714D01*
X109109904Y-111725095D01*
X108871809Y-111725095D01*
X108776571Y-111772714D01*
X108728952Y-111820333D01*
X108681333Y-111915571D01*
X108681333Y-112106047D01*
X108728952Y-112201285D01*
X108776571Y-112248904D01*
X108871809Y-112296523D01*
X105363380Y-113638857D02*
X104887190Y-113972190D01*
X105363380Y-114210285D02*
X104363380Y-114210285D01*
X104363380Y-113829333D01*
X104411000Y-113734095D01*
X104458619Y-113686476D01*
X104553857Y-113638857D01*
X104696714Y-113638857D01*
X104791952Y-113686476D01*
X104839571Y-113734095D01*
X104887190Y-113829333D01*
X104887190Y-114210285D01*
X105363380Y-112686476D02*
X105363380Y-113257904D01*
X105363380Y-112972190D02*
X104363380Y-112972190D01*
X104506238Y-113067428D01*
X104601476Y-113162666D01*
X104649095Y-113257904D01*
X104363380Y-111781714D02*
X104363380Y-112257904D01*
X104839571Y-112305523D01*
X104791952Y-112257904D01*
X104744333Y-112162666D01*
X104744333Y-111924571D01*
X104791952Y-111829333D01*
X104839571Y-111781714D01*
X104934809Y-111734095D01*
X105172904Y-111734095D01*
X105268142Y-111781714D01*
X105315761Y-111829333D01*
X105363380Y-111924571D01*
X105363380Y-112162666D01*
X105315761Y-112257904D01*
X105268142Y-112305523D01*
X101172380Y-113511857D02*
X100696190Y-113845190D01*
X101172380Y-114083285D02*
X100172380Y-114083285D01*
X100172380Y-113702333D01*
X100220000Y-113607095D01*
X100267619Y-113559476D01*
X100362857Y-113511857D01*
X100505714Y-113511857D01*
X100600952Y-113559476D01*
X100648571Y-113607095D01*
X100696190Y-113702333D01*
X100696190Y-114083285D01*
X101172380Y-112559476D02*
X101172380Y-113130904D01*
X101172380Y-112845190D02*
X100172380Y-112845190D01*
X100315238Y-112940428D01*
X100410476Y-113035666D01*
X100458095Y-113130904D01*
X100505714Y-111702333D02*
X101172380Y-111702333D01*
X100124761Y-111940428D02*
X100839047Y-112178523D01*
X100839047Y-111559476D01*
X96981380Y-113384857D02*
X96505190Y-113718190D01*
X96981380Y-113956285D02*
X95981380Y-113956285D01*
X95981380Y-113575333D01*
X96029000Y-113480095D01*
X96076619Y-113432476D01*
X96171857Y-113384857D01*
X96314714Y-113384857D01*
X96409952Y-113432476D01*
X96457571Y-113480095D01*
X96505190Y-113575333D01*
X96505190Y-113956285D01*
X96981380Y-112432476D02*
X96981380Y-113003904D01*
X96981380Y-112718190D02*
X95981380Y-112718190D01*
X96124238Y-112813428D01*
X96219476Y-112908666D01*
X96267095Y-113003904D01*
X95981380Y-112099142D02*
X95981380Y-111480095D01*
X96362333Y-111813428D01*
X96362333Y-111670571D01*
X96409952Y-111575333D01*
X96457571Y-111527714D01*
X96552809Y-111480095D01*
X96790904Y-111480095D01*
X96886142Y-111527714D01*
X96933761Y-111575333D01*
X96981380Y-111670571D01*
X96981380Y-111956285D01*
X96933761Y-112051523D01*
X96886142Y-112099142D01*
X117682380Y-118972857D02*
X117206190Y-119306190D01*
X117682380Y-119544285D02*
X116682380Y-119544285D01*
X116682380Y-119163333D01*
X116730000Y-119068095D01*
X116777619Y-119020476D01*
X116872857Y-118972857D01*
X117015714Y-118972857D01*
X117110952Y-119020476D01*
X117158571Y-119068095D01*
X117206190Y-119163333D01*
X117206190Y-119544285D01*
X117682380Y-118020476D02*
X117682380Y-118591904D01*
X117682380Y-118306190D02*
X116682380Y-118306190D01*
X116825238Y-118401428D01*
X116920476Y-118496666D01*
X116968095Y-118591904D01*
X116777619Y-117639523D02*
X116730000Y-117591904D01*
X116682380Y-117496666D01*
X116682380Y-117258571D01*
X116730000Y-117163333D01*
X116777619Y-117115714D01*
X116872857Y-117068095D01*
X116968095Y-117068095D01*
X117110952Y-117115714D01*
X117682380Y-117687142D01*
X117682380Y-117068095D01*
X109427380Y-118972857D02*
X108951190Y-119306190D01*
X109427380Y-119544285D02*
X108427380Y-119544285D01*
X108427380Y-119163333D01*
X108475000Y-119068095D01*
X108522619Y-119020476D01*
X108617857Y-118972857D01*
X108760714Y-118972857D01*
X108855952Y-119020476D01*
X108903571Y-119068095D01*
X108951190Y-119163333D01*
X108951190Y-119544285D01*
X109427380Y-118020476D02*
X109427380Y-118591904D01*
X109427380Y-118306190D02*
X108427380Y-118306190D01*
X108570238Y-118401428D01*
X108665476Y-118496666D01*
X108713095Y-118591904D01*
X108427380Y-117401428D02*
X108427380Y-117306190D01*
X108475000Y-117210952D01*
X108522619Y-117163333D01*
X108617857Y-117115714D01*
X108808333Y-117068095D01*
X109046428Y-117068095D01*
X109236904Y-117115714D01*
X109332142Y-117163333D01*
X109379761Y-117210952D01*
X109427380Y-117306190D01*
X109427380Y-117401428D01*
X109379761Y-117496666D01*
X109332142Y-117544285D01*
X109236904Y-117591904D01*
X109046428Y-117639523D01*
X108808333Y-117639523D01*
X108617857Y-117591904D01*
X108522619Y-117544285D01*
X108475000Y-117496666D01*
X108427380Y-117401428D01*
X105236380Y-118583666D02*
X104760190Y-118917000D01*
X105236380Y-119155095D02*
X104236380Y-119155095D01*
X104236380Y-118774142D01*
X104284000Y-118678904D01*
X104331619Y-118631285D01*
X104426857Y-118583666D01*
X104569714Y-118583666D01*
X104664952Y-118631285D01*
X104712571Y-118678904D01*
X104760190Y-118774142D01*
X104760190Y-119155095D01*
X105236380Y-118107476D02*
X105236380Y-117917000D01*
X105188761Y-117821761D01*
X105141142Y-117774142D01*
X104998285Y-117678904D01*
X104807809Y-117631285D01*
X104426857Y-117631285D01*
X104331619Y-117678904D01*
X104284000Y-117726523D01*
X104236380Y-117821761D01*
X104236380Y-118012238D01*
X104284000Y-118107476D01*
X104331619Y-118155095D01*
X104426857Y-118202714D01*
X104664952Y-118202714D01*
X104760190Y-118155095D01*
X104807809Y-118107476D01*
X104855428Y-118012238D01*
X104855428Y-117821761D01*
X104807809Y-117726523D01*
X104760190Y-117678904D01*
X104664952Y-117631285D01*
X101299380Y-118496666D02*
X100823190Y-118830000D01*
X101299380Y-119068095D02*
X100299380Y-119068095D01*
X100299380Y-118687142D01*
X100347000Y-118591904D01*
X100394619Y-118544285D01*
X100489857Y-118496666D01*
X100632714Y-118496666D01*
X100727952Y-118544285D01*
X100775571Y-118591904D01*
X100823190Y-118687142D01*
X100823190Y-119068095D01*
X100727952Y-117925238D02*
X100680333Y-118020476D01*
X100632714Y-118068095D01*
X100537476Y-118115714D01*
X100489857Y-118115714D01*
X100394619Y-118068095D01*
X100347000Y-118020476D01*
X100299380Y-117925238D01*
X100299380Y-117734761D01*
X100347000Y-117639523D01*
X100394619Y-117591904D01*
X100489857Y-117544285D01*
X100537476Y-117544285D01*
X100632714Y-117591904D01*
X100680333Y-117639523D01*
X100727952Y-117734761D01*
X100727952Y-117925238D01*
X100775571Y-118020476D01*
X100823190Y-118068095D01*
X100918428Y-118115714D01*
X101108904Y-118115714D01*
X101204142Y-118068095D01*
X101251761Y-118020476D01*
X101299380Y-117925238D01*
X101299380Y-117734761D01*
X101251761Y-117639523D01*
X101204142Y-117591904D01*
X101108904Y-117544285D01*
X100918428Y-117544285D01*
X100823190Y-117591904D01*
X100775571Y-117639523D01*
X100727952Y-117734761D01*
X97108380Y-118496666D02*
X96632190Y-118830000D01*
X97108380Y-119068095D02*
X96108380Y-119068095D01*
X96108380Y-118687142D01*
X96156000Y-118591904D01*
X96203619Y-118544285D01*
X96298857Y-118496666D01*
X96441714Y-118496666D01*
X96536952Y-118544285D01*
X96584571Y-118591904D01*
X96632190Y-118687142D01*
X96632190Y-119068095D01*
X96108380Y-118163333D02*
X96108380Y-117496666D01*
X97108380Y-117925238D01*
X125191380Y-115361333D02*
X125905666Y-115361333D01*
X126048523Y-115408952D01*
X126143761Y-115504190D01*
X126191380Y-115647047D01*
X126191380Y-115742285D01*
X125191380Y-114980380D02*
X125191380Y-114313714D01*
X126191380Y-114742285D01*
X119603380Y-105328333D02*
X120317666Y-105328333D01*
X120460523Y-105375952D01*
X120555761Y-105471190D01*
X120603380Y-105614047D01*
X120603380Y-105709285D01*
X120603380Y-104804523D02*
X120603380Y-104614047D01*
X120555761Y-104518809D01*
X120508142Y-104471190D01*
X120365285Y-104375952D01*
X120174809Y-104328333D01*
X119793857Y-104328333D01*
X119698619Y-104375952D01*
X119651000Y-104423571D01*
X119603380Y-104518809D01*
X119603380Y-104709285D01*
X119651000Y-104804523D01*
X119698619Y-104852142D01*
X119793857Y-104899761D01*
X120031952Y-104899761D01*
X120127190Y-104852142D01*
X120174809Y-104804523D01*
X120222428Y-104709285D01*
X120222428Y-104518809D01*
X120174809Y-104423571D01*
X120127190Y-104375952D01*
X120031952Y-104328333D01*
X99029380Y-107868333D02*
X99743666Y-107868333D01*
X99886523Y-107915952D01*
X99981761Y-108011190D01*
X100029380Y-108154047D01*
X100029380Y-108249285D01*
X99457952Y-107249285D02*
X99410333Y-107344523D01*
X99362714Y-107392142D01*
X99267476Y-107439761D01*
X99219857Y-107439761D01*
X99124619Y-107392142D01*
X99077000Y-107344523D01*
X99029380Y-107249285D01*
X99029380Y-107058809D01*
X99077000Y-106963571D01*
X99124619Y-106915952D01*
X99219857Y-106868333D01*
X99267476Y-106868333D01*
X99362714Y-106915952D01*
X99410333Y-106963571D01*
X99457952Y-107058809D01*
X99457952Y-107249285D01*
X99505571Y-107344523D01*
X99553190Y-107392142D01*
X99648428Y-107439761D01*
X99838904Y-107439761D01*
X99934142Y-107392142D01*
X99981761Y-107344523D01*
X100029380Y-107249285D01*
X100029380Y-107058809D01*
X99981761Y-106963571D01*
X99934142Y-106915952D01*
X99838904Y-106868333D01*
X99648428Y-106868333D01*
X99553190Y-106915952D01*
X99505571Y-106963571D01*
X99457952Y-107058809D01*
X91536380Y-123616333D02*
X92250666Y-123616333D01*
X92393523Y-123663952D01*
X92488761Y-123759190D01*
X92536380Y-123902047D01*
X92536380Y-123997285D01*
X91536380Y-122663952D02*
X91536380Y-123140142D01*
X92012571Y-123187761D01*
X91964952Y-123140142D01*
X91917333Y-123044904D01*
X91917333Y-122806809D01*
X91964952Y-122711571D01*
X92012571Y-122663952D01*
X92107809Y-122616333D01*
X92345904Y-122616333D01*
X92441142Y-122663952D01*
X92488761Y-122711571D01*
X92536380Y-122806809D01*
X92536380Y-123044904D01*
X92488761Y-123140142D01*
X92441142Y-123187761D01*
X119476380Y-126156333D02*
X120190666Y-126156333D01*
X120333523Y-126203952D01*
X120428761Y-126299190D01*
X120476380Y-126442047D01*
X120476380Y-126537285D01*
X119809714Y-125251571D02*
X120476380Y-125251571D01*
X119428761Y-125489666D02*
X120143047Y-125727761D01*
X120143047Y-125108714D01*
X116682380Y-140602523D02*
X117396666Y-140602523D01*
X117539523Y-140650142D01*
X117634761Y-140745380D01*
X117682380Y-140888238D01*
X117682380Y-140983476D01*
X117682380Y-139602523D02*
X117682380Y-140173952D01*
X117682380Y-139888238D02*
X116682380Y-139888238D01*
X116825238Y-139983476D01*
X116920476Y-140078714D01*
X116968095Y-140173952D01*
X116682380Y-138983476D02*
X116682380Y-138888238D01*
X116730000Y-138793000D01*
X116777619Y-138745380D01*
X116872857Y-138697761D01*
X117063333Y-138650142D01*
X117301428Y-138650142D01*
X117491904Y-138697761D01*
X117587142Y-138745380D01*
X117634761Y-138793000D01*
X117682380Y-138888238D01*
X117682380Y-138983476D01*
X117634761Y-139078714D01*
X117587142Y-139126333D01*
X117491904Y-139173952D01*
X117301428Y-139221571D01*
X117063333Y-139221571D01*
X116872857Y-139173952D01*
X116777619Y-139126333D01*
X116730000Y-139078714D01*
X116682380Y-138983476D01*
X98838761Y-143015238D02*
X98886380Y-142872380D01*
X98886380Y-142634285D01*
X98838761Y-142539047D01*
X98791142Y-142491428D01*
X98695904Y-142443809D01*
X98600666Y-142443809D01*
X98505428Y-142491428D01*
X98457809Y-142539047D01*
X98410190Y-142634285D01*
X98362571Y-142824761D01*
X98314952Y-142920000D01*
X98267333Y-142967619D01*
X98172095Y-143015238D01*
X98076857Y-143015238D01*
X97981619Y-142967619D01*
X97934000Y-142920000D01*
X97886380Y-142824761D01*
X97886380Y-142586666D01*
X97934000Y-142443809D01*
X98886380Y-142015238D02*
X97886380Y-142015238D01*
X97886380Y-141777142D01*
X97934000Y-141634285D01*
X98029238Y-141539047D01*
X98124476Y-141491428D01*
X98314952Y-141443809D01*
X98457809Y-141443809D01*
X98648285Y-141491428D01*
X98743523Y-141539047D01*
X98838761Y-141634285D01*
X98886380Y-141777142D01*
X98886380Y-142015238D01*
X98791142Y-139681904D02*
X98838761Y-139729523D01*
X98886380Y-139872380D01*
X98886380Y-139967619D01*
X98838761Y-140110476D01*
X98743523Y-140205714D01*
X98648285Y-140253333D01*
X98457809Y-140300952D01*
X98314952Y-140300952D01*
X98124476Y-140253333D01*
X98029238Y-140205714D01*
X97934000Y-140110476D01*
X97886380Y-139967619D01*
X97886380Y-139872380D01*
X97934000Y-139729523D01*
X97981619Y-139681904D01*
X98600666Y-139300952D02*
X98600666Y-138824761D01*
X98886380Y-139396190D02*
X97886380Y-139062857D01*
X98886380Y-138729523D01*
X98886380Y-137824761D02*
X98410190Y-138158095D01*
X98886380Y-138396190D02*
X97886380Y-138396190D01*
X97886380Y-138015238D01*
X97934000Y-137920000D01*
X97981619Y-137872380D01*
X98076857Y-137824761D01*
X98219714Y-137824761D01*
X98314952Y-137872380D01*
X98362571Y-137920000D01*
X98410190Y-138015238D01*
X98410190Y-138396190D01*
X98886380Y-137396190D02*
X97886380Y-137396190D01*
X97886380Y-137158095D01*
X97934000Y-137015238D01*
X98029238Y-136920000D01*
X98124476Y-136872380D01*
X98314952Y-136824761D01*
X98457809Y-136824761D01*
X98648285Y-136872380D01*
X98743523Y-136920000D01*
X98838761Y-137015238D01*
X98886380Y-137158095D01*
X98886380Y-137396190D01*
X91917380Y-140380333D02*
X92631666Y-140380333D01*
X92774523Y-140427952D01*
X92869761Y-140523190D01*
X92917380Y-140666047D01*
X92917380Y-140761285D01*
X91917380Y-139999380D02*
X91917380Y-139380333D01*
X92298333Y-139713666D01*
X92298333Y-139570809D01*
X92345952Y-139475571D01*
X92393571Y-139427952D01*
X92488809Y-139380333D01*
X92726904Y-139380333D01*
X92822142Y-139427952D01*
X92869761Y-139475571D01*
X92917380Y-139570809D01*
X92917380Y-139856523D01*
X92869761Y-139951761D01*
X92822142Y-139999380D01*
X80741380Y-144570809D02*
X81550904Y-144570809D01*
X81646142Y-144523190D01*
X81693761Y-144475571D01*
X81741380Y-144380333D01*
X81741380Y-144189857D01*
X81693761Y-144094619D01*
X81646142Y-144047000D01*
X81550904Y-143999380D01*
X80741380Y-143999380D01*
X81455666Y-143570809D02*
X81455666Y-143094619D01*
X81741380Y-143666047D02*
X80741380Y-143332714D01*
X81741380Y-142999380D01*
X81741380Y-142094619D02*
X81265190Y-142427952D01*
X81741380Y-142666047D02*
X80741380Y-142666047D01*
X80741380Y-142285095D01*
X80789000Y-142189857D01*
X80836619Y-142142238D01*
X80931857Y-142094619D01*
X81074714Y-142094619D01*
X81169952Y-142142238D01*
X81217571Y-142189857D01*
X81265190Y-142285095D01*
X81265190Y-142666047D01*
X80741380Y-141808904D02*
X80741380Y-141237476D01*
X81741380Y-141523190D02*
X80741380Y-141523190D01*
X81741380Y-140380333D02*
X81741380Y-140951761D01*
X81741380Y-140666047D02*
X80741380Y-140666047D01*
X80884238Y-140761285D01*
X80979476Y-140856523D01*
X81027095Y-140951761D01*
X82122333Y-138904142D02*
X82074714Y-138951761D01*
X81931857Y-139047000D01*
X81836619Y-139094619D01*
X81693761Y-139142238D01*
X81455666Y-139189857D01*
X81265190Y-139189857D01*
X81027095Y-139142238D01*
X80884238Y-139094619D01*
X80789000Y-139047000D01*
X80646142Y-138951761D01*
X80598523Y-138904142D01*
X81741380Y-138523190D02*
X80741380Y-138523190D01*
X80741380Y-138285095D01*
X80789000Y-138142238D01*
X80884238Y-138047000D01*
X80979476Y-137999380D01*
X81169952Y-137951761D01*
X81312809Y-137951761D01*
X81503285Y-137999380D01*
X81598523Y-138047000D01*
X81693761Y-138142238D01*
X81741380Y-138285095D01*
X81741380Y-138523190D01*
X81741380Y-137523190D02*
X80741380Y-137523190D01*
X81122333Y-137523190D02*
X81074714Y-137427952D01*
X81074714Y-137237476D01*
X81122333Y-137142238D01*
X81169952Y-137094619D01*
X81265190Y-137047000D01*
X81550904Y-137047000D01*
X81646142Y-137094619D01*
X81693761Y-137142238D01*
X81741380Y-137237476D01*
X81741380Y-137427952D01*
X81693761Y-137523190D01*
X81074714Y-136189857D02*
X81884238Y-136189857D01*
X81979476Y-136237476D01*
X82027095Y-136285095D01*
X82074714Y-136380333D01*
X82074714Y-136523190D01*
X82027095Y-136618428D01*
X81693761Y-136189857D02*
X81741380Y-136285095D01*
X81741380Y-136475571D01*
X81693761Y-136570809D01*
X81646142Y-136618428D01*
X81550904Y-136666047D01*
X81265190Y-136666047D01*
X81169952Y-136618428D01*
X81122333Y-136570809D01*
X81074714Y-136475571D01*
X81074714Y-136285095D01*
X81122333Y-136189857D01*
X82122333Y-135808904D02*
X82074714Y-135761285D01*
X81931857Y-135666047D01*
X81836619Y-135618428D01*
X81693761Y-135570809D01*
X81455666Y-135523190D01*
X81265190Y-135523190D01*
X81027095Y-135570809D01*
X80884238Y-135618428D01*
X80789000Y-135666047D01*
X80646142Y-135761285D01*
X80598523Y-135808904D01*
X75407380Y-140380333D02*
X76121666Y-140380333D01*
X76264523Y-140427952D01*
X76359761Y-140523190D01*
X76407380Y-140666047D01*
X76407380Y-140761285D01*
X75502619Y-139951761D02*
X75455000Y-139904142D01*
X75407380Y-139808904D01*
X75407380Y-139570809D01*
X75455000Y-139475571D01*
X75502619Y-139427952D01*
X75597857Y-139380333D01*
X75693095Y-139380333D01*
X75835952Y-139427952D01*
X76407380Y-139999380D01*
X76407380Y-139380333D01*
X64104380Y-144467428D02*
X64913904Y-144467428D01*
X65009142Y-144419809D01*
X65056761Y-144372190D01*
X65104380Y-144276952D01*
X65104380Y-144086476D01*
X65056761Y-143991238D01*
X65009142Y-143943619D01*
X64913904Y-143896000D01*
X64104380Y-143896000D01*
X64818666Y-143467428D02*
X64818666Y-142991238D01*
X65104380Y-143562666D02*
X64104380Y-143229333D01*
X65104380Y-142896000D01*
X65104380Y-141991238D02*
X64628190Y-142324571D01*
X65104380Y-142562666D02*
X64104380Y-142562666D01*
X64104380Y-142181714D01*
X64152000Y-142086476D01*
X64199619Y-142038857D01*
X64294857Y-141991238D01*
X64437714Y-141991238D01*
X64532952Y-142038857D01*
X64580571Y-142086476D01*
X64628190Y-142181714D01*
X64628190Y-142562666D01*
X64104380Y-141705523D02*
X64104380Y-141134095D01*
X65104380Y-141419809D02*
X64104380Y-141419809D01*
X64104380Y-140610285D02*
X64104380Y-140515047D01*
X64152000Y-140419809D01*
X64199619Y-140372190D01*
X64294857Y-140324571D01*
X64485333Y-140276952D01*
X64723428Y-140276952D01*
X64913904Y-140324571D01*
X65009142Y-140372190D01*
X65056761Y-140419809D01*
X65104380Y-140515047D01*
X65104380Y-140610285D01*
X65056761Y-140705523D01*
X65009142Y-140753142D01*
X64913904Y-140800761D01*
X64723428Y-140848380D01*
X64485333Y-140848380D01*
X64294857Y-140800761D01*
X64199619Y-140753142D01*
X64152000Y-140705523D01*
X64104380Y-140610285D01*
X65485333Y-138800761D02*
X65437714Y-138848380D01*
X65294857Y-138943619D01*
X65199619Y-138991238D01*
X65056761Y-139038857D01*
X64818666Y-139086476D01*
X64628190Y-139086476D01*
X64390095Y-139038857D01*
X64247238Y-138991238D01*
X64152000Y-138943619D01*
X64009142Y-138848380D01*
X63961523Y-138800761D01*
X65009142Y-137848380D02*
X65056761Y-137896000D01*
X65104380Y-138038857D01*
X65104380Y-138134095D01*
X65056761Y-138276952D01*
X64961523Y-138372190D01*
X64866285Y-138419809D01*
X64675809Y-138467428D01*
X64532952Y-138467428D01*
X64342476Y-138419809D01*
X64247238Y-138372190D01*
X64152000Y-138276952D01*
X64104380Y-138134095D01*
X64104380Y-138038857D01*
X64152000Y-137896000D01*
X64199619Y-137848380D01*
X65104380Y-137276952D02*
X65056761Y-137372190D01*
X65009142Y-137419809D01*
X64913904Y-137467428D01*
X64628190Y-137467428D01*
X64532952Y-137419809D01*
X64485333Y-137372190D01*
X64437714Y-137276952D01*
X64437714Y-137134095D01*
X64485333Y-137038857D01*
X64532952Y-136991238D01*
X64628190Y-136943619D01*
X64913904Y-136943619D01*
X65009142Y-136991238D01*
X65056761Y-137038857D01*
X65104380Y-137134095D01*
X65104380Y-137276952D01*
X64437714Y-136515047D02*
X65104380Y-136515047D01*
X64532952Y-136515047D02*
X64485333Y-136467428D01*
X64437714Y-136372190D01*
X64437714Y-136229333D01*
X64485333Y-136134095D01*
X64580571Y-136086476D01*
X65104380Y-136086476D01*
X65056761Y-135657904D02*
X65104380Y-135562666D01*
X65104380Y-135372190D01*
X65056761Y-135276952D01*
X64961523Y-135229333D01*
X64913904Y-135229333D01*
X64818666Y-135276952D01*
X64771047Y-135372190D01*
X64771047Y-135515047D01*
X64723428Y-135610285D01*
X64628190Y-135657904D01*
X64580571Y-135657904D01*
X64485333Y-135610285D01*
X64437714Y-135515047D01*
X64437714Y-135372190D01*
X64485333Y-135276952D01*
X65104380Y-134657904D02*
X65056761Y-134753142D01*
X65009142Y-134800761D01*
X64913904Y-134848380D01*
X64628190Y-134848380D01*
X64532952Y-134800761D01*
X64485333Y-134753142D01*
X64437714Y-134657904D01*
X64437714Y-134515047D01*
X64485333Y-134419809D01*
X64532952Y-134372190D01*
X64628190Y-134324571D01*
X64913904Y-134324571D01*
X65009142Y-134372190D01*
X65056761Y-134419809D01*
X65104380Y-134515047D01*
X65104380Y-134657904D01*
X65104380Y-133753142D02*
X65056761Y-133848380D01*
X64961523Y-133896000D01*
X64104380Y-133896000D01*
X65056761Y-132991238D02*
X65104380Y-133086476D01*
X65104380Y-133276952D01*
X65056761Y-133372190D01*
X64961523Y-133419809D01*
X64580571Y-133419809D01*
X64485333Y-133372190D01*
X64437714Y-133276952D01*
X64437714Y-133086476D01*
X64485333Y-132991238D01*
X64580571Y-132943619D01*
X64675809Y-132943619D01*
X64771047Y-133419809D01*
X65485333Y-132610285D02*
X65437714Y-132562666D01*
X65294857Y-132467428D01*
X65199619Y-132419809D01*
X65056761Y-132372190D01*
X64818666Y-132324571D01*
X64628190Y-132324571D01*
X64390095Y-132372190D01*
X64247238Y-132419809D01*
X64152000Y-132467428D01*
X64009142Y-132562666D01*
X63961523Y-132610285D01*
M02*
