G04 #@! TF.GenerationSoftware,KiCad,Pcbnew,(5.1.2-1)-1*
G04 #@! TF.CreationDate,2020-06-29T00:37:08+01:00*
G04 #@! TF.ProjectId,tranZPUter-SW_v1_1,7472616e-5a50-4557-9465-722d53575f76,rev?*
G04 #@! TF.SameCoordinates,Original*
G04 #@! TF.FileFunction,Legend,Bot*
G04 #@! TF.FilePolarity,Positive*
%FSLAX46Y46*%
G04 Gerber Fmt 4.6, Leading zero omitted, Abs format (unit mm)*
G04 Created by KiCad (PCBNEW (5.1.2-1)-1) date 2020-06-29 00:37:08*
%MOMM*%
%LPD*%
G04 APERTURE LIST*
%ADD10C,0.120000*%
%ADD11C,0.150000*%
G04 APERTURE END LIST*
D10*
X199771000Y-147320000D02*
X199771000Y-75184000D01*
X112141000Y-147320000D02*
X199771000Y-147320000D01*
X112141000Y-75184000D02*
X112141000Y-147320000D01*
X199771000Y-75184000D02*
X112141000Y-75184000D01*
X195580000Y-92583000D02*
X177800000Y-92583000D01*
D11*
X191951952Y-144105380D02*
X191285285Y-144105380D01*
X191951952Y-145105380D01*
X191285285Y-145105380D01*
X190761476Y-144533952D02*
X190856714Y-144486333D01*
X190904333Y-144438714D01*
X190951952Y-144343476D01*
X190951952Y-144295857D01*
X190904333Y-144200619D01*
X190856714Y-144153000D01*
X190761476Y-144105380D01*
X190571000Y-144105380D01*
X190475761Y-144153000D01*
X190428142Y-144200619D01*
X190380523Y-144295857D01*
X190380523Y-144343476D01*
X190428142Y-144438714D01*
X190475761Y-144486333D01*
X190571000Y-144533952D01*
X190761476Y-144533952D01*
X190856714Y-144581571D01*
X190904333Y-144629190D01*
X190951952Y-144724428D01*
X190951952Y-144914904D01*
X190904333Y-145010142D01*
X190856714Y-145057761D01*
X190761476Y-145105380D01*
X190571000Y-145105380D01*
X190475761Y-145057761D01*
X190428142Y-145010142D01*
X190380523Y-144914904D01*
X190380523Y-144724428D01*
X190428142Y-144629190D01*
X190475761Y-144581571D01*
X190571000Y-144533952D01*
X189761476Y-144105380D02*
X189666238Y-144105380D01*
X189571000Y-144153000D01*
X189523380Y-144200619D01*
X189475761Y-144295857D01*
X189428142Y-144486333D01*
X189428142Y-144724428D01*
X189475761Y-144914904D01*
X189523380Y-145010142D01*
X189571000Y-145057761D01*
X189666238Y-145105380D01*
X189761476Y-145105380D01*
X189856714Y-145057761D01*
X189904333Y-145010142D01*
X189951952Y-144914904D01*
X189999571Y-144724428D01*
X189999571Y-144486333D01*
X189951952Y-144295857D01*
X189904333Y-144200619D01*
X189856714Y-144153000D01*
X189761476Y-144105380D01*
X188237666Y-144581571D02*
X187904333Y-144581571D01*
X187761476Y-145105380D02*
X188237666Y-145105380D01*
X188237666Y-144105380D01*
X187761476Y-144105380D01*
X187428142Y-145105380D02*
X186904333Y-144438714D01*
X187428142Y-144438714D02*
X186904333Y-145105380D01*
X186666238Y-144438714D02*
X186285285Y-144438714D01*
X186523380Y-144105380D02*
X186523380Y-144962523D01*
X186475761Y-145057761D01*
X186380523Y-145105380D01*
X186285285Y-145105380D01*
X185571000Y-145057761D02*
X185666238Y-145105380D01*
X185856714Y-145105380D01*
X185951952Y-145057761D01*
X185999571Y-144962523D01*
X185999571Y-144581571D01*
X185951952Y-144486333D01*
X185856714Y-144438714D01*
X185666238Y-144438714D01*
X185571000Y-144486333D01*
X185523380Y-144581571D01*
X185523380Y-144676809D01*
X185999571Y-144772047D01*
X185094809Y-144438714D02*
X185094809Y-145105380D01*
X185094809Y-144533952D02*
X185047190Y-144486333D01*
X184951952Y-144438714D01*
X184809095Y-144438714D01*
X184713857Y-144486333D01*
X184666238Y-144581571D01*
X184666238Y-145105380D01*
X183761476Y-145105380D02*
X183761476Y-144105380D01*
X183761476Y-145057761D02*
X183856714Y-145105380D01*
X184047190Y-145105380D01*
X184142428Y-145057761D01*
X184190047Y-145010142D01*
X184237666Y-144914904D01*
X184237666Y-144629190D01*
X184190047Y-144533952D01*
X184142428Y-144486333D01*
X184047190Y-144438714D01*
X183856714Y-144438714D01*
X183761476Y-144486333D01*
X182904333Y-145057761D02*
X182999571Y-145105380D01*
X183190047Y-145105380D01*
X183285285Y-145057761D01*
X183332904Y-144962523D01*
X183332904Y-144581571D01*
X183285285Y-144486333D01*
X183190047Y-144438714D01*
X182999571Y-144438714D01*
X182904333Y-144486333D01*
X182856714Y-144581571D01*
X182856714Y-144676809D01*
X183332904Y-144772047D01*
X182428142Y-145105380D02*
X182428142Y-144438714D01*
X182428142Y-144629190D02*
X182380523Y-144533952D01*
X182332904Y-144486333D01*
X182237666Y-144438714D01*
X182142428Y-144438714D01*
D10*
X195580000Y-143637000D02*
X195580000Y-92583000D01*
X177800000Y-143637000D02*
X195580000Y-143637000D01*
X177800000Y-92583000D02*
X177800000Y-143637000D01*
D11*
X122364428Y-112847380D02*
X122697761Y-112371190D01*
X122935857Y-112847380D02*
X122935857Y-111847380D01*
X122554904Y-111847380D01*
X122459666Y-111895000D01*
X122412047Y-111942619D01*
X122364428Y-112037857D01*
X122364428Y-112180714D01*
X122412047Y-112275952D01*
X122459666Y-112323571D01*
X122554904Y-112371190D01*
X122935857Y-112371190D01*
X122078714Y-111847380D02*
X121507285Y-111847380D01*
X121793000Y-112847380D02*
X121793000Y-111847380D01*
X120602523Y-112752142D02*
X120650142Y-112799761D01*
X120793000Y-112847380D01*
X120888238Y-112847380D01*
X121031095Y-112799761D01*
X121126333Y-112704523D01*
X121173952Y-112609285D01*
X121221571Y-112418809D01*
X121221571Y-112275952D01*
X121173952Y-112085476D01*
X121126333Y-111990238D01*
X121031095Y-111895000D01*
X120888238Y-111847380D01*
X120793000Y-111847380D01*
X120650142Y-111895000D01*
X120602523Y-111942619D01*
D10*
X310388000Y-102489000D02*
X310261000Y-102489000D01*
D11*
X123761571Y-114192857D02*
X124904428Y-114192857D01*
X124313857Y-115379571D02*
X124313857Y-116522428D01*
X124889095Y-115951000D02*
X123738619Y-115951000D01*
D10*
X120450000Y-115177000D02*
G75*
G03X120450000Y-115177000I-3530000J0D01*
G01*
D11*
X117752714Y-113835571D02*
X117609857Y-113883190D01*
X117562238Y-113930809D01*
X117514619Y-114026047D01*
X117514619Y-114168904D01*
X117562238Y-114264142D01*
X117609857Y-114311761D01*
X117705095Y-114359380D01*
X118086047Y-114359380D01*
X118086047Y-113359380D01*
X117752714Y-113359380D01*
X117657476Y-113407000D01*
X117609857Y-113454619D01*
X117562238Y-113549857D01*
X117562238Y-113645095D01*
X117609857Y-113740333D01*
X117657476Y-113787952D01*
X117752714Y-113835571D01*
X118086047Y-113835571D01*
X117228904Y-113359380D02*
X116657476Y-113359380D01*
X116943190Y-114359380D02*
X116943190Y-113359380D01*
X115800333Y-114359380D02*
X116371761Y-114359380D01*
X116086047Y-114359380D02*
X116086047Y-113359380D01*
X116181285Y-113502238D01*
X116276523Y-113597476D01*
X116371761Y-113645095D01*
X119633666Y-116264380D02*
X119633666Y-115264380D01*
X119300333Y-115978666D01*
X118967000Y-115264380D01*
X118967000Y-116264380D01*
X118538428Y-116216761D02*
X118395571Y-116264380D01*
X118157476Y-116264380D01*
X118062238Y-116216761D01*
X118014619Y-116169142D01*
X117967000Y-116073904D01*
X117967000Y-115978666D01*
X118014619Y-115883428D01*
X118062238Y-115835809D01*
X118157476Y-115788190D01*
X118347952Y-115740571D01*
X118443190Y-115692952D01*
X118490809Y-115645333D01*
X118538428Y-115550095D01*
X118538428Y-115454857D01*
X118490809Y-115359619D01*
X118443190Y-115312000D01*
X118347952Y-115264380D01*
X118109857Y-115264380D01*
X117967000Y-115312000D01*
X117109857Y-115264380D02*
X117300333Y-115264380D01*
X117395571Y-115312000D01*
X117443190Y-115359619D01*
X117538428Y-115502476D01*
X117586047Y-115692952D01*
X117586047Y-116073904D01*
X117538428Y-116169142D01*
X117490809Y-116216761D01*
X117395571Y-116264380D01*
X117205095Y-116264380D01*
X117109857Y-116216761D01*
X117062238Y-116169142D01*
X117014619Y-116073904D01*
X117014619Y-115835809D01*
X117062238Y-115740571D01*
X117109857Y-115692952D01*
X117205095Y-115645333D01*
X117395571Y-115645333D01*
X117490809Y-115692952D01*
X117538428Y-115740571D01*
X117586047Y-115835809D01*
X116633666Y-115359619D02*
X116586047Y-115312000D01*
X116490809Y-115264380D01*
X116252714Y-115264380D01*
X116157476Y-115312000D01*
X116109857Y-115359619D01*
X116062238Y-115454857D01*
X116062238Y-115550095D01*
X116109857Y-115692952D01*
X116681285Y-116264380D01*
X116062238Y-116264380D01*
X115109857Y-116264380D02*
X115681285Y-116264380D01*
X115395571Y-116264380D02*
X115395571Y-115264380D01*
X115490809Y-115407238D01*
X115586047Y-115502476D01*
X115681285Y-115550095D01*
X114347952Y-115740571D02*
X114681285Y-115740571D01*
X114681285Y-116264380D02*
X114681285Y-115264380D01*
X114205095Y-115264380D01*
M02*
