M48
; DRILL file {KiCad (5.1.2-1)-1} date Monday, 29 June 2020 at 00:37:00
; FORMAT={-:-/ absolute / metric / decimal}
; #@! TF.CreationDate,2020-06-29T00:37:00+01:00
; #@! TF.GenerationSoftware,Kicad,Pcbnew,(5.1.2-1)-1
; #@! TF.FileFunction,Plated,1,2,PTH
FMAT,2
METRIC
T1C0.400
T2C0.762
T3C0.800
T4C2.200
%
G90
G05
T1
X114.139Y-135.513
X114.228Y-114.876
X118.594Y-112.352
X118.93Y-113.994
X118.946Y-101.182
X120.889Y-102.838
X121.236Y-139.236
X121.763Y-118.092
X122.014Y-96.914
X123.351Y-129.887
X123.388Y-110.262
X123.713Y-141.709
X123.804Y-85.741
X123.82Y-100.582
X123.868Y-83.339
X123.941Y-108.297
X124.055Y-87.799
X124.519Y-126.862
X124.587Y-141.168
X125.795Y-92.76
X127.065Y-83.305
X127.068Y-79.235
X127.845Y-108.368
X128.527Y-96.791
X128.956Y-94.793
X129.672Y-130.02
X129.796Y-110.746
X130.292Y-89.866
X130.324Y-123.704
X130.386Y-131.719
X130.977Y-89.053
X131.0Y-83.983
X131.667Y-117.981
X131.997Y-132.004
X132.652Y-130.618
X133.541Y-114.849
X133.697Y-101.631
X133.863Y-95.345
X135.465Y-114.188
X135.496Y-116.464
X135.538Y-81.957
X135.647Y-126.144
X135.804Y-112.686
X135.942Y-108.788
X136.171Y-131.521
X136.403Y-103.814
X136.497Y-132.965
X137.51Y-129.722
X137.751Y-91.661
X138.141Y-104.67
X139.007Y-135.35
X139.107Y-94.95
X139.107Y-99.986
X139.189Y-90.089
X139.22Y-117.688
X139.451Y-129.085
X139.62Y-84.614
X139.903Y-107.69
X140.091Y-110.231
X140.226Y-98.67
X140.365Y-113.382
X140.405Y-114.86
X140.558Y-118.617
X140.559Y-129.102
X140.592Y-100.04
X140.76Y-111.514
X140.784Y-108.28
X140.798Y-82.319
X141.907Y-131.947
X142.028Y-117.583
X142.307Y-103.966
X142.613Y-125.457
X143.026Y-89.736
X143.269Y-134.832
X143.445Y-102.312
X144.061Y-97.405
X144.146Y-115.558
X144.191Y-81.957
X144.471Y-109.403
X144.976Y-118.276
X144.982Y-131.783
X145.445Y-103.294
X146.299Y-86.26
X146.335Y-132.136
X147.309Y-133.187
X148.878Y-136.622
X149.072Y-112.448
X149.466Y-115.903
X149.695Y-101.998
X150.555Y-132.137
X151.005Y-115.685
X151.281Y-136.04
X151.612Y-112.552
X151.799Y-100.585
X152.713Y-90.526
X152.724Y-116.519
X153.026Y-114.701
X153.074Y-98.328
X153.578Y-139.022
X154.225Y-116.871
X154.63Y-108.242
X155.328Y-111.228
X155.515Y-91.479
X158.458Y-107.741
X158.64Y-120.051
X159.002Y-86.785
X159.175Y-118.197
X159.232Y-123.414
X159.27Y-115.574
X159.48Y-104.74
X159.527Y-94.036
X159.883Y-116.376
X160.351Y-119.358
X160.441Y-95.205
X160.449Y-112.77
X160.568Y-117.235
X163.203Y-141.671
X163.601Y-111.5
X163.608Y-80.957
X163.64Y-86.102
X163.71Y-107.69
X163.852Y-97.51
X163.878Y-100.343
X164.223Y-82.906
X164.288Y-99.282
X164.643Y-85.868
X164.679Y-104.56
X165.374Y-110.257
X165.696Y-89.303
X166.543Y-102.22
X167.261Y-127.317
X167.501Y-131.57
X167.51Y-116.223
X168.466Y-85.334
X168.508Y-109.594
X168.598Y-126.612
X168.702Y-99.749
X168.989Y-94.713
X169.048Y-134.332
X169.436Y-99.058
X170.533Y-92.243
X170.798Y-95.085
X171.056Y-114.518
X171.256Y-125.695
X171.855Y-143.007
X172.625Y-125.245
X172.8Y-120.221
X172.899Y-114.934
X173.193Y-94.333
X173.566Y-101.948
X173.685Y-130.169
X173.727Y-131.185
X173.778Y-133.201
X173.92Y-134.875
X173.987Y-123.903
X174.298Y-115.672
X174.515Y-117.487
X174.693Y-120.546
X175.035Y-134.678
X175.134Y-143.717
X175.42Y-121.626
X175.421Y-130.278
X176.505Y-144.07
X177.212Y-122.711
X177.726Y-112.456
X177.929Y-128.34
X179.895Y-125.844
X180.086Y-91.141
X182.463Y-87.008
X182.474Y-88.266
X183.336Y-128.244
X183.455Y-131.346
X183.697Y-111.817
X183.736Y-77.825
X185.471Y-80.577
X185.574Y-82.592
X185.584Y-83.593
X185.605Y-81.592
X185.605Y-84.593
X185.958Y-87.786
X186.853Y-89.658
X187.762Y-111.492
X189.102Y-102.719
X189.95Y-107.756
X195.268Y-86.331
X113.666Y-144.145
X114.149Y-142.978
X114.149Y-145.312
X115.316Y-142.495
X115.316Y-145.795
X116.483Y-142.978
X116.483Y-145.312
X116.966Y-144.145
X113.666Y-78.232
X114.149Y-77.065
X114.149Y-79.399
X115.316Y-76.582
X115.316Y-79.882
X116.483Y-77.065
X116.483Y-79.399
X116.966Y-78.232
T2
X114.427Y-128.651
X114.427Y-133.731
X116.967Y-128.651
X116.967Y-133.731
X119.507Y-128.651
X119.507Y-133.731
X122.047Y-128.651
X122.047Y-133.731
X124.587Y-128.651
X124.587Y-133.731
X127.127Y-124.841
X127.127Y-127.381
X127.127Y-129.921
X127.127Y-132.461
X127.127Y-135.001
X129.667Y-128.651
X129.667Y-133.731
X132.207Y-128.651
X132.207Y-133.731
X134.747Y-128.651
X134.747Y-133.731
X149.987Y-128.651
X149.987Y-133.731
X152.527Y-128.651
X152.527Y-133.731
X155.067Y-128.651
X155.067Y-133.731
X156.337Y-124.841
X157.607Y-128.651
X157.607Y-133.731
X158.877Y-124.841
X160.147Y-135.001
X161.417Y-124.841
X162.687Y-135.001
X163.957Y-124.841
X165.227Y-135.001
X166.497Y-124.841
X170.307Y-135.001
T3
X179.07Y-93.98
X179.07Y-96.52
X179.07Y-99.06
X179.07Y-101.6
X179.07Y-104.14
X179.07Y-106.68
X179.07Y-109.22
X179.07Y-111.76
X179.07Y-114.3
X179.07Y-116.84
X179.07Y-119.38
X179.07Y-121.92
X179.07Y-124.46
X179.07Y-127.0
X179.07Y-129.54
X179.07Y-132.08
X179.07Y-134.62
X179.07Y-137.16
X179.07Y-139.7
X179.07Y-142.24
X194.31Y-93.98
X194.31Y-96.52
X194.31Y-99.06
X194.31Y-101.6
X194.31Y-104.14
X194.31Y-106.68
X194.31Y-109.22
X194.31Y-111.76
X194.31Y-114.3
X194.31Y-116.84
X194.31Y-119.38
X194.31Y-121.92
X194.31Y-124.46
X194.31Y-127.0
X194.31Y-129.54
X194.31Y-132.08
X194.31Y-134.62
X194.31Y-137.16
X194.31Y-139.7
X194.31Y-142.24
X114.427Y-122.301
X114.427Y-137.541
X116.967Y-122.301
X116.967Y-137.541
X119.507Y-122.301
X119.507Y-137.541
X122.047Y-122.301
X122.047Y-137.541
X124.587Y-122.301
X124.587Y-137.541
X127.127Y-122.301
X127.127Y-137.541
X129.667Y-122.301
X129.667Y-137.541
X132.207Y-122.301
X132.207Y-137.541
X134.747Y-122.301
X134.747Y-137.541
X137.287Y-122.301
X137.287Y-137.541
X139.827Y-122.301
X139.827Y-137.541
X142.367Y-122.301
X142.367Y-137.541
X144.907Y-122.301
X144.907Y-137.541
X147.447Y-122.301
X147.447Y-137.541
X149.987Y-122.301
X149.987Y-137.541
X152.527Y-122.301
X152.527Y-137.541
X155.067Y-122.301
X155.067Y-137.541
X157.607Y-122.301
X157.607Y-137.541
X160.147Y-122.301
X160.147Y-137.541
X162.687Y-122.301
X162.687Y-137.541
X165.227Y-122.301
X165.227Y-137.541
X167.767Y-122.301
X167.767Y-137.541
X170.307Y-122.301
X170.307Y-137.541
X172.847Y-122.301
X172.847Y-137.541
X181.864Y-93.98
X181.864Y-96.52
X181.864Y-99.06
X181.864Y-101.6
X181.864Y-104.14
X181.864Y-106.68
X181.864Y-109.22
X181.864Y-111.76
X181.864Y-114.3
X181.864Y-116.84
X181.864Y-119.38
X181.864Y-121.92
X181.864Y-124.46
X181.864Y-127.0
X181.864Y-129.54
X181.864Y-132.08
X181.864Y-134.62
X181.864Y-137.16
X181.864Y-139.7
X181.864Y-142.24
X197.104Y-93.98
X197.104Y-96.52
X197.104Y-99.06
X197.104Y-101.6
X197.104Y-104.14
X197.104Y-106.68
X197.104Y-109.22
X197.104Y-111.76
X197.104Y-114.3
X197.104Y-116.84
X197.104Y-119.38
X197.104Y-121.92
X197.104Y-124.46
X197.104Y-127.0
X197.104Y-129.54
X197.104Y-132.08
X197.104Y-134.62
X197.104Y-137.16
X197.104Y-139.7
X197.104Y-142.24
X156.845Y-78.0
X156.845Y-80.54
X156.845Y-83.08
X156.845Y-85.62
X156.845Y-88.16
X156.845Y-90.7
X156.845Y-93.24
X156.845Y-95.78
X156.845Y-98.32
X156.845Y-100.86
X156.845Y-103.4
X156.845Y-105.94
X156.845Y-108.48
X156.845Y-111.02
X156.845Y-113.56
X156.845Y-116.1
X172.085Y-78.0
X172.085Y-80.54
X172.085Y-83.08
X172.085Y-85.62
X172.085Y-88.16
X172.085Y-90.7
X172.085Y-93.24
X172.085Y-95.78
X172.085Y-98.32
X172.085Y-100.86
X172.085Y-103.4
X172.085Y-105.94
X172.085Y-108.48
X172.085Y-111.02
X172.085Y-113.56
X172.085Y-116.1
X132.461Y-78.0
X132.461Y-80.54
X132.461Y-83.08
X132.461Y-85.62
X132.461Y-88.16
X132.461Y-90.7
X132.461Y-93.24
X132.461Y-95.78
X132.461Y-98.32
X132.461Y-100.86
X132.461Y-103.4
X132.461Y-105.94
X132.461Y-108.48
X132.461Y-111.02
X132.461Y-113.56
X132.461Y-116.1
X147.701Y-78.0
X147.701Y-80.54
X147.701Y-83.08
X147.701Y-85.62
X147.701Y-88.16
X147.701Y-90.7
X147.701Y-93.24
X147.701Y-95.78
X147.701Y-98.32
X147.701Y-100.86
X147.701Y-103.4
X147.701Y-105.94
X147.701Y-108.48
X147.701Y-111.02
X147.701Y-113.56
X147.701Y-116.1
T4
X115.316Y-144.145
X115.316Y-78.232
T0
M30
