G04 #@! TF.GenerationSoftware,KiCad,Pcbnew,(5.1.2-1)-1*
G04 #@! TF.CreationDate,2020-04-08T11:54:09+01:00*
G04 #@! TF.ProjectId,tranZPUter-SW,7472616e-5a50-4557-9465-722d53572e6b,rev?*
G04 #@! TF.SameCoordinates,Original*
G04 #@! TF.FileFunction,Legend,Bot*
G04 #@! TF.FilePolarity,Positive*
%FSLAX46Y46*%
G04 Gerber Fmt 4.6, Leading zero omitted, Abs format (unit mm)*
G04 Created by KiCad (PCBNEW (5.1.2-1)-1) date 2020-04-08 11:54:09*
%MOMM*%
%LPD*%
G04 APERTURE LIST*
%ADD10C,0.120000*%
%ADD11C,0.150000*%
G04 APERTURE END LIST*
D10*
X182880000Y-89154000D02*
X182753000Y-89154000D01*
X191576000Y-90177000D02*
X173676000Y-90177000D01*
X191576000Y-141217000D02*
X191576000Y-90177000D01*
X173676000Y-141217000D02*
X191576000Y-141217000D01*
X173676000Y-90177000D02*
X173676000Y-141217000D01*
X189086000Y-90237000D02*
X183626000Y-90237000D01*
X189086000Y-141157000D02*
X189086000Y-90237000D01*
X176166000Y-141157000D02*
X189086000Y-141157000D01*
X176166000Y-90237000D02*
X176166000Y-141157000D01*
X181626000Y-90237000D02*
X176166000Y-90237000D01*
X183626000Y-90237000D02*
G75*
G02X181626000Y-90237000I-1000000J0D01*
G01*
D11*
X183260904Y-88606380D02*
X183260904Y-89415904D01*
X183213285Y-89511142D01*
X183165666Y-89558761D01*
X183070428Y-89606380D01*
X182879952Y-89606380D01*
X182784714Y-89558761D01*
X182737095Y-89511142D01*
X182689476Y-89415904D01*
X182689476Y-88606380D01*
X182308523Y-88606380D02*
X181641857Y-88606380D01*
X182070428Y-89606380D01*
X185602190Y-142085571D02*
X185268857Y-142085571D01*
X185126000Y-142609380D02*
X185602190Y-142609380D01*
X185602190Y-141609380D01*
X185126000Y-141609380D01*
X184792666Y-142609380D02*
X184268857Y-141942714D01*
X184792666Y-141942714D02*
X184268857Y-142609380D01*
X184030761Y-141942714D02*
X183649809Y-141942714D01*
X183887904Y-141609380D02*
X183887904Y-142466523D01*
X183840285Y-142561761D01*
X183745047Y-142609380D01*
X183649809Y-142609380D01*
X182935523Y-142561761D02*
X183030761Y-142609380D01*
X183221238Y-142609380D01*
X183316476Y-142561761D01*
X183364095Y-142466523D01*
X183364095Y-142085571D01*
X183316476Y-141990333D01*
X183221238Y-141942714D01*
X183030761Y-141942714D01*
X182935523Y-141990333D01*
X182887904Y-142085571D01*
X182887904Y-142180809D01*
X183364095Y-142276047D01*
X182459333Y-141942714D02*
X182459333Y-142609380D01*
X182459333Y-142037952D02*
X182411714Y-141990333D01*
X182316476Y-141942714D01*
X182173619Y-141942714D01*
X182078380Y-141990333D01*
X182030761Y-142085571D01*
X182030761Y-142609380D01*
X181126000Y-142609380D02*
X181126000Y-141609380D01*
X181126000Y-142561761D02*
X181221238Y-142609380D01*
X181411714Y-142609380D01*
X181506952Y-142561761D01*
X181554571Y-142514142D01*
X181602190Y-142418904D01*
X181602190Y-142133190D01*
X181554571Y-142037952D01*
X181506952Y-141990333D01*
X181411714Y-141942714D01*
X181221238Y-141942714D01*
X181126000Y-141990333D01*
X180268857Y-142561761D02*
X180364095Y-142609380D01*
X180554571Y-142609380D01*
X180649809Y-142561761D01*
X180697428Y-142466523D01*
X180697428Y-142085571D01*
X180649809Y-141990333D01*
X180554571Y-141942714D01*
X180364095Y-141942714D01*
X180268857Y-141990333D01*
X180221238Y-142085571D01*
X180221238Y-142180809D01*
X180697428Y-142276047D01*
X179792666Y-142609380D02*
X179792666Y-141942714D01*
X179792666Y-142133190D02*
X179745047Y-142037952D01*
X179697428Y-141990333D01*
X179602190Y-141942714D01*
X179506952Y-141942714D01*
M02*
