G04 #@! TF.GenerationSoftware,KiCad,Pcbnew,(5.1.2-1)-1*
G04 #@! TF.CreationDate,2020-04-08T11:54:09+01:00*
G04 #@! TF.ProjectId,tranZPUter-SW,7472616e-5a50-4557-9465-722d53572e6b,rev?*
G04 #@! TF.SameCoordinates,Original*
G04 #@! TF.FileFunction,Other,Fab,Top*
%FSLAX46Y46*%
G04 Gerber Fmt 4.6, Leading zero omitted, Abs format (unit mm)*
G04 Created by KiCad (PCBNEW (5.1.2-1)-1) date 2020-04-08 11:54:09*
%MOMM*%
%LPD*%
G04 APERTURE LIST*
%ADD10C,0.100000*%
%ADD11C,0.150000*%
G04 APERTURE END LIST*
D10*
X147145000Y-100003000D02*
X129365000Y-100003000D01*
X147145000Y-140763000D02*
X147145000Y-100003000D01*
X129365000Y-140763000D02*
X147145000Y-140763000D01*
X129365000Y-100003000D02*
X129365000Y-140763000D01*
X130890000Y-101063000D02*
X131890000Y-100063000D01*
X130890000Y-140703000D02*
X130890000Y-101063000D01*
X145620000Y-140703000D02*
X130890000Y-140703000D01*
X145620000Y-100063000D02*
X145620000Y-140703000D01*
X131890000Y-100063000D02*
X145620000Y-100063000D01*
X191516000Y-90237000D02*
X173736000Y-90237000D01*
X191516000Y-141157000D02*
X191516000Y-90237000D01*
X173736000Y-141157000D02*
X191516000Y-141157000D01*
X173736000Y-90237000D02*
X173736000Y-141157000D01*
X175261000Y-91297000D02*
X176261000Y-90297000D01*
X175261000Y-141097000D02*
X175261000Y-91297000D01*
X189991000Y-141097000D02*
X175261000Y-141097000D01*
X189991000Y-90297000D02*
X189991000Y-141097000D01*
X176261000Y-90297000D02*
X189991000Y-90297000D01*
X129431000Y-145161000D02*
G75*
G03X129431000Y-145161000I-3400000J0D01*
G01*
X120131000Y-146161000D02*
X120131000Y-145661000D01*
X120131000Y-144661000D02*
X120131000Y-144161000D01*
X105946000Y-75562000D02*
X105946000Y-78362000D01*
X109446000Y-75562000D02*
X105946000Y-75562000D01*
X109446000Y-77662000D02*
X109446000Y-75562000D01*
X108746000Y-78362000D02*
X109446000Y-77662000D01*
X105946000Y-78362000D02*
X108746000Y-78362000D01*
X118646000Y-75689000D02*
X118646000Y-78489000D01*
X122146000Y-75689000D02*
X118646000Y-75689000D01*
X122146000Y-77789000D02*
X122146000Y-75689000D01*
X121446000Y-78489000D02*
X122146000Y-77789000D01*
X118646000Y-78489000D02*
X121446000Y-78489000D01*
X113046000Y-76997000D02*
X115046000Y-76997000D01*
X113046000Y-78197000D02*
X113046000Y-76997000D01*
X115046000Y-78197000D02*
X113046000Y-78197000D01*
X115046000Y-76997000D02*
X115046000Y-78197000D01*
X122809000Y-80077000D02*
X105029000Y-80077000D01*
X122809000Y-141157000D02*
X122809000Y-80077000D01*
X105029000Y-141157000D02*
X122809000Y-141157000D01*
X105029000Y-80077000D02*
X105029000Y-141157000D01*
X106554000Y-81137000D02*
X107554000Y-80137000D01*
X106554000Y-141097000D02*
X106554000Y-81137000D01*
X121284000Y-141097000D02*
X106554000Y-141097000D01*
X121284000Y-80137000D02*
X121284000Y-141097000D01*
X107554000Y-80137000D02*
X121284000Y-80137000D01*
X175342000Y-77358000D02*
X176317000Y-76383000D01*
X175342000Y-86283000D02*
X175342000Y-77358000D01*
X179242000Y-86283000D02*
X175342000Y-86283000D01*
X179242000Y-76383000D02*
X179242000Y-86283000D01*
X176317000Y-76383000D02*
X179242000Y-76383000D01*
X189723000Y-77358000D02*
X190698000Y-76383000D01*
X189723000Y-86283000D02*
X189723000Y-77358000D01*
X193623000Y-86283000D02*
X189723000Y-86283000D01*
X193623000Y-76383000D02*
X193623000Y-86283000D01*
X190698000Y-76383000D02*
X193623000Y-76383000D01*
X150685000Y-73931000D02*
X151660000Y-72956000D01*
X150685000Y-81606000D02*
X150685000Y-73931000D01*
X154585000Y-81606000D02*
X150685000Y-81606000D01*
X154585000Y-72956000D02*
X154585000Y-81606000D01*
X151660000Y-72956000D02*
X154585000Y-72956000D01*
X167145000Y-100003000D02*
X149365000Y-100003000D01*
X167145000Y-140763000D02*
X167145000Y-100003000D01*
X149365000Y-140763000D02*
X167145000Y-140763000D01*
X149365000Y-100003000D02*
X149365000Y-140763000D01*
X150890000Y-101063000D02*
X151890000Y-100063000D01*
X150890000Y-140703000D02*
X150890000Y-101063000D01*
X165620000Y-140703000D02*
X150890000Y-140703000D01*
X165620000Y-100063000D02*
X165620000Y-140703000D01*
X151890000Y-100063000D02*
X165620000Y-100063000D01*
X162685000Y-73931000D02*
X163660000Y-72956000D01*
X162685000Y-81606000D02*
X162685000Y-73931000D01*
X166585000Y-81606000D02*
X162685000Y-81606000D01*
X166585000Y-72956000D02*
X166585000Y-81606000D01*
X163660000Y-72956000D02*
X166585000Y-72956000D01*
X135237000Y-73981000D02*
X136237000Y-72981000D01*
X135237000Y-85781000D02*
X135237000Y-73981000D01*
X142737000Y-85781000D02*
X135237000Y-85781000D01*
X142737000Y-72981000D02*
X142737000Y-85781000D01*
X136237000Y-72981000D02*
X142737000Y-72981000D01*
X162685000Y-87983000D02*
X163660000Y-87008000D01*
X162685000Y-95658000D02*
X162685000Y-87983000D01*
X166585000Y-95658000D02*
X162685000Y-95658000D01*
X166585000Y-87008000D02*
X166585000Y-95658000D01*
X163660000Y-87008000D02*
X166585000Y-87008000D01*
X195072000Y-90237000D02*
X177292000Y-90237000D01*
X195072000Y-141157000D02*
X195072000Y-90237000D01*
X177292000Y-141157000D02*
X195072000Y-141157000D01*
X177292000Y-90237000D02*
X177292000Y-141157000D01*
X178817000Y-91297000D02*
X179817000Y-90297000D01*
X178817000Y-141097000D02*
X178817000Y-91297000D01*
X193547000Y-141097000D02*
X178817000Y-141097000D01*
X193547000Y-90297000D02*
X193547000Y-141097000D01*
X179817000Y-90297000D02*
X193547000Y-90297000D01*
X150685000Y-87983000D02*
X151660000Y-87008000D01*
X150685000Y-95658000D02*
X150685000Y-87983000D01*
X154585000Y-95658000D02*
X150685000Y-95658000D01*
X154585000Y-87008000D02*
X154585000Y-95658000D01*
X151660000Y-87008000D02*
X154585000Y-87008000D01*
X145270000Y-95679000D02*
X143270000Y-95679000D01*
X145270000Y-94479000D02*
X145270000Y-95679000D01*
X143270000Y-94479000D02*
X145270000Y-94479000D01*
X143270000Y-95679000D02*
X143270000Y-94479000D01*
X145270000Y-92679000D02*
X143270000Y-92679000D01*
X145270000Y-91479000D02*
X145270000Y-92679000D01*
X143270000Y-91479000D02*
X145270000Y-91479000D01*
X143270000Y-92679000D02*
X143270000Y-91479000D01*
X139270000Y-95679000D02*
X137270000Y-95679000D01*
X139270000Y-94479000D02*
X139270000Y-95679000D01*
X137270000Y-94479000D02*
X139270000Y-94479000D01*
X137270000Y-95679000D02*
X137270000Y-94479000D01*
X139270000Y-92679000D02*
X137270000Y-92679000D01*
X139270000Y-91479000D02*
X139270000Y-92679000D01*
X137270000Y-91479000D02*
X139270000Y-91479000D01*
X137270000Y-92679000D02*
X137270000Y-91479000D01*
X133270000Y-95679000D02*
X131270000Y-95679000D01*
X133270000Y-94479000D02*
X133270000Y-95679000D01*
X131270000Y-94479000D02*
X133270000Y-94479000D01*
X131270000Y-95679000D02*
X131270000Y-94479000D01*
X133270000Y-92679000D02*
X131270000Y-92679000D01*
X133270000Y-91479000D02*
X133270000Y-92679000D01*
X131270000Y-91479000D02*
X133270000Y-91479000D01*
X131270000Y-92679000D02*
X131270000Y-91479000D01*
X115046000Y-81753000D02*
X113046000Y-81753000D01*
X115046000Y-80553000D02*
X115046000Y-81753000D01*
X113046000Y-80553000D02*
X115046000Y-80553000D01*
X113046000Y-81753000D02*
X113046000Y-80553000D01*
X178419000Y-75403000D02*
X176419000Y-75403000D01*
X178419000Y-74203000D02*
X178419000Y-75403000D01*
X176419000Y-74203000D02*
X178419000Y-74203000D01*
X176419000Y-75403000D02*
X176419000Y-74203000D01*
X192779000Y-75403000D02*
X190779000Y-75403000D01*
X192779000Y-74203000D02*
X192779000Y-75403000D01*
X190779000Y-74203000D02*
X192779000Y-74203000D01*
X190779000Y-75403000D02*
X190779000Y-74203000D01*
X159242000Y-98644000D02*
X157242000Y-98644000D01*
X159242000Y-97444000D02*
X159242000Y-98644000D01*
X157242000Y-97444000D02*
X159242000Y-97444000D01*
X157242000Y-98644000D02*
X157242000Y-97444000D01*
X183531000Y-119161000D02*
X185531000Y-119161000D01*
X183531000Y-120361000D02*
X183531000Y-119161000D01*
X185531000Y-120361000D02*
X183531000Y-120361000D01*
X185531000Y-119161000D02*
X185531000Y-120361000D01*
X153654000Y-71974000D02*
X151654000Y-71974000D01*
X153654000Y-70774000D02*
X153654000Y-71974000D01*
X151654000Y-70774000D02*
X153654000Y-70774000D01*
X151654000Y-71974000D02*
X151654000Y-70774000D01*
X139938000Y-71974000D02*
X137938000Y-71974000D01*
X139938000Y-70774000D02*
X139938000Y-71974000D01*
X137938000Y-70774000D02*
X139938000Y-70774000D01*
X137938000Y-71974000D02*
X137938000Y-70774000D01*
X165846000Y-71974000D02*
X163846000Y-71974000D01*
X165846000Y-70774000D02*
X165846000Y-71974000D01*
X163846000Y-70774000D02*
X165846000Y-70774000D01*
X163846000Y-71974000D02*
X163846000Y-70774000D01*
X183531000Y-115478000D02*
X185531000Y-115478000D01*
X183531000Y-116678000D02*
X183531000Y-115478000D01*
X185531000Y-116678000D02*
X183531000Y-116678000D01*
X185531000Y-115478000D02*
X185531000Y-116678000D01*
X165846000Y-85933000D02*
X163846000Y-85933000D01*
X165846000Y-84733000D02*
X165846000Y-85933000D01*
X163846000Y-84733000D02*
X165846000Y-84733000D01*
X163846000Y-85933000D02*
X163846000Y-84733000D01*
X139270000Y-98679000D02*
X137270000Y-98679000D01*
X139270000Y-97479000D02*
X139270000Y-98679000D01*
X137270000Y-97479000D02*
X139270000Y-97479000D01*
X137270000Y-98679000D02*
X137270000Y-97479000D01*
X153781000Y-85933000D02*
X151781000Y-85933000D01*
X153781000Y-84733000D02*
X153781000Y-85933000D01*
X151781000Y-84733000D02*
X153781000Y-84733000D01*
X151781000Y-85933000D02*
X151781000Y-84733000D01*
D11*
X120441714Y-145107428D02*
X120548857Y-145143142D01*
X120584571Y-145178857D01*
X120620285Y-145250285D01*
X120620285Y-145357428D01*
X120584571Y-145428857D01*
X120548857Y-145464571D01*
X120477428Y-145500285D01*
X120191714Y-145500285D01*
X120191714Y-144750285D01*
X120441714Y-144750285D01*
X120513142Y-144786000D01*
X120548857Y-144821714D01*
X120584571Y-144893142D01*
X120584571Y-144964571D01*
X120548857Y-145036000D01*
X120513142Y-145071714D01*
X120441714Y-145107428D01*
X120191714Y-145107428D01*
X120834571Y-144750285D02*
X121263142Y-144750285D01*
X121048857Y-145500285D02*
X121048857Y-144750285D01*
X121906000Y-145500285D02*
X121477428Y-145500285D01*
X121691714Y-145500285D02*
X121691714Y-144750285D01*
X121620285Y-144857428D01*
X121548857Y-144928857D01*
X121477428Y-144964571D01*
M02*
