G04 #@! TF.GenerationSoftware,KiCad,Pcbnew,(5.1.2-1)-1*
G04 #@! TF.CreationDate,2020-04-08T11:54:09+01:00*
G04 #@! TF.ProjectId,tranZPUter-SW,7472616e-5a50-4557-9465-722d53572e6b,rev?*
G04 #@! TF.SameCoordinates,Original*
G04 #@! TF.FileFunction,Legend,Top*
G04 #@! TF.FilePolarity,Positive*
%FSLAX46Y46*%
G04 Gerber Fmt 4.6, Leading zero omitted, Abs format (unit mm)*
G04 Created by KiCad (PCBNEW (5.1.2-1)-1) date 2020-04-08 11:54:09*
%MOMM*%
%LPD*%
G04 APERTURE LIST*
%ADD10C,0.150000*%
%ADD11C,0.100000*%
%ADD12C,0.200000*%
%ADD13C,0.120000*%
G04 APERTURE END LIST*
D10*
X118046571Y-148407380D02*
X117713238Y-147931190D01*
X117475142Y-148407380D02*
X117475142Y-147407380D01*
X117856095Y-147407380D01*
X117951333Y-147455000D01*
X117998952Y-147502619D01*
X118046571Y-147597857D01*
X118046571Y-147740714D01*
X117998952Y-147835952D01*
X117951333Y-147883571D01*
X117856095Y-147931190D01*
X117475142Y-147931190D01*
X118332285Y-147407380D02*
X118903714Y-147407380D01*
X118618000Y-148407380D02*
X118618000Y-147407380D01*
X119808476Y-148312142D02*
X119760857Y-148359761D01*
X119618000Y-148407380D01*
X119522761Y-148407380D01*
X119379904Y-148359761D01*
X119284666Y-148264523D01*
X119237047Y-148169285D01*
X119189428Y-147978809D01*
X119189428Y-147835952D01*
X119237047Y-147645476D01*
X119284666Y-147550238D01*
X119379904Y-147455000D01*
X119522761Y-147407380D01*
X119618000Y-147407380D01*
X119760857Y-147455000D01*
X119808476Y-147502619D01*
D11*
X110615160Y-114331666D02*
X110581827Y-114293571D01*
X110519922Y-114179285D01*
X110491351Y-114103095D01*
X110467541Y-113988809D01*
X110453255Y-113798333D01*
X110472303Y-113645952D01*
X110534208Y-113455476D01*
X110586589Y-113341190D01*
X110634208Y-113265000D01*
X110724684Y-113150714D01*
X110767541Y-113112619D01*
X111072303Y-114026904D02*
X111000875Y-113988809D01*
X110967541Y-113950714D01*
X110938970Y-113874523D01*
X110967541Y-113645952D01*
X111015160Y-113569761D01*
X111058017Y-113531666D01*
X111138970Y-113493571D01*
X111253255Y-113493571D01*
X111324684Y-113531666D01*
X111358017Y-113569761D01*
X111386589Y-113645952D01*
X111358017Y-113874523D01*
X111310398Y-113950714D01*
X111267541Y-113988809D01*
X111186589Y-114026904D01*
X111072303Y-114026904D01*
X111748494Y-113493571D02*
X111648494Y-114293571D01*
X111743732Y-113531666D02*
X111824684Y-113493571D01*
X111977065Y-113493571D01*
X112048494Y-113531666D01*
X112081827Y-113569761D01*
X112110398Y-113645952D01*
X112081827Y-113874523D01*
X112034208Y-113950714D01*
X111991351Y-113988809D01*
X111910398Y-114026904D01*
X111758017Y-114026904D01*
X111686589Y-113988809D01*
X112358017Y-113493571D02*
X112662779Y-113493571D01*
X112505636Y-113226904D02*
X112419922Y-113912619D01*
X112448494Y-113988809D01*
X112519922Y-114026904D01*
X112596113Y-114026904D01*
X112862779Y-114026904D02*
X112929446Y-113493571D01*
X112962779Y-113226904D02*
X112919922Y-113265000D01*
X112953255Y-113303095D01*
X112996113Y-113265000D01*
X112962779Y-113226904D01*
X112953255Y-113303095D01*
X113358017Y-114026904D02*
X113286589Y-113988809D01*
X113253255Y-113950714D01*
X113224684Y-113874523D01*
X113253255Y-113645952D01*
X113300875Y-113569761D01*
X113343732Y-113531666D01*
X113424684Y-113493571D01*
X113538970Y-113493571D01*
X113610398Y-113531666D01*
X113643732Y-113569761D01*
X113672303Y-113645952D01*
X113643732Y-113874523D01*
X113596113Y-113950714D01*
X113553255Y-113988809D01*
X113472303Y-114026904D01*
X113358017Y-114026904D01*
X114034208Y-113493571D02*
X113967541Y-114026904D01*
X114024684Y-113569761D02*
X114067541Y-113531666D01*
X114148494Y-113493571D01*
X114262779Y-113493571D01*
X114334208Y-113531666D01*
X114362779Y-113607857D01*
X114310398Y-114026904D01*
X115034208Y-114026904D02*
X115086589Y-113607857D01*
X115058017Y-113531666D01*
X114986589Y-113493571D01*
X114834208Y-113493571D01*
X114753255Y-113531666D01*
X115038970Y-113988809D02*
X114958017Y-114026904D01*
X114767541Y-114026904D01*
X114696113Y-113988809D01*
X114667541Y-113912619D01*
X114677065Y-113836428D01*
X114724684Y-113760238D01*
X114805636Y-113722142D01*
X114996113Y-113722142D01*
X115077065Y-113684047D01*
X115529446Y-114026904D02*
X115458017Y-113988809D01*
X115429446Y-113912619D01*
X115515160Y-113226904D01*
X115719922Y-114331666D02*
X115762779Y-114293571D01*
X115853255Y-114179285D01*
X115900875Y-114103095D01*
X115953255Y-113988809D01*
X116015160Y-113798333D01*
X116034208Y-113645952D01*
X116019922Y-113455476D01*
X115996113Y-113341190D01*
X115967541Y-113265000D01*
X115905636Y-113150714D01*
X115872303Y-113112619D01*
D10*
X148940238Y-147986666D02*
X148902142Y-147948571D01*
X148825952Y-147834285D01*
X148787857Y-147758095D01*
X148749761Y-147643809D01*
X148711666Y-147453333D01*
X148711666Y-147300952D01*
X148749761Y-147110476D01*
X148787857Y-146996190D01*
X148825952Y-146920000D01*
X148902142Y-146805714D01*
X148940238Y-146767619D01*
X149702142Y-147605714D02*
X149664047Y-147643809D01*
X149549761Y-147681904D01*
X149473571Y-147681904D01*
X149359285Y-147643809D01*
X149283095Y-147567619D01*
X149245000Y-147491428D01*
X149206904Y-147339047D01*
X149206904Y-147224761D01*
X149245000Y-147072380D01*
X149283095Y-146996190D01*
X149359285Y-146920000D01*
X149473571Y-146881904D01*
X149549761Y-146881904D01*
X149664047Y-146920000D01*
X149702142Y-146958095D01*
X149968809Y-147986666D02*
X150006904Y-147948571D01*
X150083095Y-147834285D01*
X150121190Y-147758095D01*
X150159285Y-147643809D01*
X150197380Y-147453333D01*
X150197380Y-147300952D01*
X150159285Y-147110476D01*
X150121190Y-146996190D01*
X150083095Y-146920000D01*
X150006904Y-146805714D01*
X149968809Y-146767619D01*
X151187857Y-147681904D02*
X151187857Y-146881904D01*
X151492619Y-146881904D01*
X151568809Y-146920000D01*
X151606904Y-146958095D01*
X151645000Y-147034285D01*
X151645000Y-147148571D01*
X151606904Y-147224761D01*
X151568809Y-147262857D01*
X151492619Y-147300952D01*
X151187857Y-147300952D01*
X151987857Y-147605714D02*
X152025952Y-147643809D01*
X151987857Y-147681904D01*
X151949761Y-147643809D01*
X151987857Y-147605714D01*
X151987857Y-147681904D01*
X152368809Y-147681904D02*
X152368809Y-146881904D01*
X152559285Y-146881904D01*
X152673571Y-146920000D01*
X152749761Y-146996190D01*
X152787857Y-147072380D01*
X152825952Y-147224761D01*
X152825952Y-147339047D01*
X152787857Y-147491428D01*
X152749761Y-147567619D01*
X152673571Y-147643809D01*
X152559285Y-147681904D01*
X152368809Y-147681904D01*
X153168809Y-147605714D02*
X153206904Y-147643809D01*
X153168809Y-147681904D01*
X153130714Y-147643809D01*
X153168809Y-147605714D01*
X153168809Y-147681904D01*
X154121190Y-147643809D02*
X154235476Y-147681904D01*
X154425952Y-147681904D01*
X154502142Y-147643809D01*
X154540238Y-147605714D01*
X154578333Y-147529523D01*
X154578333Y-147453333D01*
X154540238Y-147377142D01*
X154502142Y-147339047D01*
X154425952Y-147300952D01*
X154273571Y-147262857D01*
X154197380Y-147224761D01*
X154159285Y-147186666D01*
X154121190Y-147110476D01*
X154121190Y-147034285D01*
X154159285Y-146958095D01*
X154197380Y-146920000D01*
X154273571Y-146881904D01*
X154464047Y-146881904D01*
X154578333Y-146920000D01*
X154921190Y-147681904D02*
X154921190Y-147148571D01*
X154921190Y-147224761D02*
X154959285Y-147186666D01*
X155035476Y-147148571D01*
X155149761Y-147148571D01*
X155225952Y-147186666D01*
X155264047Y-147262857D01*
X155264047Y-147681904D01*
X155264047Y-147262857D02*
X155302142Y-147186666D01*
X155378333Y-147148571D01*
X155492619Y-147148571D01*
X155568809Y-147186666D01*
X155606904Y-147262857D01*
X155606904Y-147681904D01*
X156330714Y-147681904D02*
X156330714Y-147262857D01*
X156292619Y-147186666D01*
X156216428Y-147148571D01*
X156064047Y-147148571D01*
X155987857Y-147186666D01*
X156330714Y-147643809D02*
X156254523Y-147681904D01*
X156064047Y-147681904D01*
X155987857Y-147643809D01*
X155949761Y-147567619D01*
X155949761Y-147491428D01*
X155987857Y-147415238D01*
X156064047Y-147377142D01*
X156254523Y-147377142D01*
X156330714Y-147339047D01*
X156711666Y-147681904D02*
X156711666Y-147148571D01*
X156711666Y-147300952D02*
X156749761Y-147224761D01*
X156787857Y-147186666D01*
X156864047Y-147148571D01*
X156940238Y-147148571D01*
X157092619Y-147148571D02*
X157397380Y-147148571D01*
X157206904Y-146881904D02*
X157206904Y-147567619D01*
X157245000Y-147643809D01*
X157321190Y-147681904D01*
X157397380Y-147681904D01*
X158235476Y-146958095D02*
X158273571Y-146920000D01*
X158349761Y-146881904D01*
X158540238Y-146881904D01*
X158616428Y-146920000D01*
X158654523Y-146958095D01*
X158692619Y-147034285D01*
X158692619Y-147110476D01*
X158654523Y-147224761D01*
X158197380Y-147681904D01*
X158692619Y-147681904D01*
X159187857Y-146881904D02*
X159264047Y-146881904D01*
X159340238Y-146920000D01*
X159378333Y-146958095D01*
X159416428Y-147034285D01*
X159454523Y-147186666D01*
X159454523Y-147377142D01*
X159416428Y-147529523D01*
X159378333Y-147605714D01*
X159340238Y-147643809D01*
X159264047Y-147681904D01*
X159187857Y-147681904D01*
X159111666Y-147643809D01*
X159073571Y-147605714D01*
X159035476Y-147529523D01*
X158997380Y-147377142D01*
X158997380Y-147186666D01*
X159035476Y-147034285D01*
X159073571Y-146958095D01*
X159111666Y-146920000D01*
X159187857Y-146881904D01*
X160216428Y-147681904D02*
X159759285Y-147681904D01*
X159987857Y-147681904D02*
X159987857Y-146881904D01*
X159911666Y-146996190D01*
X159835476Y-147072380D01*
X159759285Y-147110476D01*
X160597380Y-147681904D02*
X160749761Y-147681904D01*
X160825952Y-147643809D01*
X160864047Y-147605714D01*
X160940238Y-147491428D01*
X160978333Y-147339047D01*
X160978333Y-147034285D01*
X160940238Y-146958095D01*
X160902142Y-146920000D01*
X160825952Y-146881904D01*
X160673571Y-146881904D01*
X160597380Y-146920000D01*
X160559285Y-146958095D01*
X160521190Y-147034285D01*
X160521190Y-147224761D01*
X160559285Y-147300952D01*
X160597380Y-147339047D01*
X160673571Y-147377142D01*
X160825952Y-147377142D01*
X160902142Y-147339047D01*
X160940238Y-147300952D01*
X160978333Y-147224761D01*
X161321190Y-147377142D02*
X161930714Y-147377142D01*
X162273571Y-146958095D02*
X162311666Y-146920000D01*
X162387857Y-146881904D01*
X162578333Y-146881904D01*
X162654523Y-146920000D01*
X162692619Y-146958095D01*
X162730714Y-147034285D01*
X162730714Y-147110476D01*
X162692619Y-147224761D01*
X162235476Y-147681904D01*
X162730714Y-147681904D01*
X163225952Y-146881904D02*
X163302142Y-146881904D01*
X163378333Y-146920000D01*
X163416428Y-146958095D01*
X163454523Y-147034285D01*
X163492619Y-147186666D01*
X163492619Y-147377142D01*
X163454523Y-147529523D01*
X163416428Y-147605714D01*
X163378333Y-147643809D01*
X163302142Y-147681904D01*
X163225952Y-147681904D01*
X163149761Y-147643809D01*
X163111666Y-147605714D01*
X163073571Y-147529523D01*
X163035476Y-147377142D01*
X163035476Y-147186666D01*
X163073571Y-147034285D01*
X163111666Y-146958095D01*
X163149761Y-146920000D01*
X163225952Y-146881904D01*
X163797380Y-146958095D02*
X163835476Y-146920000D01*
X163911666Y-146881904D01*
X164102142Y-146881904D01*
X164178333Y-146920000D01*
X164216428Y-146958095D01*
X164254523Y-147034285D01*
X164254523Y-147110476D01*
X164216428Y-147224761D01*
X163759285Y-147681904D01*
X164254523Y-147681904D01*
X164749761Y-146881904D02*
X164825952Y-146881904D01*
X164902142Y-146920000D01*
X164940238Y-146958095D01*
X164978333Y-147034285D01*
X165016428Y-147186666D01*
X165016428Y-147377142D01*
X164978333Y-147529523D01*
X164940238Y-147605714D01*
X164902142Y-147643809D01*
X164825952Y-147681904D01*
X164749761Y-147681904D01*
X164673571Y-147643809D01*
X164635476Y-147605714D01*
X164597380Y-147529523D01*
X164559285Y-147377142D01*
X164559285Y-147186666D01*
X164597380Y-147034285D01*
X164635476Y-146958095D01*
X164673571Y-146920000D01*
X164749761Y-146881904D01*
D11*
X150631005Y-143448238D02*
X152097672Y-143448238D01*
X150356005Y-145648238D01*
X151822672Y-145648238D01*
X152660767Y-145648238D02*
X152935767Y-143448238D01*
X153773863Y-143448238D01*
X153970291Y-143553000D01*
X154061958Y-143657761D01*
X154140529Y-143867285D01*
X154101244Y-144181571D01*
X153970291Y-144391095D01*
X153852434Y-144495857D01*
X153629815Y-144600619D01*
X152791720Y-144600619D01*
X155135767Y-143448238D02*
X154913148Y-145229190D01*
X154991720Y-145438714D01*
X155083386Y-145543476D01*
X155279815Y-145648238D01*
X155698863Y-145648238D01*
X155921482Y-145543476D01*
X156039339Y-145438714D01*
X156170291Y-145229190D01*
X156392910Y-143448238D01*
D12*
X146289571Y-144331571D02*
X146861000Y-144331571D01*
X146503857Y-143831571D02*
X146503857Y-145117285D01*
X146575285Y-145260142D01*
X146718142Y-145331571D01*
X146861000Y-145331571D01*
X147361000Y-145331571D02*
X147361000Y-144331571D01*
X147361000Y-144617285D02*
X147432428Y-144474428D01*
X147503857Y-144403000D01*
X147646714Y-144331571D01*
X147789571Y-144331571D01*
X148932428Y-145331571D02*
X148932428Y-144545857D01*
X148861000Y-144403000D01*
X148718142Y-144331571D01*
X148432428Y-144331571D01*
X148289571Y-144403000D01*
X148932428Y-145260142D02*
X148789571Y-145331571D01*
X148432428Y-145331571D01*
X148289571Y-145260142D01*
X148218142Y-145117285D01*
X148218142Y-144974428D01*
X148289571Y-144831571D01*
X148432428Y-144760142D01*
X148789571Y-144760142D01*
X148932428Y-144688714D01*
X149646714Y-144331571D02*
X149646714Y-145331571D01*
X149646714Y-144474428D02*
X149718142Y-144403000D01*
X149861000Y-144331571D01*
X150075285Y-144331571D01*
X150218142Y-144403000D01*
X150289571Y-144545857D01*
X150289571Y-145331571D01*
X156503857Y-144331571D02*
X157075285Y-144331571D01*
X156718142Y-143831571D02*
X156718142Y-145117285D01*
X156789571Y-145260142D01*
X156932428Y-145331571D01*
X157075285Y-145331571D01*
X158146714Y-145260142D02*
X158003857Y-145331571D01*
X157718142Y-145331571D01*
X157575285Y-145260142D01*
X157503857Y-145117285D01*
X157503857Y-144545857D01*
X157575285Y-144403000D01*
X157718142Y-144331571D01*
X158003857Y-144331571D01*
X158146714Y-144403000D01*
X158218142Y-144545857D01*
X158218142Y-144688714D01*
X157503857Y-144831571D01*
X158861000Y-145331571D02*
X158861000Y-144331571D01*
X158861000Y-144617285D02*
X158932428Y-144474428D01*
X159003857Y-144403000D01*
X159146714Y-144331571D01*
X159289571Y-144331571D01*
X160861000Y-145260142D02*
X161075285Y-145331571D01*
X161432428Y-145331571D01*
X161575285Y-145260142D01*
X161646714Y-145188714D01*
X161718142Y-145045857D01*
X161718142Y-144903000D01*
X161646714Y-144760142D01*
X161575285Y-144688714D01*
X161432428Y-144617285D01*
X161146714Y-144545857D01*
X161003857Y-144474428D01*
X160932428Y-144403000D01*
X160861000Y-144260142D01*
X160861000Y-144117285D01*
X160932428Y-143974428D01*
X161003857Y-143903000D01*
X161146714Y-143831571D01*
X161503857Y-143831571D01*
X161718142Y-143903000D01*
X162218142Y-143831571D02*
X162575285Y-145331571D01*
X162861000Y-144260142D01*
X163146714Y-145331571D01*
X163503857Y-143831571D01*
X165075285Y-144331571D02*
X165432428Y-145331571D01*
X165789571Y-144331571D01*
X167146714Y-145331571D02*
X166289571Y-145331571D01*
X166718142Y-145331571D02*
X166718142Y-143831571D01*
X166575285Y-144045857D01*
X166432428Y-144188714D01*
X166289571Y-144260142D01*
X167789571Y-145188714D02*
X167861000Y-145260142D01*
X167789571Y-145331571D01*
X167718142Y-145260142D01*
X167789571Y-145188714D01*
X167789571Y-145331571D01*
X168789571Y-143831571D02*
X168932428Y-143831571D01*
X169075285Y-143903000D01*
X169146714Y-143974428D01*
X169218142Y-144117285D01*
X169289571Y-144403000D01*
X169289571Y-144760142D01*
X169218142Y-145045857D01*
X169146714Y-145188714D01*
X169075285Y-145260142D01*
X168932428Y-145331571D01*
X168789571Y-145331571D01*
X168646714Y-145260142D01*
X168575285Y-145188714D01*
X168503857Y-145045857D01*
X168432428Y-144760142D01*
X168432428Y-144403000D01*
X168503857Y-144117285D01*
X168575285Y-143974428D01*
X168646714Y-143903000D01*
X168789571Y-143831571D01*
D10*
X118046571Y-144252142D02*
X119189428Y-144252142D01*
X118046571Y-145903857D02*
X119189428Y-145903857D01*
X118618000Y-146479095D02*
X118618000Y-145328619D01*
D13*
X147205000Y-99943000D02*
X129305000Y-99943000D01*
X147205000Y-140823000D02*
X147205000Y-99943000D01*
X129305000Y-140823000D02*
X147205000Y-140823000D01*
X129305000Y-99943000D02*
X129305000Y-140823000D01*
X144715000Y-100003000D02*
X139255000Y-100003000D01*
X144715000Y-140763000D02*
X144715000Y-100003000D01*
X131795000Y-140763000D02*
X144715000Y-140763000D01*
X131795000Y-100003000D02*
X131795000Y-140763000D01*
X137255000Y-100003000D02*
X131795000Y-100003000D01*
X139255000Y-100003000D02*
G75*
G02X137255000Y-100003000I-1000000J0D01*
G01*
X129561000Y-145161000D02*
G75*
G03X129561000Y-145161000I-3530000J0D01*
G01*
X110331000Y-75452000D02*
X105946000Y-75452000D01*
X110331000Y-78472000D02*
X110331000Y-75452000D01*
X105946000Y-78472000D02*
X110331000Y-78472000D01*
X123031000Y-75579000D02*
X118646000Y-75579000D01*
X123031000Y-78599000D02*
X123031000Y-75579000D01*
X118646000Y-78599000D02*
X123031000Y-78599000D01*
X114307252Y-76887000D02*
X113784748Y-76887000D01*
X114307252Y-78307000D02*
X113784748Y-78307000D01*
X122869000Y-80017000D02*
X104969000Y-80017000D01*
X122869000Y-141217000D02*
X122869000Y-80017000D01*
X104969000Y-141217000D02*
X122869000Y-141217000D01*
X104969000Y-80017000D02*
X104969000Y-141217000D01*
X120379000Y-80077000D02*
X114919000Y-80077000D01*
X120379000Y-141157000D02*
X120379000Y-80077000D01*
X107459000Y-141157000D02*
X120379000Y-141157000D01*
X107459000Y-80077000D02*
X107459000Y-141157000D01*
X112919000Y-80077000D02*
X107459000Y-80077000D01*
X114919000Y-80077000D02*
G75*
G02X112919000Y-80077000I-1000000J0D01*
G01*
X177292000Y-76273000D02*
X173842000Y-76273000D01*
X177292000Y-76273000D02*
X179242000Y-76273000D01*
X177292000Y-86393000D02*
X175342000Y-86393000D01*
X177292000Y-86393000D02*
X179242000Y-86393000D01*
X191673000Y-76273000D02*
X188223000Y-76273000D01*
X191673000Y-76273000D02*
X193623000Y-76273000D01*
X191673000Y-86393000D02*
X189723000Y-86393000D01*
X191673000Y-86393000D02*
X193623000Y-86393000D01*
X152635000Y-72846000D02*
X149185000Y-72846000D01*
X152635000Y-72846000D02*
X154585000Y-72846000D01*
X152635000Y-81716000D02*
X150685000Y-81716000D01*
X152635000Y-81716000D02*
X154585000Y-81716000D01*
X167205000Y-99943000D02*
X149305000Y-99943000D01*
X167205000Y-140823000D02*
X167205000Y-99943000D01*
X149305000Y-140823000D02*
X167205000Y-140823000D01*
X149305000Y-99943000D02*
X149305000Y-140823000D01*
X164715000Y-100003000D02*
X159255000Y-100003000D01*
X164715000Y-140763000D02*
X164715000Y-100003000D01*
X151795000Y-140763000D02*
X164715000Y-140763000D01*
X151795000Y-100003000D02*
X151795000Y-140763000D01*
X157255000Y-100003000D02*
X151795000Y-100003000D01*
X159255000Y-100003000D02*
G75*
G02X157255000Y-100003000I-1000000J0D01*
G01*
X164635000Y-72846000D02*
X161185000Y-72846000D01*
X164635000Y-72846000D02*
X166585000Y-72846000D01*
X164635000Y-81716000D02*
X162685000Y-81716000D01*
X164635000Y-81716000D02*
X166585000Y-81716000D01*
X135127000Y-73106000D02*
X133312000Y-73106000D01*
X135127000Y-72871000D02*
X135127000Y-73106000D01*
X138987000Y-72871000D02*
X135127000Y-72871000D01*
X142847000Y-72871000D02*
X142847000Y-73106000D01*
X138987000Y-72871000D02*
X142847000Y-72871000D01*
X135127000Y-85891000D02*
X135127000Y-85656000D01*
X138987000Y-85891000D02*
X135127000Y-85891000D01*
X142847000Y-85891000D02*
X142847000Y-85656000D01*
X138987000Y-85891000D02*
X142847000Y-85891000D01*
X164635000Y-86898000D02*
X161185000Y-86898000D01*
X164635000Y-86898000D02*
X166585000Y-86898000D01*
X164635000Y-95768000D02*
X162685000Y-95768000D01*
X164635000Y-95768000D02*
X166585000Y-95768000D01*
X195132000Y-90177000D02*
X177232000Y-90177000D01*
X195132000Y-141217000D02*
X195132000Y-90177000D01*
X177232000Y-141217000D02*
X195132000Y-141217000D01*
X177232000Y-90177000D02*
X177232000Y-141217000D01*
X192642000Y-90237000D02*
X187182000Y-90237000D01*
X192642000Y-141157000D02*
X192642000Y-90237000D01*
X179722000Y-141157000D02*
X192642000Y-141157000D01*
X179722000Y-90237000D02*
X179722000Y-141157000D01*
X185182000Y-90237000D02*
X179722000Y-90237000D01*
X187182000Y-90237000D02*
G75*
G02X185182000Y-90237000I-1000000J0D01*
G01*
X152635000Y-86898000D02*
X149185000Y-86898000D01*
X152635000Y-86898000D02*
X154585000Y-86898000D01*
X152635000Y-95768000D02*
X150685000Y-95768000D01*
X152635000Y-95768000D02*
X154585000Y-95768000D01*
X144008748Y-95789000D02*
X144531252Y-95789000D01*
X144008748Y-94369000D02*
X144531252Y-94369000D01*
X144008748Y-92789000D02*
X144531252Y-92789000D01*
X144008748Y-91369000D02*
X144531252Y-91369000D01*
X138008748Y-95789000D02*
X138531252Y-95789000D01*
X138008748Y-94369000D02*
X138531252Y-94369000D01*
X138008748Y-92789000D02*
X138531252Y-92789000D01*
X138008748Y-91369000D02*
X138531252Y-91369000D01*
X132008748Y-95789000D02*
X132531252Y-95789000D01*
X132008748Y-94369000D02*
X132531252Y-94369000D01*
X132008748Y-92789000D02*
X132531252Y-92789000D01*
X132008748Y-91369000D02*
X132531252Y-91369000D01*
X113784748Y-81863000D02*
X114307252Y-81863000D01*
X113784748Y-80443000D02*
X114307252Y-80443000D01*
X177157748Y-75513000D02*
X177680252Y-75513000D01*
X177157748Y-74093000D02*
X177680252Y-74093000D01*
X191517748Y-75513000D02*
X192040252Y-75513000D01*
X191517748Y-74093000D02*
X192040252Y-74093000D01*
X157980748Y-98754000D02*
X158503252Y-98754000D01*
X157980748Y-97334000D02*
X158503252Y-97334000D01*
X184792252Y-119051000D02*
X184269748Y-119051000D01*
X184792252Y-120471000D02*
X184269748Y-120471000D01*
X152392748Y-72084000D02*
X152915252Y-72084000D01*
X152392748Y-70664000D02*
X152915252Y-70664000D01*
X138676748Y-72084000D02*
X139199252Y-72084000D01*
X138676748Y-70664000D02*
X139199252Y-70664000D01*
X164584748Y-72084000D02*
X165107252Y-72084000D01*
X164584748Y-70664000D02*
X165107252Y-70664000D01*
X184792252Y-115368000D02*
X184269748Y-115368000D01*
X184792252Y-116788000D02*
X184269748Y-116788000D01*
X164584748Y-86043000D02*
X165107252Y-86043000D01*
X164584748Y-84623000D02*
X165107252Y-84623000D01*
X138008748Y-98789000D02*
X138531252Y-98789000D01*
X138008748Y-97369000D02*
X138531252Y-97369000D01*
X152519748Y-86043000D02*
X153042252Y-86043000D01*
X152519748Y-84623000D02*
X153042252Y-84623000D01*
D10*
X146812095Y-98455380D02*
X146812095Y-99264904D01*
X146859714Y-99360142D01*
X146907333Y-99407761D01*
X147002571Y-99455380D01*
X147193047Y-99455380D01*
X147288285Y-99407761D01*
X147335904Y-99360142D01*
X147383523Y-99264904D01*
X147383523Y-98455380D01*
X147812095Y-98550619D02*
X147859714Y-98503000D01*
X147954952Y-98455380D01*
X148193047Y-98455380D01*
X148288285Y-98503000D01*
X148335904Y-98550619D01*
X148383523Y-98645857D01*
X148383523Y-98741095D01*
X148335904Y-98883952D01*
X147764476Y-99455380D01*
X148383523Y-99455380D01*
X134453761Y-124372666D02*
X134929952Y-124372666D01*
X134358523Y-124658380D02*
X134691857Y-123658380D01*
X135025190Y-124658380D01*
X135310904Y-124610761D02*
X135453761Y-124658380D01*
X135691857Y-124658380D01*
X135787095Y-124610761D01*
X135834714Y-124563142D01*
X135882333Y-124467904D01*
X135882333Y-124372666D01*
X135834714Y-124277428D01*
X135787095Y-124229809D01*
X135691857Y-124182190D01*
X135501380Y-124134571D01*
X135406142Y-124086952D01*
X135358523Y-124039333D01*
X135310904Y-123944095D01*
X135310904Y-123848857D01*
X135358523Y-123753619D01*
X135406142Y-123706000D01*
X135501380Y-123658380D01*
X135739476Y-123658380D01*
X135882333Y-123706000D01*
X136739476Y-123658380D02*
X136549000Y-123658380D01*
X136453761Y-123706000D01*
X136406142Y-123753619D01*
X136310904Y-123896476D01*
X136263285Y-124086952D01*
X136263285Y-124467904D01*
X136310904Y-124563142D01*
X136358523Y-124610761D01*
X136453761Y-124658380D01*
X136644238Y-124658380D01*
X136739476Y-124610761D01*
X136787095Y-124563142D01*
X136834714Y-124467904D01*
X136834714Y-124229809D01*
X136787095Y-124134571D01*
X136739476Y-124086952D01*
X136644238Y-124039333D01*
X136453761Y-124039333D01*
X136358523Y-124086952D01*
X136310904Y-124134571D01*
X136263285Y-124229809D01*
X137834714Y-124563142D02*
X137787095Y-124610761D01*
X137644238Y-124658380D01*
X137549000Y-124658380D01*
X137406142Y-124610761D01*
X137310904Y-124515523D01*
X137263285Y-124420285D01*
X137215666Y-124229809D01*
X137215666Y-124086952D01*
X137263285Y-123896476D01*
X137310904Y-123801238D01*
X137406142Y-123706000D01*
X137549000Y-123658380D01*
X137644238Y-123658380D01*
X137787095Y-123706000D01*
X137834714Y-123753619D01*
X138691857Y-123991714D02*
X138691857Y-124658380D01*
X138453761Y-123610761D02*
X138215666Y-124325047D01*
X138834714Y-124325047D01*
X139406142Y-123658380D02*
X139501380Y-123658380D01*
X139596619Y-123706000D01*
X139644238Y-123753619D01*
X139691857Y-123848857D01*
X139739476Y-124039333D01*
X139739476Y-124277428D01*
X139691857Y-124467904D01*
X139644238Y-124563142D01*
X139596619Y-124610761D01*
X139501380Y-124658380D01*
X139406142Y-124658380D01*
X139310904Y-124610761D01*
X139263285Y-124563142D01*
X139215666Y-124467904D01*
X139168047Y-124277428D01*
X139168047Y-124039333D01*
X139215666Y-123848857D01*
X139263285Y-123753619D01*
X139310904Y-123706000D01*
X139406142Y-123658380D01*
X140358523Y-123658380D02*
X140453761Y-123658380D01*
X140549000Y-123706000D01*
X140596619Y-123753619D01*
X140644238Y-123848857D01*
X140691857Y-124039333D01*
X140691857Y-124277428D01*
X140644238Y-124467904D01*
X140596619Y-124563142D01*
X140549000Y-124610761D01*
X140453761Y-124658380D01*
X140358523Y-124658380D01*
X140263285Y-124610761D01*
X140215666Y-124563142D01*
X140168047Y-124467904D01*
X140120428Y-124277428D01*
X140120428Y-124039333D01*
X140168047Y-123848857D01*
X140215666Y-123753619D01*
X140263285Y-123706000D01*
X140358523Y-123658380D01*
X141263285Y-124086952D02*
X141168047Y-124039333D01*
X141120428Y-123991714D01*
X141072809Y-123896476D01*
X141072809Y-123848857D01*
X141120428Y-123753619D01*
X141168047Y-123706000D01*
X141263285Y-123658380D01*
X141453761Y-123658380D01*
X141549000Y-123706000D01*
X141596619Y-123753619D01*
X141644238Y-123848857D01*
X141644238Y-123896476D01*
X141596619Y-123991714D01*
X141549000Y-124039333D01*
X141453761Y-124086952D01*
X141263285Y-124086952D01*
X141168047Y-124134571D01*
X141120428Y-124182190D01*
X141072809Y-124277428D01*
X141072809Y-124467904D01*
X141120428Y-124563142D01*
X141168047Y-124610761D01*
X141263285Y-124658380D01*
X141453761Y-124658380D01*
X141549000Y-124610761D01*
X141596619Y-124563142D01*
X141644238Y-124467904D01*
X141644238Y-124277428D01*
X141596619Y-124182190D01*
X141549000Y-124134571D01*
X141453761Y-124086952D01*
X125198285Y-143819571D02*
X125341142Y-143867190D01*
X125388761Y-143914809D01*
X125436380Y-144010047D01*
X125436380Y-144152904D01*
X125388761Y-144248142D01*
X125341142Y-144295761D01*
X125245904Y-144343380D01*
X124864952Y-144343380D01*
X124864952Y-143343380D01*
X125198285Y-143343380D01*
X125293523Y-143391000D01*
X125341142Y-143438619D01*
X125388761Y-143533857D01*
X125388761Y-143629095D01*
X125341142Y-143724333D01*
X125293523Y-143771952D01*
X125198285Y-143819571D01*
X124864952Y-143819571D01*
X125722095Y-143343380D02*
X126293523Y-143343380D01*
X126007809Y-144343380D02*
X126007809Y-143343380D01*
X127150666Y-144343380D02*
X126579238Y-144343380D01*
X126864952Y-144343380D02*
X126864952Y-143343380D01*
X126769714Y-143486238D01*
X126674476Y-143581476D01*
X126579238Y-143629095D01*
X123317333Y-146248380D02*
X123317333Y-145248380D01*
X123650666Y-145962666D01*
X123984000Y-145248380D01*
X123984000Y-146248380D01*
X124412571Y-146200761D02*
X124555428Y-146248380D01*
X124793523Y-146248380D01*
X124888761Y-146200761D01*
X124936380Y-146153142D01*
X124984000Y-146057904D01*
X124984000Y-145962666D01*
X124936380Y-145867428D01*
X124888761Y-145819809D01*
X124793523Y-145772190D01*
X124603047Y-145724571D01*
X124507809Y-145676952D01*
X124460190Y-145629333D01*
X124412571Y-145534095D01*
X124412571Y-145438857D01*
X124460190Y-145343619D01*
X124507809Y-145296000D01*
X124603047Y-145248380D01*
X124841142Y-145248380D01*
X124984000Y-145296000D01*
X125841142Y-145248380D02*
X125650666Y-145248380D01*
X125555428Y-145296000D01*
X125507809Y-145343619D01*
X125412571Y-145486476D01*
X125364952Y-145676952D01*
X125364952Y-146057904D01*
X125412571Y-146153142D01*
X125460190Y-146200761D01*
X125555428Y-146248380D01*
X125745904Y-146248380D01*
X125841142Y-146200761D01*
X125888761Y-146153142D01*
X125936380Y-146057904D01*
X125936380Y-145819809D01*
X125888761Y-145724571D01*
X125841142Y-145676952D01*
X125745904Y-145629333D01*
X125555428Y-145629333D01*
X125460190Y-145676952D01*
X125412571Y-145724571D01*
X125364952Y-145819809D01*
X126317333Y-145343619D02*
X126364952Y-145296000D01*
X126460190Y-145248380D01*
X126698285Y-145248380D01*
X126793523Y-145296000D01*
X126841142Y-145343619D01*
X126888761Y-145438857D01*
X126888761Y-145534095D01*
X126841142Y-145676952D01*
X126269714Y-146248380D01*
X126888761Y-146248380D01*
X127841142Y-146248380D02*
X127269714Y-146248380D01*
X127555428Y-146248380D02*
X127555428Y-145248380D01*
X127460190Y-145391238D01*
X127364952Y-145486476D01*
X127269714Y-145534095D01*
X128603047Y-145724571D02*
X128269714Y-145724571D01*
X128269714Y-146248380D02*
X128269714Y-145248380D01*
X128745904Y-145248380D01*
X107180142Y-75033142D02*
X107132523Y-75080761D01*
X106989666Y-75128380D01*
X106894428Y-75128380D01*
X106751571Y-75080761D01*
X106656333Y-74985523D01*
X106608714Y-74890285D01*
X106561095Y-74699809D01*
X106561095Y-74556952D01*
X106608714Y-74366476D01*
X106656333Y-74271238D01*
X106751571Y-74176000D01*
X106894428Y-74128380D01*
X106989666Y-74128380D01*
X107132523Y-74176000D01*
X107180142Y-74223619D01*
X108132523Y-75128380D02*
X107561095Y-75128380D01*
X107846809Y-75128380D02*
X107846809Y-74128380D01*
X107751571Y-74271238D01*
X107656333Y-74366476D01*
X107561095Y-74414095D01*
X109037285Y-74128380D02*
X108561095Y-74128380D01*
X108513476Y-74604571D01*
X108561095Y-74556952D01*
X108656333Y-74509333D01*
X108894428Y-74509333D01*
X108989666Y-74556952D01*
X109037285Y-74604571D01*
X109084904Y-74699809D01*
X109084904Y-74937904D01*
X109037285Y-75033142D01*
X108989666Y-75080761D01*
X108894428Y-75128380D01*
X108656333Y-75128380D01*
X108561095Y-75080761D01*
X108513476Y-75033142D01*
X119753142Y-75160142D02*
X119705523Y-75207761D01*
X119562666Y-75255380D01*
X119467428Y-75255380D01*
X119324571Y-75207761D01*
X119229333Y-75112523D01*
X119181714Y-75017285D01*
X119134095Y-74826809D01*
X119134095Y-74683952D01*
X119181714Y-74493476D01*
X119229333Y-74398238D01*
X119324571Y-74303000D01*
X119467428Y-74255380D01*
X119562666Y-74255380D01*
X119705523Y-74303000D01*
X119753142Y-74350619D01*
X120705523Y-75255380D02*
X120134095Y-75255380D01*
X120419809Y-75255380D02*
X120419809Y-74255380D01*
X120324571Y-74398238D01*
X120229333Y-74493476D01*
X120134095Y-74541095D01*
X121038857Y-74255380D02*
X121657904Y-74255380D01*
X121324571Y-74636333D01*
X121467428Y-74636333D01*
X121562666Y-74683952D01*
X121610285Y-74731571D01*
X121657904Y-74826809D01*
X121657904Y-75064904D01*
X121610285Y-75160142D01*
X121562666Y-75207761D01*
X121467428Y-75255380D01*
X121181714Y-75255380D01*
X121086476Y-75207761D01*
X121038857Y-75160142D01*
X113403142Y-76303142D02*
X113355523Y-76350761D01*
X113212666Y-76398380D01*
X113117428Y-76398380D01*
X112974571Y-76350761D01*
X112879333Y-76255523D01*
X112831714Y-76160285D01*
X112784095Y-75969809D01*
X112784095Y-75826952D01*
X112831714Y-75636476D01*
X112879333Y-75541238D01*
X112974571Y-75446000D01*
X113117428Y-75398380D01*
X113212666Y-75398380D01*
X113355523Y-75446000D01*
X113403142Y-75493619D01*
X114355523Y-76398380D02*
X113784095Y-76398380D01*
X114069809Y-76398380D02*
X114069809Y-75398380D01*
X113974571Y-75541238D01*
X113879333Y-75636476D01*
X113784095Y-75684095D01*
X115212666Y-75731714D02*
X115212666Y-76398380D01*
X114974571Y-75350761D02*
X114736476Y-76065047D01*
X115355523Y-76065047D01*
X123348904Y-78827380D02*
X123348904Y-79636904D01*
X123396523Y-79732142D01*
X123444142Y-79779761D01*
X123539380Y-79827380D01*
X123729857Y-79827380D01*
X123825095Y-79779761D01*
X123872714Y-79732142D01*
X123920333Y-79636904D01*
X123920333Y-78827380D01*
X124920333Y-79827380D02*
X124348904Y-79827380D01*
X124634619Y-79827380D02*
X124634619Y-78827380D01*
X124539380Y-78970238D01*
X124444142Y-79065476D01*
X124348904Y-79113095D01*
X125301285Y-78922619D02*
X125348904Y-78875000D01*
X125444142Y-78827380D01*
X125682238Y-78827380D01*
X125777476Y-78875000D01*
X125825095Y-78922619D01*
X125872714Y-79017857D01*
X125872714Y-79113095D01*
X125825095Y-79255952D01*
X125253666Y-79827380D01*
X125872714Y-79827380D01*
X109966571Y-111339380D02*
X110538000Y-111339380D01*
X110252285Y-112339380D02*
X110252285Y-111339380D01*
X111252285Y-112291761D02*
X111157047Y-112339380D01*
X110966571Y-112339380D01*
X110871333Y-112291761D01*
X110823714Y-112196523D01*
X110823714Y-111815571D01*
X110871333Y-111720333D01*
X110966571Y-111672714D01*
X111157047Y-111672714D01*
X111252285Y-111720333D01*
X111299904Y-111815571D01*
X111299904Y-111910809D01*
X110823714Y-112006047D01*
X112109428Y-112291761D02*
X112014190Y-112339380D01*
X111823714Y-112339380D01*
X111728476Y-112291761D01*
X111680857Y-112196523D01*
X111680857Y-111815571D01*
X111728476Y-111720333D01*
X111823714Y-111672714D01*
X112014190Y-111672714D01*
X112109428Y-111720333D01*
X112157047Y-111815571D01*
X112157047Y-111910809D01*
X111680857Y-112006047D01*
X112585619Y-111672714D02*
X112585619Y-112339380D01*
X112585619Y-111767952D02*
X112633238Y-111720333D01*
X112728476Y-111672714D01*
X112871333Y-111672714D01*
X112966571Y-111720333D01*
X113014190Y-111815571D01*
X113014190Y-112339380D01*
X113442761Y-112291761D02*
X113538000Y-112339380D01*
X113728476Y-112339380D01*
X113823714Y-112291761D01*
X113871333Y-112196523D01*
X113871333Y-112148904D01*
X113823714Y-112053666D01*
X113728476Y-112006047D01*
X113585619Y-112006047D01*
X113490380Y-111958428D01*
X113442761Y-111863190D01*
X113442761Y-111815571D01*
X113490380Y-111720333D01*
X113585619Y-111672714D01*
X113728476Y-111672714D01*
X113823714Y-111720333D01*
X114204666Y-111672714D02*
X114442761Y-112339380D01*
X114680857Y-111672714D02*
X114442761Y-112339380D01*
X114347523Y-112577476D01*
X114299904Y-112625095D01*
X114204666Y-112672714D01*
X114966571Y-111339380D02*
X115585619Y-111339380D01*
X115252285Y-111720333D01*
X115395142Y-111720333D01*
X115490380Y-111767952D01*
X115538000Y-111815571D01*
X115585619Y-111910809D01*
X115585619Y-112148904D01*
X115538000Y-112244142D01*
X115490380Y-112291761D01*
X115395142Y-112339380D01*
X115109428Y-112339380D01*
X115014190Y-112291761D01*
X114966571Y-112244142D01*
X116014190Y-112244142D02*
X116061809Y-112291761D01*
X116014190Y-112339380D01*
X115966571Y-112291761D01*
X116014190Y-112244142D01*
X116014190Y-112339380D01*
X116966571Y-111339380D02*
X116490380Y-111339380D01*
X116442761Y-111815571D01*
X116490380Y-111767952D01*
X116585619Y-111720333D01*
X116823714Y-111720333D01*
X116918952Y-111767952D01*
X116966571Y-111815571D01*
X117014190Y-111910809D01*
X117014190Y-112148904D01*
X116966571Y-112244142D01*
X116918952Y-112291761D01*
X116823714Y-112339380D01*
X116585619Y-112339380D01*
X116490380Y-112291761D01*
X116442761Y-112244142D01*
X179736904Y-74816380D02*
X179736904Y-75625904D01*
X179784523Y-75721142D01*
X179832142Y-75768761D01*
X179927380Y-75816380D01*
X180117857Y-75816380D01*
X180213095Y-75768761D01*
X180260714Y-75721142D01*
X180308333Y-75625904D01*
X180308333Y-74816380D01*
X181308333Y-75816380D02*
X180736904Y-75816380D01*
X181022619Y-75816380D02*
X181022619Y-74816380D01*
X180927380Y-74959238D01*
X180832142Y-75054476D01*
X180736904Y-75102095D01*
X182260714Y-75816380D02*
X181689285Y-75816380D01*
X181975000Y-75816380D02*
X181975000Y-74816380D01*
X181879761Y-74959238D01*
X181784523Y-75054476D01*
X181689285Y-75102095D01*
D11*
X177565809Y-79720476D02*
X177565809Y-80053809D01*
X177065809Y-79839523D01*
X177399142Y-80458571D02*
X177065809Y-80458571D01*
X177589619Y-80339523D02*
X177232476Y-80220476D01*
X177232476Y-80530000D01*
X177065809Y-80958571D02*
X177065809Y-80720476D01*
X177565809Y-80720476D01*
X177089619Y-81101428D02*
X177065809Y-81172857D01*
X177065809Y-81291904D01*
X177089619Y-81339523D01*
X177113428Y-81363333D01*
X177161047Y-81387142D01*
X177208666Y-81387142D01*
X177256285Y-81363333D01*
X177280095Y-81339523D01*
X177303904Y-81291904D01*
X177327714Y-81196666D01*
X177351523Y-81149047D01*
X177375333Y-81125238D01*
X177422952Y-81101428D01*
X177470571Y-81101428D01*
X177518190Y-81125238D01*
X177542000Y-81149047D01*
X177565809Y-81196666D01*
X177565809Y-81315714D01*
X177542000Y-81387142D01*
X177518190Y-81577619D02*
X177542000Y-81601428D01*
X177565809Y-81649047D01*
X177565809Y-81768095D01*
X177542000Y-81815714D01*
X177518190Y-81839523D01*
X177470571Y-81863333D01*
X177422952Y-81863333D01*
X177351523Y-81839523D01*
X177065809Y-81553809D01*
X177065809Y-81863333D01*
X177565809Y-82030000D02*
X177565809Y-82363333D01*
X177065809Y-82149047D01*
X177065809Y-82577619D02*
X177065809Y-82672857D01*
X177089619Y-82720476D01*
X177113428Y-82744285D01*
X177184857Y-82791904D01*
X177280095Y-82815714D01*
X177470571Y-82815714D01*
X177518190Y-82791904D01*
X177542000Y-82768095D01*
X177565809Y-82720476D01*
X177565809Y-82625238D01*
X177542000Y-82577619D01*
X177518190Y-82553809D01*
X177470571Y-82530000D01*
X177351523Y-82530000D01*
X177303904Y-82553809D01*
X177280095Y-82577619D01*
X177256285Y-82625238D01*
X177256285Y-82720476D01*
X177280095Y-82768095D01*
X177303904Y-82791904D01*
X177351523Y-82815714D01*
D10*
X194087904Y-74885380D02*
X194087904Y-75694904D01*
X194135523Y-75790142D01*
X194183142Y-75837761D01*
X194278380Y-75885380D01*
X194468857Y-75885380D01*
X194564095Y-75837761D01*
X194611714Y-75790142D01*
X194659333Y-75694904D01*
X194659333Y-74885380D01*
X195659333Y-75885380D02*
X195087904Y-75885380D01*
X195373619Y-75885380D02*
X195373619Y-74885380D01*
X195278380Y-75028238D01*
X195183142Y-75123476D01*
X195087904Y-75171095D01*
X196278380Y-74885380D02*
X196373619Y-74885380D01*
X196468857Y-74933000D01*
X196516476Y-74980619D01*
X196564095Y-75075857D01*
X196611714Y-75266333D01*
X196611714Y-75504428D01*
X196564095Y-75694904D01*
X196516476Y-75790142D01*
X196468857Y-75837761D01*
X196373619Y-75885380D01*
X196278380Y-75885380D01*
X196183142Y-75837761D01*
X196135523Y-75790142D01*
X196087904Y-75694904D01*
X196040285Y-75504428D01*
X196040285Y-75266333D01*
X196087904Y-75075857D01*
X196135523Y-74980619D01*
X196183142Y-74933000D01*
X196278380Y-74885380D01*
D11*
X192043809Y-79712571D02*
X192043809Y-80045904D01*
X191543809Y-79831619D01*
X191877142Y-80450666D02*
X191543809Y-80450666D01*
X192067619Y-80331619D02*
X191710476Y-80212571D01*
X191710476Y-80522095D01*
X191543809Y-80712571D02*
X192043809Y-80712571D01*
X191805714Y-80712571D02*
X191805714Y-80998285D01*
X191543809Y-80998285D02*
X192043809Y-80998285D01*
X191591428Y-81522095D02*
X191567619Y-81498285D01*
X191543809Y-81426857D01*
X191543809Y-81379238D01*
X191567619Y-81307809D01*
X191615238Y-81260190D01*
X191662857Y-81236380D01*
X191758095Y-81212571D01*
X191829523Y-81212571D01*
X191924761Y-81236380D01*
X191972380Y-81260190D01*
X192020000Y-81307809D01*
X192043809Y-81379238D01*
X192043809Y-81426857D01*
X192020000Y-81498285D01*
X191996190Y-81522095D01*
X192043809Y-81664952D02*
X192043809Y-81950666D01*
X191543809Y-81807809D02*
X192043809Y-81807809D01*
X191543809Y-82379238D02*
X191543809Y-82093523D01*
X191543809Y-82236380D02*
X192043809Y-82236380D01*
X191972380Y-82188761D01*
X191924761Y-82141142D01*
X191900952Y-82093523D01*
X192043809Y-82545904D02*
X192043809Y-82855428D01*
X191853333Y-82688761D01*
X191853333Y-82760190D01*
X191829523Y-82807809D01*
X191805714Y-82831619D01*
X191758095Y-82855428D01*
X191639047Y-82855428D01*
X191591428Y-82831619D01*
X191567619Y-82807809D01*
X191543809Y-82760190D01*
X191543809Y-82617333D01*
X191567619Y-82569714D01*
X191591428Y-82545904D01*
X191829523Y-83141142D02*
X191853333Y-83093523D01*
X191877142Y-83069714D01*
X191924761Y-83045904D01*
X191948571Y-83045904D01*
X191996190Y-83069714D01*
X192020000Y-83093523D01*
X192043809Y-83141142D01*
X192043809Y-83236380D01*
X192020000Y-83284000D01*
X191996190Y-83307809D01*
X191948571Y-83331619D01*
X191924761Y-83331619D01*
X191877142Y-83307809D01*
X191853333Y-83284000D01*
X191829523Y-83236380D01*
X191829523Y-83141142D01*
X191805714Y-83093523D01*
X191781904Y-83069714D01*
X191734285Y-83045904D01*
X191639047Y-83045904D01*
X191591428Y-83069714D01*
X191567619Y-83093523D01*
X191543809Y-83141142D01*
X191543809Y-83236380D01*
X191567619Y-83284000D01*
X191591428Y-83307809D01*
X191639047Y-83331619D01*
X191734285Y-83331619D01*
X191781904Y-83307809D01*
X191805714Y-83284000D01*
X191829523Y-83236380D01*
D10*
X155683095Y-71453380D02*
X155683095Y-72262904D01*
X155730714Y-72358142D01*
X155778333Y-72405761D01*
X155873571Y-72453380D01*
X156064047Y-72453380D01*
X156159285Y-72405761D01*
X156206904Y-72358142D01*
X156254523Y-72262904D01*
X156254523Y-71453380D01*
X156778333Y-72453380D02*
X156968809Y-72453380D01*
X157064047Y-72405761D01*
X157111666Y-72358142D01*
X157206904Y-72215285D01*
X157254523Y-72024809D01*
X157254523Y-71643857D01*
X157206904Y-71548619D01*
X157159285Y-71501000D01*
X157064047Y-71453380D01*
X156873571Y-71453380D01*
X156778333Y-71501000D01*
X156730714Y-71548619D01*
X156683095Y-71643857D01*
X156683095Y-71881952D01*
X156730714Y-71977190D01*
X156778333Y-72024809D01*
X156873571Y-72072428D01*
X157064047Y-72072428D01*
X157159285Y-72024809D01*
X157206904Y-71977190D01*
X157254523Y-71881952D01*
D11*
X152800809Y-75759666D02*
X152800809Y-76093000D01*
X152300809Y-75878714D01*
X152634142Y-76497761D02*
X152300809Y-76497761D01*
X152824619Y-76378714D02*
X152467476Y-76259666D01*
X152467476Y-76569190D01*
X152300809Y-76759666D02*
X152800809Y-76759666D01*
X152562714Y-76759666D02*
X152562714Y-77045380D01*
X152300809Y-77045380D02*
X152800809Y-77045380D01*
X152348428Y-77569190D02*
X152324619Y-77545380D01*
X152300809Y-77473952D01*
X152300809Y-77426333D01*
X152324619Y-77354904D01*
X152372238Y-77307285D01*
X152419857Y-77283476D01*
X152515095Y-77259666D01*
X152586523Y-77259666D01*
X152681761Y-77283476D01*
X152729380Y-77307285D01*
X152777000Y-77354904D01*
X152800809Y-77426333D01*
X152800809Y-77473952D01*
X152777000Y-77545380D01*
X152753190Y-77569190D01*
X152800809Y-77712047D02*
X152800809Y-77997761D01*
X152300809Y-77854904D02*
X152800809Y-77854904D01*
X152800809Y-78259666D02*
X152800809Y-78307285D01*
X152777000Y-78354904D01*
X152753190Y-78378714D01*
X152705571Y-78402523D01*
X152610333Y-78426333D01*
X152491285Y-78426333D01*
X152396047Y-78402523D01*
X152348428Y-78378714D01*
X152324619Y-78354904D01*
X152300809Y-78307285D01*
X152300809Y-78259666D01*
X152324619Y-78212047D01*
X152348428Y-78188238D01*
X152396047Y-78164428D01*
X152491285Y-78140619D01*
X152610333Y-78140619D01*
X152705571Y-78164428D01*
X152753190Y-78188238D01*
X152777000Y-78212047D01*
X152800809Y-78259666D01*
X152753190Y-78616809D02*
X152777000Y-78640619D01*
X152800809Y-78688238D01*
X152800809Y-78807285D01*
X152777000Y-78854904D01*
X152753190Y-78878714D01*
X152705571Y-78902523D01*
X152657952Y-78902523D01*
X152586523Y-78878714D01*
X152300809Y-78593000D01*
X152300809Y-78902523D01*
D10*
X166637095Y-98455380D02*
X166637095Y-99264904D01*
X166684714Y-99360142D01*
X166732333Y-99407761D01*
X166827571Y-99455380D01*
X167018047Y-99455380D01*
X167113285Y-99407761D01*
X167160904Y-99360142D01*
X167208523Y-99264904D01*
X167208523Y-98455380D01*
X167827571Y-98883952D02*
X167732333Y-98836333D01*
X167684714Y-98788714D01*
X167637095Y-98693476D01*
X167637095Y-98645857D01*
X167684714Y-98550619D01*
X167732333Y-98503000D01*
X167827571Y-98455380D01*
X168018047Y-98455380D01*
X168113285Y-98503000D01*
X168160904Y-98550619D01*
X168208523Y-98645857D01*
X168208523Y-98693476D01*
X168160904Y-98788714D01*
X168113285Y-98836333D01*
X168018047Y-98883952D01*
X167827571Y-98883952D01*
X167732333Y-98931571D01*
X167684714Y-98979190D01*
X167637095Y-99074428D01*
X167637095Y-99264904D01*
X167684714Y-99360142D01*
X167732333Y-99407761D01*
X167827571Y-99455380D01*
X168018047Y-99455380D01*
X168113285Y-99407761D01*
X168160904Y-99360142D01*
X168208523Y-99264904D01*
X168208523Y-99074428D01*
X168160904Y-98979190D01*
X168113285Y-98931571D01*
X168018047Y-98883952D01*
X153826428Y-124610761D02*
X153969285Y-124658380D01*
X154207380Y-124658380D01*
X154302619Y-124610761D01*
X154350238Y-124563142D01*
X154397857Y-124467904D01*
X154397857Y-124372666D01*
X154350238Y-124277428D01*
X154302619Y-124229809D01*
X154207380Y-124182190D01*
X154016904Y-124134571D01*
X153921666Y-124086952D01*
X153874047Y-124039333D01*
X153826428Y-123944095D01*
X153826428Y-123848857D01*
X153874047Y-123753619D01*
X153921666Y-123706000D01*
X154016904Y-123658380D01*
X154255000Y-123658380D01*
X154397857Y-123706000D01*
X154778809Y-124610761D02*
X154921666Y-124658380D01*
X155159761Y-124658380D01*
X155255000Y-124610761D01*
X155302619Y-124563142D01*
X155350238Y-124467904D01*
X155350238Y-124372666D01*
X155302619Y-124277428D01*
X155255000Y-124229809D01*
X155159761Y-124182190D01*
X154969285Y-124134571D01*
X154874047Y-124086952D01*
X154826428Y-124039333D01*
X154778809Y-123944095D01*
X154778809Y-123848857D01*
X154826428Y-123753619D01*
X154874047Y-123706000D01*
X154969285Y-123658380D01*
X155207380Y-123658380D01*
X155350238Y-123706000D01*
X155635952Y-123658380D02*
X156207380Y-123658380D01*
X155921666Y-124658380D02*
X155921666Y-123658380D01*
X156445476Y-123658380D02*
X157064523Y-123658380D01*
X156731190Y-124039333D01*
X156874047Y-124039333D01*
X156969285Y-124086952D01*
X157016904Y-124134571D01*
X157064523Y-124229809D01*
X157064523Y-124467904D01*
X157016904Y-124563142D01*
X156969285Y-124610761D01*
X156874047Y-124658380D01*
X156588333Y-124658380D01*
X156493095Y-124610761D01*
X156445476Y-124563142D01*
X157540714Y-124658380D02*
X157731190Y-124658380D01*
X157826428Y-124610761D01*
X157874047Y-124563142D01*
X157969285Y-124420285D01*
X158016904Y-124229809D01*
X158016904Y-123848857D01*
X157969285Y-123753619D01*
X157921666Y-123706000D01*
X157826428Y-123658380D01*
X157635952Y-123658380D01*
X157540714Y-123706000D01*
X157493095Y-123753619D01*
X157445476Y-123848857D01*
X157445476Y-124086952D01*
X157493095Y-124182190D01*
X157540714Y-124229809D01*
X157635952Y-124277428D01*
X157826428Y-124277428D01*
X157921666Y-124229809D01*
X157969285Y-124182190D01*
X158016904Y-124086952D01*
X158397857Y-124610761D02*
X158540714Y-124658380D01*
X158778809Y-124658380D01*
X158874047Y-124610761D01*
X158921666Y-124563142D01*
X158969285Y-124467904D01*
X158969285Y-124372666D01*
X158921666Y-124277428D01*
X158874047Y-124229809D01*
X158778809Y-124182190D01*
X158588333Y-124134571D01*
X158493095Y-124086952D01*
X158445476Y-124039333D01*
X158397857Y-123944095D01*
X158397857Y-123848857D01*
X158445476Y-123753619D01*
X158493095Y-123706000D01*
X158588333Y-123658380D01*
X158826428Y-123658380D01*
X158969285Y-123706000D01*
X159731190Y-124134571D02*
X159397857Y-124134571D01*
X159397857Y-124658380D02*
X159397857Y-123658380D01*
X159874047Y-123658380D01*
X160445476Y-123658380D02*
X160540714Y-123658380D01*
X160635952Y-123706000D01*
X160683571Y-123753619D01*
X160731190Y-123848857D01*
X160778809Y-124039333D01*
X160778809Y-124277428D01*
X160731190Y-124467904D01*
X160683571Y-124563142D01*
X160635952Y-124610761D01*
X160540714Y-124658380D01*
X160445476Y-124658380D01*
X160350238Y-124610761D01*
X160302619Y-124563142D01*
X160255000Y-124467904D01*
X160207380Y-124277428D01*
X160207380Y-124039333D01*
X160255000Y-123848857D01*
X160302619Y-123753619D01*
X160350238Y-123706000D01*
X160445476Y-123658380D01*
X161635952Y-123991714D02*
X161635952Y-124658380D01*
X161397857Y-123610761D02*
X161159761Y-124325047D01*
X161778809Y-124325047D01*
X162350238Y-123658380D02*
X162445476Y-123658380D01*
X162540714Y-123706000D01*
X162588333Y-123753619D01*
X162635952Y-123848857D01*
X162683571Y-124039333D01*
X162683571Y-124277428D01*
X162635952Y-124467904D01*
X162588333Y-124563142D01*
X162540714Y-124610761D01*
X162445476Y-124658380D01*
X162350238Y-124658380D01*
X162255000Y-124610761D01*
X162207380Y-124563142D01*
X162159761Y-124467904D01*
X162112142Y-124277428D01*
X162112142Y-124039333D01*
X162159761Y-123848857D01*
X162207380Y-123753619D01*
X162255000Y-123706000D01*
X162350238Y-123658380D01*
X167556095Y-71272380D02*
X167556095Y-72081904D01*
X167603714Y-72177142D01*
X167651333Y-72224761D01*
X167746571Y-72272380D01*
X167937047Y-72272380D01*
X168032285Y-72224761D01*
X168079904Y-72177142D01*
X168127523Y-72081904D01*
X168127523Y-71272380D01*
X169032285Y-71272380D02*
X168841809Y-71272380D01*
X168746571Y-71320000D01*
X168698952Y-71367619D01*
X168603714Y-71510476D01*
X168556095Y-71700952D01*
X168556095Y-72081904D01*
X168603714Y-72177142D01*
X168651333Y-72224761D01*
X168746571Y-72272380D01*
X168937047Y-72272380D01*
X169032285Y-72224761D01*
X169079904Y-72177142D01*
X169127523Y-72081904D01*
X169127523Y-71843809D01*
X169079904Y-71748571D01*
X169032285Y-71700952D01*
X168937047Y-71653333D01*
X168746571Y-71653333D01*
X168651333Y-71700952D01*
X168603714Y-71748571D01*
X168556095Y-71843809D01*
D11*
X164992809Y-75648571D02*
X164992809Y-75981904D01*
X164492809Y-75767619D01*
X164826142Y-76386666D02*
X164492809Y-76386666D01*
X165016619Y-76267619D02*
X164659476Y-76148571D01*
X164659476Y-76458095D01*
X164492809Y-76648571D02*
X164992809Y-76648571D01*
X164754714Y-76648571D02*
X164754714Y-76934285D01*
X164492809Y-76934285D02*
X164992809Y-76934285D01*
X164540428Y-77458095D02*
X164516619Y-77434285D01*
X164492809Y-77362857D01*
X164492809Y-77315238D01*
X164516619Y-77243809D01*
X164564238Y-77196190D01*
X164611857Y-77172380D01*
X164707095Y-77148571D01*
X164778523Y-77148571D01*
X164873761Y-77172380D01*
X164921380Y-77196190D01*
X164969000Y-77243809D01*
X164992809Y-77315238D01*
X164992809Y-77362857D01*
X164969000Y-77434285D01*
X164945190Y-77458095D01*
X164992809Y-77600952D02*
X164992809Y-77886666D01*
X164492809Y-77743809D02*
X164992809Y-77743809D01*
X164492809Y-78315238D02*
X164492809Y-78029523D01*
X164492809Y-78172380D02*
X164992809Y-78172380D01*
X164921380Y-78124761D01*
X164873761Y-78077142D01*
X164849952Y-78029523D01*
X164945190Y-78505714D02*
X164969000Y-78529523D01*
X164992809Y-78577142D01*
X164992809Y-78696190D01*
X164969000Y-78743809D01*
X164945190Y-78767619D01*
X164897571Y-78791428D01*
X164849952Y-78791428D01*
X164778523Y-78767619D01*
X164492809Y-78481904D01*
X164492809Y-78791428D01*
X164992809Y-79243809D02*
X164992809Y-79005714D01*
X164754714Y-78981904D01*
X164778523Y-79005714D01*
X164802333Y-79053333D01*
X164802333Y-79172380D01*
X164778523Y-79220000D01*
X164754714Y-79243809D01*
X164707095Y-79267619D01*
X164588047Y-79267619D01*
X164540428Y-79243809D01*
X164516619Y-79220000D01*
X164492809Y-79172380D01*
X164492809Y-79053333D01*
X164516619Y-79005714D01*
X164540428Y-78981904D01*
D10*
X144145095Y-71467380D02*
X144145095Y-72276904D01*
X144192714Y-72372142D01*
X144240333Y-72419761D01*
X144335571Y-72467380D01*
X144526047Y-72467380D01*
X144621285Y-72419761D01*
X144668904Y-72372142D01*
X144716523Y-72276904D01*
X144716523Y-71467380D01*
X145668904Y-71467380D02*
X145192714Y-71467380D01*
X145145095Y-71943571D01*
X145192714Y-71895952D01*
X145287952Y-71848333D01*
X145526047Y-71848333D01*
X145621285Y-71895952D01*
X145668904Y-71943571D01*
X145716523Y-72038809D01*
X145716523Y-72276904D01*
X145668904Y-72372142D01*
X145621285Y-72419761D01*
X145526047Y-72467380D01*
X145287952Y-72467380D01*
X145192714Y-72419761D01*
X145145095Y-72372142D01*
X136023714Y-78301904D02*
X136557047Y-78301904D01*
X136214190Y-79101904D01*
X137204666Y-78568571D02*
X137204666Y-79101904D01*
X137014190Y-78263809D02*
X136823714Y-78835238D01*
X137318952Y-78835238D01*
X137623714Y-79101904D02*
X137623714Y-78301904D01*
X137623714Y-78682857D02*
X138080857Y-78682857D01*
X138080857Y-79101904D02*
X138080857Y-78301904D01*
X138918952Y-79025714D02*
X138880857Y-79063809D01*
X138766571Y-79101904D01*
X138690380Y-79101904D01*
X138576095Y-79063809D01*
X138499904Y-78987619D01*
X138461809Y-78911428D01*
X138423714Y-78759047D01*
X138423714Y-78644761D01*
X138461809Y-78492380D01*
X138499904Y-78416190D01*
X138576095Y-78340000D01*
X138690380Y-78301904D01*
X138766571Y-78301904D01*
X138880857Y-78340000D01*
X138918952Y-78378095D01*
X139147523Y-78301904D02*
X139604666Y-78301904D01*
X139376095Y-79101904D02*
X139376095Y-78301904D01*
X139833238Y-78378095D02*
X139871333Y-78340000D01*
X139947523Y-78301904D01*
X140138000Y-78301904D01*
X140214190Y-78340000D01*
X140252285Y-78378095D01*
X140290380Y-78454285D01*
X140290380Y-78530476D01*
X140252285Y-78644761D01*
X139795142Y-79101904D01*
X140290380Y-79101904D01*
X140557047Y-78301904D02*
X141090380Y-78301904D01*
X140747523Y-79101904D01*
X141318952Y-78301904D02*
X141814190Y-78301904D01*
X141547523Y-78606666D01*
X141661809Y-78606666D01*
X141738000Y-78644761D01*
X141776095Y-78682857D01*
X141814190Y-78759047D01*
X141814190Y-78949523D01*
X141776095Y-79025714D01*
X141738000Y-79063809D01*
X141661809Y-79101904D01*
X141433238Y-79101904D01*
X141357047Y-79063809D01*
X141318952Y-79025714D01*
X167600095Y-85505380D02*
X167600095Y-86314904D01*
X167647714Y-86410142D01*
X167695333Y-86457761D01*
X167790571Y-86505380D01*
X167981047Y-86505380D01*
X168076285Y-86457761D01*
X168123904Y-86410142D01*
X168171523Y-86314904D01*
X168171523Y-85505380D01*
X169076285Y-85838714D02*
X169076285Y-86505380D01*
X168838190Y-85457761D02*
X168600095Y-86172047D01*
X169219142Y-86172047D01*
D11*
X164865809Y-89856666D02*
X164865809Y-90190000D01*
X164365809Y-89975714D01*
X164699142Y-90594761D02*
X164365809Y-90594761D01*
X164889619Y-90475714D02*
X164532476Y-90356666D01*
X164532476Y-90666190D01*
X164365809Y-90856666D02*
X164865809Y-90856666D01*
X164627714Y-90856666D02*
X164627714Y-91142380D01*
X164365809Y-91142380D02*
X164865809Y-91142380D01*
X164413428Y-91666190D02*
X164389619Y-91642380D01*
X164365809Y-91570952D01*
X164365809Y-91523333D01*
X164389619Y-91451904D01*
X164437238Y-91404285D01*
X164484857Y-91380476D01*
X164580095Y-91356666D01*
X164651523Y-91356666D01*
X164746761Y-91380476D01*
X164794380Y-91404285D01*
X164842000Y-91451904D01*
X164865809Y-91523333D01*
X164865809Y-91570952D01*
X164842000Y-91642380D01*
X164818190Y-91666190D01*
X164865809Y-91809047D02*
X164865809Y-92094761D01*
X164365809Y-91951904D02*
X164865809Y-91951904D01*
X164865809Y-92356666D02*
X164865809Y-92404285D01*
X164842000Y-92451904D01*
X164818190Y-92475714D01*
X164770571Y-92499523D01*
X164675333Y-92523333D01*
X164556285Y-92523333D01*
X164461047Y-92499523D01*
X164413428Y-92475714D01*
X164389619Y-92451904D01*
X164365809Y-92404285D01*
X164365809Y-92356666D01*
X164389619Y-92309047D01*
X164413428Y-92285238D01*
X164461047Y-92261428D01*
X164556285Y-92237619D01*
X164675333Y-92237619D01*
X164770571Y-92261428D01*
X164818190Y-92285238D01*
X164842000Y-92309047D01*
X164865809Y-92356666D01*
X164818190Y-92713809D02*
X164842000Y-92737619D01*
X164865809Y-92785238D01*
X164865809Y-92904285D01*
X164842000Y-92951904D01*
X164818190Y-92975714D01*
X164770571Y-92999523D01*
X164722952Y-92999523D01*
X164651523Y-92975714D01*
X164365809Y-92690000D01*
X164365809Y-92999523D01*
D10*
X194945095Y-88606380D02*
X194945095Y-89415904D01*
X194992714Y-89511142D01*
X195040333Y-89558761D01*
X195135571Y-89606380D01*
X195326047Y-89606380D01*
X195421285Y-89558761D01*
X195468904Y-89511142D01*
X195516523Y-89415904D01*
X195516523Y-88606380D01*
X195897476Y-88606380D02*
X196516523Y-88606380D01*
X196183190Y-88987333D01*
X196326047Y-88987333D01*
X196421285Y-89034952D01*
X196468904Y-89082571D01*
X196516523Y-89177809D01*
X196516523Y-89415904D01*
X196468904Y-89511142D01*
X196421285Y-89558761D01*
X196326047Y-89606380D01*
X196040333Y-89606380D01*
X195945095Y-89558761D01*
X195897476Y-89511142D01*
X181213523Y-124039380D02*
X181880190Y-124039380D01*
X181213523Y-125039380D01*
X181880190Y-125039380D01*
X182404000Y-124467952D02*
X182308761Y-124420333D01*
X182261142Y-124372714D01*
X182213523Y-124277476D01*
X182213523Y-124229857D01*
X182261142Y-124134619D01*
X182308761Y-124087000D01*
X182404000Y-124039380D01*
X182594476Y-124039380D01*
X182689714Y-124087000D01*
X182737333Y-124134619D01*
X182784952Y-124229857D01*
X182784952Y-124277476D01*
X182737333Y-124372714D01*
X182689714Y-124420333D01*
X182594476Y-124467952D01*
X182404000Y-124467952D01*
X182308761Y-124515571D01*
X182261142Y-124563190D01*
X182213523Y-124658428D01*
X182213523Y-124848904D01*
X182261142Y-124944142D01*
X182308761Y-124991761D01*
X182404000Y-125039380D01*
X182594476Y-125039380D01*
X182689714Y-124991761D01*
X182737333Y-124944142D01*
X182784952Y-124848904D01*
X182784952Y-124658428D01*
X182737333Y-124563190D01*
X182689714Y-124515571D01*
X182594476Y-124467952D01*
X183404000Y-124039380D02*
X183499238Y-124039380D01*
X183594476Y-124087000D01*
X183642095Y-124134619D01*
X183689714Y-124229857D01*
X183737333Y-124420333D01*
X183737333Y-124658428D01*
X183689714Y-124848904D01*
X183642095Y-124944142D01*
X183594476Y-124991761D01*
X183499238Y-125039380D01*
X183404000Y-125039380D01*
X183308761Y-124991761D01*
X183261142Y-124944142D01*
X183213523Y-124848904D01*
X183165904Y-124658428D01*
X183165904Y-124420333D01*
X183213523Y-124229857D01*
X183261142Y-124134619D01*
X183308761Y-124087000D01*
X183404000Y-124039380D01*
X185499238Y-124944142D02*
X185451619Y-124991761D01*
X185308761Y-125039380D01*
X185213523Y-125039380D01*
X185070666Y-124991761D01*
X184975428Y-124896523D01*
X184927809Y-124801285D01*
X184880190Y-124610809D01*
X184880190Y-124467952D01*
X184927809Y-124277476D01*
X184975428Y-124182238D01*
X185070666Y-124087000D01*
X185213523Y-124039380D01*
X185308761Y-124039380D01*
X185451619Y-124087000D01*
X185499238Y-124134619D01*
X185927809Y-125039380D02*
X185927809Y-124039380D01*
X186308761Y-124039380D01*
X186404000Y-124087000D01*
X186451619Y-124134619D01*
X186499238Y-124229857D01*
X186499238Y-124372714D01*
X186451619Y-124467952D01*
X186404000Y-124515571D01*
X186308761Y-124563190D01*
X185927809Y-124563190D01*
X186927809Y-124039380D02*
X186927809Y-124848904D01*
X186975428Y-124944142D01*
X187023047Y-124991761D01*
X187118285Y-125039380D01*
X187308761Y-125039380D01*
X187404000Y-124991761D01*
X187451619Y-124944142D01*
X187499238Y-124848904D01*
X187499238Y-124039380D01*
X155683095Y-85542380D02*
X155683095Y-86351904D01*
X155730714Y-86447142D01*
X155778333Y-86494761D01*
X155873571Y-86542380D01*
X156064047Y-86542380D01*
X156159285Y-86494761D01*
X156206904Y-86447142D01*
X156254523Y-86351904D01*
X156254523Y-85542380D01*
X157254523Y-86542380D02*
X156683095Y-86542380D01*
X156968809Y-86542380D02*
X156968809Y-85542380D01*
X156873571Y-85685238D01*
X156778333Y-85780476D01*
X156683095Y-85828095D01*
D11*
X152800809Y-89602666D02*
X152800809Y-89936000D01*
X152300809Y-89721714D01*
X152634142Y-90340761D02*
X152300809Y-90340761D01*
X152824619Y-90221714D02*
X152467476Y-90102666D01*
X152467476Y-90412190D01*
X152300809Y-90602666D02*
X152800809Y-90602666D01*
X152562714Y-90602666D02*
X152562714Y-90888380D01*
X152300809Y-90888380D02*
X152800809Y-90888380D01*
X152348428Y-91412190D02*
X152324619Y-91388380D01*
X152300809Y-91316952D01*
X152300809Y-91269333D01*
X152324619Y-91197904D01*
X152372238Y-91150285D01*
X152419857Y-91126476D01*
X152515095Y-91102666D01*
X152586523Y-91102666D01*
X152681761Y-91126476D01*
X152729380Y-91150285D01*
X152777000Y-91197904D01*
X152800809Y-91269333D01*
X152800809Y-91316952D01*
X152777000Y-91388380D01*
X152753190Y-91412190D01*
X152800809Y-91555047D02*
X152800809Y-91840761D01*
X152300809Y-91697904D02*
X152800809Y-91697904D01*
X152800809Y-92102666D02*
X152800809Y-92150285D01*
X152777000Y-92197904D01*
X152753190Y-92221714D01*
X152705571Y-92245523D01*
X152610333Y-92269333D01*
X152491285Y-92269333D01*
X152396047Y-92245523D01*
X152348428Y-92221714D01*
X152324619Y-92197904D01*
X152300809Y-92150285D01*
X152300809Y-92102666D01*
X152324619Y-92055047D01*
X152348428Y-92031238D01*
X152396047Y-92007428D01*
X152491285Y-91983619D01*
X152610333Y-91983619D01*
X152705571Y-92007428D01*
X152753190Y-92031238D01*
X152777000Y-92055047D01*
X152800809Y-92102666D01*
X152586523Y-92555047D02*
X152610333Y-92507428D01*
X152634142Y-92483619D01*
X152681761Y-92459809D01*
X152705571Y-92459809D01*
X152753190Y-92483619D01*
X152777000Y-92507428D01*
X152800809Y-92555047D01*
X152800809Y-92650285D01*
X152777000Y-92697904D01*
X152753190Y-92721714D01*
X152705571Y-92745523D01*
X152681761Y-92745523D01*
X152634142Y-92721714D01*
X152610333Y-92697904D01*
X152586523Y-92650285D01*
X152586523Y-92555047D01*
X152562714Y-92507428D01*
X152538904Y-92483619D01*
X152491285Y-92459809D01*
X152396047Y-92459809D01*
X152348428Y-92483619D01*
X152324619Y-92507428D01*
X152300809Y-92555047D01*
X152300809Y-92650285D01*
X152324619Y-92697904D01*
X152348428Y-92721714D01*
X152396047Y-92745523D01*
X152491285Y-92745523D01*
X152538904Y-92721714D01*
X152562714Y-92697904D01*
X152586523Y-92650285D01*
D10*
X144103333Y-93881380D02*
X143770000Y-93405190D01*
X143531904Y-93881380D02*
X143531904Y-92881380D01*
X143912857Y-92881380D01*
X144008095Y-92929000D01*
X144055714Y-92976619D01*
X144103333Y-93071857D01*
X144103333Y-93214714D01*
X144055714Y-93309952D01*
X144008095Y-93357571D01*
X143912857Y-93405190D01*
X143531904Y-93405190D01*
X144960476Y-92881380D02*
X144770000Y-92881380D01*
X144674761Y-92929000D01*
X144627142Y-92976619D01*
X144531904Y-93119476D01*
X144484285Y-93309952D01*
X144484285Y-93690904D01*
X144531904Y-93786142D01*
X144579523Y-93833761D01*
X144674761Y-93881380D01*
X144865238Y-93881380D01*
X144960476Y-93833761D01*
X145008095Y-93786142D01*
X145055714Y-93690904D01*
X145055714Y-93452809D01*
X145008095Y-93357571D01*
X144960476Y-93309952D01*
X144865238Y-93262333D01*
X144674761Y-93262333D01*
X144579523Y-93309952D01*
X144531904Y-93357571D01*
X144484285Y-93452809D01*
X144103333Y-90881380D02*
X143770000Y-90405190D01*
X143531904Y-90881380D02*
X143531904Y-89881380D01*
X143912857Y-89881380D01*
X144008095Y-89929000D01*
X144055714Y-89976619D01*
X144103333Y-90071857D01*
X144103333Y-90214714D01*
X144055714Y-90309952D01*
X144008095Y-90357571D01*
X143912857Y-90405190D01*
X143531904Y-90405190D01*
X145008095Y-89881380D02*
X144531904Y-89881380D01*
X144484285Y-90357571D01*
X144531904Y-90309952D01*
X144627142Y-90262333D01*
X144865238Y-90262333D01*
X144960476Y-90309952D01*
X145008095Y-90357571D01*
X145055714Y-90452809D01*
X145055714Y-90690904D01*
X145008095Y-90786142D01*
X144960476Y-90833761D01*
X144865238Y-90881380D01*
X144627142Y-90881380D01*
X144531904Y-90833761D01*
X144484285Y-90786142D01*
X138103333Y-93881380D02*
X137770000Y-93405190D01*
X137531904Y-93881380D02*
X137531904Y-92881380D01*
X137912857Y-92881380D01*
X138008095Y-92929000D01*
X138055714Y-92976619D01*
X138103333Y-93071857D01*
X138103333Y-93214714D01*
X138055714Y-93309952D01*
X138008095Y-93357571D01*
X137912857Y-93405190D01*
X137531904Y-93405190D01*
X138960476Y-93214714D02*
X138960476Y-93881380D01*
X138722380Y-92833761D02*
X138484285Y-93548047D01*
X139103333Y-93548047D01*
X138103333Y-90881380D02*
X137770000Y-90405190D01*
X137531904Y-90881380D02*
X137531904Y-89881380D01*
X137912857Y-89881380D01*
X138008095Y-89929000D01*
X138055714Y-89976619D01*
X138103333Y-90071857D01*
X138103333Y-90214714D01*
X138055714Y-90309952D01*
X138008095Y-90357571D01*
X137912857Y-90405190D01*
X137531904Y-90405190D01*
X138436666Y-89881380D02*
X139055714Y-89881380D01*
X138722380Y-90262333D01*
X138865238Y-90262333D01*
X138960476Y-90309952D01*
X139008095Y-90357571D01*
X139055714Y-90452809D01*
X139055714Y-90690904D01*
X139008095Y-90786142D01*
X138960476Y-90833761D01*
X138865238Y-90881380D01*
X138579523Y-90881380D01*
X138484285Y-90833761D01*
X138436666Y-90786142D01*
X132103333Y-93881380D02*
X131770000Y-93405190D01*
X131531904Y-93881380D02*
X131531904Y-92881380D01*
X131912857Y-92881380D01*
X132008095Y-92929000D01*
X132055714Y-92976619D01*
X132103333Y-93071857D01*
X132103333Y-93214714D01*
X132055714Y-93309952D01*
X132008095Y-93357571D01*
X131912857Y-93405190D01*
X131531904Y-93405190D01*
X132484285Y-92976619D02*
X132531904Y-92929000D01*
X132627142Y-92881380D01*
X132865238Y-92881380D01*
X132960476Y-92929000D01*
X133008095Y-92976619D01*
X133055714Y-93071857D01*
X133055714Y-93167095D01*
X133008095Y-93309952D01*
X132436666Y-93881380D01*
X133055714Y-93881380D01*
X132103333Y-90881380D02*
X131770000Y-90405190D01*
X131531904Y-90881380D02*
X131531904Y-89881380D01*
X131912857Y-89881380D01*
X132008095Y-89929000D01*
X132055714Y-89976619D01*
X132103333Y-90071857D01*
X132103333Y-90214714D01*
X132055714Y-90309952D01*
X132008095Y-90357571D01*
X131912857Y-90405190D01*
X131531904Y-90405190D01*
X133055714Y-90881380D02*
X132484285Y-90881380D01*
X132770000Y-90881380D02*
X132770000Y-89881380D01*
X132674761Y-90024238D01*
X132579523Y-90119476D01*
X132484285Y-90167095D01*
X113403142Y-79860142D02*
X113355523Y-79907761D01*
X113212666Y-79955380D01*
X113117428Y-79955380D01*
X112974571Y-79907761D01*
X112879333Y-79812523D01*
X112831714Y-79717285D01*
X112784095Y-79526809D01*
X112784095Y-79383952D01*
X112831714Y-79193476D01*
X112879333Y-79098238D01*
X112974571Y-79003000D01*
X113117428Y-78955380D01*
X113212666Y-78955380D01*
X113355523Y-79003000D01*
X113403142Y-79050619D01*
X114355523Y-79955380D02*
X113784095Y-79955380D01*
X114069809Y-79955380D02*
X114069809Y-78955380D01*
X113974571Y-79098238D01*
X113879333Y-79193476D01*
X113784095Y-79241095D01*
X114736476Y-79050619D02*
X114784095Y-79003000D01*
X114879333Y-78955380D01*
X115117428Y-78955380D01*
X115212666Y-79003000D01*
X115260285Y-79050619D01*
X115307904Y-79145857D01*
X115307904Y-79241095D01*
X115260285Y-79383952D01*
X114688857Y-79955380D01*
X115307904Y-79955380D01*
X176776142Y-73510142D02*
X176728523Y-73557761D01*
X176585666Y-73605380D01*
X176490428Y-73605380D01*
X176347571Y-73557761D01*
X176252333Y-73462523D01*
X176204714Y-73367285D01*
X176157095Y-73176809D01*
X176157095Y-73033952D01*
X176204714Y-72843476D01*
X176252333Y-72748238D01*
X176347571Y-72653000D01*
X176490428Y-72605380D01*
X176585666Y-72605380D01*
X176728523Y-72653000D01*
X176776142Y-72700619D01*
X177728523Y-73605380D02*
X177157095Y-73605380D01*
X177442809Y-73605380D02*
X177442809Y-72605380D01*
X177347571Y-72748238D01*
X177252333Y-72843476D01*
X177157095Y-72891095D01*
X178680904Y-73605380D02*
X178109476Y-73605380D01*
X178395190Y-73605380D02*
X178395190Y-72605380D01*
X178299952Y-72748238D01*
X178204714Y-72843476D01*
X178109476Y-72891095D01*
X191136142Y-73510142D02*
X191088523Y-73557761D01*
X190945666Y-73605380D01*
X190850428Y-73605380D01*
X190707571Y-73557761D01*
X190612333Y-73462523D01*
X190564714Y-73367285D01*
X190517095Y-73176809D01*
X190517095Y-73033952D01*
X190564714Y-72843476D01*
X190612333Y-72748238D01*
X190707571Y-72653000D01*
X190850428Y-72605380D01*
X190945666Y-72605380D01*
X191088523Y-72653000D01*
X191136142Y-72700619D01*
X192088523Y-73605380D02*
X191517095Y-73605380D01*
X191802809Y-73605380D02*
X191802809Y-72605380D01*
X191707571Y-72748238D01*
X191612333Y-72843476D01*
X191517095Y-72891095D01*
X192707571Y-72605380D02*
X192802809Y-72605380D01*
X192898047Y-72653000D01*
X192945666Y-72700619D01*
X192993285Y-72795857D01*
X193040904Y-72986333D01*
X193040904Y-73224428D01*
X192993285Y-73414904D01*
X192945666Y-73510142D01*
X192898047Y-73557761D01*
X192802809Y-73605380D01*
X192707571Y-73605380D01*
X192612333Y-73557761D01*
X192564714Y-73510142D01*
X192517095Y-73414904D01*
X192469476Y-73224428D01*
X192469476Y-72986333D01*
X192517095Y-72795857D01*
X192564714Y-72700619D01*
X192612333Y-72653000D01*
X192707571Y-72605380D01*
X158075333Y-96751142D02*
X158027714Y-96798761D01*
X157884857Y-96846380D01*
X157789619Y-96846380D01*
X157646761Y-96798761D01*
X157551523Y-96703523D01*
X157503904Y-96608285D01*
X157456285Y-96417809D01*
X157456285Y-96274952D01*
X157503904Y-96084476D01*
X157551523Y-95989238D01*
X157646761Y-95894000D01*
X157789619Y-95846380D01*
X157884857Y-95846380D01*
X158027714Y-95894000D01*
X158075333Y-95941619D01*
X158551523Y-96846380D02*
X158742000Y-96846380D01*
X158837238Y-96798761D01*
X158884857Y-96751142D01*
X158980095Y-96608285D01*
X159027714Y-96417809D01*
X159027714Y-96036857D01*
X158980095Y-95941619D01*
X158932476Y-95894000D01*
X158837238Y-95846380D01*
X158646761Y-95846380D01*
X158551523Y-95894000D01*
X158503904Y-95941619D01*
X158456285Y-96036857D01*
X158456285Y-96274952D01*
X158503904Y-96370190D01*
X158551523Y-96417809D01*
X158646761Y-96465428D01*
X158837238Y-96465428D01*
X158932476Y-96417809D01*
X158980095Y-96370190D01*
X159027714Y-96274952D01*
X184237333Y-118467142D02*
X184189714Y-118514761D01*
X184046857Y-118562380D01*
X183951619Y-118562380D01*
X183808761Y-118514761D01*
X183713523Y-118419523D01*
X183665904Y-118324285D01*
X183618285Y-118133809D01*
X183618285Y-117990952D01*
X183665904Y-117800476D01*
X183713523Y-117705238D01*
X183808761Y-117610000D01*
X183951619Y-117562380D01*
X184046857Y-117562380D01*
X184189714Y-117610000D01*
X184237333Y-117657619D01*
X184808761Y-117990952D02*
X184713523Y-117943333D01*
X184665904Y-117895714D01*
X184618285Y-117800476D01*
X184618285Y-117752857D01*
X184665904Y-117657619D01*
X184713523Y-117610000D01*
X184808761Y-117562380D01*
X184999238Y-117562380D01*
X185094476Y-117610000D01*
X185142095Y-117657619D01*
X185189714Y-117752857D01*
X185189714Y-117800476D01*
X185142095Y-117895714D01*
X185094476Y-117943333D01*
X184999238Y-117990952D01*
X184808761Y-117990952D01*
X184713523Y-118038571D01*
X184665904Y-118086190D01*
X184618285Y-118181428D01*
X184618285Y-118371904D01*
X184665904Y-118467142D01*
X184713523Y-118514761D01*
X184808761Y-118562380D01*
X184999238Y-118562380D01*
X185094476Y-118514761D01*
X185142095Y-118467142D01*
X185189714Y-118371904D01*
X185189714Y-118181428D01*
X185142095Y-118086190D01*
X185094476Y-118038571D01*
X184999238Y-117990952D01*
X152487333Y-70081142D02*
X152439714Y-70128761D01*
X152296857Y-70176380D01*
X152201619Y-70176380D01*
X152058761Y-70128761D01*
X151963523Y-70033523D01*
X151915904Y-69938285D01*
X151868285Y-69747809D01*
X151868285Y-69604952D01*
X151915904Y-69414476D01*
X151963523Y-69319238D01*
X152058761Y-69224000D01*
X152201619Y-69176380D01*
X152296857Y-69176380D01*
X152439714Y-69224000D01*
X152487333Y-69271619D01*
X152820666Y-69176380D02*
X153487333Y-69176380D01*
X153058761Y-70176380D01*
X138771333Y-70081142D02*
X138723714Y-70128761D01*
X138580857Y-70176380D01*
X138485619Y-70176380D01*
X138342761Y-70128761D01*
X138247523Y-70033523D01*
X138199904Y-69938285D01*
X138152285Y-69747809D01*
X138152285Y-69604952D01*
X138199904Y-69414476D01*
X138247523Y-69319238D01*
X138342761Y-69224000D01*
X138485619Y-69176380D01*
X138580857Y-69176380D01*
X138723714Y-69224000D01*
X138771333Y-69271619D01*
X139628476Y-69176380D02*
X139438000Y-69176380D01*
X139342761Y-69224000D01*
X139295142Y-69271619D01*
X139199904Y-69414476D01*
X139152285Y-69604952D01*
X139152285Y-69985904D01*
X139199904Y-70081142D01*
X139247523Y-70128761D01*
X139342761Y-70176380D01*
X139533238Y-70176380D01*
X139628476Y-70128761D01*
X139676095Y-70081142D01*
X139723714Y-69985904D01*
X139723714Y-69747809D01*
X139676095Y-69652571D01*
X139628476Y-69604952D01*
X139533238Y-69557333D01*
X139342761Y-69557333D01*
X139247523Y-69604952D01*
X139199904Y-69652571D01*
X139152285Y-69747809D01*
X164679333Y-70081142D02*
X164631714Y-70128761D01*
X164488857Y-70176380D01*
X164393619Y-70176380D01*
X164250761Y-70128761D01*
X164155523Y-70033523D01*
X164107904Y-69938285D01*
X164060285Y-69747809D01*
X164060285Y-69604952D01*
X164107904Y-69414476D01*
X164155523Y-69319238D01*
X164250761Y-69224000D01*
X164393619Y-69176380D01*
X164488857Y-69176380D01*
X164631714Y-69224000D01*
X164679333Y-69271619D01*
X165584095Y-69176380D02*
X165107904Y-69176380D01*
X165060285Y-69652571D01*
X165107904Y-69604952D01*
X165203142Y-69557333D01*
X165441238Y-69557333D01*
X165536476Y-69604952D01*
X165584095Y-69652571D01*
X165631714Y-69747809D01*
X165631714Y-69985904D01*
X165584095Y-70081142D01*
X165536476Y-70128761D01*
X165441238Y-70176380D01*
X165203142Y-70176380D01*
X165107904Y-70128761D01*
X165060285Y-70081142D01*
X184237333Y-114784142D02*
X184189714Y-114831761D01*
X184046857Y-114879380D01*
X183951619Y-114879380D01*
X183808761Y-114831761D01*
X183713523Y-114736523D01*
X183665904Y-114641285D01*
X183618285Y-114450809D01*
X183618285Y-114307952D01*
X183665904Y-114117476D01*
X183713523Y-114022238D01*
X183808761Y-113927000D01*
X183951619Y-113879380D01*
X184046857Y-113879380D01*
X184189714Y-113927000D01*
X184237333Y-113974619D01*
X185094476Y-114212714D02*
X185094476Y-114879380D01*
X184856380Y-113831761D02*
X184618285Y-114546047D01*
X185237333Y-114546047D01*
X164679333Y-84040142D02*
X164631714Y-84087761D01*
X164488857Y-84135380D01*
X164393619Y-84135380D01*
X164250761Y-84087761D01*
X164155523Y-83992523D01*
X164107904Y-83897285D01*
X164060285Y-83706809D01*
X164060285Y-83563952D01*
X164107904Y-83373476D01*
X164155523Y-83278238D01*
X164250761Y-83183000D01*
X164393619Y-83135380D01*
X164488857Y-83135380D01*
X164631714Y-83183000D01*
X164679333Y-83230619D01*
X165012666Y-83135380D02*
X165631714Y-83135380D01*
X165298380Y-83516333D01*
X165441238Y-83516333D01*
X165536476Y-83563952D01*
X165584095Y-83611571D01*
X165631714Y-83706809D01*
X165631714Y-83944904D01*
X165584095Y-84040142D01*
X165536476Y-84087761D01*
X165441238Y-84135380D01*
X165155523Y-84135380D01*
X165060285Y-84087761D01*
X165012666Y-84040142D01*
X138103333Y-96786142D02*
X138055714Y-96833761D01*
X137912857Y-96881380D01*
X137817619Y-96881380D01*
X137674761Y-96833761D01*
X137579523Y-96738523D01*
X137531904Y-96643285D01*
X137484285Y-96452809D01*
X137484285Y-96309952D01*
X137531904Y-96119476D01*
X137579523Y-96024238D01*
X137674761Y-95929000D01*
X137817619Y-95881380D01*
X137912857Y-95881380D01*
X138055714Y-95929000D01*
X138103333Y-95976619D01*
X138484285Y-95976619D02*
X138531904Y-95929000D01*
X138627142Y-95881380D01*
X138865238Y-95881380D01*
X138960476Y-95929000D01*
X139008095Y-95976619D01*
X139055714Y-96071857D01*
X139055714Y-96167095D01*
X139008095Y-96309952D01*
X138436666Y-96881380D01*
X139055714Y-96881380D01*
X152614333Y-84040142D02*
X152566714Y-84087761D01*
X152423857Y-84135380D01*
X152328619Y-84135380D01*
X152185761Y-84087761D01*
X152090523Y-83992523D01*
X152042904Y-83897285D01*
X151995285Y-83706809D01*
X151995285Y-83563952D01*
X152042904Y-83373476D01*
X152090523Y-83278238D01*
X152185761Y-83183000D01*
X152328619Y-83135380D01*
X152423857Y-83135380D01*
X152566714Y-83183000D01*
X152614333Y-83230619D01*
X153566714Y-84135380D02*
X152995285Y-84135380D01*
X153281000Y-84135380D02*
X153281000Y-83135380D01*
X153185761Y-83278238D01*
X153090523Y-83373476D01*
X152995285Y-83421095D01*
M02*
