%FSLAX45Y45*%
G04 Gerber Fmt 4.5, Leading zero omitted, Abs format (unit mm)*
G04 Created by KiCad (PCBNEW (5.1.2-1)-1) date 2020-04-08 11:54:16*
%MOMM*%
%LPD*%
G04 APERTURE LIST*
%ADD10C,0.100000*%
%ADD11C,0.200000*%
%ADD12C,0.300000*%
G04 APERTURE END LIST*
D10*
X10000000Y-15000000D02*
X10000000Y-6400000D01*
X20000000Y-15000000D02*
X10000000Y-15000000D01*
X20000000Y-6400000D02*
X20000000Y-15000000D01*
X10000000Y-6400000D02*
X20000000Y-6400000D01*
D11*
D12*
X10281428Y-15470714D02*
X10281428Y-15170714D01*
X10352857Y-15170714D01*
X10395714Y-15185000D01*
X10424286Y-15213571D01*
X10438571Y-15242143D01*
X10452857Y-15299286D01*
X10452857Y-15342143D01*
X10438571Y-15399286D01*
X10424286Y-15427857D01*
X10395714Y-15456429D01*
X10352857Y-15470714D01*
X10281428Y-15470714D01*
X10581428Y-15470714D02*
X10581428Y-15270714D01*
X10581428Y-15327857D02*
X10595714Y-15299286D01*
X10610000Y-15285000D01*
X10638571Y-15270714D01*
X10667143Y-15270714D01*
X10767143Y-15470714D02*
X10767143Y-15270714D01*
X10767143Y-15170714D02*
X10752857Y-15185000D01*
X10767143Y-15199286D01*
X10781428Y-15185000D01*
X10767143Y-15170714D01*
X10767143Y-15199286D01*
X10952857Y-15470714D02*
X10924286Y-15456429D01*
X10910000Y-15427857D01*
X10910000Y-15170714D01*
X11110000Y-15470714D02*
X11081428Y-15456429D01*
X11067143Y-15427857D01*
X11067143Y-15170714D01*
X11452857Y-15470714D02*
X11452857Y-15170714D01*
X11552857Y-15385000D01*
X11652857Y-15170714D01*
X11652857Y-15470714D01*
X11924286Y-15470714D02*
X11924286Y-15313571D01*
X11910000Y-15285000D01*
X11881428Y-15270714D01*
X11824286Y-15270714D01*
X11795714Y-15285000D01*
X11924286Y-15456429D02*
X11895714Y-15470714D01*
X11824286Y-15470714D01*
X11795714Y-15456429D01*
X11781428Y-15427857D01*
X11781428Y-15399286D01*
X11795714Y-15370714D01*
X11824286Y-15356429D01*
X11895714Y-15356429D01*
X11924286Y-15342143D01*
X12067143Y-15270714D02*
X12067143Y-15570714D01*
X12067143Y-15285000D02*
X12095714Y-15270714D01*
X12152857Y-15270714D01*
X12181428Y-15285000D01*
X12195714Y-15299286D01*
X12210000Y-15327857D01*
X12210000Y-15413571D01*
X12195714Y-15442143D01*
X12181428Y-15456429D01*
X12152857Y-15470714D01*
X12095714Y-15470714D01*
X12067143Y-15456429D01*
X12338571Y-15442143D02*
X12352857Y-15456429D01*
X12338571Y-15470714D01*
X12324286Y-15456429D01*
X12338571Y-15442143D01*
X12338571Y-15470714D01*
X12338571Y-15285000D02*
X12352857Y-15299286D01*
X12338571Y-15313571D01*
X12324286Y-15299286D01*
X12338571Y-15285000D01*
X12338571Y-15313571D01*
M02*
