M48
; DRILL file {KiCad (5.1.2-1)-1} date Wednesday, 08 April 2020 at 11:54:15
; FORMAT={-:-/ absolute / metric / decimal}
; #@! TF.CreationDate,2020-04-08T11:54:15+01:00
; #@! TF.GenerationSoftware,Kicad,Pcbnew,(5.1.2-1)-1
; #@! TF.FileFunction,Plated,1,2,PTH
FMAT,2
METRIC
T1C0.400
T2C0.500
T3C0.762
T4C0.800
T5C2.500
%
G90
G05
T1
X104.626Y-80.24
X107.599Y-143.473
X107.71Y-80.266
X107.871Y-83.561
X108.82Y-117.376
X109.978Y-111.168
X112.94Y-94.75
X113.075Y-106.014
X114.05Y-95.824
X114.052Y-93.299
X114.087Y-94.307
X115.867Y-118.111
X120.079Y-108.085
X120.292Y-133.976
X124.187Y-117.962
X127.246Y-147.129
X127.254Y-136.755
X127.478Y-84.542
X128.783Y-128.531
X128.876Y-77.095
X129.107Y-145.307
X132.546Y-78.562
X133.144Y-116.249
X133.906Y-117.264
X136.485Y-117.989
X136.499Y-82.516
X136.512Y-123.053
X136.514Y-119.522
X136.516Y-103.329
X136.575Y-73.652
X136.575Y-76.82
X137.183Y-81.752
X137.981Y-110.368
X137.987Y-126.033
X137.993Y-112.908
X137.999Y-129.334
X138.05Y-101.159
X138.333Y-107.538
X139.113Y-80.31
X139.918Y-128.063
X141.585Y-123.456
X142.009Y-82.176
X142.212Y-86.746
X142.571Y-101.934
X142.699Y-134.034
X145.274Y-81.64
X145.279Y-76.206
X146.283Y-77.372
X146.623Y-74.48
X147.884Y-83.357
X147.971Y-74.174
X148.188Y-76.565
X148.635Y-79.067
X151.769Y-76.98
X151.968Y-112.328
X152.748Y-114.68
X153.108Y-81.298
X153.258Y-108.521
X153.514Y-78.551
X153.529Y-77.474
X154.366Y-111.997
X154.375Y-99.196
X155.43Y-100.238
X155.654Y-98.22
X156.461Y-100.221
X156.611Y-89.344
X157.161Y-79.843
X157.589Y-117.04
X157.692Y-143.96
X157.939Y-82.158
X157.943Y-106.422
X158.604Y-82.908
X159.465Y-126.261
X159.468Y-124.173
X159.578Y-125.181
X160.344Y-77.504
X160.573Y-76.482
X160.64Y-90.792
X161.692Y-144.197
X161.696Y-126.805
X162.344Y-83.212
X163.609Y-89.458
X163.923Y-124.5
X163.98Y-77.529
X163.983Y-78.551
X164.436Y-141.452
X165.318Y-91.333
X166.38Y-82.151
X167.272Y-112.262
X168.644Y-128.906
X168.686Y-88.749
X168.687Y-82.466
X168.698Y-92.139
X168.832Y-81.419
X168.901Y-80.418
X168.933Y-112.682
X169.022Y-94.056
X169.818Y-73.509
X170.211Y-84.91
X170.251Y-117.3
X170.494Y-138.39
X170.888Y-141.565
X171.872Y-129.127
X172.108Y-86.821
X172.116Y-98.558
X172.557Y-133.482
X172.995Y-100.638
X173.176Y-136.436
X173.237Y-78.183
X176.197Y-88.19
X178.169Y-81.968
X179.611Y-142.15
X187.755Y-78.825
X188.924Y-86.705
X190.625Y-83.859
X190.785Y-77.759
X190.795Y-79.428
X191.77Y-76.569
X195.029Y-126.27
T2
X194.125Y-68.0
X194.674Y-66.674
X194.674Y-69.326
X196.0Y-66.125
X196.0Y-69.875
X197.326Y-66.674
X197.326Y-69.326
X197.875Y-68.0
X194.125Y-146.0
X194.674Y-144.674
X194.674Y-147.326
X196.0Y-144.125
X196.0Y-147.875
X197.326Y-144.674
X197.326Y-147.326
X197.875Y-146.0
X102.125Y-68.0
X102.674Y-66.674
X102.674Y-69.326
X104.0Y-66.125
X104.0Y-69.875
X105.326Y-66.674
X105.326Y-69.326
X105.875Y-68.0
X102.125Y-146.0
X102.674Y-144.674
X102.674Y-147.326
X104.0Y-144.125
X104.0Y-147.875
X105.326Y-144.674
X105.326Y-147.326
X105.875Y-146.0
T3
X108.839Y-87.757
X108.839Y-90.297
X108.839Y-92.837
X108.839Y-95.377
X108.839Y-97.917
X108.839Y-127.127
X111.379Y-127.127
X112.649Y-96.647
X112.649Y-99.187
X112.649Y-101.727
X112.649Y-104.267
X112.649Y-119.507
X112.649Y-122.047
X112.649Y-124.587
X112.649Y-129.667
X112.649Y-132.207
X112.649Y-134.747
X112.649Y-137.287
X112.649Y-139.827
X113.919Y-127.127
X116.459Y-127.127
X117.729Y-96.647
X117.729Y-99.187
X117.729Y-101.727
X117.729Y-104.267
X117.729Y-119.507
X117.729Y-122.047
X117.729Y-124.587
X117.729Y-129.667
X117.729Y-132.207
X117.729Y-134.747
X117.729Y-137.287
X117.729Y-139.827
X118.999Y-83.947
X118.999Y-89.027
X118.999Y-91.567
X118.999Y-94.107
X118.999Y-127.127
T4
X175.006Y-91.567
X175.006Y-94.107
X175.006Y-96.647
X175.006Y-99.187
X175.006Y-101.727
X175.006Y-104.267
X175.006Y-106.807
X175.006Y-109.347
X175.006Y-111.887
X175.006Y-114.427
X175.006Y-116.967
X175.006Y-119.507
X175.006Y-122.047
X175.006Y-124.587
X175.006Y-127.127
X175.006Y-129.667
X175.006Y-132.207
X175.006Y-134.747
X175.006Y-137.287
X175.006Y-139.827
X190.246Y-91.567
X190.246Y-94.107
X190.246Y-96.647
X190.246Y-99.187
X190.246Y-101.727
X190.246Y-104.267
X190.246Y-106.807
X190.246Y-109.347
X190.246Y-111.887
X190.246Y-114.427
X190.246Y-116.967
X190.246Y-119.507
X190.246Y-122.047
X190.246Y-124.587
X190.246Y-127.127
X190.246Y-129.667
X190.246Y-132.207
X190.246Y-134.747
X190.246Y-137.287
X190.246Y-139.827
X178.562Y-91.567
X178.562Y-94.107
X178.562Y-96.647
X178.562Y-99.187
X178.562Y-101.727
X178.562Y-104.267
X178.562Y-106.807
X178.562Y-109.347
X178.562Y-111.887
X178.562Y-114.427
X178.562Y-116.967
X178.562Y-119.507
X178.562Y-122.047
X178.562Y-124.587
X178.562Y-127.127
X178.562Y-129.667
X178.562Y-132.207
X178.562Y-134.747
X178.562Y-137.287
X178.562Y-139.827
X193.802Y-91.567
X193.802Y-94.107
X193.802Y-96.647
X193.802Y-99.187
X193.802Y-101.727
X193.802Y-104.267
X193.802Y-106.807
X193.802Y-109.347
X193.802Y-111.887
X193.802Y-114.427
X193.802Y-116.967
X193.802Y-119.507
X193.802Y-122.047
X193.802Y-124.587
X193.802Y-127.127
X193.802Y-129.667
X193.802Y-132.207
X193.802Y-134.747
X193.802Y-137.287
X193.802Y-139.827
X150.635Y-101.333
X150.635Y-103.873
X150.635Y-106.413
X150.635Y-108.953
X150.635Y-111.493
X150.635Y-114.033
X150.635Y-116.573
X150.635Y-119.113
X150.635Y-121.653
X150.635Y-124.193
X150.635Y-126.733
X150.635Y-129.273
X150.635Y-131.813
X150.635Y-134.353
X150.635Y-136.893
X150.635Y-139.433
X165.875Y-101.333
X165.875Y-103.873
X165.875Y-106.413
X165.875Y-108.953
X165.875Y-111.493
X165.875Y-114.033
X165.875Y-116.573
X165.875Y-119.113
X165.875Y-121.653
X165.875Y-124.193
X165.875Y-126.733
X165.875Y-129.273
X165.875Y-131.813
X165.875Y-134.353
X165.875Y-136.893
X165.875Y-139.433
X130.635Y-101.333
X130.635Y-103.873
X130.635Y-106.413
X130.635Y-108.953
X130.635Y-111.493
X130.635Y-114.033
X130.635Y-116.573
X130.635Y-119.113
X130.635Y-121.653
X130.635Y-124.193
X130.635Y-126.733
X130.635Y-129.273
X130.635Y-131.813
X130.635Y-134.353
X130.635Y-136.893
X130.635Y-139.433
X145.875Y-101.333
X145.875Y-103.873
X145.875Y-106.413
X145.875Y-108.953
X145.875Y-111.493
X145.875Y-114.033
X145.875Y-116.573
X145.875Y-119.113
X145.875Y-121.653
X145.875Y-124.193
X145.875Y-126.733
X145.875Y-129.273
X145.875Y-131.813
X145.875Y-134.353
X145.875Y-136.893
X145.875Y-139.433
X106.299Y-81.407
X106.299Y-83.947
X106.299Y-86.487
X106.299Y-89.027
X106.299Y-91.567
X106.299Y-94.107
X106.299Y-96.647
X106.299Y-99.187
X106.299Y-101.727
X106.299Y-104.267
X106.299Y-106.807
X106.299Y-109.347
X106.299Y-111.887
X106.299Y-114.427
X106.299Y-116.967
X106.299Y-119.507
X106.299Y-122.047
X106.299Y-124.587
X106.299Y-127.127
X106.299Y-129.667
X106.299Y-132.207
X106.299Y-134.747
X106.299Y-137.287
X106.299Y-139.827
X121.539Y-81.407
X121.539Y-83.947
X121.539Y-86.487
X121.539Y-89.027
X121.539Y-91.567
X121.539Y-94.107
X121.539Y-96.647
X121.539Y-99.187
X121.539Y-101.727
X121.539Y-104.267
X121.539Y-106.807
X121.539Y-109.347
X121.539Y-111.887
X121.539Y-114.427
X121.539Y-116.967
X121.539Y-119.507
X121.539Y-122.047
X121.539Y-124.587
X121.539Y-127.127
X121.539Y-129.667
X121.539Y-132.207
X121.539Y-134.747
X121.539Y-137.287
X121.539Y-139.827
T5
X196.0Y-146.0
X104.0Y-68.0
X104.0Y-146.0
X196.0Y-68.0
T0
M30
