M48
; DRILL file {KiCad (5.1.2-1)-1} date Thursday, 17 September 2020 at 21:50:57
; FORMAT={-:-/ absolute / metric / decimal}
; #@! TF.CreationDate,2020-09-17T21:50:57+01:00
; #@! TF.GenerationSoftware,Kicad,Pcbnew,(5.1.2-1)-1
; #@! TF.FileFunction,Plated,1,2,PTH
FMAT,2
METRIC
T1C0.300
T2C0.400
T3C0.650
T4C0.700
T5C0.800
T6C1.000
%
G90
G05
T1
X101.529Y-97.465
X103.128Y-90.995
X103.781Y-89.48
X104.84Y-78.385
X110.235Y-81.151
X110.275Y-94.108
X110.559Y-120.99
X110.885Y-91.646
X111.085Y-108.562
X111.337Y-90.995
X111.691Y-118.455
X111.85Y-96.794
X112.155Y-105.424
X112.167Y-111.86
X112.472Y-114.048
X112.748Y-115.498
X113.053Y-118.692
X113.251Y-125.703
X113.295Y-124.167
X113.358Y-119.989
X113.525Y-123.22
X114.314Y-82.517
X114.486Y-86.252
X114.622Y-127.827
X114.622Y-84.661
X115.299Y-89.17
X115.587Y-76.715
X115.609Y-85.129
X115.746Y-89.788
X115.768Y-83.084
X115.775Y-75.102
X115.807Y-128.051
X115.909Y-90.793
X115.911Y-123.592
X115.98Y-84.043
X116.008Y-120.839
X116.052Y-118.318
X116.082Y-78.823
X116.09Y-117.176
X116.264Y-96.071
X116.31Y-92.265
X116.372Y-73.787
X116.554Y-81.127
X116.738Y-122.22
X116.881Y-118.367
X116.915Y-63.741
X117.095Y-88.159
X117.666Y-83.732
X117.719Y-96.012
X118.265Y-80.321
X118.285Y-72.648
X118.442Y-77.819
X118.506Y-83.82
X118.526Y-68.451
X118.54Y-84.798
X119.411Y-100.577
X119.422Y-97.93
X119.548Y-104.076
X119.556Y-105.117
X120.263Y-129.574
X120.289Y-79.662
X120.403Y-96.676
X121.5Y-100.577
X121.656Y-86.08
X121.72Y-87.242
X121.776Y-97.93
X122.617Y-86.876
X122.936Y-77.054
X123.024Y-81.127
X124.12Y-101.335
X124.397Y-56.075
X124.971Y-128.84
X124.991Y-87.1
X125.919Y-128.917
X125.964Y-55.734
X126.021Y-107.706
X126.68Y-77.264
X127.38Y-128.858
X128.052Y-104.923
X128.168Y-71.333
X128.18Y-86.751
X128.345Y-107.634
X128.625Y-101.906
X129.064Y-86.805
X129.236Y-71.902
X129.66Y-53.903
X129.812Y-58.253
X130.235Y-99.938
X130.412Y-102.839
X130.488Y-81.542
X130.506Y-64.933
X130.506Y-67.498
X130.625Y-105.108
X130.751Y-70.384
X130.776Y-79.874
X130.811Y-65.686
X130.82Y-78.14
X131.388Y-94.514
X131.427Y-112.677
X131.869Y-67.091
X131.881Y-69.976
X132.14Y-74.025
X132.28Y-111.459
X132.373Y-66.53
X132.41Y-54.88
X132.451Y-64.042
X132.75Y-62.86
X132.893Y-69.769
X132.99Y-65.651
X133.01Y-67.162
X133.2Y-55.22
X133.345Y-66.433
X133.454Y-63.415
X133.645Y-69.465
X133.732Y-113.298
X134.745Y-126.763
X135.021Y-105.416
X135.064Y-127.595
X135.081Y-83.81
X135.74Y-49.46
X136.396Y-47.823
X136.418Y-48.576
X136.574Y-127.06
X136.677Y-107.258
X136.992Y-50.625
X136.992Y-49.873
X137.069Y-53.466
X137.521Y-51.27
X137.555Y-126.074
X137.74Y-83.476
X137.754Y-69.767
X137.944Y-70.722
X138.05Y-49.798
X138.361Y-125.851
X138.983Y-126.309
X139.096Y-83.171
X139.788Y-62.015
X139.94Y-52.49
X139.997Y-82.984
X140.188Y-70.433
X140.882Y-71.238
X140.94Y-70.433
X141.837Y-70.757
X142.823Y-52.188
X143.545Y-48.815
X143.918Y-70.54
X144.115Y-52.115
X144.48Y-62.29
X144.5Y-61.52
X144.629Y-83.971
X145.844Y-70.017
X146.212Y-49.567
X147.022Y-69.9
X147.076Y-127.485
X147.084Y-126.406
X147.374Y-49.54
X147.432Y-53.193
X147.485Y-64.914
X147.936Y-74.345
X148.175Y-64.371
X148.643Y-52.764
X148.986Y-78.406
X149.05Y-77.172
X149.089Y-68.886
X149.298Y-83.99
X149.566Y-67.498
X150.055Y-77.406
X150.223Y-64.941
X150.245Y-86.816
X150.38Y-67.498
X150.399Y-52.501
X150.846Y-69.01
X150.874Y-64.527
X151.077Y-77.232
X151.128Y-52.312
X151.364Y-104.654
X151.598Y-83.522
X152.131Y-104.635
X152.331Y-64.564
X152.37Y-77.466
X152.694Y-53.896
X152.703Y-67.685
X152.822Y-83.951
X153.176Y-65.171
X153.346Y-81.537
X153.504Y-67.652
X153.615Y-83.857
X154.232Y-81.432
X154.356Y-65.231
X154.368Y-83.552
X154.93Y-48.17
X155.133Y-63.728
X155.141Y-62.03
X155.46Y-67.123
X155.579Y-77.937
X156.11Y-77.402
X156.268Y-133.569
X156.689Y-57.348
X157.25Y-57.877
X157.317Y-78.237
X157.594Y-92.054
X157.72Y-48.17
X157.779Y-56.323
X158.267Y-69.658
X158.281Y-84.748
X158.825Y-84.219
X159.539Y-55.95
X159.852Y-52.379
X159.998Y-67.673
X160.181Y-66.908
X160.274Y-83.673
X160.856Y-54.651
X161.128Y-83.543
X161.15Y-60.11
X161.824Y-85.261
X161.844Y-55.809
X161.93Y-50.31
X162.706Y-56.148
X162.719Y-93.492
X162.99Y-46.52
X163.84Y-52.06
X164.05Y-62.68
X164.621Y-65.089
X164.94Y-60.16
X165.218Y-62.151
X165.46Y-120.524
X165.731Y-78.201
X165.878Y-53.038
X166.218Y-98.59
X166.261Y-55.343
X166.806Y-67.243
X167.257Y-56.279
X167.331Y-84.175
X167.794Y-75.134
X167.85Y-54.66
X169.605Y-106.803
X170.909Y-69.393
X170.93Y-70.19
X171.103Y-79.359
X171.628Y-83.68
X171.69Y-70.155
X171.841Y-107.09
X172.118Y-70.774
X172.17Y-114.03
X172.62Y-115.7
X173.01Y-118.361
X173.539Y-122.29
X173.692Y-103.912
X173.843Y-121.58
X174.089Y-104.73
X174.384Y-90.316
X174.718Y-104.23
X174.72Y-119.093
X175.405Y-88.01
X175.499Y-113.461
X175.84Y-75.231
X176.42Y-136.018
X176.678Y-105.315
X176.867Y-119.04
X177.46Y-83.502
X177.46Y-95.761
X178.377Y-89.942
X178.56Y-117.978
X185.69Y-122.04
X188.162Y-94.856
X190.06Y-74.602
X190.509Y-76.412
X190.509Y-75.66
X191.36Y-75.49
T2
X99.17Y-76.98
X99.22Y-94.2
X100.05Y-67.19
X101.66Y-96.08
X107.49Y-132.15
X108.05Y-133.17
X108.43Y-131.27
X108.62Y-100.68
X112.92Y-76.99
X116.235Y-109.722
X116.235Y-119.247
X119.664Y-126.105
X120.934Y-114.548
X122.204Y-111.754
X122.331Y-113.278
X122.335Y-47.97
X123.601Y-107.817
X123.601Y-126.105
X124.744Y-113.405
X124.998Y-121.025
X126.014Y-121.025
X127.157Y-126.105
X127.411Y-107.817
X128.045Y-54.47
X128.554Y-121.025
X129.062Y-113.024
X129.697Y-117.723
X129.697Y-119.628
X133.75Y-124.02
X134.015Y-126.105
X134.22Y-138.432
X134.523Y-114.167
X140.03Y-63.98
X140.06Y-56.99
X140.28Y-55.28
X140.911Y-53.791
X141.066Y-60.594
X141.1Y-55.29
X142.25Y-127.1
X142.39Y-54.19
X142.51Y-60.5
X142.9Y-106.47
X144.227Y-109.181
X144.227Y-119.722
X144.227Y-125.183
X144.23Y-60.52
X146.17Y-64.69
X146.24Y-127.02
X146.31Y-138.38
X147.22Y-138.4
X147.91Y-112.102
X147.91Y-118.198
X149.006Y-112.149
X149.022Y-122.231
X149.03Y-55.62
X149.489Y-123.821
X149.85Y-53.18
X150.069Y-111.086
X150.069Y-112.61
X150.069Y-113.499
X150.069Y-115.277
X150.069Y-121.119
X150.12Y-61.63
X151.085Y-110.197
X151.085Y-123.913
X151.161Y-62.131
X151.18Y-112.83
X151.538Y-119.182
X152.09Y-124.77
X152.736Y-107.911
X152.882Y-122.972
X153.117Y-110.197
X153.459Y-124.639
X154.006Y-122.897
X155.276Y-123.913
X155.71Y-111.16
X155.784Y-107.911
X158.07Y-124.421
X159.34Y-112.01
X159.467Y-124.04
X159.84Y-49.66
X160.356Y-107.911
X160.829Y-123.405
X161.245Y-110.07
X161.3Y-114.29
X162.261Y-111.975
X162.642Y-124.802
X162.946Y-109.231
X163.423Y-107.974
X163.502Y-125.228
X164.293Y-119.722
X164.42Y-111.467
X164.801Y-112.991
X164.928Y-118.833
X165.563Y-108.038
X166.4Y-54.602
X166.98Y-126.94
X167.28Y-106.77
X167.88Y-134.17
X168.612Y-108.42
X169.31Y-134.19
X169.56Y-124.62
X169.62Y-98.44
X170.79Y-134.21
X171.31Y-116.41
X171.32Y-108.53
X172.0Y-65.29
X172.16Y-132.325
X172.16Y-134.075
X172.802Y-125.945
X173.61Y-45.84
X180.276Y-120.541
X181.02Y-75.54
X182.179Y-101.988
X183.23Y-119.56
X187.206Y-121.55
T5
X150.59Y-97.01
X152.59Y-97.01
X154.59Y-97.01
X121.045Y-75.906
X121.045Y-91.146
X123.585Y-75.906
X123.585Y-91.146
X126.125Y-75.906
X126.125Y-91.146
X128.665Y-75.906
X128.665Y-91.146
X131.205Y-75.906
X131.205Y-91.146
X133.745Y-75.906
X133.745Y-91.146
X136.285Y-75.906
X136.285Y-91.146
X138.825Y-75.906
X138.825Y-91.146
X141.365Y-75.906
X141.365Y-91.146
X143.905Y-75.906
X143.905Y-91.146
X146.445Y-75.906
X146.445Y-91.146
X148.985Y-75.906
X148.985Y-91.146
X151.525Y-75.906
X151.525Y-91.146
X154.065Y-75.906
X154.065Y-91.146
X156.605Y-75.906
X156.605Y-91.146
X159.145Y-75.906
X159.145Y-91.146
X161.685Y-75.906
X161.685Y-91.146
X164.225Y-75.906
X164.225Y-91.146
X166.765Y-75.906
X166.765Y-91.146
X169.305Y-75.906
X169.305Y-91.146
X121.045Y-73.112
X121.045Y-88.352
X123.585Y-73.112
X123.585Y-88.352
X126.125Y-73.112
X126.125Y-88.352
X128.665Y-73.112
X128.665Y-88.352
X131.205Y-73.112
X131.205Y-88.352
X133.745Y-73.112
X133.745Y-88.352
X136.285Y-73.112
X136.285Y-88.352
X138.825Y-73.112
X138.825Y-88.352
X141.365Y-73.112
X141.365Y-88.352
X143.905Y-73.112
X143.905Y-88.352
X146.445Y-73.112
X146.445Y-88.352
X148.985Y-73.112
X148.985Y-88.352
X151.525Y-73.112
X151.525Y-88.352
X154.065Y-73.112
X154.065Y-88.352
X156.605Y-73.112
X156.605Y-88.352
X159.145Y-73.112
X159.145Y-88.352
X161.685Y-73.112
X161.685Y-88.352
X164.225Y-73.112
X164.225Y-88.352
X166.765Y-73.112
X166.765Y-88.352
X169.305Y-73.112
X169.305Y-88.352
T6
X192.33Y-78.59
X192.33Y-81.13
X192.33Y-83.67
X192.33Y-86.21
X192.33Y-88.75
X192.33Y-91.29
X192.33Y-93.83
X192.33Y-96.37
X192.33Y-98.91
X192.33Y-101.45
X192.33Y-103.99
X192.33Y-106.53
X184.58Y-78.6
X184.58Y-81.14
X184.58Y-83.68
X184.58Y-86.22
X184.58Y-88.76
X184.58Y-91.3
X184.58Y-93.84
X184.58Y-96.38
X184.58Y-98.92
X184.58Y-101.46
X184.58Y-104.0
X184.58Y-106.54
X176.42Y-126.9
X176.42Y-129.44
X178.96Y-126.9
X178.96Y-129.44
X181.5Y-126.9
X181.5Y-129.44
X184.04Y-126.9
X184.04Y-129.44
X186.58Y-126.9
X186.58Y-129.44
T3
G00X105.925Y-52.635
M15
G01X106.325Y-52.635
M16
G05
G00X105.925Y-57.475
M15
G01X106.325Y-57.475
M16
G05
T4
G00X102.875Y-52.325
M15
G01X103.375Y-52.325
M16
G05
G00X102.875Y-57.785
M15
G01X103.375Y-57.785
M16
G05
T0
M30
