G04 #@! TF.GenerationSoftware,KiCad,Pcbnew,(5.1.2-1)-1*
G04 #@! TF.CreationDate,2020-09-17T21:50:52+01:00*
G04 #@! TF.ProjectId,tranZPUter-SW-700_v1_2,7472616e-5a50-4557-9465-722d53572d37,rev?*
G04 #@! TF.SameCoordinates,Original*
G04 #@! TF.FileFunction,Other,User*
%FSLAX46Y46*%
G04 Gerber Fmt 4.6, Leading zero omitted, Abs format (unit mm)*
G04 Created by KiCad (PCBNEW (5.1.2-1)-1) date 2020-09-17 21:50:52*
%MOMM*%
%LPD*%
G04 APERTURE LIST*
%ADD10C,0.050000*%
G04 APERTURE END LIST*
D10*
X176380000Y-102960000D02*
X180080000Y-102960000D01*
X176380000Y-104860000D02*
X176380000Y-102960000D01*
X180080000Y-104860000D02*
X176380000Y-104860000D01*
X180080000Y-102960000D02*
X180080000Y-104860000D01*
X152960000Y-103550000D02*
X152960000Y-99850000D01*
X154860000Y-103550000D02*
X152960000Y-103550000D01*
X154860000Y-99850000D02*
X154860000Y-103550000D01*
X152960000Y-99850000D02*
X154860000Y-99850000D01*
X163290000Y-103540000D02*
X163290000Y-99840000D01*
X165190000Y-103540000D02*
X163290000Y-103540000D01*
X165190000Y-99840000D02*
X165190000Y-103540000D01*
X163290000Y-99840000D02*
X165190000Y-99840000D01*
X173600000Y-103540000D02*
X173600000Y-99840000D01*
X175500000Y-103540000D02*
X173600000Y-103540000D01*
X175500000Y-99840000D02*
X175500000Y-103540000D01*
X173600000Y-99840000D02*
X175500000Y-99840000D01*
X180160000Y-83290000D02*
X176460000Y-83290000D01*
X180160000Y-81390000D02*
X180160000Y-83290000D01*
X176460000Y-81390000D02*
X180160000Y-81390000D01*
X176460000Y-83290000D02*
X176460000Y-81390000D01*
X180110000Y-97890000D02*
X176410000Y-97890000D01*
X180110000Y-95990000D02*
X180110000Y-97890000D01*
X176410000Y-95990000D02*
X180110000Y-95990000D01*
X176410000Y-97890000D02*
X176410000Y-95990000D01*
X176430000Y-90170000D02*
X180130000Y-90170000D01*
X176430000Y-92070000D02*
X176430000Y-90170000D01*
X180130000Y-92070000D02*
X176430000Y-92070000D01*
X180130000Y-90170000D02*
X180130000Y-92070000D01*
X180110000Y-94980000D02*
X176410000Y-94980000D01*
X180110000Y-93080000D02*
X180110000Y-94980000D01*
X176410000Y-93080000D02*
X180110000Y-93080000D01*
X176410000Y-94980000D02*
X176410000Y-93080000D01*
X158290000Y-99180000D02*
X158290000Y-95480000D01*
X160190000Y-99180000D02*
X158290000Y-99180000D01*
X160190000Y-95480000D02*
X160190000Y-99180000D01*
X158290000Y-95480000D02*
X160190000Y-95480000D01*
X171480000Y-99160000D02*
X171480000Y-95460000D01*
X173380000Y-99160000D02*
X171480000Y-99160000D01*
X173380000Y-95460000D02*
X173380000Y-99160000D01*
X171480000Y-95460000D02*
X173380000Y-95460000D01*
X145040000Y-99160000D02*
X145040000Y-95460000D01*
X146940000Y-99160000D02*
X145040000Y-99160000D01*
X146940000Y-95460000D02*
X146940000Y-99160000D01*
X145040000Y-95460000D02*
X146940000Y-95460000D01*
X163550000Y-99190000D02*
X163550000Y-95490000D01*
X165450000Y-99190000D02*
X163550000Y-99190000D01*
X165450000Y-95490000D02*
X165450000Y-99190000D01*
X163550000Y-95490000D02*
X165450000Y-95490000D01*
X176450000Y-78410000D02*
X180150000Y-78410000D01*
X176450000Y-80310000D02*
X176450000Y-78410000D01*
X180150000Y-80310000D02*
X176450000Y-80310000D01*
X180150000Y-78410000D02*
X180150000Y-80310000D01*
X176450000Y-87340000D02*
X180150000Y-87340000D01*
X176450000Y-89240000D02*
X176450000Y-87340000D01*
X180150000Y-89240000D02*
X176450000Y-89240000D01*
X180150000Y-87340000D02*
X180150000Y-89240000D01*
X176450000Y-84350000D02*
X180150000Y-84350000D01*
X176450000Y-86250000D02*
X176450000Y-84350000D01*
X180150000Y-86250000D02*
X176450000Y-86250000D01*
X180150000Y-84350000D02*
X180150000Y-86250000D01*
X144960000Y-103540000D02*
X144960000Y-99840000D01*
X146860000Y-103540000D02*
X144960000Y-103540000D01*
X146860000Y-99840000D02*
X146860000Y-103540000D01*
X144960000Y-99840000D02*
X146860000Y-99840000D01*
X146960000Y-103540000D02*
X146960000Y-99840000D01*
X148860000Y-103540000D02*
X146960000Y-103540000D01*
X148860000Y-99840000D02*
X148860000Y-103540000D01*
X146960000Y-99840000D02*
X148860000Y-99840000D01*
X148970000Y-103550000D02*
X148970000Y-99850000D01*
X150870000Y-103550000D02*
X148970000Y-103550000D01*
X150870000Y-99850000D02*
X150870000Y-103550000D01*
X148970000Y-99850000D02*
X150870000Y-99850000D01*
X150960000Y-103550000D02*
X150960000Y-99850000D01*
X152860000Y-103550000D02*
X150960000Y-103550000D01*
X152860000Y-99850000D02*
X152860000Y-103550000D01*
X150960000Y-99850000D02*
X152860000Y-99850000D01*
X155290000Y-103550000D02*
X155290000Y-99850000D01*
X157190000Y-103550000D02*
X155290000Y-103550000D01*
X157190000Y-99850000D02*
X157190000Y-103550000D01*
X155290000Y-99850000D02*
X157190000Y-99850000D01*
X157290000Y-103550000D02*
X157290000Y-99850000D01*
X159190000Y-103550000D02*
X157290000Y-103550000D01*
X159190000Y-99850000D02*
X159190000Y-103550000D01*
X157290000Y-99850000D02*
X159190000Y-99850000D01*
X159290000Y-103540000D02*
X159290000Y-99840000D01*
X161190000Y-103540000D02*
X159290000Y-103540000D01*
X161190000Y-99840000D02*
X161190000Y-103540000D01*
X159290000Y-99840000D02*
X161190000Y-99840000D01*
X161290000Y-103540000D02*
X161290000Y-99840000D01*
X163190000Y-103540000D02*
X161290000Y-103540000D01*
X163190000Y-99840000D02*
X163190000Y-103540000D01*
X161290000Y-99840000D02*
X163190000Y-99840000D01*
X165610000Y-103530000D02*
X165610000Y-99830000D01*
X167510000Y-103530000D02*
X165610000Y-103530000D01*
X167510000Y-99830000D02*
X167510000Y-103530000D01*
X165610000Y-99830000D02*
X167510000Y-99830000D01*
X167610000Y-103540000D02*
X167610000Y-99840000D01*
X169510000Y-103540000D02*
X167610000Y-103540000D01*
X169510000Y-99840000D02*
X169510000Y-103540000D01*
X167610000Y-99840000D02*
X169510000Y-99840000D01*
X169610000Y-103540000D02*
X169610000Y-99840000D01*
X171510000Y-103540000D02*
X169610000Y-103540000D01*
X171510000Y-99840000D02*
X171510000Y-103540000D01*
X169610000Y-99840000D02*
X171510000Y-99840000D01*
X171600000Y-103530000D02*
X171600000Y-99830000D01*
X173500000Y-103530000D02*
X171600000Y-103530000D01*
X173500000Y-99830000D02*
X173500000Y-103530000D01*
X171600000Y-99830000D02*
X173500000Y-99830000D01*
X136520000Y-54590000D02*
X132820000Y-54590000D01*
X136520000Y-52690000D02*
X136520000Y-54590000D01*
X132820000Y-52690000D02*
X136520000Y-52690000D01*
X132820000Y-54590000D02*
X132820000Y-52690000D01*
X176470000Y-98860000D02*
X179970000Y-98860000D01*
X176470000Y-102260000D02*
X176470000Y-98860000D01*
X179970000Y-102260000D02*
X176470000Y-102260000D01*
X179970000Y-98860000D02*
X179970000Y-102260000D01*
X149090000Y-95510000D02*
X149090000Y-98510000D01*
X156090000Y-95510000D02*
X149090000Y-95510000D01*
X156090000Y-98510000D02*
X156090000Y-95510000D01*
X149090000Y-98510000D02*
X156090000Y-98510000D01*
X194130000Y-76790000D02*
X190530000Y-76790000D01*
X194130000Y-108340000D02*
X194130000Y-76790000D01*
X190530000Y-108340000D02*
X194130000Y-108340000D01*
X190530000Y-76790000D02*
X190530000Y-108340000D01*
X186380000Y-76800000D02*
X182780000Y-76800000D01*
X186380000Y-108350000D02*
X186380000Y-76800000D01*
X182780000Y-108350000D02*
X186380000Y-108350000D01*
X182780000Y-76800000D02*
X182780000Y-108350000D01*
X158910000Y-59260000D02*
X155610000Y-59260000D01*
X158910000Y-57800000D02*
X158910000Y-59260000D01*
X155610000Y-57800000D02*
X158910000Y-57800000D01*
X155610000Y-59260000D02*
X155610000Y-57800000D01*
X174620000Y-140000000D02*
X174620000Y-125100000D01*
X188370000Y-125100000D02*
X188370000Y-140000000D01*
X188370000Y-140000000D02*
X174620000Y-140000000D01*
X174620000Y-125100000D02*
X188370000Y-125100000D01*
X174620000Y-131240000D02*
X188370000Y-131240000D01*
X188370000Y-131240000D02*
X188370000Y-125090000D01*
X188370000Y-125090000D02*
X174620000Y-125090000D01*
X174620000Y-125090000D02*
X174620000Y-131240000D01*
X113100000Y-60770000D02*
X100550000Y-60770000D01*
X113100000Y-73950000D02*
X113100000Y-60770000D01*
X100550000Y-73950000D02*
X113100000Y-73950000D01*
X100550000Y-60770000D02*
X100550000Y-73950000D01*
X137480000Y-52130000D02*
X137480000Y-58530000D01*
X138950000Y-52130000D02*
X137480000Y-52130000D01*
X138950000Y-51280000D02*
X138950000Y-52130000D01*
X139800000Y-51280000D02*
X138950000Y-51280000D01*
X139800000Y-49810000D02*
X139800000Y-51280000D01*
X146200000Y-49810000D02*
X139800000Y-49810000D01*
X154920000Y-52130000D02*
X154920000Y-58530000D01*
X153450000Y-52130000D02*
X154920000Y-52130000D01*
X153450000Y-51280000D02*
X153450000Y-52130000D01*
X152600000Y-51280000D02*
X153450000Y-51280000D01*
X152600000Y-49810000D02*
X152600000Y-51280000D01*
X146200000Y-49810000D02*
X152600000Y-49810000D01*
X137480000Y-64930000D02*
X137480000Y-58530000D01*
X138950000Y-64930000D02*
X137480000Y-64930000D01*
X138950000Y-65780000D02*
X138950000Y-64930000D01*
X139800000Y-65780000D02*
X138950000Y-65780000D01*
X139800000Y-67250000D02*
X139800000Y-65780000D01*
X146200000Y-67250000D02*
X139800000Y-67250000D01*
X154920000Y-64930000D02*
X154920000Y-58530000D01*
X153450000Y-64930000D02*
X154920000Y-64930000D01*
X153450000Y-65780000D02*
X153450000Y-64930000D01*
X152600000Y-65780000D02*
X153450000Y-65780000D01*
X152600000Y-67250000D02*
X152600000Y-65780000D01*
X146200000Y-67250000D02*
X152600000Y-67250000D01*
X169120000Y-61300000D02*
X172820000Y-61300000D01*
X169120000Y-63200000D02*
X169120000Y-61300000D01*
X172820000Y-63200000D02*
X169120000Y-63200000D01*
X172820000Y-61300000D02*
X172820000Y-63200000D01*
X162450000Y-59820000D02*
X162450000Y-57320000D01*
X162450000Y-59820000D02*
X163650000Y-59820000D01*
X163650000Y-57320000D02*
X162450000Y-57320000D01*
X163650000Y-57320000D02*
X163650000Y-59820000D01*
X164330000Y-59840000D02*
X164330000Y-57340000D01*
X164330000Y-59840000D02*
X165530000Y-59840000D01*
X165530000Y-57340000D02*
X164330000Y-57340000D01*
X165530000Y-57340000D02*
X165530000Y-59840000D01*
X162790000Y-61270000D02*
X165290000Y-61270000D01*
X162790000Y-61270000D02*
X162790000Y-62470000D01*
X165290000Y-62470000D02*
X165290000Y-61270000D01*
X165290000Y-62470000D02*
X162790000Y-62470000D01*
X160550000Y-59830000D02*
X160550000Y-57330000D01*
X160550000Y-59830000D02*
X161750000Y-59830000D01*
X161750000Y-57330000D02*
X160550000Y-57330000D01*
X161750000Y-57330000D02*
X161750000Y-59830000D01*
X166290000Y-59820000D02*
X166290000Y-57320000D01*
X166290000Y-59820000D02*
X167490000Y-59820000D01*
X167490000Y-57320000D02*
X166290000Y-57320000D01*
X167490000Y-57320000D02*
X167490000Y-59820000D01*
X100660000Y-59220000D02*
X100660000Y-50950000D01*
X100660000Y-59220000D02*
X107120000Y-59220000D01*
X107120000Y-50950000D02*
X100660000Y-50950000D01*
X107120000Y-50950000D02*
X107120000Y-59220000D01*
X179230000Y-122660000D02*
X179230000Y-115260000D01*
X173830000Y-122660000D02*
X179230000Y-122660000D01*
X173830000Y-115260000D02*
X173830000Y-122660000D01*
X179230000Y-115260000D02*
X173830000Y-115260000D01*
X173830000Y-113530000D02*
X177130000Y-113530000D01*
X173830000Y-114990000D02*
X173830000Y-113530000D01*
X177130000Y-114990000D02*
X173830000Y-114990000D01*
X177130000Y-113530000D02*
X177130000Y-114990000D01*
X132000000Y-47610000D02*
X132000000Y-51010000D01*
X133800000Y-47610000D02*
X132000000Y-47610000D01*
X133800000Y-51010000D02*
X133800000Y-47610000D01*
X132000000Y-51010000D02*
X133800000Y-51010000D01*
X162000000Y-56600000D02*
X166200000Y-56600000D01*
X162000000Y-52400000D02*
X162000000Y-56600000D01*
X166200000Y-52400000D02*
X162000000Y-52400000D01*
X166200000Y-56600000D02*
X166200000Y-52400000D01*
X126570000Y-47410000D02*
X126570000Y-51610000D01*
X129970000Y-47410000D02*
X126570000Y-47410000D01*
X129970000Y-51610000D02*
X129970000Y-47410000D01*
X126570000Y-51610000D02*
X129970000Y-51610000D01*
X108650000Y-51490000D02*
X108650000Y-58890000D01*
X118650000Y-51490000D02*
X108650000Y-51490000D01*
X118650000Y-58890000D02*
X118650000Y-51490000D01*
X108650000Y-58890000D02*
X118650000Y-58890000D01*
X163950000Y-46450000D02*
X163950000Y-50150000D01*
X162050000Y-46450000D02*
X163950000Y-46450000D01*
X162050000Y-50150000D02*
X162050000Y-46450000D01*
X163950000Y-50150000D02*
X162050000Y-50150000D01*
X173330000Y-48200000D02*
X169630000Y-48200000D01*
X173330000Y-46300000D02*
X173330000Y-48200000D01*
X169630000Y-46300000D02*
X173330000Y-46300000D01*
X169630000Y-48200000D02*
X169630000Y-46300000D01*
X119430000Y-54670000D02*
X123130000Y-54670000D01*
X119430000Y-56570000D02*
X119430000Y-54670000D01*
X123130000Y-56570000D02*
X119430000Y-56570000D01*
X123130000Y-54670000D02*
X123130000Y-56570000D01*
X119500000Y-56880000D02*
X123200000Y-56880000D01*
X119500000Y-58780000D02*
X119500000Y-56880000D01*
X123200000Y-58780000D02*
X119500000Y-58780000D01*
X123200000Y-56880000D02*
X123200000Y-58780000D01*
X164060000Y-49410000D02*
X164060000Y-46450000D01*
X165520000Y-49410000D02*
X164060000Y-49410000D01*
X165520000Y-46450000D02*
X165520000Y-49410000D01*
X164060000Y-46450000D02*
X165520000Y-46450000D01*
X169640000Y-48270000D02*
X173340000Y-48270000D01*
X169640000Y-50170000D02*
X169640000Y-48270000D01*
X173340000Y-50170000D02*
X169640000Y-50170000D01*
X173340000Y-48270000D02*
X173340000Y-50170000D01*
X167620000Y-50150000D02*
X167620000Y-46450000D01*
X169520000Y-50150000D02*
X167620000Y-50150000D01*
X169520000Y-46450000D02*
X169520000Y-50150000D01*
X167620000Y-46450000D02*
X169520000Y-46450000D01*
X165610000Y-50150000D02*
X165610000Y-46450000D01*
X167510000Y-50150000D02*
X165610000Y-50150000D01*
X167510000Y-46450000D02*
X167510000Y-50150000D01*
X165610000Y-46450000D02*
X167510000Y-46450000D01*
X181730000Y-120580000D02*
X189130000Y-120580000D01*
X181730000Y-110580000D02*
X181730000Y-120580000D01*
X189130000Y-110580000D02*
X181730000Y-110580000D01*
X189130000Y-120580000D02*
X189130000Y-110580000D01*
X173180000Y-112030000D02*
X177180000Y-112030000D01*
X173180000Y-108630000D02*
X173180000Y-112030000D01*
X177180000Y-108630000D02*
X173180000Y-108630000D01*
X177180000Y-112030000D02*
X177180000Y-108630000D01*
X156460000Y-128580000D02*
X165610000Y-128580000D01*
X165610000Y-128580000D02*
X165610000Y-127180000D01*
X165610000Y-127180000D02*
X166710000Y-127180000D01*
X166710000Y-127180000D02*
X166710000Y-126080000D01*
X166710000Y-126080000D02*
X168110000Y-126080000D01*
X168110000Y-126080000D02*
X168110000Y-116930000D01*
X156460000Y-128580000D02*
X147310000Y-128580000D01*
X147310000Y-128580000D02*
X147310000Y-127180000D01*
X147310000Y-127180000D02*
X146210000Y-127180000D01*
X146210000Y-127180000D02*
X146210000Y-126080000D01*
X146210000Y-126080000D02*
X144810000Y-126080000D01*
X144810000Y-126080000D02*
X144810000Y-116930000D01*
X156460000Y-105280000D02*
X165610000Y-105280000D01*
X165610000Y-105280000D02*
X165610000Y-106680000D01*
X165610000Y-106680000D02*
X166710000Y-106680000D01*
X166710000Y-106680000D02*
X166710000Y-107780000D01*
X166710000Y-107780000D02*
X168110000Y-107780000D01*
X168110000Y-107780000D02*
X168110000Y-116930000D01*
X156460000Y-105280000D02*
X147310000Y-105280000D01*
X147310000Y-105280000D02*
X147310000Y-106680000D01*
X147310000Y-106680000D02*
X146210000Y-106680000D01*
X146210000Y-106680000D02*
X146210000Y-107780000D01*
X146210000Y-107780000D02*
X144810000Y-107780000D01*
X144810000Y-107780000D02*
X144810000Y-116930000D01*
X113730000Y-107820000D02*
X113730000Y-116970000D01*
X115130000Y-107820000D02*
X113730000Y-107820000D01*
X115130000Y-106720000D02*
X115130000Y-107820000D01*
X116230000Y-106720000D02*
X115130000Y-106720000D01*
X116230000Y-105320000D02*
X116230000Y-106720000D01*
X125380000Y-105320000D02*
X116230000Y-105320000D01*
X137030000Y-107820000D02*
X137030000Y-116970000D01*
X135630000Y-107820000D02*
X137030000Y-107820000D01*
X135630000Y-106720000D02*
X135630000Y-107820000D01*
X134530000Y-106720000D02*
X135630000Y-106720000D01*
X134530000Y-105320000D02*
X134530000Y-106720000D01*
X125380000Y-105320000D02*
X134530000Y-105320000D01*
X113730000Y-126120000D02*
X113730000Y-116970000D01*
X115130000Y-126120000D02*
X113730000Y-126120000D01*
X115130000Y-127220000D02*
X115130000Y-126120000D01*
X116230000Y-127220000D02*
X115130000Y-127220000D01*
X116230000Y-128620000D02*
X116230000Y-127220000D01*
X125380000Y-128620000D02*
X116230000Y-128620000D01*
X137030000Y-126120000D02*
X137030000Y-116970000D01*
X135630000Y-126120000D02*
X137030000Y-126120000D01*
X135630000Y-127220000D02*
X135630000Y-126120000D01*
X134530000Y-127220000D02*
X135630000Y-127220000D01*
X134530000Y-128620000D02*
X134530000Y-127220000D01*
X125380000Y-128620000D02*
X134530000Y-128620000D01*
X143370000Y-116670000D02*
X143370000Y-120370000D01*
X141470000Y-116670000D02*
X143370000Y-116670000D01*
X141470000Y-120370000D02*
X141470000Y-116670000D01*
X143370000Y-120370000D02*
X141470000Y-120370000D01*
X173470000Y-106810000D02*
X176770000Y-106810000D01*
X173470000Y-108270000D02*
X173470000Y-106810000D01*
X176770000Y-108270000D02*
X173470000Y-108270000D01*
X176770000Y-106810000D02*
X176770000Y-108270000D01*
X114030000Y-76050000D02*
X100630000Y-76050000D01*
X114030000Y-97050000D02*
X100630000Y-97050000D01*
X100630000Y-97050000D02*
X100630000Y-76050000D01*
X114030000Y-97050000D02*
X114030000Y-76050000D01*
X170905000Y-92706000D02*
X170905000Y-74356000D01*
X119455000Y-92706000D02*
X170905000Y-92706000D01*
X119455000Y-74356000D02*
X119455000Y-92706000D01*
X170905000Y-74356000D02*
X119455000Y-74356000D01*
X169140000Y-67350000D02*
X172840000Y-67350000D01*
X169140000Y-69250000D02*
X169140000Y-67350000D01*
X172840000Y-69250000D02*
X169140000Y-69250000D01*
X172840000Y-67350000D02*
X172840000Y-69250000D01*
X169130000Y-63350000D02*
X172830000Y-63350000D01*
X169130000Y-65250000D02*
X169130000Y-63350000D01*
X172830000Y-65250000D02*
X169130000Y-65250000D01*
X172830000Y-63350000D02*
X172830000Y-65250000D01*
X169140000Y-65360000D02*
X172840000Y-65360000D01*
X169140000Y-67260000D02*
X169140000Y-65360000D01*
X172840000Y-67260000D02*
X169140000Y-67260000D01*
X172840000Y-65360000D02*
X172840000Y-67260000D01*
M02*
