G04 #@! TF.GenerationSoftware,KiCad,Pcbnew,(5.1.2-1)-1*
G04 #@! TF.CreationDate,2020-09-17T21:50:52+01:00*
G04 #@! TF.ProjectId,tranZPUter-SW-700_v1_2,7472616e-5a50-4557-9465-722d53572d37,rev?*
G04 #@! TF.SameCoordinates,Original*
G04 #@! TF.FileFunction,Legend,Bot*
G04 #@! TF.FilePolarity,Positive*
%FSLAX46Y46*%
G04 Gerber Fmt 4.6, Leading zero omitted, Abs format (unit mm)*
G04 Created by KiCad (PCBNEW (5.1.2-1)-1) date 2020-09-17 21:50:52*
%MOMM*%
%LPD*%
G04 APERTURE LIST*
%ADD10C,0.120000*%
%ADD11C,0.150000*%
%ADD12C,0.100000*%
G04 APERTURE END LIST*
D10*
X189400000Y-113220000D02*
X189390000Y-139880000D01*
X195390000Y-113220000D02*
X189400000Y-113220000D01*
X195390000Y-72940000D02*
X195390000Y-113220000D01*
X174380000Y-72920000D02*
X195390000Y-72940000D01*
X174390000Y-45110000D02*
X174380000Y-72920000D01*
X97600000Y-45100000D02*
X174390000Y-45110000D01*
X97610000Y-139890000D02*
X97600000Y-45100000D01*
X189360000Y-139870000D02*
X97580000Y-139880000D01*
D11*
X141108571Y-133737619D02*
X141060952Y-133690000D01*
X140965714Y-133642380D01*
X140727619Y-133642380D01*
X140632380Y-133690000D01*
X140584761Y-133737619D01*
X140537142Y-133832857D01*
X140537142Y-133928095D01*
X140584761Y-134070952D01*
X141156190Y-134642380D01*
X140537142Y-134642380D01*
X140108571Y-134547142D02*
X140060952Y-134594761D01*
X140108571Y-134642380D01*
X140156190Y-134594761D01*
X140108571Y-134547142D01*
X140108571Y-134642380D01*
X139156190Y-133642380D02*
X139632380Y-133642380D01*
X139680000Y-134118571D01*
X139632380Y-134070952D01*
X139537142Y-134023333D01*
X139299047Y-134023333D01*
X139203809Y-134070952D01*
X139156190Y-134118571D01*
X139108571Y-134213809D01*
X139108571Y-134451904D01*
X139156190Y-134547142D01*
X139203809Y-134594761D01*
X139299047Y-134642380D01*
X139537142Y-134642380D01*
X139632380Y-134594761D01*
X139680000Y-134547142D01*
X138822857Y-133642380D02*
X138489523Y-134642380D01*
X138156190Y-133642380D01*
X103486190Y-132937380D02*
X102867142Y-132937380D01*
X103200476Y-133318333D01*
X103057619Y-133318333D01*
X102962380Y-133365952D01*
X102914761Y-133413571D01*
X102867142Y-133508809D01*
X102867142Y-133746904D01*
X102914761Y-133842142D01*
X102962380Y-133889761D01*
X103057619Y-133937380D01*
X103343333Y-133937380D01*
X103438571Y-133889761D01*
X103486190Y-133842142D01*
X102438571Y-133842142D02*
X102390952Y-133889761D01*
X102438571Y-133937380D01*
X102486190Y-133889761D01*
X102438571Y-133842142D01*
X102438571Y-133937380D01*
X102057619Y-132937380D02*
X101438571Y-132937380D01*
X101771904Y-133318333D01*
X101629047Y-133318333D01*
X101533809Y-133365952D01*
X101486190Y-133413571D01*
X101438571Y-133508809D01*
X101438571Y-133746904D01*
X101486190Y-133842142D01*
X101533809Y-133889761D01*
X101629047Y-133937380D01*
X101914761Y-133937380D01*
X102010000Y-133889761D01*
X102057619Y-133842142D01*
X101152857Y-132937380D02*
X100819523Y-133937380D01*
X100486190Y-132937380D01*
X103652857Y-135587380D02*
X103652857Y-134587380D01*
X103081428Y-135587380D02*
X103509999Y-135015952D01*
X103081428Y-134587380D02*
X103652857Y-135158809D01*
X102224285Y-134587380D02*
X102414761Y-134587380D01*
X102509999Y-134635000D01*
X102557619Y-134682619D01*
X102652857Y-134825476D01*
X102700476Y-135015952D01*
X102700476Y-135396904D01*
X102652857Y-135492142D01*
X102605238Y-135539761D01*
X102509999Y-135587380D01*
X102319523Y-135587380D01*
X102224285Y-135539761D01*
X102176666Y-135492142D01*
X102129047Y-135396904D01*
X102129047Y-135158809D01*
X102176666Y-135063571D01*
X102224285Y-135015952D01*
X102319523Y-134968333D01*
X102509999Y-134968333D01*
X102605238Y-135015952D01*
X102652857Y-135063571D01*
X102700476Y-135158809D01*
X101271904Y-134920714D02*
X101271904Y-135587380D01*
X101509999Y-134539761D02*
X101748095Y-135254047D01*
X101129047Y-135254047D01*
X100414761Y-135063571D02*
X100748095Y-135063571D01*
X100748095Y-135587380D02*
X100748095Y-134587380D01*
X100271904Y-134587380D01*
X159497142Y-134622380D02*
X160068571Y-134622380D01*
X159782857Y-134622380D02*
X159782857Y-133622380D01*
X159878095Y-133765238D01*
X159973333Y-133860476D01*
X160068571Y-133908095D01*
X159068571Y-134527142D02*
X159020952Y-134574761D01*
X159068571Y-134622380D01*
X159116190Y-134574761D01*
X159068571Y-134527142D01*
X159068571Y-134622380D01*
X158640000Y-133717619D02*
X158592380Y-133670000D01*
X158497142Y-133622380D01*
X158259047Y-133622380D01*
X158163809Y-133670000D01*
X158116190Y-133717619D01*
X158068571Y-133812857D01*
X158068571Y-133908095D01*
X158116190Y-134050952D01*
X158687619Y-134622380D01*
X158068571Y-134622380D01*
X157782857Y-133622380D02*
X157449523Y-134622380D01*
X157116190Y-133622380D01*
X122356190Y-133542380D02*
X121737142Y-133542380D01*
X122070476Y-133923333D01*
X121927619Y-133923333D01*
X121832380Y-133970952D01*
X121784761Y-134018571D01*
X121737142Y-134113809D01*
X121737142Y-134351904D01*
X121784761Y-134447142D01*
X121832380Y-134494761D01*
X121927619Y-134542380D01*
X122213333Y-134542380D01*
X122308571Y-134494761D01*
X122356190Y-134447142D01*
X121308571Y-134447142D02*
X121260952Y-134494761D01*
X121308571Y-134542380D01*
X121356190Y-134494761D01*
X121308571Y-134447142D01*
X121308571Y-134542380D01*
X120927619Y-133542380D02*
X120308571Y-133542380D01*
X120641904Y-133923333D01*
X120499047Y-133923333D01*
X120403809Y-133970952D01*
X120356190Y-134018571D01*
X120308571Y-134113809D01*
X120308571Y-134351904D01*
X120356190Y-134447142D01*
X120403809Y-134494761D01*
X120499047Y-134542380D01*
X120784761Y-134542380D01*
X120880000Y-134494761D01*
X120927619Y-134447142D01*
X120022857Y-133542380D02*
X119689523Y-134542380D01*
X119356190Y-133542380D01*
D10*
X170702000Y-89622000D02*
X170702000Y-71842000D01*
D11*
X149280952Y-81302380D02*
X148614285Y-81302380D01*
X149280952Y-82302380D01*
X148614285Y-82302380D01*
X148090476Y-81730952D02*
X148185714Y-81683333D01*
X148233333Y-81635714D01*
X148280952Y-81540476D01*
X148280952Y-81492857D01*
X148233333Y-81397619D01*
X148185714Y-81350000D01*
X148090476Y-81302380D01*
X147900000Y-81302380D01*
X147804761Y-81350000D01*
X147757142Y-81397619D01*
X147709523Y-81492857D01*
X147709523Y-81540476D01*
X147757142Y-81635714D01*
X147804761Y-81683333D01*
X147900000Y-81730952D01*
X148090476Y-81730952D01*
X148185714Y-81778571D01*
X148233333Y-81826190D01*
X148280952Y-81921428D01*
X148280952Y-82111904D01*
X148233333Y-82207142D01*
X148185714Y-82254761D01*
X148090476Y-82302380D01*
X147900000Y-82302380D01*
X147804761Y-82254761D01*
X147757142Y-82207142D01*
X147709523Y-82111904D01*
X147709523Y-81921428D01*
X147757142Y-81826190D01*
X147804761Y-81778571D01*
X147900000Y-81730952D01*
X147090476Y-81302380D02*
X146995238Y-81302380D01*
X146900000Y-81350000D01*
X146852380Y-81397619D01*
X146804761Y-81492857D01*
X146757142Y-81683333D01*
X146757142Y-81921428D01*
X146804761Y-82111904D01*
X146852380Y-82207142D01*
X146900000Y-82254761D01*
X146995238Y-82302380D01*
X147090476Y-82302380D01*
X147185714Y-82254761D01*
X147233333Y-82207142D01*
X147280952Y-82111904D01*
X147328571Y-81921428D01*
X147328571Y-81683333D01*
X147280952Y-81492857D01*
X147233333Y-81397619D01*
X147185714Y-81350000D01*
X147090476Y-81302380D01*
X145566666Y-81778571D02*
X145233333Y-81778571D01*
X145090476Y-82302380D02*
X145566666Y-82302380D01*
X145566666Y-81302380D01*
X145090476Y-81302380D01*
X144757142Y-82302380D02*
X144233333Y-81635714D01*
X144757142Y-81635714D02*
X144233333Y-82302380D01*
X143995238Y-81635714D02*
X143614285Y-81635714D01*
X143852380Y-81302380D02*
X143852380Y-82159523D01*
X143804761Y-82254761D01*
X143709523Y-82302380D01*
X143614285Y-82302380D01*
X142900000Y-82254761D02*
X142995238Y-82302380D01*
X143185714Y-82302380D01*
X143280952Y-82254761D01*
X143328571Y-82159523D01*
X143328571Y-81778571D01*
X143280952Y-81683333D01*
X143185714Y-81635714D01*
X142995238Y-81635714D01*
X142900000Y-81683333D01*
X142852380Y-81778571D01*
X142852380Y-81873809D01*
X143328571Y-81969047D01*
X142423809Y-81635714D02*
X142423809Y-82302380D01*
X142423809Y-81730952D02*
X142376190Y-81683333D01*
X142280952Y-81635714D01*
X142138095Y-81635714D01*
X142042857Y-81683333D01*
X141995238Y-81778571D01*
X141995238Y-82302380D01*
X141090476Y-82302380D02*
X141090476Y-81302380D01*
X141090476Y-82254761D02*
X141185714Y-82302380D01*
X141376190Y-82302380D01*
X141471428Y-82254761D01*
X141519047Y-82207142D01*
X141566666Y-82111904D01*
X141566666Y-81826190D01*
X141519047Y-81730952D01*
X141471428Y-81683333D01*
X141376190Y-81635714D01*
X141185714Y-81635714D01*
X141090476Y-81683333D01*
X140233333Y-82254761D02*
X140328571Y-82302380D01*
X140519047Y-82302380D01*
X140614285Y-82254761D01*
X140661904Y-82159523D01*
X140661904Y-81778571D01*
X140614285Y-81683333D01*
X140519047Y-81635714D01*
X140328571Y-81635714D01*
X140233333Y-81683333D01*
X140185714Y-81778571D01*
X140185714Y-81873809D01*
X140661904Y-81969047D01*
X139757142Y-82302380D02*
X139757142Y-81635714D01*
X139757142Y-81826190D02*
X139709523Y-81730952D01*
X139661904Y-81683333D01*
X139566666Y-81635714D01*
X139471428Y-81635714D01*
D10*
X119648000Y-89622000D02*
X170702000Y-89622000D01*
X119648000Y-71842000D02*
X119648000Y-89622000D01*
X170702000Y-71842000D02*
X119648000Y-71842000D01*
D11*
X114661428Y-50222380D02*
X114994761Y-49746190D01*
X115232857Y-50222380D02*
X115232857Y-49222380D01*
X114851904Y-49222380D01*
X114756666Y-49270000D01*
X114709047Y-49317619D01*
X114661428Y-49412857D01*
X114661428Y-49555714D01*
X114709047Y-49650952D01*
X114756666Y-49698571D01*
X114851904Y-49746190D01*
X115232857Y-49746190D01*
X114375714Y-49222380D02*
X113804285Y-49222380D01*
X114090000Y-50222380D02*
X114090000Y-49222380D01*
X112899523Y-50127142D02*
X112947142Y-50174761D01*
X113090000Y-50222380D01*
X113185238Y-50222380D01*
X113328095Y-50174761D01*
X113423333Y-50079523D01*
X113470952Y-49984285D01*
X113518571Y-49793809D01*
X113518571Y-49650952D01*
X113470952Y-49460476D01*
X113423333Y-49365238D01*
X113328095Y-49270000D01*
X113185238Y-49222380D01*
X113090000Y-49222380D01*
X112947142Y-49270000D01*
X112899523Y-49317619D01*
X119042857Y-50251428D02*
X119042857Y-49108571D01*
X119002142Y-54481428D02*
X119002142Y-53338571D01*
X118426904Y-53910000D02*
X119577380Y-53910000D01*
D10*
X131888748Y-123330000D02*
X132411252Y-123330000D01*
X131888748Y-124750000D02*
X132411252Y-124750000D01*
X131270000Y-130780000D02*
X125260000Y-130780000D01*
X129020000Y-137600000D02*
X125260000Y-137600000D01*
X125260000Y-130780000D02*
X125260000Y-132040000D01*
X125260000Y-137600000D02*
X125260000Y-136340000D01*
X179950000Y-122368748D02*
X179950000Y-122891252D01*
X178530000Y-122368748D02*
X178530000Y-122891252D01*
X150120000Y-130780000D02*
X144110000Y-130780000D01*
X147870000Y-137600000D02*
X144110000Y-137600000D01*
X144110000Y-130780000D02*
X144110000Y-132040000D01*
X144110000Y-137600000D02*
X144110000Y-136340000D01*
X112460000Y-130790000D02*
X106450000Y-130790000D01*
X110210000Y-137610000D02*
X106450000Y-137610000D01*
X106450000Y-130790000D02*
X106450000Y-132050000D01*
X106450000Y-137610000D02*
X106450000Y-136350000D01*
X114478733Y-133730000D02*
X114821267Y-133730000D01*
X114478733Y-134750000D02*
X114821267Y-134750000D01*
X114448733Y-135870000D02*
X114791267Y-135870000D01*
X114448733Y-136890000D02*
X114791267Y-136890000D01*
X114438733Y-137730000D02*
X114781267Y-137730000D01*
X114438733Y-138750000D02*
X114781267Y-138750000D01*
X125205000Y-54235000D02*
X121320000Y-54235000D01*
X125205000Y-51965000D02*
X125205000Y-54235000D01*
X121320000Y-51965000D02*
X125205000Y-51965000D01*
X125185000Y-51585000D02*
X121300000Y-51585000D01*
X125185000Y-49315000D02*
X125185000Y-51585000D01*
X121300000Y-49315000D02*
X125185000Y-49315000D01*
X152007221Y-52800000D02*
X152332779Y-52800000D01*
X152007221Y-53820000D02*
X152332779Y-53820000D01*
X141971252Y-61290000D02*
X141448748Y-61290000D01*
X141971252Y-59870000D02*
X141448748Y-59870000D01*
X142171252Y-56000000D02*
X141648748Y-56000000D01*
X142171252Y-54580000D02*
X141648748Y-54580000D01*
X123098748Y-47260000D02*
X123621252Y-47260000D01*
X123098748Y-48680000D02*
X123621252Y-48680000D01*
X150028748Y-54350000D02*
X150551252Y-54350000D01*
X150028748Y-55770000D02*
X150551252Y-55770000D01*
X164810000Y-54258748D02*
X164810000Y-54781252D01*
X163390000Y-54258748D02*
X163390000Y-54781252D01*
X168950000Y-130780000D02*
X162940000Y-130780000D01*
X166700000Y-137600000D02*
X162940000Y-137600000D01*
X162940000Y-130780000D02*
X162940000Y-132040000D01*
X162940000Y-137600000D02*
X162940000Y-136340000D01*
X182570000Y-122328748D02*
X182570000Y-122851252D01*
X181150000Y-122328748D02*
X181150000Y-122851252D01*
X186260000Y-122821252D02*
X186260000Y-122298748D01*
X187680000Y-122821252D02*
X187680000Y-122298748D01*
X183670000Y-122841252D02*
X183670000Y-122318748D01*
X185090000Y-122841252D02*
X185090000Y-122318748D01*
X126510000Y-112267221D02*
X126510000Y-112592779D01*
X125490000Y-112267221D02*
X125490000Y-112592779D01*
X120137221Y-111280000D02*
X120462779Y-111280000D01*
X120137221Y-112300000D02*
X120462779Y-112300000D01*
X128340000Y-112277221D02*
X128340000Y-112602779D01*
X127320000Y-112277221D02*
X127320000Y-112602779D01*
X130482779Y-114850000D02*
X130157221Y-114850000D01*
X130482779Y-113830000D02*
X130157221Y-113830000D01*
X126660000Y-122022779D02*
X126660000Y-121697221D01*
X127680000Y-122022779D02*
X127680000Y-121697221D01*
X130642779Y-121460000D02*
X130317221Y-121460000D01*
X130642779Y-120440000D02*
X130317221Y-120440000D01*
X120147221Y-117030000D02*
X120472779Y-117030000D01*
X120147221Y-118050000D02*
X120472779Y-118050000D01*
X119960000Y-121942779D02*
X119960000Y-121617221D01*
X120980000Y-121942779D02*
X120980000Y-121617221D01*
X122980000Y-122072779D02*
X122980000Y-121747221D01*
X124000000Y-122072779D02*
X124000000Y-121747221D01*
X120127221Y-112850000D02*
X120452779Y-112850000D01*
X120127221Y-113870000D02*
X120452779Y-113870000D01*
X124180000Y-112297221D02*
X124180000Y-112622779D01*
X123160000Y-112297221D02*
X123160000Y-112622779D01*
X163708578Y-115000000D02*
X163191422Y-115000000D01*
X163708578Y-113580000D02*
X163191422Y-113580000D01*
X160030000Y-109831422D02*
X160030000Y-110348578D01*
X158610000Y-109831422D02*
X158610000Y-110348578D01*
X156440000Y-109831422D02*
X156440000Y-110348578D01*
X155020000Y-109831422D02*
X155020000Y-110348578D01*
X162170000Y-122948578D02*
X162170000Y-122431422D01*
X163590000Y-122948578D02*
X163590000Y-122431422D01*
X164308733Y-107540000D02*
X164651267Y-107540000D01*
X164308733Y-108560000D02*
X164651267Y-108560000D01*
X152000000Y-124028578D02*
X152000000Y-123511422D01*
X153420000Y-124028578D02*
X153420000Y-123511422D01*
X157380000Y-122338578D02*
X157380000Y-121821422D01*
X158800000Y-122338578D02*
X158800000Y-121821422D01*
X163748578Y-118410000D02*
X163231422Y-118410000D01*
X163748578Y-116990000D02*
X163231422Y-116990000D01*
X161700000Y-111778733D02*
X161700000Y-112121267D01*
X160680000Y-111778733D02*
X160680000Y-112121267D01*
X153720000Y-111958733D02*
X153720000Y-112301267D01*
X152700000Y-111958733D02*
X152700000Y-112301267D01*
X154750000Y-122281267D02*
X154750000Y-121938733D01*
X155770000Y-122281267D02*
X155770000Y-121938733D01*
X151580000Y-111998733D02*
X151580000Y-112341267D01*
X150560000Y-111998733D02*
X150560000Y-112341267D01*
X160610000Y-121271267D02*
X160610000Y-120928733D01*
X161630000Y-121271267D02*
X161630000Y-120928733D01*
X150580000Y-122211267D02*
X150580000Y-121868733D01*
X151600000Y-122211267D02*
X151600000Y-121868733D01*
X169720000Y-133361267D02*
X169720000Y-133018733D01*
X170740000Y-133361267D02*
X170740000Y-133018733D01*
X151088733Y-115870000D02*
X151431267Y-115870000D01*
X151088733Y-116890000D02*
X151431267Y-116890000D01*
X170128733Y-107950000D02*
X170471267Y-107950000D01*
X170128733Y-108970000D02*
X170471267Y-108970000D01*
X170188733Y-124100000D02*
X170531267Y-124100000D01*
X170188733Y-125120000D02*
X170531267Y-125120000D01*
X141691267Y-112430000D02*
X141348733Y-112430000D01*
X141691267Y-111410000D02*
X141348733Y-111410000D01*
X141721267Y-123160000D02*
X141378733Y-123160000D01*
X141721267Y-122140000D02*
X141378733Y-122140000D01*
X171650000Y-133371267D02*
X171650000Y-133028733D01*
X172670000Y-133371267D02*
X172670000Y-133028733D01*
X150960000Y-133141267D02*
X150960000Y-132798733D01*
X151980000Y-133141267D02*
X151980000Y-132798733D01*
X133138733Y-137710000D02*
X133481267Y-137710000D01*
X133138733Y-138730000D02*
X133481267Y-138730000D01*
X133178733Y-135800000D02*
X133521267Y-135800000D01*
X133178733Y-136820000D02*
X133521267Y-136820000D01*
X126570000Y-79731252D02*
X126570000Y-79208748D01*
X127990000Y-79731252D02*
X127990000Y-79208748D01*
X139510000Y-85068748D02*
X139510000Y-85591252D01*
X138090000Y-85068748D02*
X138090000Y-85591252D01*
X137030000Y-85108748D02*
X137030000Y-85631252D01*
X135610000Y-85108748D02*
X135610000Y-85631252D01*
X174090000Y-81441252D02*
X174090000Y-80918748D01*
X175510000Y-81441252D02*
X175510000Y-80918748D01*
X117480000Y-51790000D02*
G75*
G03X117480000Y-51790000I-3530000J0D01*
G01*
X150478748Y-61430000D02*
X151001252Y-61430000D01*
X150478748Y-62850000D02*
X151001252Y-62850000D01*
X171670000Y-81451252D02*
X171670000Y-80928748D01*
X173090000Y-81451252D02*
X173090000Y-80928748D01*
X100310000Y-94938748D02*
X100310000Y-95461252D01*
X98890000Y-94938748D02*
X98890000Y-95461252D01*
D12*
X132471428Y-125916190D02*
X132638095Y-125678095D01*
X132757142Y-125916190D02*
X132757142Y-125416190D01*
X132566666Y-125416190D01*
X132519047Y-125440000D01*
X132495238Y-125463809D01*
X132471428Y-125511428D01*
X132471428Y-125582857D01*
X132495238Y-125630476D01*
X132519047Y-125654285D01*
X132566666Y-125678095D01*
X132757142Y-125678095D01*
X131995238Y-125916190D02*
X132280952Y-125916190D01*
X132138095Y-125916190D02*
X132138095Y-125416190D01*
X132185714Y-125487619D01*
X132233333Y-125535238D01*
X132280952Y-125559047D01*
X131709523Y-125630476D02*
X131757142Y-125606666D01*
X131780952Y-125582857D01*
X131804761Y-125535238D01*
X131804761Y-125511428D01*
X131780952Y-125463809D01*
X131757142Y-125440000D01*
X131709523Y-125416190D01*
X131614285Y-125416190D01*
X131566666Y-125440000D01*
X131542857Y-125463809D01*
X131519047Y-125511428D01*
X131519047Y-125535238D01*
X131542857Y-125582857D01*
X131566666Y-125606666D01*
X131614285Y-125630476D01*
X131709523Y-125630476D01*
X131757142Y-125654285D01*
X131780952Y-125678095D01*
X131804761Y-125725714D01*
X131804761Y-125820952D01*
X131780952Y-125868571D01*
X131757142Y-125892380D01*
X131709523Y-125916190D01*
X131614285Y-125916190D01*
X131566666Y-125892380D01*
X131542857Y-125868571D01*
X131519047Y-125820952D01*
X131519047Y-125725714D01*
X131542857Y-125678095D01*
X131566666Y-125654285D01*
X131614285Y-125630476D01*
D11*
X124940476Y-130931904D02*
X124940476Y-131579523D01*
X124902380Y-131655714D01*
X124864285Y-131693809D01*
X124788095Y-131731904D01*
X124635714Y-131731904D01*
X124559523Y-131693809D01*
X124521428Y-131655714D01*
X124483333Y-131579523D01*
X124483333Y-130931904D01*
X123683333Y-131731904D02*
X124140476Y-131731904D01*
X123911904Y-131731904D02*
X123911904Y-130931904D01*
X123988095Y-131046190D01*
X124064285Y-131122380D01*
X124140476Y-131160476D01*
X122921428Y-131731904D02*
X123378571Y-131731904D01*
X123150000Y-131731904D02*
X123150000Y-130931904D01*
X123226190Y-131046190D01*
X123302380Y-131122380D01*
X123378571Y-131160476D01*
D12*
X179333333Y-125076190D02*
X179500000Y-124838095D01*
X179619047Y-125076190D02*
X179619047Y-124576190D01*
X179428571Y-124576190D01*
X179380952Y-124600000D01*
X179357142Y-124623809D01*
X179333333Y-124671428D01*
X179333333Y-124742857D01*
X179357142Y-124790476D01*
X179380952Y-124814285D01*
X179428571Y-124838095D01*
X179619047Y-124838095D01*
X179095238Y-125076190D02*
X179000000Y-125076190D01*
X178952380Y-125052380D01*
X178928571Y-125028571D01*
X178880952Y-124957142D01*
X178857142Y-124861904D01*
X178857142Y-124671428D01*
X178880952Y-124623809D01*
X178904761Y-124600000D01*
X178952380Y-124576190D01*
X179047619Y-124576190D01*
X179095238Y-124600000D01*
X179119047Y-124623809D01*
X179142857Y-124671428D01*
X179142857Y-124790476D01*
X179119047Y-124838095D01*
X179095238Y-124861904D01*
X179047619Y-124885714D01*
X178952380Y-124885714D01*
X178904761Y-124861904D01*
X178880952Y-124838095D01*
X178857142Y-124790476D01*
D11*
X143810476Y-130901904D02*
X143810476Y-131549523D01*
X143772380Y-131625714D01*
X143734285Y-131663809D01*
X143658095Y-131701904D01*
X143505714Y-131701904D01*
X143429523Y-131663809D01*
X143391428Y-131625714D01*
X143353333Y-131549523D01*
X143353333Y-130901904D01*
X142553333Y-131701904D02*
X143010476Y-131701904D01*
X142781904Y-131701904D02*
X142781904Y-130901904D01*
X142858095Y-131016190D01*
X142934285Y-131092380D01*
X143010476Y-131130476D01*
X142058095Y-130901904D02*
X141981904Y-130901904D01*
X141905714Y-130940000D01*
X141867619Y-130978095D01*
X141829523Y-131054285D01*
X141791428Y-131206666D01*
X141791428Y-131397142D01*
X141829523Y-131549523D01*
X141867619Y-131625714D01*
X141905714Y-131663809D01*
X141981904Y-131701904D01*
X142058095Y-131701904D01*
X142134285Y-131663809D01*
X142172380Y-131625714D01*
X142210476Y-131549523D01*
X142248571Y-131397142D01*
X142248571Y-131206666D01*
X142210476Y-131054285D01*
X142172380Y-130978095D01*
X142134285Y-130940000D01*
X142058095Y-130901904D01*
X105769523Y-130931904D02*
X105769523Y-131579523D01*
X105731428Y-131655714D01*
X105693333Y-131693809D01*
X105617142Y-131731904D01*
X105464761Y-131731904D01*
X105388571Y-131693809D01*
X105350476Y-131655714D01*
X105312380Y-131579523D01*
X105312380Y-130931904D01*
X104893333Y-131731904D02*
X104740952Y-131731904D01*
X104664761Y-131693809D01*
X104626666Y-131655714D01*
X104550476Y-131541428D01*
X104512380Y-131389047D01*
X104512380Y-131084285D01*
X104550476Y-131008095D01*
X104588571Y-130970000D01*
X104664761Y-130931904D01*
X104817142Y-130931904D01*
X104893333Y-130970000D01*
X104931428Y-131008095D01*
X104969523Y-131084285D01*
X104969523Y-131274761D01*
X104931428Y-131350952D01*
X104893333Y-131389047D01*
X104817142Y-131427142D01*
X104664761Y-131427142D01*
X104588571Y-131389047D01*
X104550476Y-131350952D01*
X104512380Y-131274761D01*
D12*
X117451428Y-134408571D02*
X117475238Y-134432380D01*
X117546666Y-134456190D01*
X117594285Y-134456190D01*
X117665714Y-134432380D01*
X117713333Y-134384761D01*
X117737142Y-134337142D01*
X117760952Y-134241904D01*
X117760952Y-134170476D01*
X117737142Y-134075238D01*
X117713333Y-134027619D01*
X117665714Y-133980000D01*
X117594285Y-133956190D01*
X117546666Y-133956190D01*
X117475238Y-133980000D01*
X117451428Y-134003809D01*
X116999047Y-133956190D02*
X117237142Y-133956190D01*
X117260952Y-134194285D01*
X117237142Y-134170476D01*
X117189523Y-134146666D01*
X117070476Y-134146666D01*
X117022857Y-134170476D01*
X116999047Y-134194285D01*
X116975238Y-134241904D01*
X116975238Y-134360952D01*
X116999047Y-134408571D01*
X117022857Y-134432380D01*
X117070476Y-134456190D01*
X117189523Y-134456190D01*
X117237142Y-134432380D01*
X117260952Y-134408571D01*
X116784761Y-134003809D02*
X116760952Y-133980000D01*
X116713333Y-133956190D01*
X116594285Y-133956190D01*
X116546666Y-133980000D01*
X116522857Y-134003809D01*
X116499047Y-134051428D01*
X116499047Y-134099047D01*
X116522857Y-134170476D01*
X116808571Y-134456190D01*
X116499047Y-134456190D01*
X117371428Y-136558571D02*
X117395238Y-136582380D01*
X117466666Y-136606190D01*
X117514285Y-136606190D01*
X117585714Y-136582380D01*
X117633333Y-136534761D01*
X117657142Y-136487142D01*
X117680952Y-136391904D01*
X117680952Y-136320476D01*
X117657142Y-136225238D01*
X117633333Y-136177619D01*
X117585714Y-136130000D01*
X117514285Y-136106190D01*
X117466666Y-136106190D01*
X117395238Y-136130000D01*
X117371428Y-136153809D01*
X116919047Y-136106190D02*
X117157142Y-136106190D01*
X117180952Y-136344285D01*
X117157142Y-136320476D01*
X117109523Y-136296666D01*
X116990476Y-136296666D01*
X116942857Y-136320476D01*
X116919047Y-136344285D01*
X116895238Y-136391904D01*
X116895238Y-136510952D01*
X116919047Y-136558571D01*
X116942857Y-136582380D01*
X116990476Y-136606190D01*
X117109523Y-136606190D01*
X117157142Y-136582380D01*
X117180952Y-136558571D01*
X116419047Y-136606190D02*
X116704761Y-136606190D01*
X116561904Y-136606190D02*
X116561904Y-136106190D01*
X116609523Y-136177619D01*
X116657142Y-136225238D01*
X116704761Y-136249047D01*
X117411428Y-138498571D02*
X117435238Y-138522380D01*
X117506666Y-138546190D01*
X117554285Y-138546190D01*
X117625714Y-138522380D01*
X117673333Y-138474761D01*
X117697142Y-138427142D01*
X117720952Y-138331904D01*
X117720952Y-138260476D01*
X117697142Y-138165238D01*
X117673333Y-138117619D01*
X117625714Y-138070000D01*
X117554285Y-138046190D01*
X117506666Y-138046190D01*
X117435238Y-138070000D01*
X117411428Y-138093809D01*
X116959047Y-138046190D02*
X117197142Y-138046190D01*
X117220952Y-138284285D01*
X117197142Y-138260476D01*
X117149523Y-138236666D01*
X117030476Y-138236666D01*
X116982857Y-138260476D01*
X116959047Y-138284285D01*
X116935238Y-138331904D01*
X116935238Y-138450952D01*
X116959047Y-138498571D01*
X116982857Y-138522380D01*
X117030476Y-138546190D01*
X117149523Y-138546190D01*
X117197142Y-138522380D01*
X117220952Y-138498571D01*
X116625714Y-138046190D02*
X116578095Y-138046190D01*
X116530476Y-138070000D01*
X116506666Y-138093809D01*
X116482857Y-138141428D01*
X116459047Y-138236666D01*
X116459047Y-138355714D01*
X116482857Y-138450952D01*
X116506666Y-138498571D01*
X116530476Y-138522380D01*
X116578095Y-138546190D01*
X116625714Y-138546190D01*
X116673333Y-138522380D01*
X116697142Y-138498571D01*
X116720952Y-138450952D01*
X116744761Y-138355714D01*
X116744761Y-138236666D01*
X116720952Y-138141428D01*
X116697142Y-138093809D01*
X116673333Y-138070000D01*
X116625714Y-138046190D01*
X126199047Y-53326190D02*
X126199047Y-52826190D01*
X126080000Y-52826190D01*
X126008571Y-52850000D01*
X125960952Y-52897619D01*
X125937142Y-52945238D01*
X125913333Y-53040476D01*
X125913333Y-53111904D01*
X125937142Y-53207142D01*
X125960952Y-53254761D01*
X126008571Y-53302380D01*
X126080000Y-53326190D01*
X126199047Y-53326190D01*
X125722857Y-52873809D02*
X125699047Y-52850000D01*
X125651428Y-52826190D01*
X125532380Y-52826190D01*
X125484761Y-52850000D01*
X125460952Y-52873809D01*
X125437142Y-52921428D01*
X125437142Y-52969047D01*
X125460952Y-53040476D01*
X125746666Y-53326190D01*
X125437142Y-53326190D01*
X126179047Y-50646190D02*
X126179047Y-50146190D01*
X126060000Y-50146190D01*
X125988571Y-50170000D01*
X125940952Y-50217619D01*
X125917142Y-50265238D01*
X125893333Y-50360476D01*
X125893333Y-50431904D01*
X125917142Y-50527142D01*
X125940952Y-50574761D01*
X125988571Y-50622380D01*
X126060000Y-50646190D01*
X126179047Y-50646190D01*
X125417142Y-50646190D02*
X125702857Y-50646190D01*
X125560000Y-50646190D02*
X125560000Y-50146190D01*
X125607619Y-50217619D01*
X125655238Y-50265238D01*
X125702857Y-50289047D01*
X154223333Y-53506190D02*
X154461428Y-53506190D01*
X154461428Y-53006190D01*
X154080476Y-53053809D02*
X154056666Y-53030000D01*
X154009047Y-53006190D01*
X153890000Y-53006190D01*
X153842380Y-53030000D01*
X153818571Y-53053809D01*
X153794761Y-53101428D01*
X153794761Y-53149047D01*
X153818571Y-53220476D01*
X154104285Y-53506190D01*
X153794761Y-53506190D01*
X142031428Y-62198571D02*
X142055238Y-62222380D01*
X142126666Y-62246190D01*
X142174285Y-62246190D01*
X142245714Y-62222380D01*
X142293333Y-62174761D01*
X142317142Y-62127142D01*
X142340952Y-62031904D01*
X142340952Y-61960476D01*
X142317142Y-61865238D01*
X142293333Y-61817619D01*
X142245714Y-61770000D01*
X142174285Y-61746190D01*
X142126666Y-61746190D01*
X142055238Y-61770000D01*
X142031428Y-61793809D01*
X141602857Y-61912857D02*
X141602857Y-62246190D01*
X141721904Y-61722380D02*
X141840952Y-62079523D01*
X141531428Y-62079523D01*
X141317142Y-62246190D02*
X141221904Y-62246190D01*
X141174285Y-62222380D01*
X141150476Y-62198571D01*
X141102857Y-62127142D01*
X141079047Y-62031904D01*
X141079047Y-61841428D01*
X141102857Y-61793809D01*
X141126666Y-61770000D01*
X141174285Y-61746190D01*
X141269523Y-61746190D01*
X141317142Y-61770000D01*
X141340952Y-61793809D01*
X141364761Y-61841428D01*
X141364761Y-61960476D01*
X141340952Y-62008095D01*
X141317142Y-62031904D01*
X141269523Y-62055714D01*
X141174285Y-62055714D01*
X141126666Y-62031904D01*
X141102857Y-62008095D01*
X141079047Y-61960476D01*
X142271428Y-56878571D02*
X142295238Y-56902380D01*
X142366666Y-56926190D01*
X142414285Y-56926190D01*
X142485714Y-56902380D01*
X142533333Y-56854761D01*
X142557142Y-56807142D01*
X142580952Y-56711904D01*
X142580952Y-56640476D01*
X142557142Y-56545238D01*
X142533333Y-56497619D01*
X142485714Y-56450000D01*
X142414285Y-56426190D01*
X142366666Y-56426190D01*
X142295238Y-56450000D01*
X142271428Y-56473809D01*
X141842857Y-56592857D02*
X141842857Y-56926190D01*
X141961904Y-56402380D02*
X142080952Y-56759523D01*
X141771428Y-56759523D01*
X141509523Y-56640476D02*
X141557142Y-56616666D01*
X141580952Y-56592857D01*
X141604761Y-56545238D01*
X141604761Y-56521428D01*
X141580952Y-56473809D01*
X141557142Y-56450000D01*
X141509523Y-56426190D01*
X141414285Y-56426190D01*
X141366666Y-56450000D01*
X141342857Y-56473809D01*
X141319047Y-56521428D01*
X141319047Y-56545238D01*
X141342857Y-56592857D01*
X141366666Y-56616666D01*
X141414285Y-56640476D01*
X141509523Y-56640476D01*
X141557142Y-56664285D01*
X141580952Y-56688095D01*
X141604761Y-56735714D01*
X141604761Y-56830952D01*
X141580952Y-56878571D01*
X141557142Y-56902380D01*
X141509523Y-56926190D01*
X141414285Y-56926190D01*
X141366666Y-56902380D01*
X141342857Y-56878571D01*
X141319047Y-56830952D01*
X141319047Y-56735714D01*
X141342857Y-56688095D01*
X141366666Y-56664285D01*
X141414285Y-56640476D01*
X126331428Y-48268571D02*
X126355238Y-48292380D01*
X126426666Y-48316190D01*
X126474285Y-48316190D01*
X126545714Y-48292380D01*
X126593333Y-48244761D01*
X126617142Y-48197142D01*
X126640952Y-48101904D01*
X126640952Y-48030476D01*
X126617142Y-47935238D01*
X126593333Y-47887619D01*
X126545714Y-47840000D01*
X126474285Y-47816190D01*
X126426666Y-47816190D01*
X126355238Y-47840000D01*
X126331428Y-47863809D01*
X125902857Y-47982857D02*
X125902857Y-48316190D01*
X126021904Y-47792380D02*
X126140952Y-48149523D01*
X125831428Y-48149523D01*
X125688571Y-47816190D02*
X125355238Y-47816190D01*
X125569523Y-48316190D01*
X150611428Y-56888571D02*
X150635238Y-56912380D01*
X150706666Y-56936190D01*
X150754285Y-56936190D01*
X150825714Y-56912380D01*
X150873333Y-56864761D01*
X150897142Y-56817142D01*
X150920952Y-56721904D01*
X150920952Y-56650476D01*
X150897142Y-56555238D01*
X150873333Y-56507619D01*
X150825714Y-56460000D01*
X150754285Y-56436190D01*
X150706666Y-56436190D01*
X150635238Y-56460000D01*
X150611428Y-56483809D01*
X150182857Y-56602857D02*
X150182857Y-56936190D01*
X150301904Y-56412380D02*
X150420952Y-56769523D01*
X150111428Y-56769523D01*
X149706666Y-56436190D02*
X149801904Y-56436190D01*
X149849523Y-56460000D01*
X149873333Y-56483809D01*
X149920952Y-56555238D01*
X149944761Y-56650476D01*
X149944761Y-56840952D01*
X149920952Y-56888571D01*
X149897142Y-56912380D01*
X149849523Y-56936190D01*
X149754285Y-56936190D01*
X149706666Y-56912380D01*
X149682857Y-56888571D01*
X149659047Y-56840952D01*
X149659047Y-56721904D01*
X149682857Y-56674285D01*
X149706666Y-56650476D01*
X149754285Y-56626666D01*
X149849523Y-56626666D01*
X149897142Y-56650476D01*
X149920952Y-56674285D01*
X149944761Y-56721904D01*
X164511428Y-57118571D02*
X164535238Y-57142380D01*
X164606666Y-57166190D01*
X164654285Y-57166190D01*
X164725714Y-57142380D01*
X164773333Y-57094761D01*
X164797142Y-57047142D01*
X164820952Y-56951904D01*
X164820952Y-56880476D01*
X164797142Y-56785238D01*
X164773333Y-56737619D01*
X164725714Y-56690000D01*
X164654285Y-56666190D01*
X164606666Y-56666190D01*
X164535238Y-56690000D01*
X164511428Y-56713809D01*
X164035238Y-57166190D02*
X164320952Y-57166190D01*
X164178095Y-57166190D02*
X164178095Y-56666190D01*
X164225714Y-56737619D01*
X164273333Y-56785238D01*
X164320952Y-56809047D01*
X163749523Y-56880476D02*
X163797142Y-56856666D01*
X163820952Y-56832857D01*
X163844761Y-56785238D01*
X163844761Y-56761428D01*
X163820952Y-56713809D01*
X163797142Y-56690000D01*
X163749523Y-56666190D01*
X163654285Y-56666190D01*
X163606666Y-56690000D01*
X163582857Y-56713809D01*
X163559047Y-56761428D01*
X163559047Y-56785238D01*
X163582857Y-56832857D01*
X163606666Y-56856666D01*
X163654285Y-56880476D01*
X163749523Y-56880476D01*
X163797142Y-56904285D01*
X163820952Y-56928095D01*
X163844761Y-56975714D01*
X163844761Y-57070952D01*
X163820952Y-57118571D01*
X163797142Y-57142380D01*
X163749523Y-57166190D01*
X163654285Y-57166190D01*
X163606666Y-57142380D01*
X163582857Y-57118571D01*
X163559047Y-57070952D01*
X163559047Y-56975714D01*
X163582857Y-56928095D01*
X163606666Y-56904285D01*
X163654285Y-56880476D01*
D11*
X162600476Y-130981904D02*
X162600476Y-131629523D01*
X162562380Y-131705714D01*
X162524285Y-131743809D01*
X162448095Y-131781904D01*
X162295714Y-131781904D01*
X162219523Y-131743809D01*
X162181428Y-131705714D01*
X162143333Y-131629523D01*
X162143333Y-130981904D01*
X161343333Y-131781904D02*
X161800476Y-131781904D01*
X161571904Y-131781904D02*
X161571904Y-130981904D01*
X161648095Y-131096190D01*
X161724285Y-131172380D01*
X161800476Y-131210476D01*
X161038571Y-131058095D02*
X161000476Y-131020000D01*
X160924285Y-130981904D01*
X160733809Y-130981904D01*
X160657619Y-131020000D01*
X160619523Y-131058095D01*
X160581428Y-131134285D01*
X160581428Y-131210476D01*
X160619523Y-131324761D01*
X161076666Y-131781904D01*
X160581428Y-131781904D01*
D12*
X182181428Y-125066190D02*
X182348095Y-124828095D01*
X182467142Y-125066190D02*
X182467142Y-124566190D01*
X182276666Y-124566190D01*
X182229047Y-124590000D01*
X182205238Y-124613809D01*
X182181428Y-124661428D01*
X182181428Y-124732857D01*
X182205238Y-124780476D01*
X182229047Y-124804285D01*
X182276666Y-124828095D01*
X182467142Y-124828095D01*
X181705238Y-125066190D02*
X181990952Y-125066190D01*
X181848095Y-125066190D02*
X181848095Y-124566190D01*
X181895714Y-124637619D01*
X181943333Y-124685238D01*
X181990952Y-124709047D01*
X181538571Y-124566190D02*
X181229047Y-124566190D01*
X181395714Y-124756666D01*
X181324285Y-124756666D01*
X181276666Y-124780476D01*
X181252857Y-124804285D01*
X181229047Y-124851904D01*
X181229047Y-124970952D01*
X181252857Y-125018571D01*
X181276666Y-125042380D01*
X181324285Y-125066190D01*
X181467142Y-125066190D01*
X181514761Y-125042380D01*
X181538571Y-125018571D01*
X187301428Y-125056190D02*
X187468095Y-124818095D01*
X187587142Y-125056190D02*
X187587142Y-124556190D01*
X187396666Y-124556190D01*
X187349047Y-124580000D01*
X187325238Y-124603809D01*
X187301428Y-124651428D01*
X187301428Y-124722857D01*
X187325238Y-124770476D01*
X187349047Y-124794285D01*
X187396666Y-124818095D01*
X187587142Y-124818095D01*
X186825238Y-125056190D02*
X187110952Y-125056190D01*
X186968095Y-125056190D02*
X186968095Y-124556190D01*
X187015714Y-124627619D01*
X187063333Y-124675238D01*
X187110952Y-124699047D01*
X186634761Y-124603809D02*
X186610952Y-124580000D01*
X186563333Y-124556190D01*
X186444285Y-124556190D01*
X186396666Y-124580000D01*
X186372857Y-124603809D01*
X186349047Y-124651428D01*
X186349047Y-124699047D01*
X186372857Y-124770476D01*
X186658571Y-125056190D01*
X186349047Y-125056190D01*
X184631428Y-125056190D02*
X184798095Y-124818095D01*
X184917142Y-125056190D02*
X184917142Y-124556190D01*
X184726666Y-124556190D01*
X184679047Y-124580000D01*
X184655238Y-124603809D01*
X184631428Y-124651428D01*
X184631428Y-124722857D01*
X184655238Y-124770476D01*
X184679047Y-124794285D01*
X184726666Y-124818095D01*
X184917142Y-124818095D01*
X184155238Y-125056190D02*
X184440952Y-125056190D01*
X184298095Y-125056190D02*
X184298095Y-124556190D01*
X184345714Y-124627619D01*
X184393333Y-124675238D01*
X184440952Y-124699047D01*
X183845714Y-124556190D02*
X183798095Y-124556190D01*
X183750476Y-124580000D01*
X183726666Y-124603809D01*
X183702857Y-124651428D01*
X183679047Y-124746666D01*
X183679047Y-124865714D01*
X183702857Y-124960952D01*
X183726666Y-125008571D01*
X183750476Y-125032380D01*
X183798095Y-125056190D01*
X183845714Y-125056190D01*
X183893333Y-125032380D01*
X183917142Y-125008571D01*
X183940952Y-124960952D01*
X183964761Y-124865714D01*
X183964761Y-124746666D01*
X183940952Y-124651428D01*
X183917142Y-124603809D01*
X183893333Y-124580000D01*
X183845714Y-124556190D01*
X126331428Y-114538571D02*
X126355238Y-114562380D01*
X126426666Y-114586190D01*
X126474285Y-114586190D01*
X126545714Y-114562380D01*
X126593333Y-114514761D01*
X126617142Y-114467142D01*
X126640952Y-114371904D01*
X126640952Y-114300476D01*
X126617142Y-114205238D01*
X126593333Y-114157619D01*
X126545714Y-114110000D01*
X126474285Y-114086190D01*
X126426666Y-114086190D01*
X126355238Y-114110000D01*
X126331428Y-114133809D01*
X125902857Y-114252857D02*
X125902857Y-114586190D01*
X126021904Y-114062380D02*
X126140952Y-114419523D01*
X125831428Y-114419523D01*
X125664761Y-114133809D02*
X125640952Y-114110000D01*
X125593333Y-114086190D01*
X125474285Y-114086190D01*
X125426666Y-114110000D01*
X125402857Y-114133809D01*
X125379047Y-114181428D01*
X125379047Y-114229047D01*
X125402857Y-114300476D01*
X125688571Y-114586190D01*
X125379047Y-114586190D01*
X120631428Y-110878571D02*
X120655238Y-110902380D01*
X120726666Y-110926190D01*
X120774285Y-110926190D01*
X120845714Y-110902380D01*
X120893333Y-110854761D01*
X120917142Y-110807142D01*
X120940952Y-110711904D01*
X120940952Y-110640476D01*
X120917142Y-110545238D01*
X120893333Y-110497619D01*
X120845714Y-110450000D01*
X120774285Y-110426190D01*
X120726666Y-110426190D01*
X120655238Y-110450000D01*
X120631428Y-110473809D01*
X120202857Y-110592857D02*
X120202857Y-110926190D01*
X120321904Y-110402380D02*
X120440952Y-110759523D01*
X120131428Y-110759523D01*
X119679047Y-110926190D02*
X119964761Y-110926190D01*
X119821904Y-110926190D02*
X119821904Y-110426190D01*
X119869523Y-110497619D01*
X119917142Y-110545238D01*
X119964761Y-110569047D01*
X128171428Y-114558571D02*
X128195238Y-114582380D01*
X128266666Y-114606190D01*
X128314285Y-114606190D01*
X128385714Y-114582380D01*
X128433333Y-114534761D01*
X128457142Y-114487142D01*
X128480952Y-114391904D01*
X128480952Y-114320476D01*
X128457142Y-114225238D01*
X128433333Y-114177619D01*
X128385714Y-114130000D01*
X128314285Y-114106190D01*
X128266666Y-114106190D01*
X128195238Y-114130000D01*
X128171428Y-114153809D01*
X127742857Y-114272857D02*
X127742857Y-114606190D01*
X127861904Y-114082380D02*
X127980952Y-114439523D01*
X127671428Y-114439523D01*
X127385714Y-114106190D02*
X127338095Y-114106190D01*
X127290476Y-114130000D01*
X127266666Y-114153809D01*
X127242857Y-114201428D01*
X127219047Y-114296666D01*
X127219047Y-114415714D01*
X127242857Y-114510952D01*
X127266666Y-114558571D01*
X127290476Y-114582380D01*
X127338095Y-114606190D01*
X127385714Y-114606190D01*
X127433333Y-114582380D01*
X127457142Y-114558571D01*
X127480952Y-114510952D01*
X127504761Y-114415714D01*
X127504761Y-114296666D01*
X127480952Y-114201428D01*
X127457142Y-114153809D01*
X127433333Y-114130000D01*
X127385714Y-114106190D01*
X130631428Y-115698571D02*
X130655238Y-115722380D01*
X130726666Y-115746190D01*
X130774285Y-115746190D01*
X130845714Y-115722380D01*
X130893333Y-115674761D01*
X130917142Y-115627142D01*
X130940952Y-115531904D01*
X130940952Y-115460476D01*
X130917142Y-115365238D01*
X130893333Y-115317619D01*
X130845714Y-115270000D01*
X130774285Y-115246190D01*
X130726666Y-115246190D01*
X130655238Y-115270000D01*
X130631428Y-115293809D01*
X130464761Y-115246190D02*
X130155238Y-115246190D01*
X130321904Y-115436666D01*
X130250476Y-115436666D01*
X130202857Y-115460476D01*
X130179047Y-115484285D01*
X130155238Y-115531904D01*
X130155238Y-115650952D01*
X130179047Y-115698571D01*
X130202857Y-115722380D01*
X130250476Y-115746190D01*
X130393333Y-115746190D01*
X130440952Y-115722380D01*
X130464761Y-115698571D01*
X129917142Y-115746190D02*
X129821904Y-115746190D01*
X129774285Y-115722380D01*
X129750476Y-115698571D01*
X129702857Y-115627142D01*
X129679047Y-115531904D01*
X129679047Y-115341428D01*
X129702857Y-115293809D01*
X129726666Y-115270000D01*
X129774285Y-115246190D01*
X129869523Y-115246190D01*
X129917142Y-115270000D01*
X129940952Y-115293809D01*
X129964761Y-115341428D01*
X129964761Y-115460476D01*
X129940952Y-115508095D01*
X129917142Y-115531904D01*
X129869523Y-115555714D01*
X129774285Y-115555714D01*
X129726666Y-115531904D01*
X129702857Y-115508095D01*
X129679047Y-115460476D01*
X127521428Y-123928571D02*
X127545238Y-123952380D01*
X127616666Y-123976190D01*
X127664285Y-123976190D01*
X127735714Y-123952380D01*
X127783333Y-123904761D01*
X127807142Y-123857142D01*
X127830952Y-123761904D01*
X127830952Y-123690476D01*
X127807142Y-123595238D01*
X127783333Y-123547619D01*
X127735714Y-123500000D01*
X127664285Y-123476190D01*
X127616666Y-123476190D01*
X127545238Y-123500000D01*
X127521428Y-123523809D01*
X127354761Y-123476190D02*
X127045238Y-123476190D01*
X127211904Y-123666666D01*
X127140476Y-123666666D01*
X127092857Y-123690476D01*
X127069047Y-123714285D01*
X127045238Y-123761904D01*
X127045238Y-123880952D01*
X127069047Y-123928571D01*
X127092857Y-123952380D01*
X127140476Y-123976190D01*
X127283333Y-123976190D01*
X127330952Y-123952380D01*
X127354761Y-123928571D01*
X126759523Y-123690476D02*
X126807142Y-123666666D01*
X126830952Y-123642857D01*
X126854761Y-123595238D01*
X126854761Y-123571428D01*
X126830952Y-123523809D01*
X126807142Y-123500000D01*
X126759523Y-123476190D01*
X126664285Y-123476190D01*
X126616666Y-123500000D01*
X126592857Y-123523809D01*
X126569047Y-123571428D01*
X126569047Y-123595238D01*
X126592857Y-123642857D01*
X126616666Y-123666666D01*
X126664285Y-123690476D01*
X126759523Y-123690476D01*
X126807142Y-123714285D01*
X126830952Y-123738095D01*
X126854761Y-123785714D01*
X126854761Y-123880952D01*
X126830952Y-123928571D01*
X126807142Y-123952380D01*
X126759523Y-123976190D01*
X126664285Y-123976190D01*
X126616666Y-123952380D01*
X126592857Y-123928571D01*
X126569047Y-123880952D01*
X126569047Y-123785714D01*
X126592857Y-123738095D01*
X126616666Y-123714285D01*
X126664285Y-123690476D01*
X130791428Y-122298571D02*
X130815238Y-122322380D01*
X130886666Y-122346190D01*
X130934285Y-122346190D01*
X131005714Y-122322380D01*
X131053333Y-122274761D01*
X131077142Y-122227142D01*
X131100952Y-122131904D01*
X131100952Y-122060476D01*
X131077142Y-121965238D01*
X131053333Y-121917619D01*
X131005714Y-121870000D01*
X130934285Y-121846190D01*
X130886666Y-121846190D01*
X130815238Y-121870000D01*
X130791428Y-121893809D01*
X130624761Y-121846190D02*
X130315238Y-121846190D01*
X130481904Y-122036666D01*
X130410476Y-122036666D01*
X130362857Y-122060476D01*
X130339047Y-122084285D01*
X130315238Y-122131904D01*
X130315238Y-122250952D01*
X130339047Y-122298571D01*
X130362857Y-122322380D01*
X130410476Y-122346190D01*
X130553333Y-122346190D01*
X130600952Y-122322380D01*
X130624761Y-122298571D01*
X130148571Y-121846190D02*
X129815238Y-121846190D01*
X130029523Y-122346190D01*
X120631428Y-118848571D02*
X120655238Y-118872380D01*
X120726666Y-118896190D01*
X120774285Y-118896190D01*
X120845714Y-118872380D01*
X120893333Y-118824761D01*
X120917142Y-118777142D01*
X120940952Y-118681904D01*
X120940952Y-118610476D01*
X120917142Y-118515238D01*
X120893333Y-118467619D01*
X120845714Y-118420000D01*
X120774285Y-118396190D01*
X120726666Y-118396190D01*
X120655238Y-118420000D01*
X120631428Y-118443809D01*
X120464761Y-118396190D02*
X120155238Y-118396190D01*
X120321904Y-118586666D01*
X120250476Y-118586666D01*
X120202857Y-118610476D01*
X120179047Y-118634285D01*
X120155238Y-118681904D01*
X120155238Y-118800952D01*
X120179047Y-118848571D01*
X120202857Y-118872380D01*
X120250476Y-118896190D01*
X120393333Y-118896190D01*
X120440952Y-118872380D01*
X120464761Y-118848571D01*
X119726666Y-118396190D02*
X119821904Y-118396190D01*
X119869523Y-118420000D01*
X119893333Y-118443809D01*
X119940952Y-118515238D01*
X119964761Y-118610476D01*
X119964761Y-118800952D01*
X119940952Y-118848571D01*
X119917142Y-118872380D01*
X119869523Y-118896190D01*
X119774285Y-118896190D01*
X119726666Y-118872380D01*
X119702857Y-118848571D01*
X119679047Y-118800952D01*
X119679047Y-118681904D01*
X119702857Y-118634285D01*
X119726666Y-118610476D01*
X119774285Y-118586666D01*
X119869523Y-118586666D01*
X119917142Y-118610476D01*
X119940952Y-118634285D01*
X119964761Y-118681904D01*
X120771428Y-123858571D02*
X120795238Y-123882380D01*
X120866666Y-123906190D01*
X120914285Y-123906190D01*
X120985714Y-123882380D01*
X121033333Y-123834761D01*
X121057142Y-123787142D01*
X121080952Y-123691904D01*
X121080952Y-123620476D01*
X121057142Y-123525238D01*
X121033333Y-123477619D01*
X120985714Y-123430000D01*
X120914285Y-123406190D01*
X120866666Y-123406190D01*
X120795238Y-123430000D01*
X120771428Y-123453809D01*
X120604761Y-123406190D02*
X120295238Y-123406190D01*
X120461904Y-123596666D01*
X120390476Y-123596666D01*
X120342857Y-123620476D01*
X120319047Y-123644285D01*
X120295238Y-123691904D01*
X120295238Y-123810952D01*
X120319047Y-123858571D01*
X120342857Y-123882380D01*
X120390476Y-123906190D01*
X120533333Y-123906190D01*
X120580952Y-123882380D01*
X120604761Y-123858571D01*
X119842857Y-123406190D02*
X120080952Y-123406190D01*
X120104761Y-123644285D01*
X120080952Y-123620476D01*
X120033333Y-123596666D01*
X119914285Y-123596666D01*
X119866666Y-123620476D01*
X119842857Y-123644285D01*
X119819047Y-123691904D01*
X119819047Y-123810952D01*
X119842857Y-123858571D01*
X119866666Y-123882380D01*
X119914285Y-123906190D01*
X120033333Y-123906190D01*
X120080952Y-123882380D01*
X120104761Y-123858571D01*
X123781428Y-123968571D02*
X123805238Y-123992380D01*
X123876666Y-124016190D01*
X123924285Y-124016190D01*
X123995714Y-123992380D01*
X124043333Y-123944761D01*
X124067142Y-123897142D01*
X124090952Y-123801904D01*
X124090952Y-123730476D01*
X124067142Y-123635238D01*
X124043333Y-123587619D01*
X123995714Y-123540000D01*
X123924285Y-123516190D01*
X123876666Y-123516190D01*
X123805238Y-123540000D01*
X123781428Y-123563809D01*
X123614761Y-123516190D02*
X123305238Y-123516190D01*
X123471904Y-123706666D01*
X123400476Y-123706666D01*
X123352857Y-123730476D01*
X123329047Y-123754285D01*
X123305238Y-123801904D01*
X123305238Y-123920952D01*
X123329047Y-123968571D01*
X123352857Y-123992380D01*
X123400476Y-124016190D01*
X123543333Y-124016190D01*
X123590952Y-123992380D01*
X123614761Y-123968571D01*
X122876666Y-123682857D02*
X122876666Y-124016190D01*
X122995714Y-123492380D02*
X123114761Y-123849523D01*
X122805238Y-123849523D01*
X120621428Y-114678571D02*
X120645238Y-114702380D01*
X120716666Y-114726190D01*
X120764285Y-114726190D01*
X120835714Y-114702380D01*
X120883333Y-114654761D01*
X120907142Y-114607142D01*
X120930952Y-114511904D01*
X120930952Y-114440476D01*
X120907142Y-114345238D01*
X120883333Y-114297619D01*
X120835714Y-114250000D01*
X120764285Y-114226190D01*
X120716666Y-114226190D01*
X120645238Y-114250000D01*
X120621428Y-114273809D01*
X120454761Y-114226190D02*
X120145238Y-114226190D01*
X120311904Y-114416666D01*
X120240476Y-114416666D01*
X120192857Y-114440476D01*
X120169047Y-114464285D01*
X120145238Y-114511904D01*
X120145238Y-114630952D01*
X120169047Y-114678571D01*
X120192857Y-114702380D01*
X120240476Y-114726190D01*
X120383333Y-114726190D01*
X120430952Y-114702380D01*
X120454761Y-114678571D01*
X119978571Y-114226190D02*
X119669047Y-114226190D01*
X119835714Y-114416666D01*
X119764285Y-114416666D01*
X119716666Y-114440476D01*
X119692857Y-114464285D01*
X119669047Y-114511904D01*
X119669047Y-114630952D01*
X119692857Y-114678571D01*
X119716666Y-114702380D01*
X119764285Y-114726190D01*
X119907142Y-114726190D01*
X119954761Y-114702380D01*
X119978571Y-114678571D01*
X123981428Y-114548571D02*
X124005238Y-114572380D01*
X124076666Y-114596190D01*
X124124285Y-114596190D01*
X124195714Y-114572380D01*
X124243333Y-114524761D01*
X124267142Y-114477142D01*
X124290952Y-114381904D01*
X124290952Y-114310476D01*
X124267142Y-114215238D01*
X124243333Y-114167619D01*
X124195714Y-114120000D01*
X124124285Y-114096190D01*
X124076666Y-114096190D01*
X124005238Y-114120000D01*
X123981428Y-114143809D01*
X123814761Y-114096190D02*
X123505238Y-114096190D01*
X123671904Y-114286666D01*
X123600476Y-114286666D01*
X123552857Y-114310476D01*
X123529047Y-114334285D01*
X123505238Y-114381904D01*
X123505238Y-114500952D01*
X123529047Y-114548571D01*
X123552857Y-114572380D01*
X123600476Y-114596190D01*
X123743333Y-114596190D01*
X123790952Y-114572380D01*
X123814761Y-114548571D01*
X123314761Y-114143809D02*
X123290952Y-114120000D01*
X123243333Y-114096190D01*
X123124285Y-114096190D01*
X123076666Y-114120000D01*
X123052857Y-114143809D01*
X123029047Y-114191428D01*
X123029047Y-114239047D01*
X123052857Y-114310476D01*
X123338571Y-114596190D01*
X123029047Y-114596190D01*
X163771428Y-115878571D02*
X163795238Y-115902380D01*
X163866666Y-115926190D01*
X163914285Y-115926190D01*
X163985714Y-115902380D01*
X164033333Y-115854761D01*
X164057142Y-115807142D01*
X164080952Y-115711904D01*
X164080952Y-115640476D01*
X164057142Y-115545238D01*
X164033333Y-115497619D01*
X163985714Y-115450000D01*
X163914285Y-115426190D01*
X163866666Y-115426190D01*
X163795238Y-115450000D01*
X163771428Y-115473809D01*
X163604761Y-115426190D02*
X163295238Y-115426190D01*
X163461904Y-115616666D01*
X163390476Y-115616666D01*
X163342857Y-115640476D01*
X163319047Y-115664285D01*
X163295238Y-115711904D01*
X163295238Y-115830952D01*
X163319047Y-115878571D01*
X163342857Y-115902380D01*
X163390476Y-115926190D01*
X163533333Y-115926190D01*
X163580952Y-115902380D01*
X163604761Y-115878571D01*
X162819047Y-115926190D02*
X163104761Y-115926190D01*
X162961904Y-115926190D02*
X162961904Y-115426190D01*
X163009523Y-115497619D01*
X163057142Y-115545238D01*
X163104761Y-115569047D01*
X159671428Y-112358571D02*
X159695238Y-112382380D01*
X159766666Y-112406190D01*
X159814285Y-112406190D01*
X159885714Y-112382380D01*
X159933333Y-112334761D01*
X159957142Y-112287142D01*
X159980952Y-112191904D01*
X159980952Y-112120476D01*
X159957142Y-112025238D01*
X159933333Y-111977619D01*
X159885714Y-111930000D01*
X159814285Y-111906190D01*
X159766666Y-111906190D01*
X159695238Y-111930000D01*
X159671428Y-111953809D01*
X159504761Y-111906190D02*
X159195238Y-111906190D01*
X159361904Y-112096666D01*
X159290476Y-112096666D01*
X159242857Y-112120476D01*
X159219047Y-112144285D01*
X159195238Y-112191904D01*
X159195238Y-112310952D01*
X159219047Y-112358571D01*
X159242857Y-112382380D01*
X159290476Y-112406190D01*
X159433333Y-112406190D01*
X159480952Y-112382380D01*
X159504761Y-112358571D01*
X158885714Y-111906190D02*
X158838095Y-111906190D01*
X158790476Y-111930000D01*
X158766666Y-111953809D01*
X158742857Y-112001428D01*
X158719047Y-112096666D01*
X158719047Y-112215714D01*
X158742857Y-112310952D01*
X158766666Y-112358571D01*
X158790476Y-112382380D01*
X158838095Y-112406190D01*
X158885714Y-112406190D01*
X158933333Y-112382380D01*
X158957142Y-112358571D01*
X158980952Y-112310952D01*
X159004761Y-112215714D01*
X159004761Y-112096666D01*
X158980952Y-112001428D01*
X158957142Y-111953809D01*
X158933333Y-111930000D01*
X158885714Y-111906190D01*
X156061428Y-112378571D02*
X156085238Y-112402380D01*
X156156666Y-112426190D01*
X156204285Y-112426190D01*
X156275714Y-112402380D01*
X156323333Y-112354761D01*
X156347142Y-112307142D01*
X156370952Y-112211904D01*
X156370952Y-112140476D01*
X156347142Y-112045238D01*
X156323333Y-111997619D01*
X156275714Y-111950000D01*
X156204285Y-111926190D01*
X156156666Y-111926190D01*
X156085238Y-111950000D01*
X156061428Y-111973809D01*
X155870952Y-111973809D02*
X155847142Y-111950000D01*
X155799523Y-111926190D01*
X155680476Y-111926190D01*
X155632857Y-111950000D01*
X155609047Y-111973809D01*
X155585238Y-112021428D01*
X155585238Y-112069047D01*
X155609047Y-112140476D01*
X155894761Y-112426190D01*
X155585238Y-112426190D01*
X155347142Y-112426190D02*
X155251904Y-112426190D01*
X155204285Y-112402380D01*
X155180476Y-112378571D01*
X155132857Y-112307142D01*
X155109047Y-112211904D01*
X155109047Y-112021428D01*
X155132857Y-111973809D01*
X155156666Y-111950000D01*
X155204285Y-111926190D01*
X155299523Y-111926190D01*
X155347142Y-111950000D01*
X155370952Y-111973809D01*
X155394761Y-112021428D01*
X155394761Y-112140476D01*
X155370952Y-112188095D01*
X155347142Y-112211904D01*
X155299523Y-112235714D01*
X155204285Y-112235714D01*
X155156666Y-112211904D01*
X155132857Y-112188095D01*
X155109047Y-112140476D01*
X163251428Y-124988571D02*
X163275238Y-125012380D01*
X163346666Y-125036190D01*
X163394285Y-125036190D01*
X163465714Y-125012380D01*
X163513333Y-124964761D01*
X163537142Y-124917142D01*
X163560952Y-124821904D01*
X163560952Y-124750476D01*
X163537142Y-124655238D01*
X163513333Y-124607619D01*
X163465714Y-124560000D01*
X163394285Y-124536190D01*
X163346666Y-124536190D01*
X163275238Y-124560000D01*
X163251428Y-124583809D01*
X163060952Y-124583809D02*
X163037142Y-124560000D01*
X162989523Y-124536190D01*
X162870476Y-124536190D01*
X162822857Y-124560000D01*
X162799047Y-124583809D01*
X162775238Y-124631428D01*
X162775238Y-124679047D01*
X162799047Y-124750476D01*
X163084761Y-125036190D01*
X162775238Y-125036190D01*
X162489523Y-124750476D02*
X162537142Y-124726666D01*
X162560952Y-124702857D01*
X162584761Y-124655238D01*
X162584761Y-124631428D01*
X162560952Y-124583809D01*
X162537142Y-124560000D01*
X162489523Y-124536190D01*
X162394285Y-124536190D01*
X162346666Y-124560000D01*
X162322857Y-124583809D01*
X162299047Y-124631428D01*
X162299047Y-124655238D01*
X162322857Y-124702857D01*
X162346666Y-124726666D01*
X162394285Y-124750476D01*
X162489523Y-124750476D01*
X162537142Y-124774285D01*
X162560952Y-124798095D01*
X162584761Y-124845714D01*
X162584761Y-124940952D01*
X162560952Y-124988571D01*
X162537142Y-125012380D01*
X162489523Y-125036190D01*
X162394285Y-125036190D01*
X162346666Y-125012380D01*
X162322857Y-124988571D01*
X162299047Y-124940952D01*
X162299047Y-124845714D01*
X162322857Y-124798095D01*
X162346666Y-124774285D01*
X162394285Y-124750476D01*
X164791428Y-109388571D02*
X164815238Y-109412380D01*
X164886666Y-109436190D01*
X164934285Y-109436190D01*
X165005714Y-109412380D01*
X165053333Y-109364761D01*
X165077142Y-109317142D01*
X165100952Y-109221904D01*
X165100952Y-109150476D01*
X165077142Y-109055238D01*
X165053333Y-109007619D01*
X165005714Y-108960000D01*
X164934285Y-108936190D01*
X164886666Y-108936190D01*
X164815238Y-108960000D01*
X164791428Y-108983809D01*
X164600952Y-108983809D02*
X164577142Y-108960000D01*
X164529523Y-108936190D01*
X164410476Y-108936190D01*
X164362857Y-108960000D01*
X164339047Y-108983809D01*
X164315238Y-109031428D01*
X164315238Y-109079047D01*
X164339047Y-109150476D01*
X164624761Y-109436190D01*
X164315238Y-109436190D01*
X164148571Y-108936190D02*
X163815238Y-108936190D01*
X164029523Y-109436190D01*
X153011428Y-126008571D02*
X153035238Y-126032380D01*
X153106666Y-126056190D01*
X153154285Y-126056190D01*
X153225714Y-126032380D01*
X153273333Y-125984761D01*
X153297142Y-125937142D01*
X153320952Y-125841904D01*
X153320952Y-125770476D01*
X153297142Y-125675238D01*
X153273333Y-125627619D01*
X153225714Y-125580000D01*
X153154285Y-125556190D01*
X153106666Y-125556190D01*
X153035238Y-125580000D01*
X153011428Y-125603809D01*
X152820952Y-125603809D02*
X152797142Y-125580000D01*
X152749523Y-125556190D01*
X152630476Y-125556190D01*
X152582857Y-125580000D01*
X152559047Y-125603809D01*
X152535238Y-125651428D01*
X152535238Y-125699047D01*
X152559047Y-125770476D01*
X152844761Y-126056190D01*
X152535238Y-126056190D01*
X152106666Y-125556190D02*
X152201904Y-125556190D01*
X152249523Y-125580000D01*
X152273333Y-125603809D01*
X152320952Y-125675238D01*
X152344761Y-125770476D01*
X152344761Y-125960952D01*
X152320952Y-126008571D01*
X152297142Y-126032380D01*
X152249523Y-126056190D01*
X152154285Y-126056190D01*
X152106666Y-126032380D01*
X152082857Y-126008571D01*
X152059047Y-125960952D01*
X152059047Y-125841904D01*
X152082857Y-125794285D01*
X152106666Y-125770476D01*
X152154285Y-125746666D01*
X152249523Y-125746666D01*
X152297142Y-125770476D01*
X152320952Y-125794285D01*
X152344761Y-125841904D01*
X158391428Y-124348571D02*
X158415238Y-124372380D01*
X158486666Y-124396190D01*
X158534285Y-124396190D01*
X158605714Y-124372380D01*
X158653333Y-124324761D01*
X158677142Y-124277142D01*
X158700952Y-124181904D01*
X158700952Y-124110476D01*
X158677142Y-124015238D01*
X158653333Y-123967619D01*
X158605714Y-123920000D01*
X158534285Y-123896190D01*
X158486666Y-123896190D01*
X158415238Y-123920000D01*
X158391428Y-123943809D01*
X158200952Y-123943809D02*
X158177142Y-123920000D01*
X158129523Y-123896190D01*
X158010476Y-123896190D01*
X157962857Y-123920000D01*
X157939047Y-123943809D01*
X157915238Y-123991428D01*
X157915238Y-124039047D01*
X157939047Y-124110476D01*
X158224761Y-124396190D01*
X157915238Y-124396190D01*
X157462857Y-123896190D02*
X157700952Y-123896190D01*
X157724761Y-124134285D01*
X157700952Y-124110476D01*
X157653333Y-124086666D01*
X157534285Y-124086666D01*
X157486666Y-124110476D01*
X157462857Y-124134285D01*
X157439047Y-124181904D01*
X157439047Y-124300952D01*
X157462857Y-124348571D01*
X157486666Y-124372380D01*
X157534285Y-124396190D01*
X157653333Y-124396190D01*
X157700952Y-124372380D01*
X157724761Y-124348571D01*
X163791428Y-119328571D02*
X163815238Y-119352380D01*
X163886666Y-119376190D01*
X163934285Y-119376190D01*
X164005714Y-119352380D01*
X164053333Y-119304761D01*
X164077142Y-119257142D01*
X164100952Y-119161904D01*
X164100952Y-119090476D01*
X164077142Y-118995238D01*
X164053333Y-118947619D01*
X164005714Y-118900000D01*
X163934285Y-118876190D01*
X163886666Y-118876190D01*
X163815238Y-118900000D01*
X163791428Y-118923809D01*
X163600952Y-118923809D02*
X163577142Y-118900000D01*
X163529523Y-118876190D01*
X163410476Y-118876190D01*
X163362857Y-118900000D01*
X163339047Y-118923809D01*
X163315238Y-118971428D01*
X163315238Y-119019047D01*
X163339047Y-119090476D01*
X163624761Y-119376190D01*
X163315238Y-119376190D01*
X162886666Y-119042857D02*
X162886666Y-119376190D01*
X163005714Y-118852380D02*
X163124761Y-119209523D01*
X162815238Y-119209523D01*
X161351428Y-114198571D02*
X161375238Y-114222380D01*
X161446666Y-114246190D01*
X161494285Y-114246190D01*
X161565714Y-114222380D01*
X161613333Y-114174761D01*
X161637142Y-114127142D01*
X161660952Y-114031904D01*
X161660952Y-113960476D01*
X161637142Y-113865238D01*
X161613333Y-113817619D01*
X161565714Y-113770000D01*
X161494285Y-113746190D01*
X161446666Y-113746190D01*
X161375238Y-113770000D01*
X161351428Y-113793809D01*
X161160952Y-113793809D02*
X161137142Y-113770000D01*
X161089523Y-113746190D01*
X160970476Y-113746190D01*
X160922857Y-113770000D01*
X160899047Y-113793809D01*
X160875238Y-113841428D01*
X160875238Y-113889047D01*
X160899047Y-113960476D01*
X161184761Y-114246190D01*
X160875238Y-114246190D01*
X160708571Y-113746190D02*
X160399047Y-113746190D01*
X160565714Y-113936666D01*
X160494285Y-113936666D01*
X160446666Y-113960476D01*
X160422857Y-113984285D01*
X160399047Y-114031904D01*
X160399047Y-114150952D01*
X160422857Y-114198571D01*
X160446666Y-114222380D01*
X160494285Y-114246190D01*
X160637142Y-114246190D01*
X160684761Y-114222380D01*
X160708571Y-114198571D01*
X153491428Y-114428571D02*
X153515238Y-114452380D01*
X153586666Y-114476190D01*
X153634285Y-114476190D01*
X153705714Y-114452380D01*
X153753333Y-114404761D01*
X153777142Y-114357142D01*
X153800952Y-114261904D01*
X153800952Y-114190476D01*
X153777142Y-114095238D01*
X153753333Y-114047619D01*
X153705714Y-114000000D01*
X153634285Y-113976190D01*
X153586666Y-113976190D01*
X153515238Y-114000000D01*
X153491428Y-114023809D01*
X153300952Y-114023809D02*
X153277142Y-114000000D01*
X153229523Y-113976190D01*
X153110476Y-113976190D01*
X153062857Y-114000000D01*
X153039047Y-114023809D01*
X153015238Y-114071428D01*
X153015238Y-114119047D01*
X153039047Y-114190476D01*
X153324761Y-114476190D01*
X153015238Y-114476190D01*
X152824761Y-114023809D02*
X152800952Y-114000000D01*
X152753333Y-113976190D01*
X152634285Y-113976190D01*
X152586666Y-114000000D01*
X152562857Y-114023809D01*
X152539047Y-114071428D01*
X152539047Y-114119047D01*
X152562857Y-114190476D01*
X152848571Y-114476190D01*
X152539047Y-114476190D01*
X155501428Y-124348571D02*
X155525238Y-124372380D01*
X155596666Y-124396190D01*
X155644285Y-124396190D01*
X155715714Y-124372380D01*
X155763333Y-124324761D01*
X155787142Y-124277142D01*
X155810952Y-124181904D01*
X155810952Y-124110476D01*
X155787142Y-124015238D01*
X155763333Y-123967619D01*
X155715714Y-123920000D01*
X155644285Y-123896190D01*
X155596666Y-123896190D01*
X155525238Y-123920000D01*
X155501428Y-123943809D01*
X155310952Y-123943809D02*
X155287142Y-123920000D01*
X155239523Y-123896190D01*
X155120476Y-123896190D01*
X155072857Y-123920000D01*
X155049047Y-123943809D01*
X155025238Y-123991428D01*
X155025238Y-124039047D01*
X155049047Y-124110476D01*
X155334761Y-124396190D01*
X155025238Y-124396190D01*
X154549047Y-124396190D02*
X154834761Y-124396190D01*
X154691904Y-124396190D02*
X154691904Y-123896190D01*
X154739523Y-123967619D01*
X154787142Y-124015238D01*
X154834761Y-124039047D01*
X151361428Y-114438571D02*
X151385238Y-114462380D01*
X151456666Y-114486190D01*
X151504285Y-114486190D01*
X151575714Y-114462380D01*
X151623333Y-114414761D01*
X151647142Y-114367142D01*
X151670952Y-114271904D01*
X151670952Y-114200476D01*
X151647142Y-114105238D01*
X151623333Y-114057619D01*
X151575714Y-114010000D01*
X151504285Y-113986190D01*
X151456666Y-113986190D01*
X151385238Y-114010000D01*
X151361428Y-114033809D01*
X151170952Y-114033809D02*
X151147142Y-114010000D01*
X151099523Y-113986190D01*
X150980476Y-113986190D01*
X150932857Y-114010000D01*
X150909047Y-114033809D01*
X150885238Y-114081428D01*
X150885238Y-114129047D01*
X150909047Y-114200476D01*
X151194761Y-114486190D01*
X150885238Y-114486190D01*
X150575714Y-113986190D02*
X150528095Y-113986190D01*
X150480476Y-114010000D01*
X150456666Y-114033809D01*
X150432857Y-114081428D01*
X150409047Y-114176666D01*
X150409047Y-114295714D01*
X150432857Y-114390952D01*
X150456666Y-114438571D01*
X150480476Y-114462380D01*
X150528095Y-114486190D01*
X150575714Y-114486190D01*
X150623333Y-114462380D01*
X150647142Y-114438571D01*
X150670952Y-114390952D01*
X150694761Y-114295714D01*
X150694761Y-114176666D01*
X150670952Y-114081428D01*
X150647142Y-114033809D01*
X150623333Y-114010000D01*
X150575714Y-113986190D01*
X161411428Y-123418571D02*
X161435238Y-123442380D01*
X161506666Y-123466190D01*
X161554285Y-123466190D01*
X161625714Y-123442380D01*
X161673333Y-123394761D01*
X161697142Y-123347142D01*
X161720952Y-123251904D01*
X161720952Y-123180476D01*
X161697142Y-123085238D01*
X161673333Y-123037619D01*
X161625714Y-122990000D01*
X161554285Y-122966190D01*
X161506666Y-122966190D01*
X161435238Y-122990000D01*
X161411428Y-123013809D01*
X160935238Y-123466190D02*
X161220952Y-123466190D01*
X161078095Y-123466190D02*
X161078095Y-122966190D01*
X161125714Y-123037619D01*
X161173333Y-123085238D01*
X161220952Y-123109047D01*
X160697142Y-123466190D02*
X160601904Y-123466190D01*
X160554285Y-123442380D01*
X160530476Y-123418571D01*
X160482857Y-123347142D01*
X160459047Y-123251904D01*
X160459047Y-123061428D01*
X160482857Y-123013809D01*
X160506666Y-122990000D01*
X160554285Y-122966190D01*
X160649523Y-122966190D01*
X160697142Y-122990000D01*
X160720952Y-123013809D01*
X160744761Y-123061428D01*
X160744761Y-123180476D01*
X160720952Y-123228095D01*
X160697142Y-123251904D01*
X160649523Y-123275714D01*
X160554285Y-123275714D01*
X160506666Y-123251904D01*
X160482857Y-123228095D01*
X160459047Y-123180476D01*
X151241428Y-124308571D02*
X151265238Y-124332380D01*
X151336666Y-124356190D01*
X151384285Y-124356190D01*
X151455714Y-124332380D01*
X151503333Y-124284761D01*
X151527142Y-124237142D01*
X151550952Y-124141904D01*
X151550952Y-124070476D01*
X151527142Y-123975238D01*
X151503333Y-123927619D01*
X151455714Y-123880000D01*
X151384285Y-123856190D01*
X151336666Y-123856190D01*
X151265238Y-123880000D01*
X151241428Y-123903809D01*
X150765238Y-124356190D02*
X151050952Y-124356190D01*
X150908095Y-124356190D02*
X150908095Y-123856190D01*
X150955714Y-123927619D01*
X151003333Y-123975238D01*
X151050952Y-123999047D01*
X150336666Y-123856190D02*
X150431904Y-123856190D01*
X150479523Y-123880000D01*
X150503333Y-123903809D01*
X150550952Y-123975238D01*
X150574761Y-124070476D01*
X150574761Y-124260952D01*
X150550952Y-124308571D01*
X150527142Y-124332380D01*
X150479523Y-124356190D01*
X150384285Y-124356190D01*
X150336666Y-124332380D01*
X150312857Y-124308571D01*
X150289047Y-124260952D01*
X150289047Y-124141904D01*
X150312857Y-124094285D01*
X150336666Y-124070476D01*
X150384285Y-124046666D01*
X150479523Y-124046666D01*
X150527142Y-124070476D01*
X150550952Y-124094285D01*
X150574761Y-124141904D01*
X170541428Y-135518571D02*
X170565238Y-135542380D01*
X170636666Y-135566190D01*
X170684285Y-135566190D01*
X170755714Y-135542380D01*
X170803333Y-135494761D01*
X170827142Y-135447142D01*
X170850952Y-135351904D01*
X170850952Y-135280476D01*
X170827142Y-135185238D01*
X170803333Y-135137619D01*
X170755714Y-135090000D01*
X170684285Y-135066190D01*
X170636666Y-135066190D01*
X170565238Y-135090000D01*
X170541428Y-135113809D01*
X170065238Y-135566190D02*
X170350952Y-135566190D01*
X170208095Y-135566190D02*
X170208095Y-135066190D01*
X170255714Y-135137619D01*
X170303333Y-135185238D01*
X170350952Y-135209047D01*
X169612857Y-135066190D02*
X169850952Y-135066190D01*
X169874761Y-135304285D01*
X169850952Y-135280476D01*
X169803333Y-135256666D01*
X169684285Y-135256666D01*
X169636666Y-135280476D01*
X169612857Y-135304285D01*
X169589047Y-135351904D01*
X169589047Y-135470952D01*
X169612857Y-135518571D01*
X169636666Y-135542380D01*
X169684285Y-135566190D01*
X169803333Y-135566190D01*
X169850952Y-135542380D01*
X169874761Y-135518571D01*
X151591428Y-117678571D02*
X151615238Y-117702380D01*
X151686666Y-117726190D01*
X151734285Y-117726190D01*
X151805714Y-117702380D01*
X151853333Y-117654761D01*
X151877142Y-117607142D01*
X151900952Y-117511904D01*
X151900952Y-117440476D01*
X151877142Y-117345238D01*
X151853333Y-117297619D01*
X151805714Y-117250000D01*
X151734285Y-117226190D01*
X151686666Y-117226190D01*
X151615238Y-117250000D01*
X151591428Y-117273809D01*
X151115238Y-117726190D02*
X151400952Y-117726190D01*
X151258095Y-117726190D02*
X151258095Y-117226190D01*
X151305714Y-117297619D01*
X151353333Y-117345238D01*
X151400952Y-117369047D01*
X150686666Y-117392857D02*
X150686666Y-117726190D01*
X150805714Y-117202380D02*
X150924761Y-117559523D01*
X150615238Y-117559523D01*
X170631428Y-109848571D02*
X170655238Y-109872380D01*
X170726666Y-109896190D01*
X170774285Y-109896190D01*
X170845714Y-109872380D01*
X170893333Y-109824761D01*
X170917142Y-109777142D01*
X170940952Y-109681904D01*
X170940952Y-109610476D01*
X170917142Y-109515238D01*
X170893333Y-109467619D01*
X170845714Y-109420000D01*
X170774285Y-109396190D01*
X170726666Y-109396190D01*
X170655238Y-109420000D01*
X170631428Y-109443809D01*
X170155238Y-109896190D02*
X170440952Y-109896190D01*
X170298095Y-109896190D02*
X170298095Y-109396190D01*
X170345714Y-109467619D01*
X170393333Y-109515238D01*
X170440952Y-109539047D01*
X169988571Y-109396190D02*
X169679047Y-109396190D01*
X169845714Y-109586666D01*
X169774285Y-109586666D01*
X169726666Y-109610476D01*
X169702857Y-109634285D01*
X169679047Y-109681904D01*
X169679047Y-109800952D01*
X169702857Y-109848571D01*
X169726666Y-109872380D01*
X169774285Y-109896190D01*
X169917142Y-109896190D01*
X169964761Y-109872380D01*
X169988571Y-109848571D01*
X170691428Y-125938571D02*
X170715238Y-125962380D01*
X170786666Y-125986190D01*
X170834285Y-125986190D01*
X170905714Y-125962380D01*
X170953333Y-125914761D01*
X170977142Y-125867142D01*
X171000952Y-125771904D01*
X171000952Y-125700476D01*
X170977142Y-125605238D01*
X170953333Y-125557619D01*
X170905714Y-125510000D01*
X170834285Y-125486190D01*
X170786666Y-125486190D01*
X170715238Y-125510000D01*
X170691428Y-125533809D01*
X170215238Y-125986190D02*
X170500952Y-125986190D01*
X170358095Y-125986190D02*
X170358095Y-125486190D01*
X170405714Y-125557619D01*
X170453333Y-125605238D01*
X170500952Y-125629047D01*
X170024761Y-125533809D02*
X170000952Y-125510000D01*
X169953333Y-125486190D01*
X169834285Y-125486190D01*
X169786666Y-125510000D01*
X169762857Y-125533809D01*
X169739047Y-125581428D01*
X169739047Y-125629047D01*
X169762857Y-125700476D01*
X170048571Y-125986190D01*
X169739047Y-125986190D01*
X141841428Y-113268571D02*
X141865238Y-113292380D01*
X141936666Y-113316190D01*
X141984285Y-113316190D01*
X142055714Y-113292380D01*
X142103333Y-113244761D01*
X142127142Y-113197142D01*
X142150952Y-113101904D01*
X142150952Y-113030476D01*
X142127142Y-112935238D01*
X142103333Y-112887619D01*
X142055714Y-112840000D01*
X141984285Y-112816190D01*
X141936666Y-112816190D01*
X141865238Y-112840000D01*
X141841428Y-112863809D01*
X141365238Y-113316190D02*
X141650952Y-113316190D01*
X141508095Y-113316190D02*
X141508095Y-112816190D01*
X141555714Y-112887619D01*
X141603333Y-112935238D01*
X141650952Y-112959047D01*
X140889047Y-113316190D02*
X141174761Y-113316190D01*
X141031904Y-113316190D02*
X141031904Y-112816190D01*
X141079523Y-112887619D01*
X141127142Y-112935238D01*
X141174761Y-112959047D01*
X141861428Y-123938571D02*
X141885238Y-123962380D01*
X141956666Y-123986190D01*
X142004285Y-123986190D01*
X142075714Y-123962380D01*
X142123333Y-123914761D01*
X142147142Y-123867142D01*
X142170952Y-123771904D01*
X142170952Y-123700476D01*
X142147142Y-123605238D01*
X142123333Y-123557619D01*
X142075714Y-123510000D01*
X142004285Y-123486190D01*
X141956666Y-123486190D01*
X141885238Y-123510000D01*
X141861428Y-123533809D01*
X141385238Y-123986190D02*
X141670952Y-123986190D01*
X141528095Y-123986190D02*
X141528095Y-123486190D01*
X141575714Y-123557619D01*
X141623333Y-123605238D01*
X141670952Y-123629047D01*
X141075714Y-123486190D02*
X141028095Y-123486190D01*
X140980476Y-123510000D01*
X140956666Y-123533809D01*
X140932857Y-123581428D01*
X140909047Y-123676666D01*
X140909047Y-123795714D01*
X140932857Y-123890952D01*
X140956666Y-123938571D01*
X140980476Y-123962380D01*
X141028095Y-123986190D01*
X141075714Y-123986190D01*
X141123333Y-123962380D01*
X141147142Y-123938571D01*
X141170952Y-123890952D01*
X141194761Y-123795714D01*
X141194761Y-123676666D01*
X141170952Y-123581428D01*
X141147142Y-123533809D01*
X141123333Y-123510000D01*
X141075714Y-123486190D01*
X172303333Y-135478571D02*
X172327142Y-135502380D01*
X172398571Y-135526190D01*
X172446190Y-135526190D01*
X172517619Y-135502380D01*
X172565238Y-135454761D01*
X172589047Y-135407142D01*
X172612857Y-135311904D01*
X172612857Y-135240476D01*
X172589047Y-135145238D01*
X172565238Y-135097619D01*
X172517619Y-135050000D01*
X172446190Y-135026190D01*
X172398571Y-135026190D01*
X172327142Y-135050000D01*
X172303333Y-135073809D01*
X172065238Y-135526190D02*
X171970000Y-135526190D01*
X171922380Y-135502380D01*
X171898571Y-135478571D01*
X171850952Y-135407142D01*
X171827142Y-135311904D01*
X171827142Y-135121428D01*
X171850952Y-135073809D01*
X171874761Y-135050000D01*
X171922380Y-135026190D01*
X172017619Y-135026190D01*
X172065238Y-135050000D01*
X172089047Y-135073809D01*
X172112857Y-135121428D01*
X172112857Y-135240476D01*
X172089047Y-135288095D01*
X172065238Y-135311904D01*
X172017619Y-135335714D01*
X171922380Y-135335714D01*
X171874761Y-135311904D01*
X171850952Y-135288095D01*
X171827142Y-135240476D01*
X151493333Y-135308571D02*
X151517142Y-135332380D01*
X151588571Y-135356190D01*
X151636190Y-135356190D01*
X151707619Y-135332380D01*
X151755238Y-135284761D01*
X151779047Y-135237142D01*
X151802857Y-135141904D01*
X151802857Y-135070476D01*
X151779047Y-134975238D01*
X151755238Y-134927619D01*
X151707619Y-134880000D01*
X151636190Y-134856190D01*
X151588571Y-134856190D01*
X151517142Y-134880000D01*
X151493333Y-134903809D01*
X151207619Y-135070476D02*
X151255238Y-135046666D01*
X151279047Y-135022857D01*
X151302857Y-134975238D01*
X151302857Y-134951428D01*
X151279047Y-134903809D01*
X151255238Y-134880000D01*
X151207619Y-134856190D01*
X151112380Y-134856190D01*
X151064761Y-134880000D01*
X151040952Y-134903809D01*
X151017142Y-134951428D01*
X151017142Y-134975238D01*
X151040952Y-135022857D01*
X151064761Y-135046666D01*
X151112380Y-135070476D01*
X151207619Y-135070476D01*
X151255238Y-135094285D01*
X151279047Y-135118095D01*
X151302857Y-135165714D01*
X151302857Y-135260952D01*
X151279047Y-135308571D01*
X151255238Y-135332380D01*
X151207619Y-135356190D01*
X151112380Y-135356190D01*
X151064761Y-135332380D01*
X151040952Y-135308571D01*
X151017142Y-135260952D01*
X151017142Y-135165714D01*
X151040952Y-135118095D01*
X151064761Y-135094285D01*
X151112380Y-135070476D01*
X135613333Y-138408571D02*
X135637142Y-138432380D01*
X135708571Y-138456190D01*
X135756190Y-138456190D01*
X135827619Y-138432380D01*
X135875238Y-138384761D01*
X135899047Y-138337142D01*
X135922857Y-138241904D01*
X135922857Y-138170476D01*
X135899047Y-138075238D01*
X135875238Y-138027619D01*
X135827619Y-137980000D01*
X135756190Y-137956190D01*
X135708571Y-137956190D01*
X135637142Y-137980000D01*
X135613333Y-138003809D01*
X135446666Y-137956190D02*
X135113333Y-137956190D01*
X135327619Y-138456190D01*
X135673333Y-136488571D02*
X135697142Y-136512380D01*
X135768571Y-136536190D01*
X135816190Y-136536190D01*
X135887619Y-136512380D01*
X135935238Y-136464761D01*
X135959047Y-136417142D01*
X135982857Y-136321904D01*
X135982857Y-136250476D01*
X135959047Y-136155238D01*
X135935238Y-136107619D01*
X135887619Y-136060000D01*
X135816190Y-136036190D01*
X135768571Y-136036190D01*
X135697142Y-136060000D01*
X135673333Y-136083809D01*
X135244761Y-136036190D02*
X135340000Y-136036190D01*
X135387619Y-136060000D01*
X135411428Y-136083809D01*
X135459047Y-136155238D01*
X135482857Y-136250476D01*
X135482857Y-136440952D01*
X135459047Y-136488571D01*
X135435238Y-136512380D01*
X135387619Y-136536190D01*
X135292380Y-136536190D01*
X135244761Y-136512380D01*
X135220952Y-136488571D01*
X135197142Y-136440952D01*
X135197142Y-136321904D01*
X135220952Y-136274285D01*
X135244761Y-136250476D01*
X135292380Y-136226666D01*
X135387619Y-136226666D01*
X135435238Y-136250476D01*
X135459047Y-136274285D01*
X135482857Y-136321904D01*
X127373333Y-77526190D02*
X127540000Y-77288095D01*
X127659047Y-77526190D02*
X127659047Y-77026190D01*
X127468571Y-77026190D01*
X127420952Y-77050000D01*
X127397142Y-77073809D01*
X127373333Y-77121428D01*
X127373333Y-77192857D01*
X127397142Y-77240476D01*
X127420952Y-77264285D01*
X127468571Y-77288095D01*
X127659047Y-77288095D01*
X127182857Y-77073809D02*
X127159047Y-77050000D01*
X127111428Y-77026190D01*
X126992380Y-77026190D01*
X126944761Y-77050000D01*
X126920952Y-77073809D01*
X126897142Y-77121428D01*
X126897142Y-77169047D01*
X126920952Y-77240476D01*
X127206666Y-77526190D01*
X126897142Y-77526190D01*
X138863333Y-83286190D02*
X139030000Y-83048095D01*
X139149047Y-83286190D02*
X139149047Y-82786190D01*
X138958571Y-82786190D01*
X138910952Y-82810000D01*
X138887142Y-82833809D01*
X138863333Y-82881428D01*
X138863333Y-82952857D01*
X138887142Y-83000476D01*
X138910952Y-83024285D01*
X138958571Y-83048095D01*
X139149047Y-83048095D01*
X138696666Y-82786190D02*
X138387142Y-82786190D01*
X138553809Y-82976666D01*
X138482380Y-82976666D01*
X138434761Y-83000476D01*
X138410952Y-83024285D01*
X138387142Y-83071904D01*
X138387142Y-83190952D01*
X138410952Y-83238571D01*
X138434761Y-83262380D01*
X138482380Y-83286190D01*
X138625238Y-83286190D01*
X138672857Y-83262380D01*
X138696666Y-83238571D01*
X136373333Y-83286190D02*
X136540000Y-83048095D01*
X136659047Y-83286190D02*
X136659047Y-82786190D01*
X136468571Y-82786190D01*
X136420952Y-82810000D01*
X136397142Y-82833809D01*
X136373333Y-82881428D01*
X136373333Y-82952857D01*
X136397142Y-83000476D01*
X136420952Y-83024285D01*
X136468571Y-83048095D01*
X136659047Y-83048095D01*
X135920952Y-82786190D02*
X136159047Y-82786190D01*
X136182857Y-83024285D01*
X136159047Y-83000476D01*
X136111428Y-82976666D01*
X135992380Y-82976666D01*
X135944761Y-83000476D01*
X135920952Y-83024285D01*
X135897142Y-83071904D01*
X135897142Y-83190952D01*
X135920952Y-83238571D01*
X135944761Y-83262380D01*
X135992380Y-83286190D01*
X136111428Y-83286190D01*
X136159047Y-83262380D01*
X136182857Y-83238571D01*
X174923333Y-83618571D02*
X174947142Y-83642380D01*
X175018571Y-83666190D01*
X175066190Y-83666190D01*
X175137619Y-83642380D01*
X175185238Y-83594761D01*
X175209047Y-83547142D01*
X175232857Y-83451904D01*
X175232857Y-83380476D01*
X175209047Y-83285238D01*
X175185238Y-83237619D01*
X175137619Y-83190000D01*
X175066190Y-83166190D01*
X175018571Y-83166190D01*
X174947142Y-83190000D01*
X174923333Y-83213809D01*
X174756666Y-83166190D02*
X174447142Y-83166190D01*
X174613809Y-83356666D01*
X174542380Y-83356666D01*
X174494761Y-83380476D01*
X174470952Y-83404285D01*
X174447142Y-83451904D01*
X174447142Y-83570952D01*
X174470952Y-83618571D01*
X174494761Y-83642380D01*
X174542380Y-83666190D01*
X174685238Y-83666190D01*
X174732857Y-83642380D01*
X174756666Y-83618571D01*
D11*
X114825714Y-53668571D02*
X114682857Y-53716190D01*
X114635238Y-53763809D01*
X114587619Y-53859047D01*
X114587619Y-54001904D01*
X114635238Y-54097142D01*
X114682857Y-54144761D01*
X114778095Y-54192380D01*
X115159047Y-54192380D01*
X115159047Y-53192380D01*
X114825714Y-53192380D01*
X114730476Y-53240000D01*
X114682857Y-53287619D01*
X114635238Y-53382857D01*
X114635238Y-53478095D01*
X114682857Y-53573333D01*
X114730476Y-53620952D01*
X114825714Y-53668571D01*
X115159047Y-53668571D01*
X114301904Y-53192380D02*
X113730476Y-53192380D01*
X114016190Y-54192380D02*
X114016190Y-53192380D01*
X112873333Y-54192380D02*
X113444761Y-54192380D01*
X113159047Y-54192380D02*
X113159047Y-53192380D01*
X113254285Y-53335238D01*
X113349523Y-53430476D01*
X113444761Y-53478095D01*
X116566666Y-52202380D02*
X116566666Y-51202380D01*
X116233333Y-51916666D01*
X115900000Y-51202380D01*
X115900000Y-52202380D01*
X115471428Y-52154761D02*
X115328571Y-52202380D01*
X115090476Y-52202380D01*
X114995238Y-52154761D01*
X114947619Y-52107142D01*
X114900000Y-52011904D01*
X114900000Y-51916666D01*
X114947619Y-51821428D01*
X114995238Y-51773809D01*
X115090476Y-51726190D01*
X115280952Y-51678571D01*
X115376190Y-51630952D01*
X115423809Y-51583333D01*
X115471428Y-51488095D01*
X115471428Y-51392857D01*
X115423809Y-51297619D01*
X115376190Y-51250000D01*
X115280952Y-51202380D01*
X115042857Y-51202380D01*
X114900000Y-51250000D01*
X114042857Y-51202380D02*
X114233333Y-51202380D01*
X114328571Y-51250000D01*
X114376190Y-51297619D01*
X114471428Y-51440476D01*
X114519047Y-51630952D01*
X114519047Y-52011904D01*
X114471428Y-52107142D01*
X114423809Y-52154761D01*
X114328571Y-52202380D01*
X114138095Y-52202380D01*
X114042857Y-52154761D01*
X113995238Y-52107142D01*
X113947619Y-52011904D01*
X113947619Y-51773809D01*
X113995238Y-51678571D01*
X114042857Y-51630952D01*
X114138095Y-51583333D01*
X114328571Y-51583333D01*
X114423809Y-51630952D01*
X114471428Y-51678571D01*
X114519047Y-51773809D01*
X113566666Y-51297619D02*
X113519047Y-51250000D01*
X113423809Y-51202380D01*
X113185714Y-51202380D01*
X113090476Y-51250000D01*
X113042857Y-51297619D01*
X112995238Y-51392857D01*
X112995238Y-51488095D01*
X113042857Y-51630952D01*
X113614285Y-52202380D01*
X112995238Y-52202380D01*
X112042857Y-52202380D02*
X112614285Y-52202380D01*
X112328571Y-52202380D02*
X112328571Y-51202380D01*
X112423809Y-51345238D01*
X112519047Y-51440476D01*
X112614285Y-51488095D01*
X111280952Y-51678571D02*
X111614285Y-51678571D01*
X111614285Y-52202380D02*
X111614285Y-51202380D01*
X111138095Y-51202380D01*
D12*
X151121428Y-63718571D02*
X151145238Y-63742380D01*
X151216666Y-63766190D01*
X151264285Y-63766190D01*
X151335714Y-63742380D01*
X151383333Y-63694761D01*
X151407142Y-63647142D01*
X151430952Y-63551904D01*
X151430952Y-63480476D01*
X151407142Y-63385238D01*
X151383333Y-63337619D01*
X151335714Y-63290000D01*
X151264285Y-63266190D01*
X151216666Y-63266190D01*
X151145238Y-63290000D01*
X151121428Y-63313809D01*
X150645238Y-63766190D02*
X150930952Y-63766190D01*
X150788095Y-63766190D02*
X150788095Y-63266190D01*
X150835714Y-63337619D01*
X150883333Y-63385238D01*
X150930952Y-63409047D01*
X150478571Y-63266190D02*
X150145238Y-63266190D01*
X150359523Y-63766190D01*
X172503333Y-83668571D02*
X172527142Y-83692380D01*
X172598571Y-83716190D01*
X172646190Y-83716190D01*
X172717619Y-83692380D01*
X172765238Y-83644761D01*
X172789047Y-83597142D01*
X172812857Y-83501904D01*
X172812857Y-83430476D01*
X172789047Y-83335238D01*
X172765238Y-83287619D01*
X172717619Y-83240000D01*
X172646190Y-83216190D01*
X172598571Y-83216190D01*
X172527142Y-83240000D01*
X172503333Y-83263809D01*
X172312857Y-83263809D02*
X172289047Y-83240000D01*
X172241428Y-83216190D01*
X172122380Y-83216190D01*
X172074761Y-83240000D01*
X172050952Y-83263809D01*
X172027142Y-83311428D01*
X172027142Y-83359047D01*
X172050952Y-83430476D01*
X172336666Y-83716190D01*
X172027142Y-83716190D01*
X99693333Y-97768571D02*
X99717142Y-97792380D01*
X99788571Y-97816190D01*
X99836190Y-97816190D01*
X99907619Y-97792380D01*
X99955238Y-97744761D01*
X99979047Y-97697142D01*
X100002857Y-97601904D01*
X100002857Y-97530476D01*
X99979047Y-97435238D01*
X99955238Y-97387619D01*
X99907619Y-97340000D01*
X99836190Y-97316190D01*
X99788571Y-97316190D01*
X99717142Y-97340000D01*
X99693333Y-97363809D01*
X99217142Y-97816190D02*
X99502857Y-97816190D01*
X99360000Y-97816190D02*
X99360000Y-97316190D01*
X99407619Y-97387619D01*
X99455238Y-97435238D01*
X99502857Y-97459047D01*
M02*
