G04 #@! TF.GenerationSoftware,KiCad,Pcbnew,(5.1.2-1)-1*
G04 #@! TF.CreationDate,2020-09-17T21:50:52+01:00*
G04 #@! TF.ProjectId,tranZPUter-SW-700_v1_2,7472616e-5a50-4557-9465-722d53572d37,rev?*
G04 #@! TF.SameCoordinates,Original*
G04 #@! TF.FileFunction,Drawing*
%FSLAX46Y46*%
G04 Gerber Fmt 4.6, Leading zero omitted, Abs format (unit mm)*
G04 Created by KiCad (PCBNEW (5.1.2-1)-1) date 2020-09-17 21:50:52*
%MOMM*%
%LPD*%
G04 APERTURE LIST*
%ADD10C,0.100000*%
%ADD11C,0.075000*%
G04 APERTURE END LIST*
D10*
X101405000Y-51055000D02*
X101405000Y-59055000D01*
D11*
X102231190Y-56757380D02*
X101731190Y-56757380D01*
X101731190Y-56566904D01*
X101755000Y-56519285D01*
X101778809Y-56495476D01*
X101826428Y-56471666D01*
X101897857Y-56471666D01*
X101945476Y-56495476D01*
X101969285Y-56519285D01*
X101993095Y-56566904D01*
X101993095Y-56757380D01*
X102183571Y-55971666D02*
X102207380Y-55995476D01*
X102231190Y-56066904D01*
X102231190Y-56114523D01*
X102207380Y-56185952D01*
X102159761Y-56233571D01*
X102112142Y-56257380D01*
X102016904Y-56281190D01*
X101945476Y-56281190D01*
X101850238Y-56257380D01*
X101802619Y-56233571D01*
X101755000Y-56185952D01*
X101731190Y-56114523D01*
X101731190Y-56066904D01*
X101755000Y-55995476D01*
X101778809Y-55971666D01*
X101969285Y-55590714D02*
X101993095Y-55519285D01*
X102016904Y-55495476D01*
X102064523Y-55471666D01*
X102135952Y-55471666D01*
X102183571Y-55495476D01*
X102207380Y-55519285D01*
X102231190Y-55566904D01*
X102231190Y-55757380D01*
X101731190Y-55757380D01*
X101731190Y-55590714D01*
X101755000Y-55543095D01*
X101778809Y-55519285D01*
X101826428Y-55495476D01*
X101874047Y-55495476D01*
X101921666Y-55519285D01*
X101945476Y-55543095D01*
X101969285Y-55590714D01*
X101969285Y-55757380D01*
X102207380Y-54685952D02*
X102231190Y-54733571D01*
X102231190Y-54828809D01*
X102207380Y-54876428D01*
X102159761Y-54900238D01*
X101969285Y-54900238D01*
X101921666Y-54876428D01*
X101897857Y-54828809D01*
X101897857Y-54733571D01*
X101921666Y-54685952D01*
X101969285Y-54662142D01*
X102016904Y-54662142D01*
X102064523Y-54900238D01*
X102231190Y-54233571D02*
X101731190Y-54233571D01*
X102207380Y-54233571D02*
X102231190Y-54281190D01*
X102231190Y-54376428D01*
X102207380Y-54424047D01*
X102183571Y-54447857D01*
X102135952Y-54471666D01*
X101993095Y-54471666D01*
X101945476Y-54447857D01*
X101921666Y-54424047D01*
X101897857Y-54376428D01*
X101897857Y-54281190D01*
X101921666Y-54233571D01*
X101897857Y-53781190D02*
X102302619Y-53781190D01*
X102350238Y-53805000D01*
X102374047Y-53828809D01*
X102397857Y-53876428D01*
X102397857Y-53947857D01*
X102374047Y-53995476D01*
X102207380Y-53781190D02*
X102231190Y-53828809D01*
X102231190Y-53924047D01*
X102207380Y-53971666D01*
X102183571Y-53995476D01*
X102135952Y-54019285D01*
X101993095Y-54019285D01*
X101945476Y-53995476D01*
X101921666Y-53971666D01*
X101897857Y-53924047D01*
X101897857Y-53828809D01*
X101921666Y-53781190D01*
X102207380Y-53352619D02*
X102231190Y-53400238D01*
X102231190Y-53495476D01*
X102207380Y-53543095D01*
X102159761Y-53566904D01*
X101969285Y-53566904D01*
X101921666Y-53543095D01*
X101897857Y-53495476D01*
X101897857Y-53400238D01*
X101921666Y-53352619D01*
X101969285Y-53328809D01*
X102016904Y-53328809D01*
X102064523Y-53566904D01*
M02*
