G04 #@! TF.GenerationSoftware,KiCad,Pcbnew,(5.1.2-1)-1*
G04 #@! TF.CreationDate,2020-09-17T21:50:52+01:00*
G04 #@! TF.ProjectId,tranZPUter-SW-700_v1_2,7472616e-5a50-4557-9465-722d53572d37,rev?*
G04 #@! TF.SameCoordinates,Original*
G04 #@! TF.FileFunction,Other,Fab,Bot*
%FSLAX46Y46*%
G04 Gerber Fmt 4.6, Leading zero omitted, Abs format (unit mm)*
G04 Created by KiCad (PCBNEW (5.1.2-1)-1) date 2020-09-17 21:50:52*
%MOMM*%
%LPD*%
G04 APERTURE LIST*
%ADD10C,0.100000*%
%ADD11C,0.150000*%
%ADD12C,0.080000*%
G04 APERTURE END LIST*
D10*
X133150000Y-123440000D02*
X131150000Y-123440000D01*
X133150000Y-124640000D02*
X133150000Y-123440000D01*
X131150000Y-124640000D02*
X133150000Y-124640000D01*
X131150000Y-123440000D02*
X131150000Y-124640000D01*
X125320000Y-130840000D02*
X125320000Y-137540000D01*
X129020000Y-137540000D02*
X125320000Y-137540000D01*
X128020000Y-130840000D02*
X125320000Y-130840000D01*
X129020000Y-131840000D02*
X129020000Y-137540000D01*
X129020000Y-131840000D02*
X128020000Y-130840000D01*
X179840000Y-123630000D02*
X179840000Y-121630000D01*
X178640000Y-123630000D02*
X179840000Y-123630000D01*
X178640000Y-121630000D02*
X178640000Y-123630000D01*
X179840000Y-121630000D02*
X178640000Y-121630000D01*
X144170000Y-130840000D02*
X144170000Y-137540000D01*
X147870000Y-137540000D02*
X144170000Y-137540000D01*
X146870000Y-130840000D02*
X144170000Y-130840000D01*
X147870000Y-131840000D02*
X147870000Y-137540000D01*
X147870000Y-131840000D02*
X146870000Y-130840000D01*
X106510000Y-130850000D02*
X106510000Y-137550000D01*
X110210000Y-137550000D02*
X106510000Y-137550000D01*
X109210000Y-130850000D02*
X106510000Y-130850000D01*
X110210000Y-131850000D02*
X110210000Y-137550000D01*
X110210000Y-131850000D02*
X109210000Y-130850000D01*
X115450000Y-133840000D02*
X113850000Y-133840000D01*
X115450000Y-134640000D02*
X115450000Y-133840000D01*
X113850000Y-134640000D02*
X115450000Y-134640000D01*
X113850000Y-133840000D02*
X113850000Y-134640000D01*
X115420000Y-135980000D02*
X113820000Y-135980000D01*
X115420000Y-136780000D02*
X115420000Y-135980000D01*
X113820000Y-136780000D02*
X115420000Y-136780000D01*
X113820000Y-135980000D02*
X113820000Y-136780000D01*
X115410000Y-137840000D02*
X113810000Y-137840000D01*
X115410000Y-138640000D02*
X115410000Y-137840000D01*
X113810000Y-138640000D02*
X115410000Y-138640000D01*
X113810000Y-137840000D02*
X113810000Y-138640000D01*
X121320000Y-53900000D02*
X121320000Y-52300000D01*
X124520000Y-53900000D02*
X121320000Y-53900000D01*
X124520000Y-52700000D02*
X124520000Y-53900000D01*
X124120000Y-52300000D02*
X124520000Y-52700000D01*
X121320000Y-52300000D02*
X124120000Y-52300000D01*
X121300000Y-51250000D02*
X121300000Y-49650000D01*
X124500000Y-51250000D02*
X121300000Y-51250000D01*
X124500000Y-50050000D02*
X124500000Y-51250000D01*
X124100000Y-49650000D02*
X124500000Y-50050000D01*
X121300000Y-49650000D02*
X124100000Y-49650000D01*
X152970000Y-52910000D02*
X151370000Y-52910000D01*
X152970000Y-53710000D02*
X152970000Y-52910000D01*
X151370000Y-53710000D02*
X152970000Y-53710000D01*
X151370000Y-52910000D02*
X151370000Y-53710000D01*
X140710000Y-61180000D02*
X142710000Y-61180000D01*
X140710000Y-59980000D02*
X140710000Y-61180000D01*
X142710000Y-59980000D02*
X140710000Y-59980000D01*
X142710000Y-61180000D02*
X142710000Y-59980000D01*
X140910000Y-55890000D02*
X142910000Y-55890000D01*
X140910000Y-54690000D02*
X140910000Y-55890000D01*
X142910000Y-54690000D02*
X140910000Y-54690000D01*
X142910000Y-55890000D02*
X142910000Y-54690000D01*
X124360000Y-47370000D02*
X122360000Y-47370000D01*
X124360000Y-48570000D02*
X124360000Y-47370000D01*
X122360000Y-48570000D02*
X124360000Y-48570000D01*
X122360000Y-47370000D02*
X122360000Y-48570000D01*
X151290000Y-54460000D02*
X149290000Y-54460000D01*
X151290000Y-55660000D02*
X151290000Y-54460000D01*
X149290000Y-55660000D02*
X151290000Y-55660000D01*
X149290000Y-54460000D02*
X149290000Y-55660000D01*
X164700000Y-55520000D02*
X164700000Y-53520000D01*
X163500000Y-55520000D02*
X164700000Y-55520000D01*
X163500000Y-53520000D02*
X163500000Y-55520000D01*
X164700000Y-53520000D02*
X163500000Y-53520000D01*
X163000000Y-130840000D02*
X163000000Y-137540000D01*
X166700000Y-137540000D02*
X163000000Y-137540000D01*
X165700000Y-130840000D02*
X163000000Y-130840000D01*
X166700000Y-131840000D02*
X166700000Y-137540000D01*
X166700000Y-131840000D02*
X165700000Y-130840000D01*
X182460000Y-123590000D02*
X182460000Y-121590000D01*
X181260000Y-123590000D02*
X182460000Y-123590000D01*
X181260000Y-121590000D02*
X181260000Y-123590000D01*
X182460000Y-121590000D02*
X181260000Y-121590000D01*
X186370000Y-121560000D02*
X186370000Y-123560000D01*
X187570000Y-121560000D02*
X186370000Y-121560000D01*
X187570000Y-123560000D02*
X187570000Y-121560000D01*
X186370000Y-123560000D02*
X187570000Y-123560000D01*
X183780000Y-121580000D02*
X183780000Y-123580000D01*
X184980000Y-121580000D02*
X183780000Y-121580000D01*
X184980000Y-123580000D02*
X184980000Y-121580000D01*
X183780000Y-123580000D02*
X184980000Y-123580000D01*
X126400000Y-113230000D02*
X126400000Y-111630000D01*
X125600000Y-113230000D02*
X126400000Y-113230000D01*
X125600000Y-111630000D02*
X125600000Y-113230000D01*
X126400000Y-111630000D02*
X125600000Y-111630000D01*
X121100000Y-111390000D02*
X119500000Y-111390000D01*
X121100000Y-112190000D02*
X121100000Y-111390000D01*
X119500000Y-112190000D02*
X121100000Y-112190000D01*
X119500000Y-111390000D02*
X119500000Y-112190000D01*
X128230000Y-113240000D02*
X128230000Y-111640000D01*
X127430000Y-113240000D02*
X128230000Y-113240000D01*
X127430000Y-111640000D02*
X127430000Y-113240000D01*
X128230000Y-111640000D02*
X127430000Y-111640000D01*
X129520000Y-114740000D02*
X131120000Y-114740000D01*
X129520000Y-113940000D02*
X129520000Y-114740000D01*
X131120000Y-113940000D02*
X129520000Y-113940000D01*
X131120000Y-114740000D02*
X131120000Y-113940000D01*
X126770000Y-121060000D02*
X126770000Y-122660000D01*
X127570000Y-121060000D02*
X126770000Y-121060000D01*
X127570000Y-122660000D02*
X127570000Y-121060000D01*
X126770000Y-122660000D02*
X127570000Y-122660000D01*
X129680000Y-121350000D02*
X131280000Y-121350000D01*
X129680000Y-120550000D02*
X129680000Y-121350000D01*
X131280000Y-120550000D02*
X129680000Y-120550000D01*
X131280000Y-121350000D02*
X131280000Y-120550000D01*
X121110000Y-117140000D02*
X119510000Y-117140000D01*
X121110000Y-117940000D02*
X121110000Y-117140000D01*
X119510000Y-117940000D02*
X121110000Y-117940000D01*
X119510000Y-117140000D02*
X119510000Y-117940000D01*
X120070000Y-120980000D02*
X120070000Y-122580000D01*
X120870000Y-120980000D02*
X120070000Y-120980000D01*
X120870000Y-122580000D02*
X120870000Y-120980000D01*
X120070000Y-122580000D02*
X120870000Y-122580000D01*
X123090000Y-121110000D02*
X123090000Y-122710000D01*
X123890000Y-121110000D02*
X123090000Y-121110000D01*
X123890000Y-122710000D02*
X123890000Y-121110000D01*
X123090000Y-122710000D02*
X123890000Y-122710000D01*
X121090000Y-112960000D02*
X119490000Y-112960000D01*
X121090000Y-113760000D02*
X121090000Y-112960000D01*
X119490000Y-113760000D02*
X121090000Y-113760000D01*
X119490000Y-112960000D02*
X119490000Y-113760000D01*
X124070000Y-113260000D02*
X124070000Y-111660000D01*
X123270000Y-113260000D02*
X124070000Y-113260000D01*
X123270000Y-111660000D02*
X123270000Y-113260000D01*
X124070000Y-111660000D02*
X123270000Y-111660000D01*
X162450000Y-114890000D02*
X164450000Y-114890000D01*
X162450000Y-113690000D02*
X162450000Y-114890000D01*
X164450000Y-113690000D02*
X162450000Y-113690000D01*
X164450000Y-114890000D02*
X164450000Y-113690000D01*
X159920000Y-111090000D02*
X159920000Y-109090000D01*
X158720000Y-111090000D02*
X159920000Y-111090000D01*
X158720000Y-109090000D02*
X158720000Y-111090000D01*
X159920000Y-109090000D02*
X158720000Y-109090000D01*
X156330000Y-111090000D02*
X156330000Y-109090000D01*
X155130000Y-111090000D02*
X156330000Y-111090000D01*
X155130000Y-109090000D02*
X155130000Y-111090000D01*
X156330000Y-109090000D02*
X155130000Y-109090000D01*
X162280000Y-121690000D02*
X162280000Y-123690000D01*
X163480000Y-121690000D02*
X162280000Y-121690000D01*
X163480000Y-123690000D02*
X163480000Y-121690000D01*
X162280000Y-123690000D02*
X163480000Y-123690000D01*
X165280000Y-107650000D02*
X163680000Y-107650000D01*
X165280000Y-108450000D02*
X165280000Y-107650000D01*
X163680000Y-108450000D02*
X165280000Y-108450000D01*
X163680000Y-107650000D02*
X163680000Y-108450000D01*
X152110000Y-122770000D02*
X152110000Y-124770000D01*
X153310000Y-122770000D02*
X152110000Y-122770000D01*
X153310000Y-124770000D02*
X153310000Y-122770000D01*
X152110000Y-124770000D02*
X153310000Y-124770000D01*
X157490000Y-121080000D02*
X157490000Y-123080000D01*
X158690000Y-121080000D02*
X157490000Y-121080000D01*
X158690000Y-123080000D02*
X158690000Y-121080000D01*
X157490000Y-123080000D02*
X158690000Y-123080000D01*
X162490000Y-118300000D02*
X164490000Y-118300000D01*
X162490000Y-117100000D02*
X162490000Y-118300000D01*
X164490000Y-117100000D02*
X162490000Y-117100000D01*
X164490000Y-118300000D02*
X164490000Y-117100000D01*
X161590000Y-112750000D02*
X161590000Y-111150000D01*
X160790000Y-112750000D02*
X161590000Y-112750000D01*
X160790000Y-111150000D02*
X160790000Y-112750000D01*
X161590000Y-111150000D02*
X160790000Y-111150000D01*
X153610000Y-112930000D02*
X153610000Y-111330000D01*
X152810000Y-112930000D02*
X153610000Y-112930000D01*
X152810000Y-111330000D02*
X152810000Y-112930000D01*
X153610000Y-111330000D02*
X152810000Y-111330000D01*
X154860000Y-121310000D02*
X154860000Y-122910000D01*
X155660000Y-121310000D02*
X154860000Y-121310000D01*
X155660000Y-122910000D02*
X155660000Y-121310000D01*
X154860000Y-122910000D02*
X155660000Y-122910000D01*
X151470000Y-112970000D02*
X151470000Y-111370000D01*
X150670000Y-112970000D02*
X151470000Y-112970000D01*
X150670000Y-111370000D02*
X150670000Y-112970000D01*
X151470000Y-111370000D02*
X150670000Y-111370000D01*
X160720000Y-120300000D02*
X160720000Y-121900000D01*
X161520000Y-120300000D02*
X160720000Y-120300000D01*
X161520000Y-121900000D02*
X161520000Y-120300000D01*
X160720000Y-121900000D02*
X161520000Y-121900000D01*
X150690000Y-121240000D02*
X150690000Y-122840000D01*
X151490000Y-121240000D02*
X150690000Y-121240000D01*
X151490000Y-122840000D02*
X151490000Y-121240000D01*
X150690000Y-122840000D02*
X151490000Y-122840000D01*
X169830000Y-132390000D02*
X169830000Y-133990000D01*
X170630000Y-132390000D02*
X169830000Y-132390000D01*
X170630000Y-133990000D02*
X170630000Y-132390000D01*
X169830000Y-133990000D02*
X170630000Y-133990000D01*
X152060000Y-115980000D02*
X150460000Y-115980000D01*
X152060000Y-116780000D02*
X152060000Y-115980000D01*
X150460000Y-116780000D02*
X152060000Y-116780000D01*
X150460000Y-115980000D02*
X150460000Y-116780000D01*
X171100000Y-108060000D02*
X169500000Y-108060000D01*
X171100000Y-108860000D02*
X171100000Y-108060000D01*
X169500000Y-108860000D02*
X171100000Y-108860000D01*
X169500000Y-108060000D02*
X169500000Y-108860000D01*
X171160000Y-124210000D02*
X169560000Y-124210000D01*
X171160000Y-125010000D02*
X171160000Y-124210000D01*
X169560000Y-125010000D02*
X171160000Y-125010000D01*
X169560000Y-124210000D02*
X169560000Y-125010000D01*
X140720000Y-112320000D02*
X142320000Y-112320000D01*
X140720000Y-111520000D02*
X140720000Y-112320000D01*
X142320000Y-111520000D02*
X140720000Y-111520000D01*
X142320000Y-112320000D02*
X142320000Y-111520000D01*
X140750000Y-123050000D02*
X142350000Y-123050000D01*
X140750000Y-122250000D02*
X140750000Y-123050000D01*
X142350000Y-122250000D02*
X140750000Y-122250000D01*
X142350000Y-123050000D02*
X142350000Y-122250000D01*
X171760000Y-132400000D02*
X171760000Y-134000000D01*
X172560000Y-132400000D02*
X171760000Y-132400000D01*
X172560000Y-134000000D02*
X172560000Y-132400000D01*
X171760000Y-134000000D02*
X172560000Y-134000000D01*
X151070000Y-132170000D02*
X151070000Y-133770000D01*
X151870000Y-132170000D02*
X151070000Y-132170000D01*
X151870000Y-133770000D02*
X151870000Y-132170000D01*
X151070000Y-133770000D02*
X151870000Y-133770000D01*
X134110000Y-137820000D02*
X132510000Y-137820000D01*
X134110000Y-138620000D02*
X134110000Y-137820000D01*
X132510000Y-138620000D02*
X134110000Y-138620000D01*
X132510000Y-137820000D02*
X132510000Y-138620000D01*
X134150000Y-135910000D02*
X132550000Y-135910000D01*
X134150000Y-136710000D02*
X134150000Y-135910000D01*
X132550000Y-136710000D02*
X134150000Y-136710000D01*
X132550000Y-135910000D02*
X132550000Y-136710000D01*
X126680000Y-78470000D02*
X126680000Y-80470000D01*
X127880000Y-78470000D02*
X126680000Y-78470000D01*
X127880000Y-80470000D02*
X127880000Y-78470000D01*
X126680000Y-80470000D02*
X127880000Y-80470000D01*
X139400000Y-86330000D02*
X139400000Y-84330000D01*
X138200000Y-86330000D02*
X139400000Y-86330000D01*
X138200000Y-84330000D02*
X138200000Y-86330000D01*
X139400000Y-84330000D02*
X138200000Y-84330000D01*
X136920000Y-86370000D02*
X136920000Y-84370000D01*
X135720000Y-86370000D02*
X136920000Y-86370000D01*
X135720000Y-84370000D02*
X135720000Y-86370000D01*
X136920000Y-84370000D02*
X135720000Y-84370000D01*
X174200000Y-80180000D02*
X174200000Y-82180000D01*
X175400000Y-80180000D02*
X174200000Y-80180000D01*
X175400000Y-82180000D02*
X175400000Y-80180000D01*
X174200000Y-82180000D02*
X175400000Y-82180000D01*
X117350000Y-51790000D02*
G75*
G03X117350000Y-51790000I-3400000J0D01*
G01*
X119850000Y-52790000D02*
X119850000Y-52290000D01*
X119850000Y-51290000D02*
X119850000Y-50790000D01*
X151740000Y-61540000D02*
X149740000Y-61540000D01*
X151740000Y-62740000D02*
X151740000Y-61540000D01*
X149740000Y-62740000D02*
X151740000Y-62740000D01*
X149740000Y-61540000D02*
X149740000Y-62740000D01*
X171780000Y-80190000D02*
X171780000Y-82190000D01*
X172980000Y-80190000D02*
X171780000Y-80190000D01*
X172980000Y-82190000D02*
X172980000Y-80190000D01*
X171780000Y-82190000D02*
X172980000Y-82190000D01*
X100200000Y-96200000D02*
X100200000Y-94200000D01*
X99000000Y-96200000D02*
X100200000Y-96200000D01*
X99000000Y-94200000D02*
X99000000Y-96200000D01*
X100200000Y-94200000D02*
X99000000Y-94200000D01*
D11*
X132840476Y-122842380D02*
X133411904Y-122842380D01*
X133126190Y-122842380D02*
X133126190Y-121842380D01*
X133221428Y-121985238D01*
X133316666Y-122080476D01*
X133411904Y-122128095D01*
X132221428Y-121842380D02*
X132126190Y-121842380D01*
X132030952Y-121890000D01*
X131983333Y-121937619D01*
X131935714Y-122032857D01*
X131888095Y-122223333D01*
X131888095Y-122461428D01*
X131935714Y-122651904D01*
X131983333Y-122747142D01*
X132030952Y-122794761D01*
X132126190Y-122842380D01*
X132221428Y-122842380D01*
X132316666Y-122794761D01*
X132364285Y-122747142D01*
X132411904Y-122651904D01*
X132459523Y-122461428D01*
X132459523Y-122223333D01*
X132411904Y-122032857D01*
X132364285Y-121937619D01*
X132316666Y-121890000D01*
X132221428Y-121842380D01*
X131459523Y-122842380D02*
X131459523Y-121842380D01*
X130888095Y-122842380D02*
X131316666Y-122270952D01*
X130888095Y-121842380D02*
X131459523Y-122413809D01*
D12*
X132471428Y-124266190D02*
X132638095Y-124028095D01*
X132757142Y-124266190D02*
X132757142Y-123766190D01*
X132566666Y-123766190D01*
X132519047Y-123790000D01*
X132495238Y-123813809D01*
X132471428Y-123861428D01*
X132471428Y-123932857D01*
X132495238Y-123980476D01*
X132519047Y-124004285D01*
X132566666Y-124028095D01*
X132757142Y-124028095D01*
X131995238Y-124266190D02*
X132280952Y-124266190D01*
X132138095Y-124266190D02*
X132138095Y-123766190D01*
X132185714Y-123837619D01*
X132233333Y-123885238D01*
X132280952Y-123909047D01*
X131709523Y-123980476D02*
X131757142Y-123956666D01*
X131780952Y-123932857D01*
X131804761Y-123885238D01*
X131804761Y-123861428D01*
X131780952Y-123813809D01*
X131757142Y-123790000D01*
X131709523Y-123766190D01*
X131614285Y-123766190D01*
X131566666Y-123790000D01*
X131542857Y-123813809D01*
X131519047Y-123861428D01*
X131519047Y-123885238D01*
X131542857Y-123932857D01*
X131566666Y-123956666D01*
X131614285Y-123980476D01*
X131709523Y-123980476D01*
X131757142Y-124004285D01*
X131780952Y-124028095D01*
X131804761Y-124075714D01*
X131804761Y-124170952D01*
X131780952Y-124218571D01*
X131757142Y-124242380D01*
X131709523Y-124266190D01*
X131614285Y-124266190D01*
X131566666Y-124242380D01*
X131542857Y-124218571D01*
X131519047Y-124170952D01*
X131519047Y-124075714D01*
X131542857Y-124028095D01*
X131566666Y-124004285D01*
X131614285Y-123980476D01*
D11*
X119539285Y-51736428D02*
X119432142Y-51772142D01*
X119396428Y-51807857D01*
X119360714Y-51879285D01*
X119360714Y-51986428D01*
X119396428Y-52057857D01*
X119432142Y-52093571D01*
X119503571Y-52129285D01*
X119789285Y-52129285D01*
X119789285Y-51379285D01*
X119539285Y-51379285D01*
X119467857Y-51415000D01*
X119432142Y-51450714D01*
X119396428Y-51522142D01*
X119396428Y-51593571D01*
X119432142Y-51665000D01*
X119467857Y-51700714D01*
X119539285Y-51736428D01*
X119789285Y-51736428D01*
X119146428Y-51379285D02*
X118717857Y-51379285D01*
X118932142Y-52129285D02*
X118932142Y-51379285D01*
X118075000Y-52129285D02*
X118503571Y-52129285D01*
X118289285Y-52129285D02*
X118289285Y-51379285D01*
X118360714Y-51486428D01*
X118432142Y-51557857D01*
X118503571Y-51593571D01*
M02*
