%FSLAX45Y45*%
G04 Gerber Fmt 4.5, Leading zero omitted, Abs format (unit mm)*
G04 Created by KiCad (PCBNEW (5.1.2-1)-1) date 2020-09-17 21:50:59*
%MOMM*%
%LPD*%
G04 APERTURE LIST*
%ADD10C,0.100000*%
%ADD11C,0.200000*%
%ADD12C,0.300000*%
G04 APERTURE END LIST*
D10*
X18950000Y-14000000D02*
X9750000Y-14000000D01*
X9750000Y-14000000D02*
X9750000Y-4500000D01*
X17450000Y-4500000D02*
X9750000Y-4500000D01*
X17450000Y-7283000D02*
X17450000Y-4500000D01*
X18950000Y-11333000D02*
X18950000Y-14000000D01*
X19550000Y-11333000D02*
X18950000Y-11333000D01*
X19550000Y-7283000D02*
X19550000Y-11333000D01*
X17450000Y-7283000D02*
X19550000Y-7283000D01*
D11*
D12*
X10031428Y-14470714D02*
X10031428Y-14170714D01*
X10102857Y-14170714D01*
X10145714Y-14185000D01*
X10174286Y-14213571D01*
X10188571Y-14242143D01*
X10202857Y-14299286D01*
X10202857Y-14342143D01*
X10188571Y-14399286D01*
X10174286Y-14427857D01*
X10145714Y-14456429D01*
X10102857Y-14470714D01*
X10031428Y-14470714D01*
X10331428Y-14470714D02*
X10331428Y-14270714D01*
X10331428Y-14327857D02*
X10345714Y-14299286D01*
X10360000Y-14285000D01*
X10388571Y-14270714D01*
X10417143Y-14270714D01*
X10517143Y-14470714D02*
X10517143Y-14270714D01*
X10517143Y-14170714D02*
X10502857Y-14185000D01*
X10517143Y-14199286D01*
X10531428Y-14185000D01*
X10517143Y-14170714D01*
X10517143Y-14199286D01*
X10702857Y-14470714D02*
X10674286Y-14456429D01*
X10660000Y-14427857D01*
X10660000Y-14170714D01*
X10860000Y-14470714D02*
X10831428Y-14456429D01*
X10817143Y-14427857D01*
X10817143Y-14170714D01*
X11202857Y-14470714D02*
X11202857Y-14170714D01*
X11302857Y-14385000D01*
X11402857Y-14170714D01*
X11402857Y-14470714D01*
X11674286Y-14470714D02*
X11674286Y-14313571D01*
X11660000Y-14285000D01*
X11631428Y-14270714D01*
X11574286Y-14270714D01*
X11545714Y-14285000D01*
X11674286Y-14456429D02*
X11645714Y-14470714D01*
X11574286Y-14470714D01*
X11545714Y-14456429D01*
X11531428Y-14427857D01*
X11531428Y-14399286D01*
X11545714Y-14370714D01*
X11574286Y-14356429D01*
X11645714Y-14356429D01*
X11674286Y-14342143D01*
X11817143Y-14270714D02*
X11817143Y-14570714D01*
X11817143Y-14285000D02*
X11845714Y-14270714D01*
X11902857Y-14270714D01*
X11931428Y-14285000D01*
X11945714Y-14299286D01*
X11960000Y-14327857D01*
X11960000Y-14413571D01*
X11945714Y-14442143D01*
X11931428Y-14456429D01*
X11902857Y-14470714D01*
X11845714Y-14470714D01*
X11817143Y-14456429D01*
X12088571Y-14442143D02*
X12102857Y-14456429D01*
X12088571Y-14470714D01*
X12074286Y-14456429D01*
X12088571Y-14442143D01*
X12088571Y-14470714D01*
X12088571Y-14285000D02*
X12102857Y-14299286D01*
X12088571Y-14313571D01*
X12074286Y-14299286D01*
X12088571Y-14285000D01*
X12088571Y-14313571D01*
M02*
