G04 #@! TF.GenerationSoftware,KiCad,Pcbnew,(5.1.2-1)-1*
G04 #@! TF.CreationDate,2020-09-17T21:50:52+01:00*
G04 #@! TF.ProjectId,tranZPUter-SW-700_v1_2,7472616e-5a50-4557-9465-722d53572d37,rev?*
G04 #@! TF.SameCoordinates,Original*
G04 #@! TF.FileFunction,Other,Fab,Top*
%FSLAX46Y46*%
G04 Gerber Fmt 4.6, Leading zero omitted, Abs format (unit mm)*
G04 Created by KiCad (PCBNEW (5.1.2-1)-1) date 2020-09-17 21:50:52*
%MOMM*%
%LPD*%
G04 APERTURE LIST*
%ADD10C,0.100000*%
%ADD11C,0.200000*%
%ADD12C,0.127000*%
%ADD13C,0.120000*%
%ADD14C,0.110000*%
%ADD15C,0.150000*%
G04 APERTURE END LIST*
D10*
X177230000Y-103310000D02*
X179230000Y-103310000D01*
X177230000Y-104510000D02*
X177230000Y-103310000D01*
X179230000Y-104510000D02*
X177230000Y-104510000D01*
X179230000Y-103310000D02*
X179230000Y-104510000D01*
X153310000Y-102700000D02*
X153310000Y-100700000D01*
X154510000Y-102700000D02*
X153310000Y-102700000D01*
X154510000Y-100700000D02*
X154510000Y-102700000D01*
X153310000Y-100700000D02*
X154510000Y-100700000D01*
X163640000Y-102690000D02*
X163640000Y-100690000D01*
X164840000Y-102690000D02*
X163640000Y-102690000D01*
X164840000Y-100690000D02*
X164840000Y-102690000D01*
X163640000Y-100690000D02*
X164840000Y-100690000D01*
X173950000Y-102690000D02*
X173950000Y-100690000D01*
X175150000Y-102690000D02*
X173950000Y-102690000D01*
X175150000Y-100690000D02*
X175150000Y-102690000D01*
X173950000Y-100690000D02*
X175150000Y-100690000D01*
X179310000Y-82940000D02*
X177310000Y-82940000D01*
X179310000Y-81740000D02*
X179310000Y-82940000D01*
X177310000Y-81740000D02*
X179310000Y-81740000D01*
X177310000Y-82940000D02*
X177310000Y-81740000D01*
X179260000Y-97540000D02*
X177260000Y-97540000D01*
X179260000Y-96340000D02*
X179260000Y-97540000D01*
X177260000Y-96340000D02*
X179260000Y-96340000D01*
X177260000Y-97540000D02*
X177260000Y-96340000D01*
X177280000Y-90520000D02*
X179280000Y-90520000D01*
X177280000Y-91720000D02*
X177280000Y-90520000D01*
X179280000Y-91720000D02*
X177280000Y-91720000D01*
X179280000Y-90520000D02*
X179280000Y-91720000D01*
X179260000Y-94630000D02*
X177260000Y-94630000D01*
X179260000Y-93430000D02*
X179260000Y-94630000D01*
X177260000Y-93430000D02*
X179260000Y-93430000D01*
X177260000Y-94630000D02*
X177260000Y-93430000D01*
X158640000Y-98330000D02*
X158640000Y-96330000D01*
X159840000Y-98330000D02*
X158640000Y-98330000D01*
X159840000Y-96330000D02*
X159840000Y-98330000D01*
X158640000Y-96330000D02*
X159840000Y-96330000D01*
X171830000Y-98310000D02*
X171830000Y-96310000D01*
X173030000Y-98310000D02*
X171830000Y-98310000D01*
X173030000Y-96310000D02*
X173030000Y-98310000D01*
X171830000Y-96310000D02*
X173030000Y-96310000D01*
X145390000Y-98310000D02*
X145390000Y-96310000D01*
X146590000Y-98310000D02*
X145390000Y-98310000D01*
X146590000Y-96310000D02*
X146590000Y-98310000D01*
X145390000Y-96310000D02*
X146590000Y-96310000D01*
X163900000Y-98340000D02*
X163900000Y-96340000D01*
X165100000Y-98340000D02*
X163900000Y-98340000D01*
X165100000Y-96340000D02*
X165100000Y-98340000D01*
X163900000Y-96340000D02*
X165100000Y-96340000D01*
X177300000Y-78760000D02*
X179300000Y-78760000D01*
X177300000Y-79960000D02*
X177300000Y-78760000D01*
X179300000Y-79960000D02*
X177300000Y-79960000D01*
X179300000Y-78760000D02*
X179300000Y-79960000D01*
X177300000Y-87690000D02*
X179300000Y-87690000D01*
X177300000Y-88890000D02*
X177300000Y-87690000D01*
X179300000Y-88890000D02*
X177300000Y-88890000D01*
X179300000Y-87690000D02*
X179300000Y-88890000D01*
X177300000Y-84700000D02*
X179300000Y-84700000D01*
X177300000Y-85900000D02*
X177300000Y-84700000D01*
X179300000Y-85900000D02*
X177300000Y-85900000D01*
X179300000Y-84700000D02*
X179300000Y-85900000D01*
X145310000Y-102690000D02*
X145310000Y-100690000D01*
X146510000Y-102690000D02*
X145310000Y-102690000D01*
X146510000Y-100690000D02*
X146510000Y-102690000D01*
X145310000Y-100690000D02*
X146510000Y-100690000D01*
X147310000Y-102690000D02*
X147310000Y-100690000D01*
X148510000Y-102690000D02*
X147310000Y-102690000D01*
X148510000Y-100690000D02*
X148510000Y-102690000D01*
X147310000Y-100690000D02*
X148510000Y-100690000D01*
X149320000Y-102700000D02*
X149320000Y-100700000D01*
X150520000Y-102700000D02*
X149320000Y-102700000D01*
X150520000Y-100700000D02*
X150520000Y-102700000D01*
X149320000Y-100700000D02*
X150520000Y-100700000D01*
X151310000Y-102700000D02*
X151310000Y-100700000D01*
X152510000Y-102700000D02*
X151310000Y-102700000D01*
X152510000Y-100700000D02*
X152510000Y-102700000D01*
X151310000Y-100700000D02*
X152510000Y-100700000D01*
X155640000Y-102700000D02*
X155640000Y-100700000D01*
X156840000Y-102700000D02*
X155640000Y-102700000D01*
X156840000Y-100700000D02*
X156840000Y-102700000D01*
X155640000Y-100700000D02*
X156840000Y-100700000D01*
X157640000Y-102700000D02*
X157640000Y-100700000D01*
X158840000Y-102700000D02*
X157640000Y-102700000D01*
X158840000Y-100700000D02*
X158840000Y-102700000D01*
X157640000Y-100700000D02*
X158840000Y-100700000D01*
X159640000Y-102690000D02*
X159640000Y-100690000D01*
X160840000Y-102690000D02*
X159640000Y-102690000D01*
X160840000Y-100690000D02*
X160840000Y-102690000D01*
X159640000Y-100690000D02*
X160840000Y-100690000D01*
X161640000Y-102690000D02*
X161640000Y-100690000D01*
X162840000Y-102690000D02*
X161640000Y-102690000D01*
X162840000Y-100690000D02*
X162840000Y-102690000D01*
X161640000Y-100690000D02*
X162840000Y-100690000D01*
X165960000Y-102680000D02*
X165960000Y-100680000D01*
X167160000Y-102680000D02*
X165960000Y-102680000D01*
X167160000Y-100680000D02*
X167160000Y-102680000D01*
X165960000Y-100680000D02*
X167160000Y-100680000D01*
X167960000Y-102690000D02*
X167960000Y-100690000D01*
X169160000Y-102690000D02*
X167960000Y-102690000D01*
X169160000Y-100690000D02*
X169160000Y-102690000D01*
X167960000Y-100690000D02*
X169160000Y-100690000D01*
X169960000Y-102690000D02*
X169960000Y-100690000D01*
X171160000Y-102690000D02*
X169960000Y-102690000D01*
X171160000Y-100690000D02*
X171160000Y-102690000D01*
X169960000Y-100690000D02*
X171160000Y-100690000D01*
X171950000Y-102680000D02*
X171950000Y-100680000D01*
X173150000Y-102680000D02*
X171950000Y-102680000D01*
X173150000Y-100680000D02*
X173150000Y-102680000D01*
X171950000Y-100680000D02*
X173150000Y-100680000D01*
X135670000Y-54240000D02*
X133670000Y-54240000D01*
X135670000Y-53040000D02*
X135670000Y-54240000D01*
X133670000Y-53040000D02*
X135670000Y-53040000D01*
X133670000Y-54240000D02*
X133670000Y-53040000D01*
X176700000Y-99860000D02*
X176700000Y-101260000D01*
X179740000Y-101260000D02*
X176700000Y-101260000D01*
X179170000Y-99860000D02*
X179740000Y-100410000D01*
X179740000Y-100410000D02*
X179740000Y-101260000D01*
X179170000Y-99860000D02*
X176720000Y-99860000D01*
X150090000Y-98010000D02*
X149590000Y-97510000D01*
X155590000Y-98010000D02*
X150090000Y-98010000D01*
X155590000Y-96010000D02*
X155590000Y-98010000D01*
X149590000Y-96010000D02*
X155590000Y-96010000D01*
X149590000Y-97510000D02*
X149590000Y-96010000D01*
X191060000Y-77955000D02*
X191695000Y-77320000D01*
X191060000Y-107800000D02*
X191060000Y-77955000D01*
X193600000Y-107800000D02*
X191060000Y-107800000D01*
X193600000Y-77320000D02*
X193600000Y-107800000D01*
X191695000Y-77320000D02*
X193600000Y-77320000D01*
X183310000Y-77965000D02*
X183945000Y-77330000D01*
X183310000Y-107810000D02*
X183310000Y-77965000D01*
X185850000Y-107810000D02*
X183310000Y-107810000D01*
X185850000Y-77330000D02*
X185850000Y-107810000D01*
X183945000Y-77330000D02*
X185850000Y-77330000D01*
X158060000Y-58930000D02*
X156460000Y-58930000D01*
X158060000Y-58130000D02*
X158060000Y-58930000D01*
X156460000Y-58130000D02*
X158060000Y-58130000D01*
X156460000Y-58930000D02*
X156460000Y-58130000D01*
X186900000Y-133480000D02*
X186900000Y-139480000D01*
X186260000Y-133480000D02*
X186260000Y-139480000D01*
X186260000Y-139480000D02*
X186900000Y-139480000D01*
X183720000Y-126580000D02*
X184360000Y-126580000D01*
X184360000Y-126580000D02*
X184360000Y-130940000D01*
X183720000Y-133480000D02*
X183720000Y-139480000D01*
X183720000Y-139480000D02*
X184360000Y-139480000D01*
X184360000Y-133480000D02*
X184360000Y-139480000D01*
X186260000Y-126580000D02*
X186260000Y-130940000D01*
X186260000Y-126580000D02*
X186900000Y-126580000D01*
X186900000Y-126580000D02*
X186900000Y-130940000D01*
X175150000Y-131575000D02*
X175150000Y-133480000D01*
X175150000Y-133480000D02*
X187850000Y-133480000D01*
X187850000Y-133480000D02*
X187850000Y-130940000D01*
X187850000Y-130940000D02*
X175785000Y-130940000D01*
X175785000Y-130940000D02*
X175150000Y-131575000D01*
X176100000Y-126580000D02*
X176100000Y-130940000D01*
X176100000Y-126580000D02*
X176740000Y-126580000D01*
X176740000Y-126580000D02*
X176740000Y-130940000D01*
X176100000Y-133480000D02*
X176100000Y-139480000D01*
X176100000Y-139480000D02*
X176740000Y-139480000D01*
X176740000Y-133480000D02*
X176740000Y-139480000D01*
X178640000Y-126580000D02*
X178640000Y-130940000D01*
X178640000Y-126580000D02*
X179280000Y-126580000D01*
X181180000Y-126580000D02*
X181820000Y-126580000D01*
X181820000Y-126580000D02*
X181820000Y-130940000D01*
X181180000Y-133480000D02*
X181180000Y-139480000D01*
X181180000Y-139480000D02*
X181820000Y-139480000D01*
X181820000Y-133480000D02*
X181820000Y-139480000D01*
X183720000Y-126580000D02*
X183720000Y-130940000D01*
X179280000Y-126580000D02*
X179280000Y-130940000D01*
X178640000Y-133480000D02*
X178640000Y-139480000D01*
X178640000Y-139480000D02*
X179280000Y-139480000D01*
X179280000Y-133480000D02*
X179280000Y-139480000D01*
X181180000Y-126580000D02*
X181180000Y-130940000D01*
X175150000Y-129440000D02*
X175150000Y-125630000D01*
X175150000Y-125630000D02*
X187850000Y-125630000D01*
X187850000Y-125630000D02*
X187850000Y-130710000D01*
X187850000Y-130710000D02*
X176420000Y-130710000D01*
X176420000Y-130710000D02*
X175150000Y-129440000D01*
D11*
X100099000Y-70528000D02*
G75*
G03X100099000Y-70528000I-100000J0D01*
G01*
D12*
X101100000Y-61385000D02*
X112500000Y-61385000D01*
X101100000Y-73335000D02*
X101100000Y-61385000D01*
X112500000Y-73335000D02*
X101100000Y-73335000D01*
X112500000Y-61385000D02*
X112500000Y-73335000D01*
D10*
X153200000Y-64530000D02*
X152200000Y-65530000D01*
X153200000Y-51530000D02*
X153200000Y-64530000D01*
X139200000Y-51530000D02*
X153200000Y-51530000D01*
X139200000Y-65530000D02*
X139200000Y-51530000D01*
X152200000Y-65530000D02*
X139200000Y-65530000D01*
X169970000Y-61650000D02*
X171970000Y-61650000D01*
X169970000Y-62850000D02*
X169970000Y-61650000D01*
X171970000Y-62850000D02*
X169970000Y-62850000D01*
X171970000Y-61650000D02*
X171970000Y-62850000D01*
X169575000Y-73367000D02*
X170575000Y-74367000D01*
D13*
X100905000Y-51305000D02*
X105105000Y-51305000D01*
X105855000Y-52105000D02*
X105855000Y-58805000D01*
X105855000Y-58805000D02*
X100905000Y-58805000D01*
X100905000Y-58805000D02*
X100905000Y-51305000D01*
X105105000Y-51305000D02*
X105855000Y-52105000D01*
D10*
X178005000Y-117010000D02*
X178980000Y-117985000D01*
X174080000Y-117010000D02*
X178005000Y-117010000D01*
X174080000Y-120910000D02*
X174080000Y-117010000D01*
X178980000Y-120910000D02*
X174080000Y-120910000D01*
X178980000Y-117985000D02*
X178980000Y-120910000D01*
X174680000Y-113860000D02*
X176280000Y-113860000D01*
X174680000Y-114660000D02*
X174680000Y-113860000D01*
X176280000Y-114660000D02*
X174680000Y-114660000D01*
X176280000Y-113860000D02*
X176280000Y-114660000D01*
X133000000Y-50310000D02*
X133500000Y-49810000D01*
X132300000Y-48310000D02*
X132300000Y-50310000D01*
X133500000Y-48310000D02*
X132300000Y-48310000D01*
X133500000Y-50310000D02*
X133500000Y-48310000D01*
X132300000Y-50310000D02*
X133500000Y-50310000D01*
X165600000Y-55250000D02*
X164850000Y-56000000D01*
X165600000Y-53000000D02*
X165600000Y-55250000D01*
X162600000Y-53000000D02*
X165600000Y-53000000D01*
X162600000Y-56000000D02*
X162600000Y-53000000D01*
X164850000Y-56000000D02*
X162600000Y-56000000D01*
X128520000Y-51110000D02*
X129520000Y-50110000D01*
X127220000Y-51110000D02*
X127020000Y-50910000D01*
X129320000Y-51110000D02*
X127220000Y-51110000D01*
X129520000Y-50910000D02*
X129320000Y-51110000D01*
X129520000Y-48110000D02*
X129520000Y-50910000D01*
X129320000Y-47910000D02*
X129520000Y-48110000D01*
X127220000Y-47910000D02*
X129320000Y-47910000D01*
X127020000Y-48110000D02*
X127220000Y-47910000D01*
X127020000Y-50910000D02*
X127020000Y-48110000D01*
X110650000Y-58490000D02*
X110650000Y-51890000D01*
X116650000Y-58490000D02*
X110650000Y-58490000D01*
X116650000Y-51890000D02*
X116650000Y-58490000D01*
X110650000Y-51890000D02*
X116650000Y-51890000D01*
X115300000Y-55190000D02*
G75*
G03X115300000Y-55190000I-1650000J0D01*
G01*
X163600000Y-47300000D02*
X163600000Y-49300000D01*
X162400000Y-47300000D02*
X163600000Y-47300000D01*
X162400000Y-49300000D02*
X162400000Y-47300000D01*
X163600000Y-49300000D02*
X162400000Y-49300000D01*
X172480000Y-47850000D02*
X170480000Y-47850000D01*
X172480000Y-46650000D02*
X172480000Y-47850000D01*
X170480000Y-46650000D02*
X172480000Y-46650000D01*
X170480000Y-47850000D02*
X170480000Y-46650000D01*
X120280000Y-55020000D02*
X122280000Y-55020000D01*
X120280000Y-56220000D02*
X120280000Y-55020000D01*
X122280000Y-56220000D02*
X120280000Y-56220000D01*
X122280000Y-55020000D02*
X122280000Y-56220000D01*
X120350000Y-57230000D02*
X122350000Y-57230000D01*
X120350000Y-58430000D02*
X120350000Y-57230000D01*
X122350000Y-58430000D02*
X120350000Y-58430000D01*
X122350000Y-57230000D02*
X122350000Y-58430000D01*
X164390000Y-48730000D02*
X164390000Y-47130000D01*
X165190000Y-48730000D02*
X164390000Y-48730000D01*
X165190000Y-47130000D02*
X165190000Y-48730000D01*
X164390000Y-47130000D02*
X165190000Y-47130000D01*
X170490000Y-48620000D02*
X172490000Y-48620000D01*
X170490000Y-49820000D02*
X170490000Y-48620000D01*
X172490000Y-49820000D02*
X170490000Y-49820000D01*
X172490000Y-48620000D02*
X172490000Y-49820000D01*
X167970000Y-49300000D02*
X167970000Y-47300000D01*
X169170000Y-49300000D02*
X167970000Y-49300000D01*
X169170000Y-47300000D02*
X169170000Y-49300000D01*
X167970000Y-47300000D02*
X169170000Y-47300000D01*
X165960000Y-49300000D02*
X165960000Y-47300000D01*
X167160000Y-49300000D02*
X165960000Y-49300000D01*
X167160000Y-47300000D02*
X167160000Y-49300000D01*
X165960000Y-47300000D02*
X167160000Y-47300000D01*
X188730000Y-118580000D02*
X182130000Y-118580000D01*
X188730000Y-112580000D02*
X188730000Y-118580000D01*
X182130000Y-112580000D02*
X188730000Y-112580000D01*
X182130000Y-118580000D02*
X182130000Y-112580000D01*
X187080000Y-115580000D02*
G75*
G03X187080000Y-115580000I-1650000J0D01*
G01*
X176780000Y-110080000D02*
X175780000Y-109080000D01*
X176780000Y-111480000D02*
X176680000Y-111580000D01*
X176780000Y-109180000D02*
X176780000Y-111480000D01*
X176680000Y-109080000D02*
X176780000Y-109180000D01*
X173680000Y-109080000D02*
X176680000Y-109080000D01*
X173580000Y-109180000D02*
X173680000Y-109080000D01*
X173580000Y-111480000D02*
X173580000Y-109180000D01*
X173680000Y-111580000D02*
X173580000Y-111480000D01*
X176680000Y-111580000D02*
X173680000Y-111580000D01*
X165460000Y-126930000D02*
X146460000Y-126930000D01*
X146460000Y-126930000D02*
X146460000Y-106930000D01*
X146460000Y-106930000D02*
X166460000Y-106930000D01*
X166460000Y-106930000D02*
X166460000Y-125930000D01*
X166460000Y-125930000D02*
X165460000Y-126930000D01*
X135380000Y-125970000D02*
X134380000Y-126970000D01*
X135380000Y-106970000D02*
X135380000Y-125970000D01*
X115380000Y-106970000D02*
X135380000Y-106970000D01*
X115380000Y-126970000D02*
X115380000Y-106970000D01*
X134380000Y-126970000D02*
X115380000Y-126970000D01*
X143020000Y-117520000D02*
X143020000Y-119520000D01*
X141820000Y-117520000D02*
X143020000Y-117520000D01*
X141820000Y-119520000D02*
X141820000Y-117520000D01*
X143020000Y-119520000D02*
X141820000Y-119520000D01*
X174320000Y-107140000D02*
X175920000Y-107140000D01*
X174320000Y-107940000D02*
X174320000Y-107140000D01*
X175920000Y-107940000D02*
X174320000Y-107940000D01*
X175920000Y-107140000D02*
X175920000Y-107940000D01*
X112380000Y-95750000D02*
X111380000Y-96750000D01*
X111380000Y-96750000D02*
X102280000Y-96750000D01*
X102280000Y-96750000D02*
X102280000Y-76350000D01*
X102280000Y-76350000D02*
X112380000Y-76350000D01*
X112380000Y-76350000D02*
X112380000Y-95750000D01*
X170635000Y-92416000D02*
X170635000Y-74636000D01*
X119715000Y-92416000D02*
X170635000Y-92416000D01*
X119715000Y-74636000D02*
X119715000Y-92416000D01*
X170635000Y-74636000D02*
X119715000Y-74636000D01*
X169575000Y-76161000D02*
X170575000Y-77161000D01*
X119775000Y-76161000D02*
X169575000Y-76161000D01*
X119775000Y-90891000D02*
X119775000Y-76161000D01*
X170575000Y-90891000D02*
X119775000Y-90891000D01*
X170575000Y-77161000D02*
X170575000Y-90891000D01*
X169990000Y-67700000D02*
X171990000Y-67700000D01*
X169990000Y-68900000D02*
X169990000Y-67700000D01*
X171990000Y-68900000D02*
X169990000Y-68900000D01*
X171990000Y-67700000D02*
X171990000Y-68900000D01*
X169980000Y-63700000D02*
X171980000Y-63700000D01*
X169980000Y-64900000D02*
X169980000Y-63700000D01*
X171980000Y-64900000D02*
X169980000Y-64900000D01*
X171980000Y-63700000D02*
X171980000Y-64900000D01*
X169990000Y-65710000D02*
X171990000Y-65710000D01*
X169990000Y-66910000D02*
X169990000Y-65710000D01*
X171990000Y-66910000D02*
X169990000Y-66910000D01*
X171990000Y-65710000D02*
X171990000Y-66910000D01*
D14*
X163528571Y-54089285D02*
X163528571Y-54696428D01*
X163564285Y-54767857D01*
X163600000Y-54803571D01*
X163671428Y-54839285D01*
X163814285Y-54839285D01*
X163885714Y-54803571D01*
X163921428Y-54767857D01*
X163957142Y-54696428D01*
X163957142Y-54089285D01*
X164635714Y-54089285D02*
X164492857Y-54089285D01*
X164421428Y-54125000D01*
X164385714Y-54160714D01*
X164314285Y-54267857D01*
X164278571Y-54410714D01*
X164278571Y-54696428D01*
X164314285Y-54767857D01*
X164350000Y-54803571D01*
X164421428Y-54839285D01*
X164564285Y-54839285D01*
X164635714Y-54803571D01*
X164671428Y-54767857D01*
X164707142Y-54696428D01*
X164707142Y-54517857D01*
X164671428Y-54446428D01*
X164635714Y-54410714D01*
X164564285Y-54375000D01*
X164421428Y-54375000D01*
X164350000Y-54410714D01*
X164314285Y-54446428D01*
X164278571Y-54517857D01*
D15*
X155698095Y-116382380D02*
X155698095Y-117191904D01*
X155745714Y-117287142D01*
X155793333Y-117334761D01*
X155888571Y-117382380D01*
X156079047Y-117382380D01*
X156174285Y-117334761D01*
X156221904Y-117287142D01*
X156269523Y-117191904D01*
X156269523Y-116382380D01*
X157221904Y-116382380D02*
X156745714Y-116382380D01*
X156698095Y-116858571D01*
X156745714Y-116810952D01*
X156840952Y-116763333D01*
X157079047Y-116763333D01*
X157174285Y-116810952D01*
X157221904Y-116858571D01*
X157269523Y-116953809D01*
X157269523Y-117191904D01*
X157221904Y-117287142D01*
X157174285Y-117334761D01*
X157079047Y-117382380D01*
X156840952Y-117382380D01*
X156745714Y-117334761D01*
X156698095Y-117287142D01*
X124618095Y-116422380D02*
X124618095Y-117231904D01*
X124665714Y-117327142D01*
X124713333Y-117374761D01*
X124808571Y-117422380D01*
X124999047Y-117422380D01*
X125094285Y-117374761D01*
X125141904Y-117327142D01*
X125189523Y-117231904D01*
X125189523Y-116422380D01*
X126094285Y-116755714D02*
X126094285Y-117422380D01*
X125856190Y-116374761D02*
X125618095Y-117089047D01*
X126237142Y-117089047D01*
M02*
