G04 #@! TF.GenerationSoftware,KiCad,Pcbnew,(5.1.2-1)-1*
G04 #@! TF.CreationDate,2020-07-08T23:16:21+01:00*
G04 #@! TF.ProjectId,tranZPUter-SW,7472616e-5a50-4557-9465-722d53572e6b,rev?*
G04 #@! TF.SameCoordinates,Original*
G04 #@! TF.FileFunction,Other,User*
%FSLAX46Y46*%
G04 Gerber Fmt 4.6, Leading zero omitted, Abs format (unit mm)*
G04 Created by KiCad (PCBNEW (5.1.2-1)-1) date 2020-07-08 23:16:21*
%MOMM*%
%LPD*%
G04 APERTURE LIST*
%ADD10C,0.050000*%
G04 APERTURE END LIST*
D10*
X154995000Y-141290000D02*
X158695000Y-141290000D01*
X154995000Y-143190000D02*
X154995000Y-141290000D01*
X158695000Y-143190000D02*
X154995000Y-143190000D01*
X158695000Y-141290000D02*
X158695000Y-143190000D01*
X119285000Y-101070000D02*
X113135000Y-101070000D01*
X119285000Y-114820000D02*
X119285000Y-101070000D01*
X113135000Y-114820000D02*
X119285000Y-114820000D01*
X113135000Y-101070000D02*
X113135000Y-114820000D01*
X153001000Y-114179000D02*
X153001000Y-105029000D01*
X151601000Y-114179000D02*
X153001000Y-114179000D01*
X151601000Y-115279000D02*
X151601000Y-114179000D01*
X150501000Y-115279000D02*
X151601000Y-115279000D01*
X150501000Y-116679000D02*
X150501000Y-115279000D01*
X141351000Y-116679000D02*
X150501000Y-116679000D01*
X129701000Y-114179000D02*
X129701000Y-105029000D01*
X131101000Y-114179000D02*
X129701000Y-114179000D01*
X131101000Y-115279000D02*
X131101000Y-114179000D01*
X132201000Y-115279000D02*
X131101000Y-115279000D01*
X132201000Y-116679000D02*
X132201000Y-115279000D01*
X141351000Y-116679000D02*
X132201000Y-116679000D01*
X153001000Y-95879000D02*
X153001000Y-105029000D01*
X151601000Y-95879000D02*
X153001000Y-95879000D01*
X151601000Y-94779000D02*
X151601000Y-95879000D01*
X150501000Y-94779000D02*
X151601000Y-94779000D01*
X150501000Y-93379000D02*
X150501000Y-94779000D01*
X141351000Y-93379000D02*
X150501000Y-93379000D01*
X129701000Y-95879000D02*
X129701000Y-105029000D01*
X131101000Y-95879000D02*
X129701000Y-95879000D01*
X131101000Y-94779000D02*
X131101000Y-95879000D01*
X132201000Y-94779000D02*
X131101000Y-94779000D01*
X132201000Y-93379000D02*
X132201000Y-94779000D01*
X141351000Y-93379000D02*
X132201000Y-93379000D01*
X119573000Y-108403000D02*
X119573000Y-104703000D01*
X121473000Y-108403000D02*
X119573000Y-108403000D01*
X121473000Y-104703000D02*
X121473000Y-108403000D01*
X119573000Y-104703000D02*
X121473000Y-104703000D01*
X115885000Y-96956000D02*
X115885000Y-100656000D01*
X113985000Y-96956000D02*
X115885000Y-96956000D01*
X113985000Y-100656000D02*
X113985000Y-96956000D01*
X115885000Y-100656000D02*
X113985000Y-100656000D01*
X158654000Y-114259000D02*
X172054000Y-114259000D01*
X158654000Y-93259000D02*
X172054000Y-93259000D01*
X172054000Y-93259000D02*
X172054000Y-114259000D01*
X158654000Y-93259000D02*
X158654000Y-114259000D01*
X118723000Y-90900000D02*
X118723000Y-97050000D01*
X127373000Y-90900000D02*
X118723000Y-90900000D01*
X127373000Y-97050000D02*
X127373000Y-90900000D01*
X118723000Y-97050000D02*
X127373000Y-97050000D01*
X170024000Y-143111000D02*
X173384000Y-143111000D01*
X170024000Y-144671000D02*
X170024000Y-143111000D01*
X173384000Y-144671000D02*
X170024000Y-144671000D01*
X173384000Y-143111000D02*
X173384000Y-144671000D01*
X152853000Y-143190000D02*
X149153000Y-143190000D01*
X152853000Y-141290000D02*
X152853000Y-143190000D01*
X149153000Y-141290000D02*
X152853000Y-141290000D01*
X149153000Y-143190000D02*
X149153000Y-141290000D01*
X198156000Y-93015000D02*
X179806000Y-93015000D01*
X198156000Y-144465000D02*
X198156000Y-93015000D01*
X179806000Y-144465000D02*
X198156000Y-144465000D01*
X179806000Y-93015000D02*
X179806000Y-144465000D01*
X130230000Y-141290000D02*
X133930000Y-141290000D01*
X130230000Y-143190000D02*
X130230000Y-141290000D01*
X133930000Y-143190000D02*
X130230000Y-143190000D01*
X133930000Y-141290000D02*
X133930000Y-143190000D01*
X135310000Y-141290000D02*
X139010000Y-141290000D01*
X135310000Y-143190000D02*
X135310000Y-141290000D01*
X139010000Y-143190000D02*
X135310000Y-143190000D01*
X139010000Y-141290000D02*
X139010000Y-143190000D01*
X164012000Y-120208000D02*
X167712000Y-120208000D01*
X164012000Y-122108000D02*
X164012000Y-120208000D01*
X167712000Y-122108000D02*
X164012000Y-122108000D01*
X167712000Y-120208000D02*
X167712000Y-122108000D01*
X162759000Y-143190000D02*
X159059000Y-143190000D01*
X162759000Y-141290000D02*
X162759000Y-143190000D01*
X159059000Y-141290000D02*
X162759000Y-141290000D01*
X159059000Y-143190000D02*
X159059000Y-141290000D01*
X143455000Y-143190000D02*
X139755000Y-143190000D01*
X143455000Y-141290000D02*
X143455000Y-143190000D01*
X139755000Y-141290000D02*
X143455000Y-141290000D01*
X139755000Y-143190000D02*
X139755000Y-141290000D01*
X191842000Y-135062000D02*
X188142000Y-135062000D01*
X191842000Y-133162000D02*
X191842000Y-135062000D01*
X188142000Y-133162000D02*
X191842000Y-133162000D01*
X188142000Y-135062000D02*
X188142000Y-133162000D01*
X117512000Y-144399000D02*
G75*
G03X117512000Y-144399000I-2450000J0D01*
G01*
X117512000Y-92964000D02*
G75*
G03X117512000Y-92964000I-2450000J0D01*
G01*
X176729000Y-120965000D02*
X173029000Y-120965000D01*
X176729000Y-119065000D02*
X176729000Y-120965000D01*
X173029000Y-119065000D02*
X176729000Y-119065000D01*
X173029000Y-120965000D02*
X173029000Y-119065000D01*
X174574000Y-140625000D02*
X174574000Y-122275000D01*
X112974000Y-140625000D02*
X174574000Y-140625000D01*
X112974000Y-122275000D02*
X112974000Y-140625000D01*
X174574000Y-122275000D02*
X112974000Y-122275000D01*
X173681000Y-142809000D02*
X169981000Y-142809000D01*
X173681000Y-140909000D02*
X173681000Y-142809000D01*
X169981000Y-140909000D02*
X173681000Y-140909000D01*
X169981000Y-142809000D02*
X169981000Y-140909000D01*
X182935000Y-119065000D02*
X186635000Y-119065000D01*
X182935000Y-120965000D02*
X182935000Y-119065000D01*
X186635000Y-120965000D02*
X182935000Y-120965000D01*
X186635000Y-119065000D02*
X186635000Y-120965000D01*
X167712000Y-93152000D02*
X164012000Y-93152000D01*
X167712000Y-91252000D02*
X167712000Y-93152000D01*
X164012000Y-91252000D02*
X167712000Y-91252000D01*
X164012000Y-93152000D02*
X164012000Y-91252000D01*
M02*
