G04 #@! TF.GenerationSoftware,KiCad,Pcbnew,(5.1.2-1)-1*
G04 #@! TF.CreationDate,2020-07-08T23:16:21+01:00*
G04 #@! TF.ProjectId,tranZPUter-SW,7472616e-5a50-4557-9465-722d53572e6b,rev?*
G04 #@! TF.SameCoordinates,Original*
G04 #@! TF.FileFunction,Other,User*
%FSLAX46Y46*%
G04 Gerber Fmt 4.6, Leading zero omitted, Abs format (unit mm)*
G04 Created by KiCad (PCBNEW (5.1.2-1)-1) date 2020-07-08 23:16:21*
%MOMM*%
%LPD*%
G04 APERTURE LIST*
%ADD10C,0.050000*%
G04 APERTURE END LIST*
D10*
X191179000Y-118319000D02*
X183979000Y-118319000D01*
X183979000Y-118319000D02*
X183979000Y-109519000D01*
X183979000Y-109519000D02*
X191179000Y-109519000D01*
X191179000Y-109519000D02*
X191179000Y-118319000D01*
X188826000Y-123481000D02*
X188826000Y-118581000D01*
X186586000Y-123481000D02*
X188826000Y-123481000D01*
X186586000Y-118581000D02*
X186586000Y-123481000D01*
X188826000Y-118581000D02*
X186586000Y-118581000D01*
X186286000Y-123444000D02*
X186286000Y-118544000D01*
X184046000Y-123444000D02*
X186286000Y-123444000D01*
X184046000Y-118544000D02*
X184046000Y-123444000D01*
X186286000Y-118544000D02*
X184046000Y-118544000D01*
X137751000Y-100235000D02*
X134791000Y-100235000D01*
X137751000Y-101695000D02*
X137751000Y-100235000D01*
X134791000Y-101695000D02*
X137751000Y-101695000D01*
X134791000Y-100235000D02*
X134791000Y-101695000D01*
X144951000Y-109442000D02*
X147911000Y-109442000D01*
X144951000Y-107982000D02*
X144951000Y-109442000D01*
X147911000Y-107982000D02*
X144951000Y-107982000D01*
X147911000Y-109442000D02*
X147911000Y-107982000D01*
X140303000Y-101683000D02*
X140303000Y-98723000D01*
X138843000Y-101683000D02*
X140303000Y-101683000D01*
X138843000Y-98723000D02*
X138843000Y-101683000D01*
X140303000Y-98723000D02*
X138843000Y-98723000D01*
X144951000Y-110966000D02*
X147911000Y-110966000D01*
X144951000Y-109506000D02*
X144951000Y-110966000D01*
X147911000Y-109506000D02*
X144951000Y-109506000D01*
X147911000Y-110966000D02*
X147911000Y-109506000D01*
X144951000Y-105124000D02*
X147911000Y-105124000D01*
X144951000Y-103664000D02*
X144951000Y-105124000D01*
X147911000Y-103664000D02*
X144951000Y-103664000D01*
X147911000Y-105124000D02*
X147911000Y-103664000D01*
X146907000Y-101683000D02*
X146907000Y-98723000D01*
X145447000Y-101683000D02*
X146907000Y-101683000D01*
X145447000Y-98723000D02*
X145447000Y-101683000D01*
X146907000Y-98723000D02*
X145447000Y-98723000D01*
X143605000Y-101683000D02*
X143605000Y-98723000D01*
X142145000Y-101683000D02*
X143605000Y-101683000D01*
X142145000Y-98723000D02*
X142145000Y-101683000D01*
X143605000Y-98723000D02*
X142145000Y-98723000D01*
X137878000Y-107093000D02*
X134918000Y-107093000D01*
X137878000Y-108553000D02*
X137878000Y-107093000D01*
X134918000Y-108553000D02*
X137878000Y-108553000D01*
X134918000Y-107093000D02*
X134918000Y-108553000D01*
X138335000Y-107994000D02*
X138335000Y-110954000D01*
X139795000Y-107994000D02*
X138335000Y-107994000D01*
X139795000Y-110954000D02*
X139795000Y-107994000D01*
X138335000Y-110954000D02*
X139795000Y-110954000D01*
X139986000Y-107994000D02*
X139986000Y-110954000D01*
X141446000Y-107994000D02*
X139986000Y-107994000D01*
X141446000Y-110954000D02*
X141446000Y-107994000D01*
X139986000Y-110954000D02*
X141446000Y-110954000D01*
X142399000Y-107994000D02*
X142399000Y-110954000D01*
X143859000Y-107994000D02*
X142399000Y-107994000D01*
X143859000Y-110954000D02*
X143859000Y-107994000D01*
X142399000Y-110954000D02*
X143859000Y-110954000D01*
X140709543Y-133409579D02*
G75*
G02X143513000Y-133411000I1403457J3408579D01*
G01*
X140713000Y-133411000D02*
X140713000Y-136251000D01*
X140713000Y-136251000D02*
X143513000Y-136251000D01*
X143513000Y-136251000D02*
X143513000Y-133411000D01*
M02*
