G04 #@! TF.GenerationSoftware,KiCad,Pcbnew,(5.1.2-1)-1*
G04 #@! TF.CreationDate,2020-07-08T23:16:20+01:00*
G04 #@! TF.ProjectId,tranZPUter-SW,7472616e-5a50-4557-9465-722d53572e6b,rev?*
G04 #@! TF.SameCoordinates,Original*
G04 #@! TF.FileFunction,Legend,Bot*
G04 #@! TF.FilePolarity,Positive*
%FSLAX46Y46*%
G04 Gerber Fmt 4.6, Leading zero omitted, Abs format (unit mm)*
G04 Created by KiCad (PCBNEW (5.1.2-1)-1) date 2020-07-08 23:16:20*
%MOMM*%
%LPD*%
G04 APERTURE LIST*
%ADD10C,0.150000*%
%ADD11C,0.120000*%
%ADD12C,0.100000*%
G04 APERTURE END LIST*
D10*
X188801190Y-108164380D02*
X188182142Y-108164380D01*
X188515476Y-108545333D01*
X188372619Y-108545333D01*
X188277380Y-108592952D01*
X188229761Y-108640571D01*
X188182142Y-108735809D01*
X188182142Y-108973904D01*
X188229761Y-109069142D01*
X188277380Y-109116761D01*
X188372619Y-109164380D01*
X188658333Y-109164380D01*
X188753571Y-109116761D01*
X188801190Y-109069142D01*
X187753571Y-109069142D02*
X187705952Y-109116761D01*
X187753571Y-109164380D01*
X187801190Y-109116761D01*
X187753571Y-109069142D01*
X187753571Y-109164380D01*
X187372619Y-108164380D02*
X186753571Y-108164380D01*
X187086904Y-108545333D01*
X186944047Y-108545333D01*
X186848809Y-108592952D01*
X186801190Y-108640571D01*
X186753571Y-108735809D01*
X186753571Y-108973904D01*
X186801190Y-109069142D01*
X186848809Y-109116761D01*
X186944047Y-109164380D01*
X187229761Y-109164380D01*
X187325000Y-109116761D01*
X187372619Y-109069142D01*
X186467857Y-108164380D02*
X186134523Y-109164380D01*
X185801190Y-108164380D01*
D11*
X199771000Y-147320000D02*
X199771000Y-90170000D01*
X112141000Y-147320000D02*
X199771000Y-147320000D01*
X112141000Y-90170000D02*
X112141000Y-147320000D01*
X199771000Y-90170000D02*
X112141000Y-90170000D01*
X195072000Y-93218000D02*
X177292000Y-93218000D01*
D10*
X192459952Y-141057380D02*
X191793285Y-141057380D01*
X192459952Y-142057380D01*
X191793285Y-142057380D01*
X191269476Y-141485952D02*
X191364714Y-141438333D01*
X191412333Y-141390714D01*
X191459952Y-141295476D01*
X191459952Y-141247857D01*
X191412333Y-141152619D01*
X191364714Y-141105000D01*
X191269476Y-141057380D01*
X191079000Y-141057380D01*
X190983761Y-141105000D01*
X190936142Y-141152619D01*
X190888523Y-141247857D01*
X190888523Y-141295476D01*
X190936142Y-141390714D01*
X190983761Y-141438333D01*
X191079000Y-141485952D01*
X191269476Y-141485952D01*
X191364714Y-141533571D01*
X191412333Y-141581190D01*
X191459952Y-141676428D01*
X191459952Y-141866904D01*
X191412333Y-141962142D01*
X191364714Y-142009761D01*
X191269476Y-142057380D01*
X191079000Y-142057380D01*
X190983761Y-142009761D01*
X190936142Y-141962142D01*
X190888523Y-141866904D01*
X190888523Y-141676428D01*
X190936142Y-141581190D01*
X190983761Y-141533571D01*
X191079000Y-141485952D01*
X190269476Y-141057380D02*
X190174238Y-141057380D01*
X190079000Y-141105000D01*
X190031380Y-141152619D01*
X189983761Y-141247857D01*
X189936142Y-141438333D01*
X189936142Y-141676428D01*
X189983761Y-141866904D01*
X190031380Y-141962142D01*
X190079000Y-142009761D01*
X190174238Y-142057380D01*
X190269476Y-142057380D01*
X190364714Y-142009761D01*
X190412333Y-141962142D01*
X190459952Y-141866904D01*
X190507571Y-141676428D01*
X190507571Y-141438333D01*
X190459952Y-141247857D01*
X190412333Y-141152619D01*
X190364714Y-141105000D01*
X190269476Y-141057380D01*
X188745666Y-141533571D02*
X188412333Y-141533571D01*
X188269476Y-142057380D02*
X188745666Y-142057380D01*
X188745666Y-141057380D01*
X188269476Y-141057380D01*
X187936142Y-142057380D02*
X187412333Y-141390714D01*
X187936142Y-141390714D02*
X187412333Y-142057380D01*
X187174238Y-141390714D02*
X186793285Y-141390714D01*
X187031380Y-141057380D02*
X187031380Y-141914523D01*
X186983761Y-142009761D01*
X186888523Y-142057380D01*
X186793285Y-142057380D01*
X186079000Y-142009761D02*
X186174238Y-142057380D01*
X186364714Y-142057380D01*
X186459952Y-142009761D01*
X186507571Y-141914523D01*
X186507571Y-141533571D01*
X186459952Y-141438333D01*
X186364714Y-141390714D01*
X186174238Y-141390714D01*
X186079000Y-141438333D01*
X186031380Y-141533571D01*
X186031380Y-141628809D01*
X186507571Y-141724047D01*
X185602809Y-141390714D02*
X185602809Y-142057380D01*
X185602809Y-141485952D02*
X185555190Y-141438333D01*
X185459952Y-141390714D01*
X185317095Y-141390714D01*
X185221857Y-141438333D01*
X185174238Y-141533571D01*
X185174238Y-142057380D01*
X184269476Y-142057380D02*
X184269476Y-141057380D01*
X184269476Y-142009761D02*
X184364714Y-142057380D01*
X184555190Y-142057380D01*
X184650428Y-142009761D01*
X184698047Y-141962142D01*
X184745666Y-141866904D01*
X184745666Y-141581190D01*
X184698047Y-141485952D01*
X184650428Y-141438333D01*
X184555190Y-141390714D01*
X184364714Y-141390714D01*
X184269476Y-141438333D01*
X183412333Y-142009761D02*
X183507571Y-142057380D01*
X183698047Y-142057380D01*
X183793285Y-142009761D01*
X183840904Y-141914523D01*
X183840904Y-141533571D01*
X183793285Y-141438333D01*
X183698047Y-141390714D01*
X183507571Y-141390714D01*
X183412333Y-141438333D01*
X183364714Y-141533571D01*
X183364714Y-141628809D01*
X183840904Y-141724047D01*
X182936142Y-142057380D02*
X182936142Y-141390714D01*
X182936142Y-141581190D02*
X182888523Y-141485952D01*
X182840904Y-141438333D01*
X182745666Y-141390714D01*
X182650428Y-141390714D01*
D11*
X195072000Y-144272000D02*
X195072000Y-93218000D01*
X177292000Y-144272000D02*
X195072000Y-144272000D01*
X177292000Y-93218000D02*
X177292000Y-144272000D01*
D10*
X138620428Y-126944380D02*
X138953761Y-126468190D01*
X139191857Y-126944380D02*
X139191857Y-125944380D01*
X138810904Y-125944380D01*
X138715666Y-125992000D01*
X138668047Y-126039619D01*
X138620428Y-126134857D01*
X138620428Y-126277714D01*
X138668047Y-126372952D01*
X138715666Y-126420571D01*
X138810904Y-126468190D01*
X139191857Y-126468190D01*
X138334714Y-125944380D02*
X137763285Y-125944380D01*
X138049000Y-126944380D02*
X138049000Y-125944380D01*
X136858523Y-126849142D02*
X136906142Y-126896761D01*
X137049000Y-126944380D01*
X137144238Y-126944380D01*
X137287095Y-126896761D01*
X137382333Y-126801523D01*
X137429952Y-126706285D01*
X137477571Y-126515809D01*
X137477571Y-126372952D01*
X137429952Y-126182476D01*
X137382333Y-126087238D01*
X137287095Y-125992000D01*
X137144238Y-125944380D01*
X137049000Y-125944380D01*
X136906142Y-125992000D01*
X136858523Y-126039619D01*
D11*
X241046000Y-109347000D02*
X240919000Y-109347000D01*
D10*
X142894857Y-137858428D02*
X142894857Y-136715571D01*
X142049428Y-137394857D02*
X140906571Y-137394857D01*
X141478000Y-137970095D02*
X141478000Y-136819619D01*
D11*
X190989000Y-118019000D02*
X190989000Y-112009000D01*
X184169000Y-115769000D02*
X184169000Y-112009000D01*
X190989000Y-112009000D02*
X189729000Y-112009000D01*
X184169000Y-112009000D02*
X185429000Y-112009000D01*
X188616000Y-120428936D02*
X188616000Y-121633064D01*
X186796000Y-120428936D02*
X186796000Y-121633064D01*
X186076000Y-120391936D02*
X186076000Y-121596064D01*
X184256000Y-120391936D02*
X184256000Y-121596064D01*
X136108221Y-100455000D02*
X136433779Y-100455000D01*
X136108221Y-101475000D02*
X136433779Y-101475000D01*
X146593779Y-109222000D02*
X146268221Y-109222000D01*
X146593779Y-108202000D02*
X146268221Y-108202000D01*
X140083000Y-100040221D02*
X140083000Y-100365779D01*
X139063000Y-100040221D02*
X139063000Y-100365779D01*
X146593779Y-110746000D02*
X146268221Y-110746000D01*
X146593779Y-109726000D02*
X146268221Y-109726000D01*
X146593779Y-104904000D02*
X146268221Y-104904000D01*
X146593779Y-103884000D02*
X146268221Y-103884000D01*
X146687000Y-100040221D02*
X146687000Y-100365779D01*
X145667000Y-100040221D02*
X145667000Y-100365779D01*
X143385000Y-100040221D02*
X143385000Y-100365779D01*
X142365000Y-100040221D02*
X142365000Y-100365779D01*
X136235221Y-107313000D02*
X136560779Y-107313000D01*
X136235221Y-108333000D02*
X136560779Y-108333000D01*
X138555000Y-109636779D02*
X138555000Y-109311221D01*
X139575000Y-109636779D02*
X139575000Y-109311221D01*
X140206000Y-109636779D02*
X140206000Y-109311221D01*
X141226000Y-109636779D02*
X141226000Y-109311221D01*
X142619000Y-109636779D02*
X142619000Y-109311221D01*
X143639000Y-109636779D02*
X143639000Y-109311221D01*
X145643000Y-130001000D02*
G75*
G03X145643000Y-130001000I-3530000J0D01*
G01*
D10*
X184784904Y-110196380D02*
X184784904Y-111005904D01*
X184737285Y-111101142D01*
X184689666Y-111148761D01*
X184594428Y-111196380D01*
X184403952Y-111196380D01*
X184308714Y-111148761D01*
X184261095Y-111101142D01*
X184213476Y-111005904D01*
X184213476Y-110196380D01*
X183261095Y-110196380D02*
X183737285Y-110196380D01*
X183784904Y-110672571D01*
X183737285Y-110624952D01*
X183642047Y-110577333D01*
X183403952Y-110577333D01*
X183308714Y-110624952D01*
X183261095Y-110672571D01*
X183213476Y-110767809D01*
X183213476Y-111005904D01*
X183261095Y-111101142D01*
X183308714Y-111148761D01*
X183403952Y-111196380D01*
X183642047Y-111196380D01*
X183737285Y-111148761D01*
X183784904Y-111101142D01*
D12*
X190206000Y-112478333D02*
X189967904Y-112478333D01*
X190253619Y-112621190D02*
X190086952Y-112121190D01*
X189920285Y-112621190D01*
X189753619Y-112621190D02*
X189753619Y-112121190D01*
X189586952Y-112478333D01*
X189420285Y-112121190D01*
X189420285Y-112621190D01*
X189206000Y-112597380D02*
X189134571Y-112621190D01*
X189015523Y-112621190D01*
X188967904Y-112597380D01*
X188944095Y-112573571D01*
X188920285Y-112525952D01*
X188920285Y-112478333D01*
X188944095Y-112430714D01*
X188967904Y-112406904D01*
X189015523Y-112383095D01*
X189110761Y-112359285D01*
X189158380Y-112335476D01*
X189182190Y-112311666D01*
X189206000Y-112264047D01*
X189206000Y-112216428D01*
X189182190Y-112168809D01*
X189158380Y-112145000D01*
X189110761Y-112121190D01*
X188991714Y-112121190D01*
X188920285Y-112145000D01*
X188444095Y-112621190D02*
X188729809Y-112621190D01*
X188586952Y-112621190D02*
X188586952Y-112121190D01*
X188634571Y-112192619D01*
X188682190Y-112240238D01*
X188729809Y-112264047D01*
X187967904Y-112621190D02*
X188253619Y-112621190D01*
X188110761Y-112621190D02*
X188110761Y-112121190D01*
X188158380Y-112192619D01*
X188206000Y-112240238D01*
X188253619Y-112264047D01*
X187491714Y-112621190D02*
X187777428Y-112621190D01*
X187634571Y-112621190D02*
X187634571Y-112121190D01*
X187682190Y-112192619D01*
X187729809Y-112240238D01*
X187777428Y-112264047D01*
X187325047Y-112121190D02*
X186991714Y-112121190D01*
X187206000Y-112621190D01*
X186801238Y-112430714D02*
X186420285Y-112430714D01*
X186229809Y-112121190D02*
X185920285Y-112121190D01*
X186086952Y-112311666D01*
X186015523Y-112311666D01*
X185967904Y-112335476D01*
X185944095Y-112359285D01*
X185920285Y-112406904D01*
X185920285Y-112525952D01*
X185944095Y-112573571D01*
X185967904Y-112597380D01*
X186015523Y-112621190D01*
X186158380Y-112621190D01*
X186206000Y-112597380D01*
X186229809Y-112573571D01*
X185706000Y-112573571D02*
X185682190Y-112597380D01*
X185706000Y-112621190D01*
X185729809Y-112597380D01*
X185706000Y-112573571D01*
X185706000Y-112621190D01*
X185515523Y-112121190D02*
X185206000Y-112121190D01*
X185372666Y-112311666D01*
X185301238Y-112311666D01*
X185253619Y-112335476D01*
X185229809Y-112359285D01*
X185206000Y-112406904D01*
X185206000Y-112525952D01*
X185229809Y-112573571D01*
X185253619Y-112597380D01*
X185301238Y-112621190D01*
X185444095Y-112621190D01*
X185491714Y-112597380D01*
X185515523Y-112573571D01*
X188932333Y-118669571D02*
X188956142Y-118693380D01*
X189027571Y-118717190D01*
X189075190Y-118717190D01*
X189146619Y-118693380D01*
X189194238Y-118645761D01*
X189218047Y-118598142D01*
X189241857Y-118502904D01*
X189241857Y-118431476D01*
X189218047Y-118336238D01*
X189194238Y-118288619D01*
X189146619Y-118241000D01*
X189075190Y-118217190D01*
X189027571Y-118217190D01*
X188956142Y-118241000D01*
X188932333Y-118264809D01*
X188503761Y-118217190D02*
X188599000Y-118217190D01*
X188646619Y-118241000D01*
X188670428Y-118264809D01*
X188718047Y-118336238D01*
X188741857Y-118431476D01*
X188741857Y-118621952D01*
X188718047Y-118669571D01*
X188694238Y-118693380D01*
X188646619Y-118717190D01*
X188551380Y-118717190D01*
X188503761Y-118693380D01*
X188479952Y-118669571D01*
X188456142Y-118621952D01*
X188456142Y-118502904D01*
X188479952Y-118455285D01*
X188503761Y-118431476D01*
X188551380Y-118407666D01*
X188646619Y-118407666D01*
X188694238Y-118431476D01*
X188718047Y-118455285D01*
X188741857Y-118502904D01*
X183979333Y-118669071D02*
X184003142Y-118692880D01*
X184074571Y-118716690D01*
X184122190Y-118716690D01*
X184193619Y-118692880D01*
X184241238Y-118645261D01*
X184265047Y-118597642D01*
X184288857Y-118502404D01*
X184288857Y-118430976D01*
X184265047Y-118335738D01*
X184241238Y-118288119D01*
X184193619Y-118240500D01*
X184122190Y-118216690D01*
X184074571Y-118216690D01*
X184003142Y-118240500D01*
X183979333Y-118264309D01*
X183550761Y-118383357D02*
X183550761Y-118716690D01*
X183669809Y-118192880D02*
X183788857Y-118550023D01*
X183479333Y-118550023D01*
X136592428Y-100127571D02*
X136616238Y-100151380D01*
X136687666Y-100175190D01*
X136735285Y-100175190D01*
X136806714Y-100151380D01*
X136854333Y-100103761D01*
X136878142Y-100056142D01*
X136901952Y-99960904D01*
X136901952Y-99889476D01*
X136878142Y-99794238D01*
X136854333Y-99746619D01*
X136806714Y-99699000D01*
X136735285Y-99675190D01*
X136687666Y-99675190D01*
X136616238Y-99699000D01*
X136592428Y-99722809D01*
X136116238Y-100175190D02*
X136401952Y-100175190D01*
X136259095Y-100175190D02*
X136259095Y-99675190D01*
X136306714Y-99746619D01*
X136354333Y-99794238D01*
X136401952Y-99818047D01*
X135687666Y-99675190D02*
X135782904Y-99675190D01*
X135830523Y-99699000D01*
X135854333Y-99722809D01*
X135901952Y-99794238D01*
X135925761Y-99889476D01*
X135925761Y-100079952D01*
X135901952Y-100127571D01*
X135878142Y-100151380D01*
X135830523Y-100175190D01*
X135735285Y-100175190D01*
X135687666Y-100151380D01*
X135663857Y-100127571D01*
X135640047Y-100079952D01*
X135640047Y-99960904D01*
X135663857Y-99913285D01*
X135687666Y-99889476D01*
X135735285Y-99865666D01*
X135830523Y-99865666D01*
X135878142Y-99889476D01*
X135901952Y-99913285D01*
X135925761Y-99960904D01*
X149038428Y-109017571D02*
X149062238Y-109041380D01*
X149133666Y-109065190D01*
X149181285Y-109065190D01*
X149252714Y-109041380D01*
X149300333Y-108993761D01*
X149324142Y-108946142D01*
X149347952Y-108850904D01*
X149347952Y-108779476D01*
X149324142Y-108684238D01*
X149300333Y-108636619D01*
X149252714Y-108589000D01*
X149181285Y-108565190D01*
X149133666Y-108565190D01*
X149062238Y-108589000D01*
X149038428Y-108612809D01*
X148562238Y-109065190D02*
X148847952Y-109065190D01*
X148705095Y-109065190D02*
X148705095Y-108565190D01*
X148752714Y-108636619D01*
X148800333Y-108684238D01*
X148847952Y-108708047D01*
X148109857Y-108565190D02*
X148347952Y-108565190D01*
X148371761Y-108803285D01*
X148347952Y-108779476D01*
X148300333Y-108755666D01*
X148181285Y-108755666D01*
X148133666Y-108779476D01*
X148109857Y-108803285D01*
X148086047Y-108850904D01*
X148086047Y-108969952D01*
X148109857Y-109017571D01*
X148133666Y-109041380D01*
X148181285Y-109065190D01*
X148300333Y-109065190D01*
X148347952Y-109041380D01*
X148371761Y-109017571D01*
X139894428Y-98603571D02*
X139918238Y-98627380D01*
X139989666Y-98651190D01*
X140037285Y-98651190D01*
X140108714Y-98627380D01*
X140156333Y-98579761D01*
X140180142Y-98532142D01*
X140203952Y-98436904D01*
X140203952Y-98365476D01*
X140180142Y-98270238D01*
X140156333Y-98222619D01*
X140108714Y-98175000D01*
X140037285Y-98151190D01*
X139989666Y-98151190D01*
X139918238Y-98175000D01*
X139894428Y-98198809D01*
X139418238Y-98651190D02*
X139703952Y-98651190D01*
X139561095Y-98651190D02*
X139561095Y-98151190D01*
X139608714Y-98222619D01*
X139656333Y-98270238D01*
X139703952Y-98294047D01*
X138989666Y-98317857D02*
X138989666Y-98651190D01*
X139108714Y-98127380D02*
X139227761Y-98484523D01*
X138918238Y-98484523D01*
X149038428Y-110287571D02*
X149062238Y-110311380D01*
X149133666Y-110335190D01*
X149181285Y-110335190D01*
X149252714Y-110311380D01*
X149300333Y-110263761D01*
X149324142Y-110216142D01*
X149347952Y-110120904D01*
X149347952Y-110049476D01*
X149324142Y-109954238D01*
X149300333Y-109906619D01*
X149252714Y-109859000D01*
X149181285Y-109835190D01*
X149133666Y-109835190D01*
X149062238Y-109859000D01*
X149038428Y-109882809D01*
X148562238Y-110335190D02*
X148847952Y-110335190D01*
X148705095Y-110335190D02*
X148705095Y-109835190D01*
X148752714Y-109906619D01*
X148800333Y-109954238D01*
X148847952Y-109978047D01*
X148395571Y-109835190D02*
X148086047Y-109835190D01*
X148252714Y-110025666D01*
X148181285Y-110025666D01*
X148133666Y-110049476D01*
X148109857Y-110073285D01*
X148086047Y-110120904D01*
X148086047Y-110239952D01*
X148109857Y-110287571D01*
X148133666Y-110311380D01*
X148181285Y-110335190D01*
X148324142Y-110335190D01*
X148371761Y-110311380D01*
X148395571Y-110287571D01*
X146752428Y-103556571D02*
X146776238Y-103580380D01*
X146847666Y-103604190D01*
X146895285Y-103604190D01*
X146966714Y-103580380D01*
X147014333Y-103532761D01*
X147038142Y-103485142D01*
X147061952Y-103389904D01*
X147061952Y-103318476D01*
X147038142Y-103223238D01*
X147014333Y-103175619D01*
X146966714Y-103128000D01*
X146895285Y-103104190D01*
X146847666Y-103104190D01*
X146776238Y-103128000D01*
X146752428Y-103151809D01*
X146276238Y-103604190D02*
X146561952Y-103604190D01*
X146419095Y-103604190D02*
X146419095Y-103104190D01*
X146466714Y-103175619D01*
X146514333Y-103223238D01*
X146561952Y-103247047D01*
X146085761Y-103151809D02*
X146061952Y-103128000D01*
X146014333Y-103104190D01*
X145895285Y-103104190D01*
X145847666Y-103128000D01*
X145823857Y-103151809D01*
X145800047Y-103199428D01*
X145800047Y-103247047D01*
X145823857Y-103318476D01*
X146109571Y-103604190D01*
X145800047Y-103604190D01*
X146498428Y-98603571D02*
X146522238Y-98627380D01*
X146593666Y-98651190D01*
X146641285Y-98651190D01*
X146712714Y-98627380D01*
X146760333Y-98579761D01*
X146784142Y-98532142D01*
X146807952Y-98436904D01*
X146807952Y-98365476D01*
X146784142Y-98270238D01*
X146760333Y-98222619D01*
X146712714Y-98175000D01*
X146641285Y-98151190D01*
X146593666Y-98151190D01*
X146522238Y-98175000D01*
X146498428Y-98198809D01*
X146022238Y-98651190D02*
X146307952Y-98651190D01*
X146165095Y-98651190D02*
X146165095Y-98151190D01*
X146212714Y-98222619D01*
X146260333Y-98270238D01*
X146307952Y-98294047D01*
X145546047Y-98651190D02*
X145831761Y-98651190D01*
X145688904Y-98651190D02*
X145688904Y-98151190D01*
X145736523Y-98222619D01*
X145784142Y-98270238D01*
X145831761Y-98294047D01*
X143196428Y-98603571D02*
X143220238Y-98627380D01*
X143291666Y-98651190D01*
X143339285Y-98651190D01*
X143410714Y-98627380D01*
X143458333Y-98579761D01*
X143482142Y-98532142D01*
X143505952Y-98436904D01*
X143505952Y-98365476D01*
X143482142Y-98270238D01*
X143458333Y-98222619D01*
X143410714Y-98175000D01*
X143339285Y-98151190D01*
X143291666Y-98151190D01*
X143220238Y-98175000D01*
X143196428Y-98198809D01*
X142720238Y-98651190D02*
X143005952Y-98651190D01*
X142863095Y-98651190D02*
X142863095Y-98151190D01*
X142910714Y-98222619D01*
X142958333Y-98270238D01*
X143005952Y-98294047D01*
X142410714Y-98151190D02*
X142363095Y-98151190D01*
X142315476Y-98175000D01*
X142291666Y-98198809D01*
X142267857Y-98246428D01*
X142244047Y-98341666D01*
X142244047Y-98460714D01*
X142267857Y-98555952D01*
X142291666Y-98603571D01*
X142315476Y-98627380D01*
X142363095Y-98651190D01*
X142410714Y-98651190D01*
X142458333Y-98627380D01*
X142482142Y-98603571D01*
X142505952Y-98555952D01*
X142529761Y-98460714D01*
X142529761Y-98341666D01*
X142505952Y-98246428D01*
X142482142Y-98198809D01*
X142458333Y-98175000D01*
X142410714Y-98151190D01*
X136481333Y-106985571D02*
X136505142Y-107009380D01*
X136576571Y-107033190D01*
X136624190Y-107033190D01*
X136695619Y-107009380D01*
X136743238Y-106961761D01*
X136767047Y-106914142D01*
X136790857Y-106818904D01*
X136790857Y-106747476D01*
X136767047Y-106652238D01*
X136743238Y-106604619D01*
X136695619Y-106557000D01*
X136624190Y-106533190D01*
X136576571Y-106533190D01*
X136505142Y-106557000D01*
X136481333Y-106580809D01*
X136243238Y-107033190D02*
X136148000Y-107033190D01*
X136100380Y-107009380D01*
X136076571Y-106985571D01*
X136028952Y-106914142D01*
X136005142Y-106818904D01*
X136005142Y-106628428D01*
X136028952Y-106580809D01*
X136052761Y-106557000D01*
X136100380Y-106533190D01*
X136195619Y-106533190D01*
X136243238Y-106557000D01*
X136267047Y-106580809D01*
X136290857Y-106628428D01*
X136290857Y-106747476D01*
X136267047Y-106795095D01*
X136243238Y-106818904D01*
X136195619Y-106842714D01*
X136100380Y-106842714D01*
X136052761Y-106818904D01*
X136028952Y-106795095D01*
X136005142Y-106747476D01*
X139148333Y-107874571D02*
X139172142Y-107898380D01*
X139243571Y-107922190D01*
X139291190Y-107922190D01*
X139362619Y-107898380D01*
X139410238Y-107850761D01*
X139434047Y-107803142D01*
X139457857Y-107707904D01*
X139457857Y-107636476D01*
X139434047Y-107541238D01*
X139410238Y-107493619D01*
X139362619Y-107446000D01*
X139291190Y-107422190D01*
X139243571Y-107422190D01*
X139172142Y-107446000D01*
X139148333Y-107469809D01*
X138862619Y-107636476D02*
X138910238Y-107612666D01*
X138934047Y-107588857D01*
X138957857Y-107541238D01*
X138957857Y-107517428D01*
X138934047Y-107469809D01*
X138910238Y-107446000D01*
X138862619Y-107422190D01*
X138767380Y-107422190D01*
X138719761Y-107446000D01*
X138695952Y-107469809D01*
X138672142Y-107517428D01*
X138672142Y-107541238D01*
X138695952Y-107588857D01*
X138719761Y-107612666D01*
X138767380Y-107636476D01*
X138862619Y-107636476D01*
X138910238Y-107660285D01*
X138934047Y-107684095D01*
X138957857Y-107731714D01*
X138957857Y-107826952D01*
X138934047Y-107874571D01*
X138910238Y-107898380D01*
X138862619Y-107922190D01*
X138767380Y-107922190D01*
X138719761Y-107898380D01*
X138695952Y-107874571D01*
X138672142Y-107826952D01*
X138672142Y-107731714D01*
X138695952Y-107684095D01*
X138719761Y-107660285D01*
X138767380Y-107636476D01*
X140799333Y-107874571D02*
X140823142Y-107898380D01*
X140894571Y-107922190D01*
X140942190Y-107922190D01*
X141013619Y-107898380D01*
X141061238Y-107850761D01*
X141085047Y-107803142D01*
X141108857Y-107707904D01*
X141108857Y-107636476D01*
X141085047Y-107541238D01*
X141061238Y-107493619D01*
X141013619Y-107446000D01*
X140942190Y-107422190D01*
X140894571Y-107422190D01*
X140823142Y-107446000D01*
X140799333Y-107469809D01*
X140632666Y-107422190D02*
X140299333Y-107422190D01*
X140513619Y-107922190D01*
X143212333Y-107874571D02*
X143236142Y-107898380D01*
X143307571Y-107922190D01*
X143355190Y-107922190D01*
X143426619Y-107898380D01*
X143474238Y-107850761D01*
X143498047Y-107803142D01*
X143521857Y-107707904D01*
X143521857Y-107636476D01*
X143498047Y-107541238D01*
X143474238Y-107493619D01*
X143426619Y-107446000D01*
X143355190Y-107422190D01*
X143307571Y-107422190D01*
X143236142Y-107446000D01*
X143212333Y-107469809D01*
X142759952Y-107422190D02*
X142998047Y-107422190D01*
X143021857Y-107660285D01*
X142998047Y-107636476D01*
X142950428Y-107612666D01*
X142831380Y-107612666D01*
X142783761Y-107636476D01*
X142759952Y-107660285D01*
X142736142Y-107707904D01*
X142736142Y-107826952D01*
X142759952Y-107874571D01*
X142783761Y-107898380D01*
X142831380Y-107922190D01*
X142950428Y-107922190D01*
X142998047Y-107898380D01*
X143021857Y-107874571D01*
D10*
X143311571Y-129262285D02*
X143359190Y-129405142D01*
X143406809Y-129452761D01*
X143502047Y-129500380D01*
X143644904Y-129500380D01*
X143740142Y-129452761D01*
X143787761Y-129405142D01*
X143835380Y-129309904D01*
X143835380Y-128928952D01*
X142835380Y-128928952D01*
X142835380Y-129262285D01*
X142883000Y-129357523D01*
X142930619Y-129405142D01*
X143025857Y-129452761D01*
X143121095Y-129452761D01*
X143216333Y-129405142D01*
X143263952Y-129357523D01*
X143311571Y-129262285D01*
X143311571Y-128928952D01*
X142835380Y-129786095D02*
X142835380Y-130357523D01*
X143835380Y-130071809D02*
X142835380Y-130071809D01*
X143835380Y-131214666D02*
X143835380Y-130643238D01*
X143835380Y-130928952D02*
X142835380Y-130928952D01*
X142978238Y-130833714D01*
X143073476Y-130738476D01*
X143121095Y-130643238D01*
X141930380Y-127381333D02*
X140930380Y-127381333D01*
X141644666Y-127714666D01*
X140930380Y-128048000D01*
X141930380Y-128048000D01*
X141882761Y-128476571D02*
X141930380Y-128619428D01*
X141930380Y-128857523D01*
X141882761Y-128952761D01*
X141835142Y-129000380D01*
X141739904Y-129048000D01*
X141644666Y-129048000D01*
X141549428Y-129000380D01*
X141501809Y-128952761D01*
X141454190Y-128857523D01*
X141406571Y-128667047D01*
X141358952Y-128571809D01*
X141311333Y-128524190D01*
X141216095Y-128476571D01*
X141120857Y-128476571D01*
X141025619Y-128524190D01*
X140978000Y-128571809D01*
X140930380Y-128667047D01*
X140930380Y-128905142D01*
X140978000Y-129048000D01*
X140930380Y-129905142D02*
X140930380Y-129714666D01*
X140978000Y-129619428D01*
X141025619Y-129571809D01*
X141168476Y-129476571D01*
X141358952Y-129428952D01*
X141739904Y-129428952D01*
X141835142Y-129476571D01*
X141882761Y-129524190D01*
X141930380Y-129619428D01*
X141930380Y-129809904D01*
X141882761Y-129905142D01*
X141835142Y-129952761D01*
X141739904Y-130000380D01*
X141501809Y-130000380D01*
X141406571Y-129952761D01*
X141358952Y-129905142D01*
X141311333Y-129809904D01*
X141311333Y-129619428D01*
X141358952Y-129524190D01*
X141406571Y-129476571D01*
X141501809Y-129428952D01*
X141025619Y-130381333D02*
X140978000Y-130428952D01*
X140930380Y-130524190D01*
X140930380Y-130762285D01*
X140978000Y-130857523D01*
X141025619Y-130905142D01*
X141120857Y-130952761D01*
X141216095Y-130952761D01*
X141358952Y-130905142D01*
X141930380Y-130333714D01*
X141930380Y-130952761D01*
X141930380Y-131905142D02*
X141930380Y-131333714D01*
X141930380Y-131619428D02*
X140930380Y-131619428D01*
X141073238Y-131524190D01*
X141168476Y-131428952D01*
X141216095Y-131333714D01*
X141406571Y-132667047D02*
X141406571Y-132333714D01*
X141930380Y-132333714D02*
X140930380Y-132333714D01*
X140930380Y-132809904D01*
M02*
