G04 #@! TF.GenerationSoftware,KiCad,Pcbnew,(5.1.2-1)-1*
G04 #@! TF.CreationDate,2020-07-08T23:16:20+01:00*
G04 #@! TF.ProjectId,tranZPUter-SW,7472616e-5a50-4557-9465-722d53572e6b,rev?*
G04 #@! TF.SameCoordinates,Original*
G04 #@! TF.FileFunction,Legend,Top*
G04 #@! TF.FilePolarity,Positive*
%FSLAX46Y46*%
G04 Gerber Fmt 4.6, Leading zero omitted, Abs format (unit mm)*
G04 Created by KiCad (PCBNEW (5.1.2-1)-1) date 2020-07-08 23:16:20*
%MOMM*%
%LPD*%
G04 APERTURE LIST*
%ADD10C,0.120000*%
%ADD11C,0.150000*%
%ADD12C,0.100000*%
%ADD13C,0.200000*%
%ADD14C,0.010000*%
G04 APERTURE END LIST*
D10*
X112141000Y-147320000D02*
X112141000Y-90170000D01*
X199771000Y-147320000D02*
X112141000Y-147320000D01*
X199771000Y-90170000D02*
X199771000Y-147320000D01*
X112141000Y-90170000D02*
X199771000Y-90170000D01*
D11*
X124371428Y-146972666D02*
X124340476Y-146941714D01*
X124278571Y-146848857D01*
X124247619Y-146786952D01*
X124216666Y-146694095D01*
X124185714Y-146539333D01*
X124185714Y-146415523D01*
X124216666Y-146260761D01*
X124247619Y-146167904D01*
X124278571Y-146106000D01*
X124340476Y-146013142D01*
X124371428Y-145982190D01*
X124990476Y-146663142D02*
X124959523Y-146694095D01*
X124866666Y-146725047D01*
X124804761Y-146725047D01*
X124711904Y-146694095D01*
X124650000Y-146632190D01*
X124619047Y-146570285D01*
X124588095Y-146446476D01*
X124588095Y-146353619D01*
X124619047Y-146229809D01*
X124650000Y-146167904D01*
X124711904Y-146106000D01*
X124804761Y-146075047D01*
X124866666Y-146075047D01*
X124959523Y-146106000D01*
X124990476Y-146136952D01*
X125207142Y-146972666D02*
X125238095Y-146941714D01*
X125300000Y-146848857D01*
X125330952Y-146786952D01*
X125361904Y-146694095D01*
X125392857Y-146539333D01*
X125392857Y-146415523D01*
X125361904Y-146260761D01*
X125330952Y-146167904D01*
X125300000Y-146106000D01*
X125238095Y-146013142D01*
X125207142Y-145982190D01*
X126197619Y-146725047D02*
X126197619Y-146075047D01*
X126445238Y-146075047D01*
X126507142Y-146106000D01*
X126538095Y-146136952D01*
X126569047Y-146198857D01*
X126569047Y-146291714D01*
X126538095Y-146353619D01*
X126507142Y-146384571D01*
X126445238Y-146415523D01*
X126197619Y-146415523D01*
X126847619Y-146663142D02*
X126878571Y-146694095D01*
X126847619Y-146725047D01*
X126816666Y-146694095D01*
X126847619Y-146663142D01*
X126847619Y-146725047D01*
X127157142Y-146725047D02*
X127157142Y-146075047D01*
X127311904Y-146075047D01*
X127404761Y-146106000D01*
X127466666Y-146167904D01*
X127497619Y-146229809D01*
X127528571Y-146353619D01*
X127528571Y-146446476D01*
X127497619Y-146570285D01*
X127466666Y-146632190D01*
X127404761Y-146694095D01*
X127311904Y-146725047D01*
X127157142Y-146725047D01*
X127807142Y-146663142D02*
X127838095Y-146694095D01*
X127807142Y-146725047D01*
X127776190Y-146694095D01*
X127807142Y-146663142D01*
X127807142Y-146725047D01*
X128580952Y-146694095D02*
X128673809Y-146725047D01*
X128828571Y-146725047D01*
X128890476Y-146694095D01*
X128921428Y-146663142D01*
X128952380Y-146601238D01*
X128952380Y-146539333D01*
X128921428Y-146477428D01*
X128890476Y-146446476D01*
X128828571Y-146415523D01*
X128704761Y-146384571D01*
X128642857Y-146353619D01*
X128611904Y-146322666D01*
X128580952Y-146260761D01*
X128580952Y-146198857D01*
X128611904Y-146136952D01*
X128642857Y-146106000D01*
X128704761Y-146075047D01*
X128859523Y-146075047D01*
X128952380Y-146106000D01*
X129230952Y-146725047D02*
X129230952Y-146291714D01*
X129230952Y-146353619D02*
X129261904Y-146322666D01*
X129323809Y-146291714D01*
X129416666Y-146291714D01*
X129478571Y-146322666D01*
X129509523Y-146384571D01*
X129509523Y-146725047D01*
X129509523Y-146384571D02*
X129540476Y-146322666D01*
X129602380Y-146291714D01*
X129695238Y-146291714D01*
X129757142Y-146322666D01*
X129788095Y-146384571D01*
X129788095Y-146725047D01*
X130376190Y-146725047D02*
X130376190Y-146384571D01*
X130345238Y-146322666D01*
X130283333Y-146291714D01*
X130159523Y-146291714D01*
X130097619Y-146322666D01*
X130376190Y-146694095D02*
X130314285Y-146725047D01*
X130159523Y-146725047D01*
X130097619Y-146694095D01*
X130066666Y-146632190D01*
X130066666Y-146570285D01*
X130097619Y-146508380D01*
X130159523Y-146477428D01*
X130314285Y-146477428D01*
X130376190Y-146446476D01*
X130685714Y-146725047D02*
X130685714Y-146291714D01*
X130685714Y-146415523D02*
X130716666Y-146353619D01*
X130747619Y-146322666D01*
X130809523Y-146291714D01*
X130871428Y-146291714D01*
X130995238Y-146291714D02*
X131242857Y-146291714D01*
X131088095Y-146075047D02*
X131088095Y-146632190D01*
X131119047Y-146694095D01*
X131180952Y-146725047D01*
X131242857Y-146725047D01*
X131923809Y-146136952D02*
X131954761Y-146106000D01*
X132016666Y-146075047D01*
X132171428Y-146075047D01*
X132233333Y-146106000D01*
X132264285Y-146136952D01*
X132295238Y-146198857D01*
X132295238Y-146260761D01*
X132264285Y-146353619D01*
X131892857Y-146725047D01*
X132295238Y-146725047D01*
X132697619Y-146075047D02*
X132759523Y-146075047D01*
X132821428Y-146106000D01*
X132852380Y-146136952D01*
X132883333Y-146198857D01*
X132914285Y-146322666D01*
X132914285Y-146477428D01*
X132883333Y-146601238D01*
X132852380Y-146663142D01*
X132821428Y-146694095D01*
X132759523Y-146725047D01*
X132697619Y-146725047D01*
X132635714Y-146694095D01*
X132604761Y-146663142D01*
X132573809Y-146601238D01*
X132542857Y-146477428D01*
X132542857Y-146322666D01*
X132573809Y-146198857D01*
X132604761Y-146136952D01*
X132635714Y-146106000D01*
X132697619Y-146075047D01*
X133533333Y-146725047D02*
X133161904Y-146725047D01*
X133347619Y-146725047D02*
X133347619Y-146075047D01*
X133285714Y-146167904D01*
X133223809Y-146229809D01*
X133161904Y-146260761D01*
X133842857Y-146725047D02*
X133966666Y-146725047D01*
X134028571Y-146694095D01*
X134059523Y-146663142D01*
X134121428Y-146570285D01*
X134152380Y-146446476D01*
X134152380Y-146198857D01*
X134121428Y-146136952D01*
X134090476Y-146106000D01*
X134028571Y-146075047D01*
X133904761Y-146075047D01*
X133842857Y-146106000D01*
X133811904Y-146136952D01*
X133780952Y-146198857D01*
X133780952Y-146353619D01*
X133811904Y-146415523D01*
X133842857Y-146446476D01*
X133904761Y-146477428D01*
X134028571Y-146477428D01*
X134090476Y-146446476D01*
X134121428Y-146415523D01*
X134152380Y-146353619D01*
X134430952Y-146477428D02*
X134926190Y-146477428D01*
X135204761Y-146136952D02*
X135235714Y-146106000D01*
X135297619Y-146075047D01*
X135452380Y-146075047D01*
X135514285Y-146106000D01*
X135545238Y-146136952D01*
X135576190Y-146198857D01*
X135576190Y-146260761D01*
X135545238Y-146353619D01*
X135173809Y-146725047D01*
X135576190Y-146725047D01*
X135978571Y-146075047D02*
X136040476Y-146075047D01*
X136102380Y-146106000D01*
X136133333Y-146136952D01*
X136164285Y-146198857D01*
X136195238Y-146322666D01*
X136195238Y-146477428D01*
X136164285Y-146601238D01*
X136133333Y-146663142D01*
X136102380Y-146694095D01*
X136040476Y-146725047D01*
X135978571Y-146725047D01*
X135916666Y-146694095D01*
X135885714Y-146663142D01*
X135854761Y-146601238D01*
X135823809Y-146477428D01*
X135823809Y-146322666D01*
X135854761Y-146198857D01*
X135885714Y-146136952D01*
X135916666Y-146106000D01*
X135978571Y-146075047D01*
D12*
X124772946Y-144122857D02*
X125572946Y-144122857D01*
X124622946Y-145322857D01*
X125422946Y-145322857D01*
X125880089Y-145322857D02*
X126030089Y-144122857D01*
X126487232Y-144122857D01*
X126594375Y-144180000D01*
X126644375Y-144237142D01*
X126687232Y-144351428D01*
X126665803Y-144522857D01*
X126594375Y-144637142D01*
X126530089Y-144694285D01*
X126408660Y-144751428D01*
X125951517Y-144751428D01*
X127230089Y-144122857D02*
X127108660Y-145094285D01*
X127151517Y-145208571D01*
X127201517Y-145265714D01*
X127308660Y-145322857D01*
X127537232Y-145322857D01*
X127658660Y-145265714D01*
X127722946Y-145208571D01*
X127794375Y-145094285D01*
X127915803Y-144122857D01*
D13*
X121483714Y-144544285D02*
X121902761Y-144544285D01*
X121640857Y-144177619D02*
X121640857Y-145120476D01*
X121693238Y-145225238D01*
X121797999Y-145277619D01*
X121902761Y-145277619D01*
X122269428Y-145277619D02*
X122269428Y-144544285D01*
X122269428Y-144753809D02*
X122321809Y-144649047D01*
X122374190Y-144596666D01*
X122478952Y-144544285D01*
X122583714Y-144544285D01*
X123421809Y-145277619D02*
X123421809Y-144701428D01*
X123369428Y-144596666D01*
X123264666Y-144544285D01*
X123055142Y-144544285D01*
X122950380Y-144596666D01*
X123421809Y-145225238D02*
X123317047Y-145277619D01*
X123055142Y-145277619D01*
X122950380Y-145225238D01*
X122897999Y-145120476D01*
X122897999Y-145015714D01*
X122950380Y-144910952D01*
X123055142Y-144858571D01*
X123317047Y-144858571D01*
X123421809Y-144806190D01*
X123945619Y-144544285D02*
X123945619Y-145277619D01*
X123945619Y-144649047D02*
X123997999Y-144596666D01*
X124102761Y-144544285D01*
X124259904Y-144544285D01*
X124364666Y-144596666D01*
X124417047Y-144701428D01*
X124417047Y-145277619D01*
X128136095Y-144544285D02*
X128555142Y-144544285D01*
X128293238Y-144177619D02*
X128293238Y-145120476D01*
X128345619Y-145225238D01*
X128450380Y-145277619D01*
X128555142Y-145277619D01*
X129340857Y-145225238D02*
X129236095Y-145277619D01*
X129026571Y-145277619D01*
X128921809Y-145225238D01*
X128869428Y-145120476D01*
X128869428Y-144701428D01*
X128921809Y-144596666D01*
X129026571Y-144544285D01*
X129236095Y-144544285D01*
X129340857Y-144596666D01*
X129393238Y-144701428D01*
X129393238Y-144806190D01*
X128869428Y-144910952D01*
X129864666Y-145277619D02*
X129864666Y-144544285D01*
X129864666Y-144753809D02*
X129917047Y-144649047D01*
X129969428Y-144596666D01*
X130074190Y-144544285D01*
X130178952Y-144544285D01*
X131331333Y-145225238D02*
X131488476Y-145277619D01*
X131750380Y-145277619D01*
X131855142Y-145225238D01*
X131907523Y-145172857D01*
X131959904Y-145068095D01*
X131959904Y-144963333D01*
X131907523Y-144858571D01*
X131855142Y-144806190D01*
X131750380Y-144753809D01*
X131540857Y-144701428D01*
X131436095Y-144649047D01*
X131383714Y-144596666D01*
X131331333Y-144491904D01*
X131331333Y-144387142D01*
X131383714Y-144282380D01*
X131436095Y-144230000D01*
X131540857Y-144177619D01*
X131802761Y-144177619D01*
X131959904Y-144230000D01*
X132326571Y-144177619D02*
X132588476Y-145277619D01*
X132798000Y-144491904D01*
X133007523Y-145277619D01*
X133269428Y-144177619D01*
X134421809Y-144544285D02*
X134683714Y-145277619D01*
X134945619Y-144544285D01*
X135312285Y-144282380D02*
X135364666Y-144230000D01*
X135469428Y-144177619D01*
X135731333Y-144177619D01*
X135836095Y-144230000D01*
X135888476Y-144282380D01*
X135940857Y-144387142D01*
X135940857Y-144491904D01*
X135888476Y-144649047D01*
X135259904Y-145277619D01*
X135940857Y-145277619D01*
X136412285Y-145172857D02*
X136464666Y-145225238D01*
X136412285Y-145277619D01*
X136359904Y-145225238D01*
X136412285Y-145172857D01*
X136412285Y-145277619D01*
X137512285Y-145277619D02*
X136883714Y-145277619D01*
X137198000Y-145277619D02*
X137198000Y-144177619D01*
X137093238Y-144334761D01*
X136988476Y-144439523D01*
X136883714Y-144491904D01*
X138455142Y-145277619D02*
X138455142Y-144701428D01*
X138402761Y-144596666D01*
X138298000Y-144544285D01*
X138088476Y-144544285D01*
X137983714Y-144596666D01*
X138455142Y-145225238D02*
X138350380Y-145277619D01*
X138088476Y-145277619D01*
X137983714Y-145225238D01*
X137931333Y-145120476D01*
X137931333Y-145015714D01*
X137983714Y-144910952D01*
X138088476Y-144858571D01*
X138350380Y-144858571D01*
X138455142Y-144806190D01*
D14*
G36*
X145107222Y-99999562D02*
G01*
X145156510Y-100023016D01*
X145184175Y-100059846D01*
X145189222Y-100088948D01*
X145178101Y-100133100D01*
X145144000Y-100163783D01*
X145085814Y-100181755D01*
X145047582Y-100186195D01*
X144963445Y-100192281D01*
X144963445Y-99991333D01*
X145039153Y-99991333D01*
X145107222Y-99999562D01*
X145107222Y-99999562D01*
G37*
X145107222Y-99999562D02*
X145156510Y-100023016D01*
X145184175Y-100059846D01*
X145189222Y-100088948D01*
X145178101Y-100133100D01*
X145144000Y-100163783D01*
X145085814Y-100181755D01*
X145047582Y-100186195D01*
X144963445Y-100192281D01*
X144963445Y-99991333D01*
X145039153Y-99991333D01*
X145107222Y-99999562D01*
G36*
X141305187Y-101980574D02*
G01*
X141326503Y-102021153D01*
X141341381Y-102087912D01*
X141346730Y-102135716D01*
X141349105Y-102184772D01*
X141346037Y-102228541D01*
X141335965Y-102276538D01*
X141317327Y-102338281D01*
X141309721Y-102361235D01*
X141247125Y-102515095D01*
X141170077Y-102645485D01*
X141077643Y-102753709D01*
X140968892Y-102841069D01*
X140964285Y-102844085D01*
X140921368Y-102870962D01*
X140887477Y-102890338D01*
X140869645Y-102898203D01*
X140869304Y-102898222D01*
X140857705Y-102886240D01*
X140848427Y-102861479D01*
X140842047Y-102805309D01*
X140844469Y-102730463D01*
X140854731Y-102644745D01*
X140871874Y-102555959D01*
X140894935Y-102471909D01*
X140897267Y-102464849D01*
X140948888Y-102328610D01*
X141005420Y-102211561D01*
X141065585Y-102115375D01*
X141128106Y-102041724D01*
X141191706Y-101992280D01*
X141255106Y-101968715D01*
X141277726Y-101966889D01*
X141305187Y-101980574D01*
X141305187Y-101980574D01*
G37*
X141305187Y-101980574D02*
X141326503Y-102021153D01*
X141341381Y-102087912D01*
X141346730Y-102135716D01*
X141349105Y-102184772D01*
X141346037Y-102228541D01*
X141335965Y-102276538D01*
X141317327Y-102338281D01*
X141309721Y-102361235D01*
X141247125Y-102515095D01*
X141170077Y-102645485D01*
X141077643Y-102753709D01*
X140968892Y-102841069D01*
X140964285Y-102844085D01*
X140921368Y-102870962D01*
X140887477Y-102890338D01*
X140869645Y-102898203D01*
X140869304Y-102898222D01*
X140857705Y-102886240D01*
X140848427Y-102861479D01*
X140842047Y-102805309D01*
X140844469Y-102730463D01*
X140854731Y-102644745D01*
X140871874Y-102555959D01*
X140894935Y-102471909D01*
X140897267Y-102464849D01*
X140948888Y-102328610D01*
X141005420Y-102211561D01*
X141065585Y-102115375D01*
X141128106Y-102041724D01*
X141191706Y-101992280D01*
X141255106Y-101968715D01*
X141277726Y-101966889D01*
X141305187Y-101980574D01*
G36*
X147301832Y-104793452D02*
G01*
X147341470Y-104819527D01*
X147348640Y-104827917D01*
X147363234Y-104848860D01*
X147371512Y-104870884D01*
X147374400Y-104901284D01*
X147372826Y-104947357D01*
X147369568Y-104992797D01*
X147345953Y-105149179D01*
X147300045Y-105289332D01*
X147230870Y-105415523D01*
X147139241Y-105528162D01*
X147098176Y-105566833D01*
X147048601Y-105607671D01*
X146996598Y-105646348D01*
X146948248Y-105678537D01*
X146909631Y-105699907D01*
X146888933Y-105706333D01*
X146869349Y-105694947D01*
X146862899Y-105684012D01*
X146858335Y-105658503D01*
X146855267Y-105615213D01*
X146854432Y-105574651D01*
X146862614Y-105473270D01*
X146885368Y-105363495D01*
X146920335Y-105250529D01*
X146965153Y-105139578D01*
X147017463Y-105035846D01*
X147074904Y-104944537D01*
X147135116Y-104870856D01*
X147195739Y-104820008D01*
X147197056Y-104819187D01*
X147254286Y-104793372D01*
X147301832Y-104793452D01*
X147301832Y-104793452D01*
G37*
X147301832Y-104793452D02*
X147341470Y-104819527D01*
X147348640Y-104827917D01*
X147363234Y-104848860D01*
X147371512Y-104870884D01*
X147374400Y-104901284D01*
X147372826Y-104947357D01*
X147369568Y-104992797D01*
X147345953Y-105149179D01*
X147300045Y-105289332D01*
X147230870Y-105415523D01*
X147139241Y-105528162D01*
X147098176Y-105566833D01*
X147048601Y-105607671D01*
X146996598Y-105646348D01*
X146948248Y-105678537D01*
X146909631Y-105699907D01*
X146888933Y-105706333D01*
X146869349Y-105694947D01*
X146862899Y-105684012D01*
X146858335Y-105658503D01*
X146855267Y-105615213D01*
X146854432Y-105574651D01*
X146862614Y-105473270D01*
X146885368Y-105363495D01*
X146920335Y-105250529D01*
X146965153Y-105139578D01*
X147017463Y-105035846D01*
X147074904Y-104944537D01*
X147135116Y-104870856D01*
X147195739Y-104820008D01*
X147197056Y-104819187D01*
X147254286Y-104793372D01*
X147301832Y-104793452D01*
G36*
X145091402Y-105845480D02*
G01*
X145098739Y-105855785D01*
X145104630Y-105868865D01*
X145109231Y-105887703D01*
X145112700Y-105915283D01*
X145115195Y-105954590D01*
X145116873Y-106008609D01*
X145117891Y-106080322D01*
X145118408Y-106172715D01*
X145118580Y-106288771D01*
X145118585Y-106360535D01*
X145118168Y-106478621D01*
X145117021Y-106591306D01*
X145115242Y-106694555D01*
X145112928Y-106784333D01*
X145110176Y-106856603D01*
X145107085Y-106907330D01*
X145104922Y-106926944D01*
X145090842Y-106982674D01*
X145066276Y-107049848D01*
X145034915Y-107120737D01*
X145000446Y-107187612D01*
X144966561Y-107242744D01*
X144937320Y-107278071D01*
X144905165Y-107308364D01*
X144880876Y-107332983D01*
X144832507Y-107383928D01*
X144795654Y-107419531D01*
X144763570Y-107445971D01*
X144737667Y-107464104D01*
X144682699Y-107494816D01*
X144638981Y-107508003D01*
X144610132Y-107502917D01*
X144601958Y-107492170D01*
X144598131Y-107466372D01*
X144596132Y-107417156D01*
X144595787Y-107349256D01*
X144596919Y-107267403D01*
X144599350Y-107176331D01*
X144602907Y-107080773D01*
X144607411Y-106985462D01*
X144612687Y-106895130D01*
X144618558Y-106814512D01*
X144624849Y-106748339D01*
X144631382Y-106701344D01*
X144631415Y-106701167D01*
X144677518Y-106495070D01*
X144735493Y-106310557D01*
X144804821Y-106148791D01*
X144884988Y-106010936D01*
X144975475Y-105898155D01*
X144997920Y-105875667D01*
X145064137Y-105812167D01*
X145091402Y-105845480D01*
X145091402Y-105845480D01*
G37*
X145091402Y-105845480D02*
X145098739Y-105855785D01*
X145104630Y-105868865D01*
X145109231Y-105887703D01*
X145112700Y-105915283D01*
X145115195Y-105954590D01*
X145116873Y-106008609D01*
X145117891Y-106080322D01*
X145118408Y-106172715D01*
X145118580Y-106288771D01*
X145118585Y-106360535D01*
X145118168Y-106478621D01*
X145117021Y-106591306D01*
X145115242Y-106694555D01*
X145112928Y-106784333D01*
X145110176Y-106856603D01*
X145107085Y-106907330D01*
X145104922Y-106926944D01*
X145090842Y-106982674D01*
X145066276Y-107049848D01*
X145034915Y-107120737D01*
X145000446Y-107187612D01*
X144966561Y-107242744D01*
X144937320Y-107278071D01*
X144905165Y-107308364D01*
X144880876Y-107332983D01*
X144832507Y-107383928D01*
X144795654Y-107419531D01*
X144763570Y-107445971D01*
X144737667Y-107464104D01*
X144682699Y-107494816D01*
X144638981Y-107508003D01*
X144610132Y-107502917D01*
X144601958Y-107492170D01*
X144598131Y-107466372D01*
X144596132Y-107417156D01*
X144595787Y-107349256D01*
X144596919Y-107267403D01*
X144599350Y-107176331D01*
X144602907Y-107080773D01*
X144607411Y-106985462D01*
X144612687Y-106895130D01*
X144618558Y-106814512D01*
X144624849Y-106748339D01*
X144631382Y-106701344D01*
X144631415Y-106701167D01*
X144677518Y-106495070D01*
X144735493Y-106310557D01*
X144804821Y-106148791D01*
X144884988Y-106010936D01*
X144975475Y-105898155D01*
X144997920Y-105875667D01*
X145064137Y-105812167D01*
X145091402Y-105845480D01*
G36*
X145136338Y-99703335D02*
G01*
X145185758Y-99708482D01*
X145228054Y-99719459D01*
X145273745Y-99738229D01*
X145280945Y-99741560D01*
X145381979Y-99802244D01*
X145465562Y-99880001D01*
X145529470Y-99970985D01*
X145571482Y-100071351D01*
X145589375Y-100177255D01*
X145584344Y-100266436D01*
X145551493Y-100385887D01*
X145495443Y-100491159D01*
X145418568Y-100579752D01*
X145323245Y-100649164D01*
X145211849Y-100696893D01*
X145163833Y-100709245D01*
X145097196Y-100720894D01*
X145042973Y-100722582D01*
X144988028Y-100713574D01*
X144928167Y-100696060D01*
X144819157Y-100646270D01*
X144725732Y-100573310D01*
X144653053Y-100483592D01*
X144600015Y-100377523D01*
X144573049Y-100267295D01*
X144571111Y-100156578D01*
X144593159Y-100049045D01*
X144638150Y-99948365D01*
X144658618Y-99920778D01*
X144892889Y-99920778D01*
X144892889Y-100471111D01*
X144928167Y-100471111D01*
X144946111Y-100469792D01*
X144956629Y-100461872D01*
X144961703Y-100441406D01*
X144963315Y-100402450D01*
X144963445Y-100365278D01*
X144963445Y-100259444D01*
X145011831Y-100259444D01*
X145036257Y-100261242D01*
X145055909Y-100269784D01*
X145075893Y-100289793D01*
X145101311Y-100325993D01*
X145126181Y-100365278D01*
X145158388Y-100415940D01*
X145181363Y-100447154D01*
X145200478Y-100463620D01*
X145221105Y-100470038D01*
X145247127Y-100471111D01*
X145281938Y-100468509D01*
X145300927Y-100462027D01*
X145302111Y-100459667D01*
X145293515Y-100444523D01*
X145270497Y-100413583D01*
X145237212Y-100372298D01*
X145218913Y-100350531D01*
X145135715Y-100252838D01*
X145175404Y-100236150D01*
X145229140Y-100205700D01*
X145260226Y-100165809D01*
X145272964Y-100109790D01*
X145273889Y-100083056D01*
X145268327Y-100023729D01*
X145249595Y-99979942D01*
X145214626Y-99949742D01*
X145160349Y-99931176D01*
X145083698Y-99922289D01*
X145018970Y-99920778D01*
X144892889Y-99920778D01*
X144658618Y-99920778D01*
X144705040Y-99858210D01*
X144792788Y-99782251D01*
X144864196Y-99740403D01*
X144907584Y-99721077D01*
X144947406Y-99709496D01*
X144993678Y-99703789D01*
X145056417Y-99702083D01*
X145069278Y-99702056D01*
X145136338Y-99703335D01*
X145136338Y-99703335D01*
G37*
X145136338Y-99703335D02*
X145185758Y-99708482D01*
X145228054Y-99719459D01*
X145273745Y-99738229D01*
X145280945Y-99741560D01*
X145381979Y-99802244D01*
X145465562Y-99880001D01*
X145529470Y-99970985D01*
X145571482Y-100071351D01*
X145589375Y-100177255D01*
X145584344Y-100266436D01*
X145551493Y-100385887D01*
X145495443Y-100491159D01*
X145418568Y-100579752D01*
X145323245Y-100649164D01*
X145211849Y-100696893D01*
X145163833Y-100709245D01*
X145097196Y-100720894D01*
X145042973Y-100722582D01*
X144988028Y-100713574D01*
X144928167Y-100696060D01*
X144819157Y-100646270D01*
X144725732Y-100573310D01*
X144653053Y-100483592D01*
X144600015Y-100377523D01*
X144573049Y-100267295D01*
X144571111Y-100156578D01*
X144593159Y-100049045D01*
X144638150Y-99948365D01*
X144658618Y-99920778D01*
X144892889Y-99920778D01*
X144892889Y-100471111D01*
X144928167Y-100471111D01*
X144946111Y-100469792D01*
X144956629Y-100461872D01*
X144961703Y-100441406D01*
X144963315Y-100402450D01*
X144963445Y-100365278D01*
X144963445Y-100259444D01*
X145011831Y-100259444D01*
X145036257Y-100261242D01*
X145055909Y-100269784D01*
X145075893Y-100289793D01*
X145101311Y-100325993D01*
X145126181Y-100365278D01*
X145158388Y-100415940D01*
X145181363Y-100447154D01*
X145200478Y-100463620D01*
X145221105Y-100470038D01*
X145247127Y-100471111D01*
X145281938Y-100468509D01*
X145300927Y-100462027D01*
X145302111Y-100459667D01*
X145293515Y-100444523D01*
X145270497Y-100413583D01*
X145237212Y-100372298D01*
X145218913Y-100350531D01*
X145135715Y-100252838D01*
X145175404Y-100236150D01*
X145229140Y-100205700D01*
X145260226Y-100165809D01*
X145272964Y-100109790D01*
X145273889Y-100083056D01*
X145268327Y-100023729D01*
X145249595Y-99979942D01*
X145214626Y-99949742D01*
X145160349Y-99931176D01*
X145083698Y-99922289D01*
X145018970Y-99920778D01*
X144892889Y-99920778D01*
X144658618Y-99920778D01*
X144705040Y-99858210D01*
X144792788Y-99782251D01*
X144864196Y-99740403D01*
X144907584Y-99721077D01*
X144947406Y-99709496D01*
X144993678Y-99703789D01*
X145056417Y-99702083D01*
X145069278Y-99702056D01*
X145136338Y-99703335D01*
G36*
X138292417Y-97101021D02*
G01*
X138680756Y-97101209D01*
X139061559Y-97101416D01*
X139433876Y-97101640D01*
X139796758Y-97101880D01*
X140149254Y-97102135D01*
X140490414Y-97102404D01*
X140819289Y-97102685D01*
X141134928Y-97102978D01*
X141436381Y-97103281D01*
X141722699Y-97103592D01*
X141992932Y-97103911D01*
X142246129Y-97104237D01*
X142481340Y-97104567D01*
X142697616Y-97104902D01*
X142894006Y-97105240D01*
X143069561Y-97105579D01*
X143223331Y-97105918D01*
X143354365Y-97106257D01*
X143461714Y-97106594D01*
X143544428Y-97106927D01*
X143601557Y-97107256D01*
X143632150Y-97107580D01*
X143637000Y-97107826D01*
X143600770Y-97110280D01*
X143543025Y-97114165D01*
X143470409Y-97119037D01*
X143389566Y-97124448D01*
X143347722Y-97127244D01*
X142969883Y-97158978D01*
X142574924Y-97204511D01*
X142169770Y-97262858D01*
X141761343Y-97333037D01*
X141413357Y-97401977D01*
X140884894Y-97527021D01*
X140354963Y-97679578D01*
X139824931Y-97859081D01*
X139296161Y-98064966D01*
X138770020Y-98296664D01*
X138247870Y-98553609D01*
X137731079Y-98835235D01*
X137221010Y-99140976D01*
X137216445Y-99143841D01*
X136852084Y-99380773D01*
X136491039Y-99631505D01*
X136137621Y-99892684D01*
X135796140Y-100160958D01*
X135470909Y-100432976D01*
X135166236Y-100705385D01*
X134976925Y-100885306D01*
X134674629Y-101199741D01*
X134393349Y-101532073D01*
X134133760Y-101880871D01*
X133896537Y-102244705D01*
X133682352Y-102622146D01*
X133491881Y-103011764D01*
X133325798Y-103412128D01*
X133184778Y-103821808D01*
X133069495Y-104239375D01*
X132980623Y-104663398D01*
X132918836Y-105092447D01*
X132899780Y-105290056D01*
X132898836Y-105287738D01*
X132897899Y-105258249D01*
X132896974Y-105202638D01*
X132896062Y-105121956D01*
X132895169Y-105017253D01*
X132894297Y-104889580D01*
X132893450Y-104739987D01*
X132892632Y-104569524D01*
X132891845Y-104379241D01*
X132891095Y-104170190D01*
X132890383Y-103943420D01*
X132889714Y-103699981D01*
X132889091Y-103440925D01*
X132888517Y-103167301D01*
X132887997Y-102880159D01*
X132887533Y-102580551D01*
X132887129Y-102269526D01*
X132886789Y-101948135D01*
X132886517Y-101617429D01*
X132886315Y-101278456D01*
X132886308Y-101264861D01*
X132884334Y-97098556D01*
X138292417Y-97101021D01*
X138292417Y-97101021D01*
G37*
X138292417Y-97101021D02*
X138680756Y-97101209D01*
X139061559Y-97101416D01*
X139433876Y-97101640D01*
X139796758Y-97101880D01*
X140149254Y-97102135D01*
X140490414Y-97102404D01*
X140819289Y-97102685D01*
X141134928Y-97102978D01*
X141436381Y-97103281D01*
X141722699Y-97103592D01*
X141992932Y-97103911D01*
X142246129Y-97104237D01*
X142481340Y-97104567D01*
X142697616Y-97104902D01*
X142894006Y-97105240D01*
X143069561Y-97105579D01*
X143223331Y-97105918D01*
X143354365Y-97106257D01*
X143461714Y-97106594D01*
X143544428Y-97106927D01*
X143601557Y-97107256D01*
X143632150Y-97107580D01*
X143637000Y-97107826D01*
X143600770Y-97110280D01*
X143543025Y-97114165D01*
X143470409Y-97119037D01*
X143389566Y-97124448D01*
X143347722Y-97127244D01*
X142969883Y-97158978D01*
X142574924Y-97204511D01*
X142169770Y-97262858D01*
X141761343Y-97333037D01*
X141413357Y-97401977D01*
X140884894Y-97527021D01*
X140354963Y-97679578D01*
X139824931Y-97859081D01*
X139296161Y-98064966D01*
X138770020Y-98296664D01*
X138247870Y-98553609D01*
X137731079Y-98835235D01*
X137221010Y-99140976D01*
X137216445Y-99143841D01*
X136852084Y-99380773D01*
X136491039Y-99631505D01*
X136137621Y-99892684D01*
X135796140Y-100160958D01*
X135470909Y-100432976D01*
X135166236Y-100705385D01*
X134976925Y-100885306D01*
X134674629Y-101199741D01*
X134393349Y-101532073D01*
X134133760Y-101880871D01*
X133896537Y-102244705D01*
X133682352Y-102622146D01*
X133491881Y-103011764D01*
X133325798Y-103412128D01*
X133184778Y-103821808D01*
X133069495Y-104239375D01*
X132980623Y-104663398D01*
X132918836Y-105092447D01*
X132899780Y-105290056D01*
X132898836Y-105287738D01*
X132897899Y-105258249D01*
X132896974Y-105202638D01*
X132896062Y-105121956D01*
X132895169Y-105017253D01*
X132894297Y-104889580D01*
X132893450Y-104739987D01*
X132892632Y-104569524D01*
X132891845Y-104379241D01*
X132891095Y-104170190D01*
X132890383Y-103943420D01*
X132889714Y-103699981D01*
X132889091Y-103440925D01*
X132888517Y-103167301D01*
X132887997Y-102880159D01*
X132887533Y-102580551D01*
X132887129Y-102269526D01*
X132886789Y-101948135D01*
X132886517Y-101617429D01*
X132886315Y-101278456D01*
X132886308Y-101264861D01*
X132884334Y-97098556D01*
X138292417Y-97101021D01*
G36*
X149817667Y-112719556D02*
G01*
X132884334Y-112719556D01*
X132886297Y-109498694D01*
X132886542Y-109179820D01*
X132886879Y-108873283D01*
X132887302Y-108580066D01*
X132887808Y-108301151D01*
X132888392Y-108037521D01*
X132889050Y-107790159D01*
X132889777Y-107560048D01*
X132890569Y-107348170D01*
X132891422Y-107155509D01*
X132892330Y-106983046D01*
X132893291Y-106831765D01*
X132894298Y-106702648D01*
X132895349Y-106596679D01*
X132896438Y-106514839D01*
X132897561Y-106458112D01*
X132898713Y-106427479D01*
X132899891Y-106423925D01*
X132900087Y-106426000D01*
X132948252Y-106862265D01*
X133022139Y-107287305D01*
X133121611Y-107700814D01*
X133246535Y-108102490D01*
X133396776Y-108492029D01*
X133572198Y-108869125D01*
X133772668Y-109233475D01*
X133998051Y-109584776D01*
X134248212Y-109922722D01*
X134523016Y-110247011D01*
X134655278Y-110389026D01*
X134948087Y-110676996D01*
X135254483Y-110943887D01*
X135575177Y-111190003D01*
X135910883Y-111415648D01*
X136262312Y-111621126D01*
X136630177Y-111806741D01*
X137015190Y-111972797D01*
X137418064Y-112119598D01*
X137839511Y-112247448D01*
X138280243Y-112356651D01*
X138740974Y-112447511D01*
X139222414Y-112520333D01*
X139725277Y-112575420D01*
X139791722Y-112581248D01*
X139871025Y-112586435D01*
X139974129Y-112590746D01*
X140096645Y-112594180D01*
X140234185Y-112596738D01*
X140382361Y-112598420D01*
X140536783Y-112599226D01*
X140693063Y-112599157D01*
X140846813Y-112598212D01*
X140993643Y-112596391D01*
X141129164Y-112593695D01*
X141248990Y-112590123D01*
X141348729Y-112585677D01*
X141414500Y-112581204D01*
X141776585Y-112545407D01*
X142123453Y-112500780D01*
X142459840Y-112446216D01*
X142790480Y-112380609D01*
X143120111Y-112302852D01*
X143453466Y-112211839D01*
X143795281Y-112106463D01*
X144150292Y-111985618D01*
X144477684Y-111865484D01*
X144957132Y-111671421D01*
X145417235Y-111459180D01*
X145857375Y-111229140D01*
X146276931Y-110981684D01*
X146675286Y-110717192D01*
X147051820Y-110436046D01*
X147405915Y-110138626D01*
X147649663Y-109911665D01*
X147957242Y-109593162D01*
X148241212Y-109259233D01*
X148501527Y-108909941D01*
X148738140Y-108545349D01*
X148951003Y-108165522D01*
X148978326Y-108112278D01*
X149168482Y-107708158D01*
X149330901Y-107299826D01*
X149465532Y-106887605D01*
X149572325Y-106471818D01*
X149651227Y-106052788D01*
X149702189Y-105630838D01*
X149725160Y-105206291D01*
X149720087Y-104779471D01*
X149686921Y-104350700D01*
X149633044Y-103963611D01*
X149556818Y-103588613D01*
X149456307Y-103226281D01*
X149330887Y-102875181D01*
X149179939Y-102533881D01*
X149002842Y-102200945D01*
X148798973Y-101874939D01*
X148618441Y-101621167D01*
X148365269Y-101306858D01*
X148092333Y-101012412D01*
X147800530Y-100738470D01*
X147490761Y-100485671D01*
X147163923Y-100254657D01*
X146820916Y-100046067D01*
X146462639Y-99860543D01*
X146089990Y-99698724D01*
X145746611Y-99575043D01*
X145541796Y-99511815D01*
X145335290Y-99455803D01*
X145121846Y-99405877D01*
X144896213Y-99360908D01*
X144653142Y-99319764D01*
X144387384Y-99281316D01*
X144374306Y-99279564D01*
X144328445Y-99273441D01*
X144328445Y-100818230D01*
X144522472Y-100835727D01*
X144888603Y-100881124D01*
X145256101Y-100950785D01*
X145619842Y-101043321D01*
X145974702Y-101157343D01*
X146315558Y-101291463D01*
X146482143Y-101367055D01*
X146769554Y-101516742D01*
X147044020Y-101685642D01*
X147302714Y-101871569D01*
X147542808Y-102072340D01*
X147761474Y-102285772D01*
X147946963Y-102498490D01*
X148178183Y-102804576D01*
X148381522Y-103111011D01*
X148557316Y-103418532D01*
X148705904Y-103727876D01*
X148827623Y-104039780D01*
X148922811Y-104354981D01*
X148991805Y-104674215D01*
X149016033Y-104831444D01*
X149025404Y-104926772D01*
X149031463Y-105043378D01*
X149034307Y-105174524D01*
X149034033Y-105313472D01*
X149030739Y-105453484D01*
X149024523Y-105587824D01*
X149015480Y-105709753D01*
X149003710Y-105812533D01*
X149001654Y-105826278D01*
X148932417Y-106187238D01*
X148837924Y-106540636D01*
X148717741Y-106887419D01*
X148571430Y-107228537D01*
X148398555Y-107564936D01*
X148198680Y-107897564D01*
X147971369Y-108227368D01*
X147783681Y-108472111D01*
X147482339Y-108826303D01*
X147161063Y-109160767D01*
X146820367Y-109475226D01*
X146460767Y-109769402D01*
X146082779Y-110043016D01*
X145686918Y-110295790D01*
X145273698Y-110527448D01*
X144843637Y-110737710D01*
X144397248Y-110926298D01*
X143935048Y-111092936D01*
X143457551Y-111237345D01*
X142965273Y-111359246D01*
X142458730Y-111458362D01*
X142159905Y-111505114D01*
X141833478Y-111547970D01*
X141528008Y-111580338D01*
X141238416Y-111602620D01*
X140959623Y-111615218D01*
X140723056Y-111618613D01*
X140228578Y-111606365D01*
X139735959Y-111569932D01*
X139248254Y-111509790D01*
X138768518Y-111426418D01*
X138299807Y-111320293D01*
X137845176Y-111191894D01*
X137703278Y-111146217D01*
X137287526Y-110995329D01*
X136891282Y-110825138D01*
X136514873Y-110635864D01*
X136158626Y-110427723D01*
X135822868Y-110200934D01*
X135507923Y-109955715D01*
X135214120Y-109692284D01*
X134941785Y-109410858D01*
X134732055Y-109163477D01*
X134494228Y-108850239D01*
X134283305Y-108540271D01*
X134098417Y-108231831D01*
X133938694Y-107923178D01*
X133803266Y-107612571D01*
X133691265Y-107298267D01*
X133676209Y-107244444D01*
X137865556Y-107244444D01*
X137865584Y-107311472D01*
X137865892Y-107335191D01*
X137866778Y-107385022D01*
X137868198Y-107458865D01*
X137870110Y-107554616D01*
X137872469Y-107670173D01*
X137875231Y-107803434D01*
X137878354Y-107952296D01*
X137881794Y-108114658D01*
X137885506Y-108288417D01*
X137889447Y-108471470D01*
X137893574Y-108661716D01*
X137894006Y-108681552D01*
X137899637Y-108933438D01*
X137904951Y-109157610D01*
X137909965Y-109354576D01*
X137914696Y-109524841D01*
X137919161Y-109668914D01*
X137923377Y-109787300D01*
X137927361Y-109880507D01*
X137931130Y-109949040D01*
X137934701Y-109993408D01*
X137938090Y-110014117D01*
X137938494Y-110015052D01*
X137976939Y-110068748D01*
X138029186Y-110117183D01*
X138085851Y-110152666D01*
X138121969Y-110165439D01*
X138172632Y-110171963D01*
X138238975Y-110174596D01*
X138313565Y-110173719D01*
X138388973Y-110169710D01*
X138457767Y-110162951D01*
X138512515Y-110153821D01*
X138543666Y-110143876D01*
X138557654Y-110136632D01*
X138570179Y-110129141D01*
X138581330Y-110119874D01*
X138591200Y-110107307D01*
X138599880Y-110089914D01*
X138607462Y-110066167D01*
X138614036Y-110034543D01*
X138619694Y-109993513D01*
X138624527Y-109941552D01*
X138628627Y-109877135D01*
X138632085Y-109798735D01*
X138634992Y-109704825D01*
X138637440Y-109593881D01*
X138639520Y-109464375D01*
X138641324Y-109314783D01*
X138642942Y-109143577D01*
X138644466Y-108949232D01*
X138645988Y-108730221D01*
X138647598Y-108485019D01*
X138648165Y-108398028D01*
X138649393Y-108199630D01*
X138650292Y-108027677D01*
X138650840Y-107880390D01*
X138651015Y-107755993D01*
X138650796Y-107652708D01*
X138650159Y-107568759D01*
X138649084Y-107502370D01*
X138647548Y-107451762D01*
X138645529Y-107415159D01*
X138643005Y-107390785D01*
X138639954Y-107376861D01*
X138636355Y-107371612D01*
X138635469Y-107371444D01*
X138615336Y-107366227D01*
X138575262Y-107352052D01*
X138521222Y-107331141D01*
X138464507Y-107307944D01*
X138312942Y-107244444D01*
X137865556Y-107244444D01*
X133676209Y-107244444D01*
X133601820Y-106978525D01*
X133569117Y-106834393D01*
X133516333Y-106529653D01*
X133487064Y-106224519D01*
X133481297Y-105915520D01*
X133499022Y-105599187D01*
X133540227Y-105272050D01*
X133563629Y-105135500D01*
X133589179Y-105019819D01*
X133626477Y-104884043D01*
X133673879Y-104732916D01*
X133729738Y-104571185D01*
X133792409Y-104403594D01*
X133860247Y-104234890D01*
X133931607Y-104069819D01*
X133938131Y-104055333D01*
X134019027Y-103890442D01*
X135371493Y-103890442D01*
X135377440Y-104039916D01*
X135378772Y-104077239D01*
X135380840Y-104140334D01*
X135383570Y-104226762D01*
X135386888Y-104334083D01*
X135390721Y-104459860D01*
X135394994Y-104601652D01*
X135399635Y-104757020D01*
X135404569Y-104923527D01*
X135409723Y-105098732D01*
X135415022Y-105280197D01*
X135417379Y-105361310D01*
X135422720Y-105541248D01*
X135428069Y-105713447D01*
X135433344Y-105875766D01*
X135438465Y-106026065D01*
X135443351Y-106162200D01*
X135447923Y-106282032D01*
X135452099Y-106383418D01*
X135455799Y-106464219D01*
X135458943Y-106522291D01*
X135461450Y-106555494D01*
X135462547Y-106562432D01*
X135488725Y-106601055D01*
X135532874Y-106638844D01*
X135585477Y-106668575D01*
X135616730Y-106679438D01*
X135657002Y-106684867D01*
X135717196Y-106687321D01*
X135789189Y-106686977D01*
X135864858Y-106684013D01*
X135936079Y-106678608D01*
X135963117Y-106675102D01*
X137851445Y-106675102D01*
X137860938Y-106718225D01*
X137884472Y-106757376D01*
X137911164Y-106778456D01*
X137933165Y-106791656D01*
X137972370Y-106819131D01*
X138024036Y-106857408D01*
X138083422Y-106903016D01*
X138112500Y-106925877D01*
X138177605Y-106977142D01*
X138225440Y-107013359D01*
X138260741Y-107037152D01*
X138288241Y-107051148D01*
X138312674Y-107057971D01*
X138338776Y-107060246D01*
X138355320Y-107060508D01*
X138428807Y-107061000D01*
X138598436Y-106852861D01*
X138669515Y-106764215D01*
X138721779Y-106693078D01*
X138754968Y-106635692D01*
X138768822Y-106588301D01*
X138763082Y-106547147D01*
X138757617Y-106538889D01*
X138994445Y-106538889D01*
X138995105Y-106591806D01*
X138995704Y-106613026D01*
X138997269Y-106660496D01*
X138999731Y-106732259D01*
X139003019Y-106826362D01*
X139007065Y-106940849D01*
X139011797Y-107073766D01*
X139017147Y-107223158D01*
X139023045Y-107387070D01*
X139029420Y-107563549D01*
X139036204Y-107750638D01*
X139043325Y-107946384D01*
X139048679Y-108093105D01*
X139101594Y-109541488D01*
X139136214Y-109592314D01*
X139161197Y-109623527D01*
X139182799Y-109641513D01*
X139188472Y-109643237D01*
X139204881Y-109651188D01*
X139206111Y-109655732D01*
X139219050Y-109674854D01*
X139254309Y-109688337D01*
X139306557Y-109696175D01*
X139370460Y-109698360D01*
X139440684Y-109694886D01*
X139511896Y-109685745D01*
X139578763Y-109670930D01*
X139622389Y-109656279D01*
X139679187Y-109629168D01*
X139717856Y-109598017D01*
X139741050Y-109557417D01*
X139751422Y-109501962D01*
X139751628Y-109426243D01*
X139749950Y-109396389D01*
X139737687Y-109205409D01*
X139727735Y-109039735D01*
X139720234Y-108896537D01*
X139715322Y-108772982D01*
X139713137Y-108666239D01*
X139713820Y-108573476D01*
X139717509Y-108491860D01*
X139724344Y-108418562D01*
X139734462Y-108350748D01*
X139748003Y-108285587D01*
X139765106Y-108220247D01*
X139785911Y-108151897D01*
X139810555Y-108077705D01*
X139815358Y-108063660D01*
X139851432Y-107967014D01*
X139893586Y-107868011D01*
X139939467Y-107771031D01*
X139986717Y-107680453D01*
X140032983Y-107600658D01*
X140075908Y-107536025D01*
X140113137Y-107490935D01*
X140131967Y-107474946D01*
X140161400Y-107459407D01*
X140185389Y-107461351D01*
X140204727Y-107471062D01*
X140231107Y-107487711D01*
X140252280Y-107506740D01*
X140269411Y-107531789D01*
X140283667Y-107566499D01*
X140296212Y-107614510D01*
X140308210Y-107679463D01*
X140320828Y-107764997D01*
X140335230Y-107874753D01*
X140336089Y-107881498D01*
X140346360Y-107963370D01*
X140359331Y-108068542D01*
X140374432Y-108192280D01*
X140391091Y-108329851D01*
X140408735Y-108476522D01*
X140426792Y-108627560D01*
X140444691Y-108778233D01*
X140454812Y-108863914D01*
X140470905Y-108998997D01*
X140486395Y-109126227D01*
X140500904Y-109242710D01*
X140514058Y-109345550D01*
X140525480Y-109431853D01*
X140534794Y-109498723D01*
X140541624Y-109543266D01*
X140545526Y-109562414D01*
X140564202Y-109592564D01*
X140594628Y-109625821D01*
X140628336Y-109654361D01*
X140656856Y-109670361D01*
X140663667Y-109671556D01*
X140690131Y-109680747D01*
X140696334Y-109685756D01*
X140719357Y-109699662D01*
X140759887Y-109717066D01*
X140808088Y-109734468D01*
X140854124Y-109748369D01*
X140888160Y-109755270D01*
X140892389Y-109755501D01*
X140924161Y-109751124D01*
X140965772Y-109739978D01*
X140972926Y-109737575D01*
X141026038Y-109713717D01*
X141067640Y-109681148D01*
X141099392Y-109636283D01*
X141122956Y-109575537D01*
X141139993Y-109495324D01*
X141152165Y-109392059D01*
X141156140Y-109342148D01*
X141159631Y-109272863D01*
X141162123Y-109179828D01*
X141163664Y-109067495D01*
X141164306Y-108940315D01*
X141164099Y-108802740D01*
X141163092Y-108659223D01*
X141161337Y-108514215D01*
X141158882Y-108372169D01*
X141155778Y-108237537D01*
X141152076Y-108114770D01*
X141147825Y-108008321D01*
X141143075Y-107922642D01*
X141139674Y-107879444D01*
X141123063Y-107711316D01*
X141107080Y-107568580D01*
X141091285Y-107448426D01*
X141075241Y-107348044D01*
X141058508Y-107264624D01*
X141040648Y-107195355D01*
X141025777Y-107149686D01*
X141003700Y-107086725D01*
X140983589Y-107026267D01*
X140968780Y-106978449D01*
X140965371Y-106966213D01*
X140948456Y-106921084D01*
X140921419Y-106867587D01*
X140899872Y-106832282D01*
X140864666Y-106786126D01*
X140825254Y-106750910D01*
X140797430Y-106733943D01*
X141169101Y-106733943D01*
X141174266Y-106820662D01*
X141195398Y-106915093D01*
X141210491Y-106964213D01*
X141228653Y-107010815D01*
X141251749Y-107057284D01*
X141281644Y-107106004D01*
X141320203Y-107159360D01*
X141369291Y-107219737D01*
X141430774Y-107289520D01*
X141506517Y-107371094D01*
X141598385Y-107466842D01*
X141708244Y-107579151D01*
X141739960Y-107611333D01*
X141832827Y-107705826D01*
X141907361Y-107782920D01*
X141965303Y-107845056D01*
X142008393Y-107894672D01*
X142038371Y-107934209D01*
X142056980Y-107966106D01*
X142065959Y-107992801D01*
X142067049Y-108016735D01*
X142061992Y-108040347D01*
X142056765Y-108055282D01*
X142045624Y-108075328D01*
X142020181Y-108115833D01*
X141982239Y-108174086D01*
X141933606Y-108247370D01*
X141876085Y-108332974D01*
X141811483Y-108428183D01*
X141741604Y-108530284D01*
X141717117Y-108565863D01*
X141645884Y-108669637D01*
X141579330Y-108767395D01*
X141519258Y-108856433D01*
X141467469Y-108934041D01*
X141425766Y-108997514D01*
X141395952Y-109044144D01*
X141379829Y-109071224D01*
X141377789Y-109075491D01*
X141369079Y-109131175D01*
X141377675Y-109196796D01*
X141401783Y-109261514D01*
X141411362Y-109278473D01*
X141440462Y-109314933D01*
X141485626Y-109360009D01*
X141539195Y-109407028D01*
X141593513Y-109449318D01*
X141640920Y-109480205D01*
X141646087Y-109482989D01*
X141698928Y-109498334D01*
X141766563Y-109500633D01*
X141838904Y-109490166D01*
X141884243Y-109476430D01*
X141923816Y-109460491D01*
X141959111Y-109443340D01*
X141992346Y-109422584D01*
X142025736Y-109395830D01*
X142061497Y-109360686D01*
X142101848Y-109314760D01*
X142149003Y-109255658D01*
X142205180Y-109180989D01*
X142272595Y-109088360D01*
X142353464Y-108975379D01*
X142370195Y-108951889D01*
X142463923Y-108818470D01*
X142541363Y-108703774D01*
X142604075Y-108604666D01*
X142653623Y-108518011D01*
X142691569Y-108440672D01*
X142719474Y-108369514D01*
X142738902Y-108301401D01*
X142751413Y-108233198D01*
X142757676Y-108174133D01*
X142760463Y-108103453D01*
X142755026Y-108044165D01*
X142739669Y-107980203D01*
X142735835Y-107967331D01*
X142721060Y-107916518D01*
X142710306Y-107875399D01*
X142705706Y-107852186D01*
X142705667Y-107851195D01*
X142697430Y-107828636D01*
X142675103Y-107789228D01*
X142642261Y-107738132D01*
X142602476Y-107680512D01*
X142559325Y-107621527D01*
X142516382Y-107566339D01*
X142477220Y-107520111D01*
X142473714Y-107516251D01*
X142395197Y-107437676D01*
X142304213Y-107358289D01*
X142208950Y-107284582D01*
X142117594Y-107223045D01*
X142068268Y-107194773D01*
X141996602Y-107149908D01*
X141951453Y-107103860D01*
X141931125Y-107054680D01*
X141929556Y-107035202D01*
X141934919Y-107003733D01*
X141948079Y-106964629D01*
X141964640Y-106928519D01*
X141980208Y-106906033D01*
X141983999Y-106903543D01*
X142000172Y-106889952D01*
X142030300Y-106857926D01*
X142071155Y-106811420D01*
X142119512Y-106754390D01*
X142172144Y-106690791D01*
X142225824Y-106624578D01*
X142277325Y-106559706D01*
X142323422Y-106500130D01*
X142360888Y-106449806D01*
X142386495Y-106412689D01*
X142392465Y-106402835D01*
X142421758Y-106356513D01*
X142463365Y-106297870D01*
X142510878Y-106235701D01*
X142542543Y-106196794D01*
X142598463Y-106126918D01*
X142635431Y-106070065D01*
X142654863Y-106019728D01*
X142658178Y-105969399D01*
X142646793Y-105912568D01*
X142622125Y-105842727D01*
X142620541Y-105838708D01*
X142572367Y-105729964D01*
X142533568Y-105664000D01*
X142945556Y-105664000D01*
X142945556Y-105782128D01*
X142946000Y-105843897D01*
X142947280Y-105927497D01*
X142949322Y-106030524D01*
X142952048Y-106150572D01*
X142955382Y-106285237D01*
X142959249Y-106432113D01*
X142963572Y-106588795D01*
X142968274Y-106752878D01*
X142973280Y-106921958D01*
X142978514Y-107093628D01*
X142983899Y-107265484D01*
X142989359Y-107435121D01*
X142994818Y-107600133D01*
X143000199Y-107758116D01*
X143005428Y-107906665D01*
X143010426Y-108043374D01*
X143015119Y-108165838D01*
X143019430Y-108271652D01*
X143023282Y-108358412D01*
X143026601Y-108423712D01*
X143029308Y-108465146D01*
X143030997Y-108479546D01*
X143060646Y-108537228D01*
X143115390Y-108582442D01*
X143195387Y-108615309D01*
X143217633Y-108621197D01*
X143267809Y-108629498D01*
X143333949Y-108635250D01*
X143407213Y-108638259D01*
X143478760Y-108638334D01*
X143539749Y-108635280D01*
X143580556Y-108629120D01*
X143614048Y-108607100D01*
X143642767Y-108564772D01*
X143647780Y-108553197D01*
X143652235Y-108538846D01*
X143656220Y-108519785D01*
X143659822Y-108494076D01*
X143663129Y-108459785D01*
X143666229Y-108414976D01*
X143669208Y-108357712D01*
X143672155Y-108286059D01*
X143675157Y-108198079D01*
X143678302Y-108091838D01*
X143681677Y-107965399D01*
X143685369Y-107816828D01*
X143689467Y-107644187D01*
X143694057Y-107445542D01*
X143694755Y-107415051D01*
X143699926Y-107188548D01*
X143906815Y-107188548D01*
X143913652Y-107383578D01*
X143930597Y-107556847D01*
X143958161Y-107710833D01*
X143996855Y-107848016D01*
X144047188Y-107970874D01*
X144109671Y-108081887D01*
X144150822Y-108140686D01*
X144191495Y-108192316D01*
X144224601Y-108226592D01*
X144257773Y-108249933D01*
X144298647Y-108268762D01*
X144306935Y-108271985D01*
X144411339Y-108299604D01*
X144510705Y-108299935D01*
X144607514Y-108272896D01*
X144633595Y-108260862D01*
X144684030Y-108232437D01*
X144729288Y-108201462D01*
X144754360Y-108179724D01*
X144773436Y-108155641D01*
X144804423Y-108112125D01*
X144844260Y-108053667D01*
X144889889Y-107984759D01*
X144938250Y-107909892D01*
X144939669Y-107907667D01*
X144999957Y-107813400D01*
X145047367Y-107740359D01*
X145084011Y-107685854D01*
X145111997Y-107647198D01*
X145133435Y-107621701D01*
X145150434Y-107606675D01*
X145165105Y-107599431D01*
X145179556Y-107597279D01*
X145183240Y-107597222D01*
X145217445Y-107597222D01*
X145217445Y-107925558D01*
X145217510Y-108030023D01*
X145217949Y-108110184D01*
X145219126Y-108169957D01*
X145221408Y-108213259D01*
X145225157Y-108244009D01*
X145230741Y-108266123D01*
X145238522Y-108283518D01*
X145248868Y-108300112D01*
X145252893Y-108306060D01*
X145276425Y-108334885D01*
X145305751Y-108356630D01*
X145346681Y-108373849D01*
X145405028Y-108389100D01*
X145471445Y-108402204D01*
X145549174Y-108410134D01*
X145630078Y-108408024D01*
X145702805Y-108396625D01*
X145740963Y-108384315D01*
X145791759Y-108362434D01*
X145800575Y-108159745D01*
X145801962Y-108120973D01*
X145803922Y-108055840D01*
X145806409Y-107966203D01*
X145809378Y-107853917D01*
X145812783Y-107720836D01*
X145816579Y-107568817D01*
X145820722Y-107399715D01*
X145825165Y-107215385D01*
X145829863Y-107017682D01*
X145834771Y-106808463D01*
X145839844Y-106589581D01*
X145845036Y-106362893D01*
X145850302Y-106130254D01*
X145850868Y-106105042D01*
X146075845Y-106105042D01*
X146084684Y-106312728D01*
X146110730Y-106500110D01*
X146154984Y-106669986D01*
X146218445Y-106825155D01*
X146302111Y-106968417D01*
X146406983Y-107102570D01*
X146447752Y-107146714D01*
X146533242Y-107226792D01*
X146613833Y-107282638D01*
X146693698Y-107316743D01*
X146753115Y-107329239D01*
X146836686Y-107337030D01*
X146930073Y-107340937D01*
X147025552Y-107341085D01*
X147115400Y-107337596D01*
X147191894Y-107330596D01*
X147242952Y-107321390D01*
X147386456Y-107270200D01*
X147519606Y-107195237D01*
X147638603Y-107099619D01*
X147739645Y-106986465D01*
X147818932Y-106858892D01*
X147827033Y-106842278D01*
X147852588Y-106793741D01*
X147878808Y-106752530D01*
X147897084Y-106730602D01*
X147923168Y-106693772D01*
X147945691Y-106637929D01*
X147961822Y-106572274D01*
X147968730Y-106506007D01*
X147968801Y-106497522D01*
X147955762Y-106411272D01*
X147917677Y-106337867D01*
X147854760Y-106277564D01*
X147767225Y-106230621D01*
X147738175Y-106219852D01*
X147649768Y-106202429D01*
X147568395Y-106212089D01*
X147495500Y-106248251D01*
X147432528Y-106310336D01*
X147403142Y-106354462D01*
X147325369Y-106471940D01*
X147238785Y-106568458D01*
X147169788Y-106627276D01*
X147091937Y-106683302D01*
X147028902Y-106719119D01*
X146976719Y-106735583D01*
X146931424Y-106733551D01*
X146889051Y-106713880D01*
X146862934Y-106693575D01*
X146836170Y-106665194D01*
X146815935Y-106630561D01*
X146801412Y-106585625D01*
X146791787Y-106526335D01*
X146786241Y-106448639D01*
X146783960Y-106348488D01*
X146783778Y-106300765D01*
X146783934Y-106219990D01*
X146784897Y-106162488D01*
X146787408Y-106123310D01*
X146792209Y-106097507D01*
X146800042Y-106080130D01*
X146811648Y-106066231D01*
X146820156Y-106058043D01*
X146840618Y-106041727D01*
X146864883Y-106030864D01*
X146899739Y-106023835D01*
X146951975Y-106019023D01*
X146994231Y-106016539D01*
X147063214Y-106011804D01*
X147114694Y-106004448D01*
X147159390Y-105991826D01*
X147208019Y-105971294D01*
X147239748Y-105955958D01*
X147354186Y-105884650D01*
X147461712Y-105788742D01*
X147560401Y-105671413D01*
X147648325Y-105535843D01*
X147723559Y-105385210D01*
X147784176Y-105222692D01*
X147828250Y-105051470D01*
X147844220Y-104958444D01*
X147854294Y-104809519D01*
X147840738Y-104675551D01*
X147804360Y-104557381D01*
X147745966Y-104455846D01*
X147666363Y-104371785D01*
X147566357Y-104306037D01*
X147446756Y-104259440D01*
X147308365Y-104232832D01*
X147151993Y-104227053D01*
X147140928Y-104227429D01*
X147070818Y-104230554D01*
X147020056Y-104235041D01*
X146979779Y-104243059D01*
X146941125Y-104256777D01*
X146895231Y-104278363D01*
X146860311Y-104296108D01*
X146786756Y-104337732D01*
X146730789Y-104377569D01*
X146700985Y-104407193D01*
X146669914Y-104443726D01*
X146628257Y-104487726D01*
X146596277Y-104518980D01*
X146507250Y-104618586D01*
X146423743Y-104745008D01*
X146346212Y-104897297D01*
X146275115Y-105074505D01*
X146210907Y-105275684D01*
X146184142Y-105374722D01*
X146132719Y-105597342D01*
X146097917Y-105799932D01*
X146079364Y-105984993D01*
X146075845Y-106105042D01*
X145850868Y-106105042D01*
X145852375Y-106037944D01*
X145857695Y-105804235D01*
X145863052Y-105576230D01*
X145868396Y-105355743D01*
X145873674Y-105144587D01*
X145878838Y-104944573D01*
X145883836Y-104757514D01*
X145888617Y-104585223D01*
X145893130Y-104429512D01*
X145897325Y-104292193D01*
X145901152Y-104175080D01*
X145904558Y-104079984D01*
X145907495Y-104008718D01*
X145909910Y-103963095D01*
X145910757Y-103952018D01*
X145917492Y-103877266D01*
X145919558Y-103824554D01*
X145914060Y-103787755D01*
X145898105Y-103760743D01*
X145868799Y-103737392D01*
X145823247Y-103711576D01*
X145788500Y-103693194D01*
X145696855Y-103649707D01*
X145611930Y-103622091D01*
X145523626Y-103608198D01*
X145421847Y-103605881D01*
X145384403Y-103607251D01*
X145307074Y-103612236D01*
X145250620Y-103619527D01*
X145207708Y-103630454D01*
X145172157Y-103645750D01*
X145121499Y-103673346D01*
X145089410Y-103697685D01*
X145071657Y-103726267D01*
X145064012Y-103766594D01*
X145062243Y-103826166D01*
X145062222Y-103840675D01*
X145062857Y-103882382D01*
X145064646Y-103948061D01*
X145067418Y-104033491D01*
X145071003Y-104134453D01*
X145075228Y-104246728D01*
X145079924Y-104366095D01*
X145084918Y-104488336D01*
X145090040Y-104609229D01*
X145095117Y-104724556D01*
X145099980Y-104830097D01*
X145104457Y-104921632D01*
X145108376Y-104994942D01*
X145110449Y-105029353D01*
X145117294Y-105135540D01*
X144994434Y-105164889D01*
X144889905Y-105194271D01*
X144796967Y-105231200D01*
X144706471Y-105280104D01*
X144609268Y-105345411D01*
X144585701Y-105362697D01*
X144472402Y-105452369D01*
X144370333Y-105544061D01*
X144283518Y-105633760D01*
X144215977Y-105717451D01*
X144189049Y-105758542D01*
X144108742Y-105917203D01*
X144041332Y-106099571D01*
X143987182Y-106304065D01*
X143946659Y-106529104D01*
X143920127Y-106773107D01*
X143909575Y-106969278D01*
X143906815Y-107188548D01*
X143699926Y-107188548D01*
X143700335Y-107170660D01*
X143705264Y-106952939D01*
X143709558Y-106760343D01*
X143713232Y-106591327D01*
X143716300Y-106444347D01*
X143718778Y-106317858D01*
X143720680Y-106210314D01*
X143722021Y-106120172D01*
X143722816Y-106045886D01*
X143723079Y-105985913D01*
X143722827Y-105938706D01*
X143722073Y-105902722D01*
X143720832Y-105876416D01*
X143719120Y-105858242D01*
X143716950Y-105846657D01*
X143714339Y-105840116D01*
X143711300Y-105837073D01*
X143709938Y-105836479D01*
X143694457Y-105819521D01*
X143693445Y-105812991D01*
X143681135Y-105800976D01*
X143647584Y-105781420D01*
X143597864Y-105756993D01*
X143537043Y-105730364D01*
X143534695Y-105729391D01*
X143375945Y-105663781D01*
X143160750Y-105663891D01*
X142945556Y-105664000D01*
X142533568Y-105664000D01*
X142524171Y-105648024D01*
X142475012Y-105591488D01*
X142436205Y-105564533D01*
X142396466Y-105547036D01*
X142358257Y-105538165D01*
X142315759Y-105538394D01*
X142263154Y-105548199D01*
X142194624Y-105568052D01*
X142130313Y-105589466D01*
X142042421Y-105630404D01*
X141946219Y-105694690D01*
X141844463Y-105779708D01*
X141739912Y-105882845D01*
X141635323Y-106001487D01*
X141533452Y-106133019D01*
X141486154Y-106200222D01*
X141434595Y-106275100D01*
X141382638Y-106349232D01*
X141334745Y-106416342D01*
X141295377Y-106470156D01*
X141277337Y-106493923D01*
X141219192Y-106577998D01*
X141183595Y-106655529D01*
X141169101Y-106733943D01*
X140797430Y-106733943D01*
X140771647Y-106718221D01*
X140752674Y-106708346D01*
X140708589Y-106686612D01*
X140673276Y-106672418D01*
X140638560Y-106664188D01*
X140596267Y-106660346D01*
X140538222Y-106659316D01*
X140498674Y-106659369D01*
X140422744Y-106660641D01*
X140367485Y-106664533D01*
X140325389Y-106672068D01*
X140288950Y-106684272D01*
X140276451Y-106689696D01*
X140199118Y-106737142D01*
X140129225Y-106806794D01*
X140064661Y-106900998D01*
X140031896Y-106961656D01*
X139999933Y-107028613D01*
X139980295Y-107079623D01*
X139970423Y-107122717D01*
X139967764Y-107163024D01*
X139966206Y-107207281D01*
X139958952Y-107232903D01*
X139941338Y-107249458D01*
X139920041Y-107260927D01*
X139883198Y-107275125D01*
X139861008Y-107272083D01*
X139856888Y-107268688D01*
X139851290Y-107250410D01*
X139846951Y-107207488D01*
X139843836Y-107139074D01*
X139841908Y-107044319D01*
X139841132Y-106922375D01*
X139841111Y-106895900D01*
X139841111Y-106538889D01*
X138994445Y-106538889D01*
X138757617Y-106538889D01*
X138737486Y-106508474D01*
X138691776Y-106468526D01*
X138625691Y-106423544D01*
X138566162Y-106386432D01*
X138462554Y-106323637D01*
X138379733Y-106275488D01*
X138315167Y-106240729D01*
X138266327Y-106218110D01*
X138230680Y-106206375D01*
X138205696Y-106204272D01*
X138200256Y-106205242D01*
X138174428Y-106221995D01*
X138137820Y-106260445D01*
X138093248Y-106317559D01*
X138084032Y-106330383D01*
X138037265Y-106396246D01*
X137985734Y-106468818D01*
X137938573Y-106535232D01*
X137926277Y-106552548D01*
X137893221Y-106600877D01*
X137867632Y-106641670D01*
X137853259Y-106668791D01*
X137851445Y-106675102D01*
X135963117Y-106675102D01*
X135993295Y-106671189D01*
X136029098Y-106661522D01*
X136055394Y-106643939D01*
X136074090Y-106614216D01*
X136087092Y-106568131D01*
X136096307Y-106501459D01*
X136102285Y-106429727D01*
X136104469Y-106389012D01*
X136107148Y-106322656D01*
X136110250Y-106233236D01*
X136113701Y-106123327D01*
X136117429Y-105995505D01*
X136121361Y-105852347D01*
X136125426Y-105696427D01*
X136129550Y-105530323D01*
X136133661Y-105356609D01*
X136137687Y-105177863D01*
X136138205Y-105154173D01*
X136142613Y-104951169D01*
X136146389Y-104774496D01*
X136149527Y-104622268D01*
X136152024Y-104492601D01*
X136153874Y-104383610D01*
X136155074Y-104293410D01*
X136155619Y-104220116D01*
X136155505Y-104161843D01*
X136154727Y-104116707D01*
X136153280Y-104082822D01*
X136151162Y-104058304D01*
X136148366Y-104041268D01*
X136144889Y-104029829D01*
X136140727Y-104022103D01*
X136135874Y-104016204D01*
X136135551Y-104015856D01*
X136112081Y-103999269D01*
X136068614Y-103975956D01*
X136011563Y-103949137D01*
X135953500Y-103924498D01*
X135798278Y-103861908D01*
X135584885Y-103876175D01*
X135371493Y-103890442D01*
X134019027Y-103890442D01*
X134127397Y-103669552D01*
X134342650Y-103290784D01*
X134446539Y-103130349D01*
X135244139Y-103130349D01*
X135256923Y-103161306D01*
X135283221Y-103196688D01*
X135321099Y-103239612D01*
X135417058Y-103344194D01*
X135501918Y-103432819D01*
X135574408Y-103504284D01*
X135633253Y-103557385D01*
X135677181Y-103590921D01*
X135704919Y-103603688D01*
X135706578Y-103603778D01*
X135725379Y-103598340D01*
X135753502Y-103580771D01*
X135793252Y-103549188D01*
X135846932Y-103501705D01*
X135916847Y-103436439D01*
X135950259Y-103404564D01*
X136013128Y-103343453D01*
X136068361Y-103288130D01*
X136112894Y-103241798D01*
X136143664Y-103207663D01*
X136157606Y-103188928D01*
X136158111Y-103187175D01*
X136146688Y-103146409D01*
X136113510Y-103091996D01*
X136060209Y-103026080D01*
X135988420Y-102950807D01*
X135949828Y-102913806D01*
X135896733Y-102862989D01*
X135851237Y-102817236D01*
X135817367Y-102780762D01*
X135799150Y-102757784D01*
X135797338Y-102754149D01*
X135777855Y-102734232D01*
X135740276Y-102721201D01*
X135694304Y-102717075D01*
X135650500Y-102723604D01*
X135627259Y-102736963D01*
X135587749Y-102766301D01*
X135536203Y-102808200D01*
X135476852Y-102859242D01*
X135425715Y-102905168D01*
X135352592Y-102972617D01*
X135299095Y-103024951D01*
X135264003Y-103066079D01*
X135246091Y-103099909D01*
X135244139Y-103130349D01*
X134446539Y-103130349D01*
X134582117Y-102920977D01*
X134761030Y-102675807D01*
X136447784Y-102675807D01*
X136448457Y-102716313D01*
X136449803Y-102780866D01*
X136451772Y-102867385D01*
X136454312Y-102973789D01*
X136457373Y-103097995D01*
X136460903Y-103237921D01*
X136464851Y-103391486D01*
X136469167Y-103556608D01*
X136473800Y-103731205D01*
X136476628Y-103836611D01*
X136481692Y-104025044D01*
X136486690Y-104211972D01*
X136491546Y-104394514D01*
X136496185Y-104569787D01*
X136500531Y-104734909D01*
X136504509Y-104886998D01*
X136508043Y-105023174D01*
X136511058Y-105140552D01*
X136513478Y-105236253D01*
X136515227Y-105307393D01*
X136515571Y-105321868D01*
X136518096Y-105424130D01*
X136520525Y-105502106D01*
X136523302Y-105559731D01*
X136526870Y-105600934D01*
X136531675Y-105629649D01*
X136538159Y-105649808D01*
X136546768Y-105665342D01*
X136555728Y-105677393D01*
X136581169Y-105704768D01*
X136601899Y-105719097D01*
X136604629Y-105719664D01*
X136623607Y-105731694D01*
X136628241Y-105739944D01*
X136648384Y-105757664D01*
X136689740Y-105772353D01*
X136745359Y-105782729D01*
X136808284Y-105787508D01*
X136871564Y-105785409D01*
X136873613Y-105785204D01*
X136952693Y-105772858D01*
X137030274Y-105753302D01*
X137099125Y-105728967D01*
X137152016Y-105702281D01*
X137175389Y-105683807D01*
X137187504Y-105669321D01*
X137195932Y-105652697D01*
X137201270Y-105628977D01*
X137204114Y-105593200D01*
X137205061Y-105540410D01*
X137204709Y-105465645D01*
X137204479Y-105442093D01*
X137203073Y-105362309D01*
X137200406Y-105262583D01*
X137196753Y-105151155D01*
X137192385Y-105036262D01*
X137187575Y-104926144D01*
X137186936Y-104912699D01*
X137181281Y-104771265D01*
X137179865Y-104652062D01*
X137183751Y-104549275D01*
X137194003Y-104457092D01*
X137211685Y-104369699D01*
X137237858Y-104281284D01*
X137273588Y-104186033D01*
X137319936Y-104078133D01*
X137352805Y-104005944D01*
X137401677Y-103904268D01*
X137449947Y-103811689D01*
X137495639Y-103731462D01*
X137536781Y-103666843D01*
X137571398Y-103621086D01*
X137597516Y-103597447D01*
X137601650Y-103595626D01*
X137635598Y-103598260D01*
X137668260Y-103627404D01*
X137698611Y-103681348D01*
X137725622Y-103758381D01*
X137743364Y-103831699D01*
X137754204Y-103891877D01*
X137767346Y-103977525D01*
X137782465Y-104086011D01*
X137799237Y-104214706D01*
X137817338Y-104360977D01*
X137836445Y-104522196D01*
X137856232Y-104695730D01*
X137876376Y-104878950D01*
X137896553Y-105069224D01*
X137900431Y-105106611D01*
X137915237Y-105248030D01*
X137928149Y-105364263D01*
X137939961Y-105458219D01*
X137951468Y-105532807D01*
X137963465Y-105590936D01*
X137976745Y-105635512D01*
X137992103Y-105669446D01*
X138010333Y-105695645D01*
X138032230Y-105717018D01*
X138058587Y-105736474D01*
X138075484Y-105747546D01*
X138123355Y-105776283D01*
X138170943Y-105801794D01*
X138190111Y-105810816D01*
X138249333Y-105826610D01*
X138321438Y-105832012D01*
X138393118Y-105826924D01*
X138447755Y-105812683D01*
X138507392Y-105774438D01*
X138558331Y-105712338D01*
X138601765Y-105625414D01*
X138609385Y-105606124D01*
X138615722Y-105587587D01*
X138620892Y-105567134D01*
X138625012Y-105542096D01*
X138628196Y-105509805D01*
X138630561Y-105467591D01*
X138632222Y-105412785D01*
X138633294Y-105342719D01*
X138633894Y-105254723D01*
X138634138Y-105146128D01*
X138634140Y-105014266D01*
X138634037Y-104880833D01*
X138632940Y-104646809D01*
X138629921Y-104437785D01*
X138624745Y-104250591D01*
X138617178Y-104082054D01*
X138606987Y-103929003D01*
X138593936Y-103788268D01*
X138577792Y-103656677D01*
X138558320Y-103531058D01*
X138535286Y-103408240D01*
X138519899Y-103335667D01*
X138480748Y-103194214D01*
X138429970Y-103068997D01*
X138369156Y-102962394D01*
X138299898Y-102876785D01*
X138223786Y-102814546D01*
X138148041Y-102779663D01*
X138102152Y-102769826D01*
X138043984Y-102762626D01*
X137980946Y-102758312D01*
X137920442Y-102757136D01*
X137869881Y-102759348D01*
X137836670Y-102765198D01*
X137829572Y-102768890D01*
X137809227Y-102780361D01*
X137772478Y-102796350D01*
X137749536Y-102805183D01*
X137674102Y-102842970D01*
X137605774Y-102899483D01*
X137541819Y-102977634D01*
X137479506Y-103080336D01*
X137464386Y-103109167D01*
X137422974Y-103195234D01*
X137396634Y-103261793D01*
X137385985Y-103307245D01*
X137385778Y-103312415D01*
X137381116Y-103349652D01*
X137364355Y-103368172D01*
X137356492Y-103371282D01*
X137330151Y-103375797D01*
X137319937Y-103373307D01*
X137317614Y-103357791D01*
X137314859Y-103317900D01*
X137311844Y-103257478D01*
X137308745Y-103180365D01*
X137305733Y-103090403D01*
X137303362Y-103006295D01*
X137300461Y-102908224D01*
X137297142Y-102819560D01*
X137293607Y-102744182D01*
X137290059Y-102685968D01*
X137286697Y-102648798D01*
X137284141Y-102636648D01*
X137268746Y-102635165D01*
X137229500Y-102634707D01*
X137170684Y-102635149D01*
X137096581Y-102636363D01*
X137011475Y-102638221D01*
X136919648Y-102640598D01*
X136825382Y-102643366D01*
X136732961Y-102646399D01*
X136646668Y-102649569D01*
X136570784Y-102652750D01*
X136509593Y-102655814D01*
X136467378Y-102658636D01*
X136448421Y-102661087D01*
X136447836Y-102661431D01*
X136447784Y-102675807D01*
X134761030Y-102675807D01*
X134844021Y-102562082D01*
X135126586Y-102216048D01*
X135374532Y-101943613D01*
X137782370Y-101943613D01*
X137786009Y-101974045D01*
X137796461Y-102013265D01*
X137801125Y-102029276D01*
X137819549Y-102078650D01*
X137847281Y-102125265D01*
X137889717Y-102177526D01*
X137911771Y-102201632D01*
X137960464Y-102249926D01*
X138021666Y-102305202D01*
X138088167Y-102361456D01*
X138152759Y-102412680D01*
X138208232Y-102452870D01*
X138230105Y-102466836D01*
X138249088Y-102465001D01*
X138291990Y-102452327D01*
X138356960Y-102429481D01*
X138442146Y-102397127D01*
X138545697Y-102355934D01*
X138600931Y-102333402D01*
X138694009Y-102295446D01*
X138778269Y-102261631D01*
X138850283Y-102233291D01*
X138906623Y-102211756D01*
X138943859Y-102198358D01*
X138958563Y-102194429D01*
X138958617Y-102194469D01*
X138959658Y-102209052D01*
X138961192Y-102250021D01*
X138963177Y-102315543D01*
X138965569Y-102403787D01*
X138968325Y-102512923D01*
X138971403Y-102641117D01*
X138974759Y-102786538D01*
X138978350Y-102947355D01*
X138982133Y-103121736D01*
X138986066Y-103307849D01*
X138990104Y-103503864D01*
X138994206Y-103707947D01*
X138994358Y-103715628D01*
X138999150Y-103956083D01*
X139003476Y-104169937D01*
X139007397Y-104358807D01*
X139010968Y-104524307D01*
X139014249Y-104668055D01*
X139017297Y-104791667D01*
X139020170Y-104896758D01*
X139022926Y-104984946D01*
X139025623Y-105057846D01*
X139028319Y-105117074D01*
X139031071Y-105164247D01*
X139033938Y-105200982D01*
X139036978Y-105228893D01*
X139040247Y-105249598D01*
X139043805Y-105264712D01*
X139047710Y-105275852D01*
X139050469Y-105281744D01*
X139104289Y-105356235D01*
X139181560Y-105418092D01*
X139213167Y-105436010D01*
X139278165Y-105457683D01*
X139356627Y-105466417D01*
X139436900Y-105462151D01*
X139507334Y-105444822D01*
X139523611Y-105437668D01*
X139598405Y-105399908D01*
X139651549Y-105371176D01*
X139686831Y-105348275D01*
X139708040Y-105328011D01*
X139718964Y-105307187D01*
X139723390Y-105282608D01*
X139724329Y-105268342D01*
X139725003Y-105245380D01*
X139726075Y-105196253D01*
X139727511Y-105123019D01*
X139727831Y-105105723D01*
X142917988Y-105105723D01*
X142920286Y-105122775D01*
X142928618Y-105140552D01*
X142945944Y-105162026D01*
X142975224Y-105190169D01*
X143019418Y-105227954D01*
X143081487Y-105278351D01*
X143122681Y-105311222D01*
X143190353Y-105364733D01*
X143252935Y-105413645D01*
X143306080Y-105454604D01*
X143345446Y-105484261D01*
X143365443Y-105498480D01*
X143410870Y-105515995D01*
X143454958Y-105507354D01*
X143500558Y-105471818D01*
X143510478Y-105461000D01*
X143535820Y-105430664D01*
X143572821Y-105384530D01*
X143616137Y-105329327D01*
X143652819Y-105281753D01*
X143696998Y-105225241D01*
X143739195Y-105173514D01*
X143774189Y-105132846D01*
X143794308Y-105111718D01*
X143820201Y-105082891D01*
X143833569Y-105058916D01*
X143834087Y-105055088D01*
X143820779Y-105016934D01*
X143782805Y-104966655D01*
X143720728Y-104904773D01*
X143635112Y-104831807D01*
X143526521Y-104748280D01*
X143416579Y-104669368D01*
X143373431Y-104641152D01*
X143341760Y-104627495D01*
X143311181Y-104625103D01*
X143286450Y-104628114D01*
X143241345Y-104641280D01*
X143220377Y-104663321D01*
X143219849Y-104664864D01*
X143206706Y-104689805D01*
X143181090Y-104727581D01*
X143152159Y-104765430D01*
X143111836Y-104817955D01*
X143070838Y-104875330D01*
X143048177Y-104909388D01*
X143014931Y-104957018D01*
X142979026Y-105001473D01*
X142960246Y-105021390D01*
X142927077Y-105064214D01*
X142917988Y-105105723D01*
X139727831Y-105105723D01*
X139729275Y-105027730D01*
X139731332Y-104912443D01*
X139733645Y-104779212D01*
X139736180Y-104630093D01*
X139738901Y-104467141D01*
X139741772Y-104292410D01*
X139744757Y-104107956D01*
X139747822Y-103915834D01*
X139748739Y-103857778D01*
X139751958Y-103655998D01*
X139754988Y-103470244D01*
X140058703Y-103470244D01*
X140072579Y-103641875D01*
X140102555Y-103797736D01*
X140148990Y-103939912D01*
X140212242Y-104070490D01*
X140292670Y-104191553D01*
X140355294Y-104267212D01*
X140418503Y-104335829D01*
X140471317Y-104387259D01*
X140520552Y-104426685D01*
X140573024Y-104459289D01*
X140635546Y-104490252D01*
X140667114Y-104504306D01*
X140720413Y-104525830D01*
X140766269Y-104538874D01*
X140815773Y-104545560D01*
X140880016Y-104548011D01*
X140896512Y-104548186D01*
X140972004Y-104545962D01*
X141053101Y-104539135D01*
X141124458Y-104529075D01*
X141136301Y-104526776D01*
X141297005Y-104480289D01*
X141442348Y-104410785D01*
X141571056Y-104319126D01*
X141681859Y-104206171D01*
X141750064Y-104111778D01*
X141780762Y-104066403D01*
X141810519Y-104027520D01*
X141829087Y-104007285D01*
X141851109Y-103981188D01*
X141859000Y-103960999D01*
X141864209Y-103938546D01*
X141877790Y-103899265D01*
X141894592Y-103857032D01*
X141924683Y-103776336D01*
X141938657Y-103711331D01*
X141936896Y-103654813D01*
X141919784Y-103599576D01*
X141909436Y-103577621D01*
X141876178Y-103524326D01*
X141842777Y-103493453D01*
X141835477Y-103489993D01*
X141796780Y-103471267D01*
X141760471Y-103448733D01*
X141721882Y-103428241D01*
X141672926Y-103410790D01*
X141658874Y-103407227D01*
X141574927Y-103401595D01*
X141497612Y-103422497D01*
X141429499Y-103468540D01*
X141373158Y-103538330D01*
X141354661Y-103572236D01*
X141321991Y-103625201D01*
X141271958Y-103688867D01*
X141209989Y-103757288D01*
X141141511Y-103824518D01*
X141071951Y-103884612D01*
X141063324Y-103891425D01*
X141027434Y-103916228D01*
X140995991Y-103926267D01*
X140954743Y-103925342D01*
X140941602Y-103923887D01*
X140872873Y-103910735D01*
X140830415Y-103890820D01*
X140814845Y-103864440D01*
X140814778Y-103862365D01*
X140804298Y-103835467D01*
X140792670Y-103823557D01*
X140774331Y-103795044D01*
X140761515Y-103743072D01*
X140754516Y-103671914D01*
X140753627Y-103585843D01*
X140759143Y-103489133D01*
X140765539Y-103428660D01*
X140775329Y-103354570D01*
X140784036Y-103303356D01*
X140793075Y-103269779D01*
X140803864Y-103248605D01*
X140817821Y-103234595D01*
X140818106Y-103234378D01*
X140847669Y-103219989D01*
X140864466Y-103223026D01*
X140887856Y-103227474D01*
X140931289Y-103223126D01*
X140988574Y-103211584D01*
X141053518Y-103194452D01*
X141119930Y-103173333D01*
X141181617Y-103149830D01*
X141224501Y-103129814D01*
X141321187Y-103066834D01*
X141418310Y-102981143D01*
X141511491Y-102877838D01*
X141596351Y-102762015D01*
X141668510Y-102638771D01*
X141696412Y-102580588D01*
X141739371Y-102467860D01*
X141773801Y-102344917D01*
X141798707Y-102218447D01*
X141813095Y-102095136D01*
X141815971Y-101981673D01*
X141806341Y-101884745D01*
X141802524Y-101866640D01*
X141760906Y-101745259D01*
X141697509Y-101641816D01*
X141612367Y-101556342D01*
X141505514Y-101488868D01*
X141376986Y-101439425D01*
X141307339Y-101422050D01*
X141176105Y-101407787D01*
X141045635Y-101420905D01*
X140915507Y-101461573D01*
X140785301Y-101529960D01*
X140654593Y-101626233D01*
X140546667Y-101726182D01*
X140451909Y-101839612D01*
X140366461Y-101979089D01*
X140290273Y-102144746D01*
X140223292Y-102336717D01*
X140165464Y-102555136D01*
X140116738Y-102800135D01*
X140110098Y-102839879D01*
X140077821Y-103071331D01*
X140060570Y-103280758D01*
X140058703Y-103470244D01*
X139754988Y-103470244D01*
X139755224Y-103455805D01*
X139758489Y-103259853D01*
X139761707Y-103070800D01*
X139764829Y-102891303D01*
X139767808Y-102724019D01*
X139770598Y-102571603D01*
X139773150Y-102436714D01*
X139775417Y-102322007D01*
X139777353Y-102230140D01*
X139778910Y-102163769D01*
X139778943Y-102162468D01*
X139787899Y-101814770D01*
X140156700Y-101670251D01*
X140277372Y-101622754D01*
X140374365Y-101583544D01*
X140450319Y-101550726D01*
X140507878Y-101522406D01*
X140549682Y-101496692D01*
X140578374Y-101471688D01*
X140596597Y-101445500D01*
X140606991Y-101416235D01*
X140612200Y-101381999D01*
X140614817Y-101341836D01*
X140612924Y-101251889D01*
X140596181Y-101183357D01*
X140563406Y-101132963D01*
X140529877Y-101106473D01*
X140489974Y-101088916D01*
X140445719Y-101078990D01*
X140407663Y-101078240D01*
X140388300Y-101085737D01*
X140372643Y-101093018D01*
X140334371Y-101107912D01*
X140277586Y-101128942D01*
X140206392Y-101154628D01*
X140124890Y-101183494D01*
X140037182Y-101214061D01*
X139947373Y-101244851D01*
X139934715Y-101249147D01*
X139887884Y-101262861D01*
X139850124Y-101270058D01*
X139832409Y-101269710D01*
X139825331Y-101261785D01*
X139820106Y-101241957D01*
X139816491Y-101206834D01*
X139814244Y-101153026D01*
X139813120Y-101077140D01*
X139812867Y-100997193D01*
X139812097Y-100888606D01*
X139809159Y-100804415D01*
X139803082Y-100740821D01*
X139792894Y-100694022D01*
X139777622Y-100660220D01*
X139756297Y-100635613D01*
X139727945Y-100616401D01*
X139713609Y-100608977D01*
X139692430Y-100599964D01*
X139668960Y-100594021D01*
X139638249Y-100590966D01*
X139595346Y-100590617D01*
X139535303Y-100592794D01*
X139453168Y-100597315D01*
X139431386Y-100598621D01*
X139342852Y-100603425D01*
X139254418Y-100607255D01*
X139174184Y-100609824D01*
X139110251Y-100610848D01*
X139088402Y-100610718D01*
X139025468Y-100611300D01*
X138984768Y-100616314D01*
X138960540Y-100626628D01*
X138955804Y-100630704D01*
X138949621Y-100639392D01*
X138944999Y-100653542D01*
X138941900Y-100676214D01*
X138940281Y-100710470D01*
X138940104Y-100759370D01*
X138941326Y-100825976D01*
X138943909Y-100913350D01*
X138947810Y-101024551D01*
X138949864Y-101079934D01*
X138953532Y-101186999D01*
X138956229Y-101284861D01*
X138957909Y-101369991D01*
X138958528Y-101438859D01*
X138958040Y-101487934D01*
X138956399Y-101513688D01*
X138955462Y-101516628D01*
X138936373Y-101526452D01*
X138901382Y-101539525D01*
X138888611Y-101543667D01*
X138857159Y-101554071D01*
X138804619Y-101572089D01*
X138736470Y-101595816D01*
X138658194Y-101623344D01*
X138585222Y-101649222D01*
X138485457Y-101683486D01*
X138369325Y-101721365D01*
X138247781Y-101759403D01*
X138131782Y-101794146D01*
X138066102Y-101812893D01*
X137967929Y-101840351D01*
X137893979Y-101862382D01*
X137841349Y-101881354D01*
X137807139Y-101899637D01*
X137788446Y-101919600D01*
X137782370Y-101943613D01*
X135374532Y-101943613D01*
X135428037Y-101884824D01*
X135746599Y-101570361D01*
X136080495Y-101274606D01*
X136427949Y-100999510D01*
X136787186Y-100747022D01*
X137156431Y-100519091D01*
X137162290Y-100515724D01*
X137216909Y-100485532D01*
X137293353Y-100444961D01*
X137387991Y-100395819D01*
X137497197Y-100339920D01*
X137617340Y-100279074D01*
X137744794Y-100215093D01*
X137875927Y-100149787D01*
X138007113Y-100084969D01*
X138134723Y-100022450D01*
X138255127Y-99964040D01*
X138364697Y-99911552D01*
X138459804Y-99866796D01*
X138493500Y-99851228D01*
X138947960Y-99648191D01*
X139138541Y-99568049D01*
X141909897Y-99568049D01*
X141940724Y-100030163D01*
X141946069Y-100110275D01*
X141953114Y-100215851D01*
X141961679Y-100344194D01*
X141971585Y-100492610D01*
X141982652Y-100658402D01*
X141994699Y-100838874D01*
X142007547Y-101031331D01*
X142021015Y-101233078D01*
X142034923Y-101441417D01*
X142049093Y-101653654D01*
X142063343Y-101867092D01*
X142070006Y-101966889D01*
X142084128Y-102178621D01*
X142098161Y-102389490D01*
X142111936Y-102596899D01*
X142125281Y-102798254D01*
X142138025Y-102990958D01*
X142149996Y-103172415D01*
X142161025Y-103340030D01*
X142170938Y-103491206D01*
X142179567Y-103623347D01*
X142186738Y-103733858D01*
X142192281Y-103820143D01*
X142194445Y-103854283D01*
X142202444Y-103979839D01*
X142209504Y-104080479D01*
X142216486Y-104159452D01*
X142224252Y-104220005D01*
X142233663Y-104265388D01*
X142245581Y-104298850D01*
X142260868Y-104323638D01*
X142280384Y-104343001D01*
X142304990Y-104360189D01*
X142333049Y-104376980D01*
X142362454Y-104392343D01*
X142391765Y-104401525D01*
X142428867Y-104405683D01*
X142481647Y-104405976D01*
X142522658Y-104404827D01*
X142590124Y-104401518D01*
X142638005Y-104395743D01*
X142674932Y-104385650D01*
X142709536Y-104369386D01*
X142722694Y-104361894D01*
X142768435Y-104329211D01*
X142802781Y-104288006D01*
X142828092Y-104242324D01*
X142867945Y-104161167D01*
X142880628Y-101909740D01*
X142881978Y-101659049D01*
X142883167Y-101415547D01*
X142884194Y-101180776D01*
X142885055Y-100956278D01*
X142885751Y-100743596D01*
X142886278Y-100544271D01*
X142886634Y-100359846D01*
X142886818Y-100191862D01*
X142886828Y-100041862D01*
X142886661Y-99911389D01*
X142886316Y-99801984D01*
X142885791Y-99715189D01*
X142885084Y-99652546D01*
X142884193Y-99615598D01*
X142883527Y-99606157D01*
X142868415Y-99558364D01*
X142841211Y-99519762D01*
X142799474Y-99489546D01*
X142740765Y-99466911D01*
X142662643Y-99451052D01*
X142562669Y-99441166D01*
X142438402Y-99436445D01*
X142367000Y-99435773D01*
X142243265Y-99437711D01*
X142144330Y-99444596D01*
X142067099Y-99457105D01*
X142008475Y-99475914D01*
X141965361Y-99501701D01*
X141938777Y-99529368D01*
X141909897Y-99568049D01*
X139138541Y-99568049D01*
X139384602Y-99464577D01*
X139805507Y-99299798D01*
X140212759Y-99153265D01*
X140608438Y-99024390D01*
X140994628Y-98912584D01*
X141373411Y-98817260D01*
X141746869Y-98737829D01*
X142117083Y-98673703D01*
X142486137Y-98624293D01*
X142856113Y-98589011D01*
X142994945Y-98579338D01*
X143119565Y-98573430D01*
X143269135Y-98569691D01*
X143440464Y-98568157D01*
X143630359Y-98568864D01*
X143764000Y-98570571D01*
X144135449Y-98581394D01*
X144483226Y-98601757D01*
X144810375Y-98632094D01*
X145119937Y-98672842D01*
X145414954Y-98724434D01*
X145698470Y-98787306D01*
X145973525Y-98861892D01*
X146120556Y-98907500D01*
X146300465Y-98969690D01*
X146472905Y-99036897D01*
X146634535Y-99107476D01*
X146782014Y-99179781D01*
X146912000Y-99252166D01*
X147021154Y-99322986D01*
X147106134Y-99390594D01*
X147111714Y-99395746D01*
X147137694Y-99417550D01*
X147153697Y-99426353D01*
X147155216Y-99425860D01*
X147157971Y-99411227D01*
X147164335Y-99370947D01*
X147173972Y-99307318D01*
X147186546Y-99222636D01*
X147201719Y-99119200D01*
X147219158Y-98999308D01*
X147238524Y-98865256D01*
X147259482Y-98719344D01*
X147281695Y-98563869D01*
X147293943Y-98477805D01*
X147427826Y-97535777D01*
X147278663Y-97487804D01*
X147065759Y-97425134D01*
X146828641Y-97365886D01*
X146571178Y-97310706D01*
X146297243Y-97260245D01*
X146010705Y-97215150D01*
X145715437Y-97176070D01*
X145415307Y-97143654D01*
X145114189Y-97118550D01*
X145048111Y-97114068D01*
X145041884Y-97112771D01*
X145062795Y-97111504D01*
X145109760Y-97110272D01*
X145181692Y-97109083D01*
X145277510Y-97107943D01*
X145396126Y-97106857D01*
X145536459Y-97105833D01*
X145697421Y-97104876D01*
X145877931Y-97103994D01*
X146076901Y-97103192D01*
X146293250Y-97102476D01*
X146525891Y-97101854D01*
X146773740Y-97101332D01*
X147035713Y-97100915D01*
X147310725Y-97100611D01*
X147344695Y-97100582D01*
X149817667Y-97098556D01*
X149817667Y-112719556D01*
X149817667Y-112719556D01*
G37*
X149817667Y-112719556D02*
X132884334Y-112719556D01*
X132886297Y-109498694D01*
X132886542Y-109179820D01*
X132886879Y-108873283D01*
X132887302Y-108580066D01*
X132887808Y-108301151D01*
X132888392Y-108037521D01*
X132889050Y-107790159D01*
X132889777Y-107560048D01*
X132890569Y-107348170D01*
X132891422Y-107155509D01*
X132892330Y-106983046D01*
X132893291Y-106831765D01*
X132894298Y-106702648D01*
X132895349Y-106596679D01*
X132896438Y-106514839D01*
X132897561Y-106458112D01*
X132898713Y-106427479D01*
X132899891Y-106423925D01*
X132900087Y-106426000D01*
X132948252Y-106862265D01*
X133022139Y-107287305D01*
X133121611Y-107700814D01*
X133246535Y-108102490D01*
X133396776Y-108492029D01*
X133572198Y-108869125D01*
X133772668Y-109233475D01*
X133998051Y-109584776D01*
X134248212Y-109922722D01*
X134523016Y-110247011D01*
X134655278Y-110389026D01*
X134948087Y-110676996D01*
X135254483Y-110943887D01*
X135575177Y-111190003D01*
X135910883Y-111415648D01*
X136262312Y-111621126D01*
X136630177Y-111806741D01*
X137015190Y-111972797D01*
X137418064Y-112119598D01*
X137839511Y-112247448D01*
X138280243Y-112356651D01*
X138740974Y-112447511D01*
X139222414Y-112520333D01*
X139725277Y-112575420D01*
X139791722Y-112581248D01*
X139871025Y-112586435D01*
X139974129Y-112590746D01*
X140096645Y-112594180D01*
X140234185Y-112596738D01*
X140382361Y-112598420D01*
X140536783Y-112599226D01*
X140693063Y-112599157D01*
X140846813Y-112598212D01*
X140993643Y-112596391D01*
X141129164Y-112593695D01*
X141248990Y-112590123D01*
X141348729Y-112585677D01*
X141414500Y-112581204D01*
X141776585Y-112545407D01*
X142123453Y-112500780D01*
X142459840Y-112446216D01*
X142790480Y-112380609D01*
X143120111Y-112302852D01*
X143453466Y-112211839D01*
X143795281Y-112106463D01*
X144150292Y-111985618D01*
X144477684Y-111865484D01*
X144957132Y-111671421D01*
X145417235Y-111459180D01*
X145857375Y-111229140D01*
X146276931Y-110981684D01*
X146675286Y-110717192D01*
X147051820Y-110436046D01*
X147405915Y-110138626D01*
X147649663Y-109911665D01*
X147957242Y-109593162D01*
X148241212Y-109259233D01*
X148501527Y-108909941D01*
X148738140Y-108545349D01*
X148951003Y-108165522D01*
X148978326Y-108112278D01*
X149168482Y-107708158D01*
X149330901Y-107299826D01*
X149465532Y-106887605D01*
X149572325Y-106471818D01*
X149651227Y-106052788D01*
X149702189Y-105630838D01*
X149725160Y-105206291D01*
X149720087Y-104779471D01*
X149686921Y-104350700D01*
X149633044Y-103963611D01*
X149556818Y-103588613D01*
X149456307Y-103226281D01*
X149330887Y-102875181D01*
X149179939Y-102533881D01*
X149002842Y-102200945D01*
X148798973Y-101874939D01*
X148618441Y-101621167D01*
X148365269Y-101306858D01*
X148092333Y-101012412D01*
X147800530Y-100738470D01*
X147490761Y-100485671D01*
X147163923Y-100254657D01*
X146820916Y-100046067D01*
X146462639Y-99860543D01*
X146089990Y-99698724D01*
X145746611Y-99575043D01*
X145541796Y-99511815D01*
X145335290Y-99455803D01*
X145121846Y-99405877D01*
X144896213Y-99360908D01*
X144653142Y-99319764D01*
X144387384Y-99281316D01*
X144374306Y-99279564D01*
X144328445Y-99273441D01*
X144328445Y-100818230D01*
X144522472Y-100835727D01*
X144888603Y-100881124D01*
X145256101Y-100950785D01*
X145619842Y-101043321D01*
X145974702Y-101157343D01*
X146315558Y-101291463D01*
X146482143Y-101367055D01*
X146769554Y-101516742D01*
X147044020Y-101685642D01*
X147302714Y-101871569D01*
X147542808Y-102072340D01*
X147761474Y-102285772D01*
X147946963Y-102498490D01*
X148178183Y-102804576D01*
X148381522Y-103111011D01*
X148557316Y-103418532D01*
X148705904Y-103727876D01*
X148827623Y-104039780D01*
X148922811Y-104354981D01*
X148991805Y-104674215D01*
X149016033Y-104831444D01*
X149025404Y-104926772D01*
X149031463Y-105043378D01*
X149034307Y-105174524D01*
X149034033Y-105313472D01*
X149030739Y-105453484D01*
X149024523Y-105587824D01*
X149015480Y-105709753D01*
X149003710Y-105812533D01*
X149001654Y-105826278D01*
X148932417Y-106187238D01*
X148837924Y-106540636D01*
X148717741Y-106887419D01*
X148571430Y-107228537D01*
X148398555Y-107564936D01*
X148198680Y-107897564D01*
X147971369Y-108227368D01*
X147783681Y-108472111D01*
X147482339Y-108826303D01*
X147161063Y-109160767D01*
X146820367Y-109475226D01*
X146460767Y-109769402D01*
X146082779Y-110043016D01*
X145686918Y-110295790D01*
X145273698Y-110527448D01*
X144843637Y-110737710D01*
X144397248Y-110926298D01*
X143935048Y-111092936D01*
X143457551Y-111237345D01*
X142965273Y-111359246D01*
X142458730Y-111458362D01*
X142159905Y-111505114D01*
X141833478Y-111547970D01*
X141528008Y-111580338D01*
X141238416Y-111602620D01*
X140959623Y-111615218D01*
X140723056Y-111618613D01*
X140228578Y-111606365D01*
X139735959Y-111569932D01*
X139248254Y-111509790D01*
X138768518Y-111426418D01*
X138299807Y-111320293D01*
X137845176Y-111191894D01*
X137703278Y-111146217D01*
X137287526Y-110995329D01*
X136891282Y-110825138D01*
X136514873Y-110635864D01*
X136158626Y-110427723D01*
X135822868Y-110200934D01*
X135507923Y-109955715D01*
X135214120Y-109692284D01*
X134941785Y-109410858D01*
X134732055Y-109163477D01*
X134494228Y-108850239D01*
X134283305Y-108540271D01*
X134098417Y-108231831D01*
X133938694Y-107923178D01*
X133803266Y-107612571D01*
X133691265Y-107298267D01*
X133676209Y-107244444D01*
X137865556Y-107244444D01*
X137865584Y-107311472D01*
X137865892Y-107335191D01*
X137866778Y-107385022D01*
X137868198Y-107458865D01*
X137870110Y-107554616D01*
X137872469Y-107670173D01*
X137875231Y-107803434D01*
X137878354Y-107952296D01*
X137881794Y-108114658D01*
X137885506Y-108288417D01*
X137889447Y-108471470D01*
X137893574Y-108661716D01*
X137894006Y-108681552D01*
X137899637Y-108933438D01*
X137904951Y-109157610D01*
X137909965Y-109354576D01*
X137914696Y-109524841D01*
X137919161Y-109668914D01*
X137923377Y-109787300D01*
X137927361Y-109880507D01*
X137931130Y-109949040D01*
X137934701Y-109993408D01*
X137938090Y-110014117D01*
X137938494Y-110015052D01*
X137976939Y-110068748D01*
X138029186Y-110117183D01*
X138085851Y-110152666D01*
X138121969Y-110165439D01*
X138172632Y-110171963D01*
X138238975Y-110174596D01*
X138313565Y-110173719D01*
X138388973Y-110169710D01*
X138457767Y-110162951D01*
X138512515Y-110153821D01*
X138543666Y-110143876D01*
X138557654Y-110136632D01*
X138570179Y-110129141D01*
X138581330Y-110119874D01*
X138591200Y-110107307D01*
X138599880Y-110089914D01*
X138607462Y-110066167D01*
X138614036Y-110034543D01*
X138619694Y-109993513D01*
X138624527Y-109941552D01*
X138628627Y-109877135D01*
X138632085Y-109798735D01*
X138634992Y-109704825D01*
X138637440Y-109593881D01*
X138639520Y-109464375D01*
X138641324Y-109314783D01*
X138642942Y-109143577D01*
X138644466Y-108949232D01*
X138645988Y-108730221D01*
X138647598Y-108485019D01*
X138648165Y-108398028D01*
X138649393Y-108199630D01*
X138650292Y-108027677D01*
X138650840Y-107880390D01*
X138651015Y-107755993D01*
X138650796Y-107652708D01*
X138650159Y-107568759D01*
X138649084Y-107502370D01*
X138647548Y-107451762D01*
X138645529Y-107415159D01*
X138643005Y-107390785D01*
X138639954Y-107376861D01*
X138636355Y-107371612D01*
X138635469Y-107371444D01*
X138615336Y-107366227D01*
X138575262Y-107352052D01*
X138521222Y-107331141D01*
X138464507Y-107307944D01*
X138312942Y-107244444D01*
X137865556Y-107244444D01*
X133676209Y-107244444D01*
X133601820Y-106978525D01*
X133569117Y-106834393D01*
X133516333Y-106529653D01*
X133487064Y-106224519D01*
X133481297Y-105915520D01*
X133499022Y-105599187D01*
X133540227Y-105272050D01*
X133563629Y-105135500D01*
X133589179Y-105019819D01*
X133626477Y-104884043D01*
X133673879Y-104732916D01*
X133729738Y-104571185D01*
X133792409Y-104403594D01*
X133860247Y-104234890D01*
X133931607Y-104069819D01*
X133938131Y-104055333D01*
X134019027Y-103890442D01*
X135371493Y-103890442D01*
X135377440Y-104039916D01*
X135378772Y-104077239D01*
X135380840Y-104140334D01*
X135383570Y-104226762D01*
X135386888Y-104334083D01*
X135390721Y-104459860D01*
X135394994Y-104601652D01*
X135399635Y-104757020D01*
X135404569Y-104923527D01*
X135409723Y-105098732D01*
X135415022Y-105280197D01*
X135417379Y-105361310D01*
X135422720Y-105541248D01*
X135428069Y-105713447D01*
X135433344Y-105875766D01*
X135438465Y-106026065D01*
X135443351Y-106162200D01*
X135447923Y-106282032D01*
X135452099Y-106383418D01*
X135455799Y-106464219D01*
X135458943Y-106522291D01*
X135461450Y-106555494D01*
X135462547Y-106562432D01*
X135488725Y-106601055D01*
X135532874Y-106638844D01*
X135585477Y-106668575D01*
X135616730Y-106679438D01*
X135657002Y-106684867D01*
X135717196Y-106687321D01*
X135789189Y-106686977D01*
X135864858Y-106684013D01*
X135936079Y-106678608D01*
X135963117Y-106675102D01*
X137851445Y-106675102D01*
X137860938Y-106718225D01*
X137884472Y-106757376D01*
X137911164Y-106778456D01*
X137933165Y-106791656D01*
X137972370Y-106819131D01*
X138024036Y-106857408D01*
X138083422Y-106903016D01*
X138112500Y-106925877D01*
X138177605Y-106977142D01*
X138225440Y-107013359D01*
X138260741Y-107037152D01*
X138288241Y-107051148D01*
X138312674Y-107057971D01*
X138338776Y-107060246D01*
X138355320Y-107060508D01*
X138428807Y-107061000D01*
X138598436Y-106852861D01*
X138669515Y-106764215D01*
X138721779Y-106693078D01*
X138754968Y-106635692D01*
X138768822Y-106588301D01*
X138763082Y-106547147D01*
X138757617Y-106538889D01*
X138994445Y-106538889D01*
X138995105Y-106591806D01*
X138995704Y-106613026D01*
X138997269Y-106660496D01*
X138999731Y-106732259D01*
X139003019Y-106826362D01*
X139007065Y-106940849D01*
X139011797Y-107073766D01*
X139017147Y-107223158D01*
X139023045Y-107387070D01*
X139029420Y-107563549D01*
X139036204Y-107750638D01*
X139043325Y-107946384D01*
X139048679Y-108093105D01*
X139101594Y-109541488D01*
X139136214Y-109592314D01*
X139161197Y-109623527D01*
X139182799Y-109641513D01*
X139188472Y-109643237D01*
X139204881Y-109651188D01*
X139206111Y-109655732D01*
X139219050Y-109674854D01*
X139254309Y-109688337D01*
X139306557Y-109696175D01*
X139370460Y-109698360D01*
X139440684Y-109694886D01*
X139511896Y-109685745D01*
X139578763Y-109670930D01*
X139622389Y-109656279D01*
X139679187Y-109629168D01*
X139717856Y-109598017D01*
X139741050Y-109557417D01*
X139751422Y-109501962D01*
X139751628Y-109426243D01*
X139749950Y-109396389D01*
X139737687Y-109205409D01*
X139727735Y-109039735D01*
X139720234Y-108896537D01*
X139715322Y-108772982D01*
X139713137Y-108666239D01*
X139713820Y-108573476D01*
X139717509Y-108491860D01*
X139724344Y-108418562D01*
X139734462Y-108350748D01*
X139748003Y-108285587D01*
X139765106Y-108220247D01*
X139785911Y-108151897D01*
X139810555Y-108077705D01*
X139815358Y-108063660D01*
X139851432Y-107967014D01*
X139893586Y-107868011D01*
X139939467Y-107771031D01*
X139986717Y-107680453D01*
X140032983Y-107600658D01*
X140075908Y-107536025D01*
X140113137Y-107490935D01*
X140131967Y-107474946D01*
X140161400Y-107459407D01*
X140185389Y-107461351D01*
X140204727Y-107471062D01*
X140231107Y-107487711D01*
X140252280Y-107506740D01*
X140269411Y-107531789D01*
X140283667Y-107566499D01*
X140296212Y-107614510D01*
X140308210Y-107679463D01*
X140320828Y-107764997D01*
X140335230Y-107874753D01*
X140336089Y-107881498D01*
X140346360Y-107963370D01*
X140359331Y-108068542D01*
X140374432Y-108192280D01*
X140391091Y-108329851D01*
X140408735Y-108476522D01*
X140426792Y-108627560D01*
X140444691Y-108778233D01*
X140454812Y-108863914D01*
X140470905Y-108998997D01*
X140486395Y-109126227D01*
X140500904Y-109242710D01*
X140514058Y-109345550D01*
X140525480Y-109431853D01*
X140534794Y-109498723D01*
X140541624Y-109543266D01*
X140545526Y-109562414D01*
X140564202Y-109592564D01*
X140594628Y-109625821D01*
X140628336Y-109654361D01*
X140656856Y-109670361D01*
X140663667Y-109671556D01*
X140690131Y-109680747D01*
X140696334Y-109685756D01*
X140719357Y-109699662D01*
X140759887Y-109717066D01*
X140808088Y-109734468D01*
X140854124Y-109748369D01*
X140888160Y-109755270D01*
X140892389Y-109755501D01*
X140924161Y-109751124D01*
X140965772Y-109739978D01*
X140972926Y-109737575D01*
X141026038Y-109713717D01*
X141067640Y-109681148D01*
X141099392Y-109636283D01*
X141122956Y-109575537D01*
X141139993Y-109495324D01*
X141152165Y-109392059D01*
X141156140Y-109342148D01*
X141159631Y-109272863D01*
X141162123Y-109179828D01*
X141163664Y-109067495D01*
X141164306Y-108940315D01*
X141164099Y-108802740D01*
X141163092Y-108659223D01*
X141161337Y-108514215D01*
X141158882Y-108372169D01*
X141155778Y-108237537D01*
X141152076Y-108114770D01*
X141147825Y-108008321D01*
X141143075Y-107922642D01*
X141139674Y-107879444D01*
X141123063Y-107711316D01*
X141107080Y-107568580D01*
X141091285Y-107448426D01*
X141075241Y-107348044D01*
X141058508Y-107264624D01*
X141040648Y-107195355D01*
X141025777Y-107149686D01*
X141003700Y-107086725D01*
X140983589Y-107026267D01*
X140968780Y-106978449D01*
X140965371Y-106966213D01*
X140948456Y-106921084D01*
X140921419Y-106867587D01*
X140899872Y-106832282D01*
X140864666Y-106786126D01*
X140825254Y-106750910D01*
X140797430Y-106733943D01*
X141169101Y-106733943D01*
X141174266Y-106820662D01*
X141195398Y-106915093D01*
X141210491Y-106964213D01*
X141228653Y-107010815D01*
X141251749Y-107057284D01*
X141281644Y-107106004D01*
X141320203Y-107159360D01*
X141369291Y-107219737D01*
X141430774Y-107289520D01*
X141506517Y-107371094D01*
X141598385Y-107466842D01*
X141708244Y-107579151D01*
X141739960Y-107611333D01*
X141832827Y-107705826D01*
X141907361Y-107782920D01*
X141965303Y-107845056D01*
X142008393Y-107894672D01*
X142038371Y-107934209D01*
X142056980Y-107966106D01*
X142065959Y-107992801D01*
X142067049Y-108016735D01*
X142061992Y-108040347D01*
X142056765Y-108055282D01*
X142045624Y-108075328D01*
X142020181Y-108115833D01*
X141982239Y-108174086D01*
X141933606Y-108247370D01*
X141876085Y-108332974D01*
X141811483Y-108428183D01*
X141741604Y-108530284D01*
X141717117Y-108565863D01*
X141645884Y-108669637D01*
X141579330Y-108767395D01*
X141519258Y-108856433D01*
X141467469Y-108934041D01*
X141425766Y-108997514D01*
X141395952Y-109044144D01*
X141379829Y-109071224D01*
X141377789Y-109075491D01*
X141369079Y-109131175D01*
X141377675Y-109196796D01*
X141401783Y-109261514D01*
X141411362Y-109278473D01*
X141440462Y-109314933D01*
X141485626Y-109360009D01*
X141539195Y-109407028D01*
X141593513Y-109449318D01*
X141640920Y-109480205D01*
X141646087Y-109482989D01*
X141698928Y-109498334D01*
X141766563Y-109500633D01*
X141838904Y-109490166D01*
X141884243Y-109476430D01*
X141923816Y-109460491D01*
X141959111Y-109443340D01*
X141992346Y-109422584D01*
X142025736Y-109395830D01*
X142061497Y-109360686D01*
X142101848Y-109314760D01*
X142149003Y-109255658D01*
X142205180Y-109180989D01*
X142272595Y-109088360D01*
X142353464Y-108975379D01*
X142370195Y-108951889D01*
X142463923Y-108818470D01*
X142541363Y-108703774D01*
X142604075Y-108604666D01*
X142653623Y-108518011D01*
X142691569Y-108440672D01*
X142719474Y-108369514D01*
X142738902Y-108301401D01*
X142751413Y-108233198D01*
X142757676Y-108174133D01*
X142760463Y-108103453D01*
X142755026Y-108044165D01*
X142739669Y-107980203D01*
X142735835Y-107967331D01*
X142721060Y-107916518D01*
X142710306Y-107875399D01*
X142705706Y-107852186D01*
X142705667Y-107851195D01*
X142697430Y-107828636D01*
X142675103Y-107789228D01*
X142642261Y-107738132D01*
X142602476Y-107680512D01*
X142559325Y-107621527D01*
X142516382Y-107566339D01*
X142477220Y-107520111D01*
X142473714Y-107516251D01*
X142395197Y-107437676D01*
X142304213Y-107358289D01*
X142208950Y-107284582D01*
X142117594Y-107223045D01*
X142068268Y-107194773D01*
X141996602Y-107149908D01*
X141951453Y-107103860D01*
X141931125Y-107054680D01*
X141929556Y-107035202D01*
X141934919Y-107003733D01*
X141948079Y-106964629D01*
X141964640Y-106928519D01*
X141980208Y-106906033D01*
X141983999Y-106903543D01*
X142000172Y-106889952D01*
X142030300Y-106857926D01*
X142071155Y-106811420D01*
X142119512Y-106754390D01*
X142172144Y-106690791D01*
X142225824Y-106624578D01*
X142277325Y-106559706D01*
X142323422Y-106500130D01*
X142360888Y-106449806D01*
X142386495Y-106412689D01*
X142392465Y-106402835D01*
X142421758Y-106356513D01*
X142463365Y-106297870D01*
X142510878Y-106235701D01*
X142542543Y-106196794D01*
X142598463Y-106126918D01*
X142635431Y-106070065D01*
X142654863Y-106019728D01*
X142658178Y-105969399D01*
X142646793Y-105912568D01*
X142622125Y-105842727D01*
X142620541Y-105838708D01*
X142572367Y-105729964D01*
X142533568Y-105664000D01*
X142945556Y-105664000D01*
X142945556Y-105782128D01*
X142946000Y-105843897D01*
X142947280Y-105927497D01*
X142949322Y-106030524D01*
X142952048Y-106150572D01*
X142955382Y-106285237D01*
X142959249Y-106432113D01*
X142963572Y-106588795D01*
X142968274Y-106752878D01*
X142973280Y-106921958D01*
X142978514Y-107093628D01*
X142983899Y-107265484D01*
X142989359Y-107435121D01*
X142994818Y-107600133D01*
X143000199Y-107758116D01*
X143005428Y-107906665D01*
X143010426Y-108043374D01*
X143015119Y-108165838D01*
X143019430Y-108271652D01*
X143023282Y-108358412D01*
X143026601Y-108423712D01*
X143029308Y-108465146D01*
X143030997Y-108479546D01*
X143060646Y-108537228D01*
X143115390Y-108582442D01*
X143195387Y-108615309D01*
X143217633Y-108621197D01*
X143267809Y-108629498D01*
X143333949Y-108635250D01*
X143407213Y-108638259D01*
X143478760Y-108638334D01*
X143539749Y-108635280D01*
X143580556Y-108629120D01*
X143614048Y-108607100D01*
X143642767Y-108564772D01*
X143647780Y-108553197D01*
X143652235Y-108538846D01*
X143656220Y-108519785D01*
X143659822Y-108494076D01*
X143663129Y-108459785D01*
X143666229Y-108414976D01*
X143669208Y-108357712D01*
X143672155Y-108286059D01*
X143675157Y-108198079D01*
X143678302Y-108091838D01*
X143681677Y-107965399D01*
X143685369Y-107816828D01*
X143689467Y-107644187D01*
X143694057Y-107445542D01*
X143694755Y-107415051D01*
X143699926Y-107188548D01*
X143906815Y-107188548D01*
X143913652Y-107383578D01*
X143930597Y-107556847D01*
X143958161Y-107710833D01*
X143996855Y-107848016D01*
X144047188Y-107970874D01*
X144109671Y-108081887D01*
X144150822Y-108140686D01*
X144191495Y-108192316D01*
X144224601Y-108226592D01*
X144257773Y-108249933D01*
X144298647Y-108268762D01*
X144306935Y-108271985D01*
X144411339Y-108299604D01*
X144510705Y-108299935D01*
X144607514Y-108272896D01*
X144633595Y-108260862D01*
X144684030Y-108232437D01*
X144729288Y-108201462D01*
X144754360Y-108179724D01*
X144773436Y-108155641D01*
X144804423Y-108112125D01*
X144844260Y-108053667D01*
X144889889Y-107984759D01*
X144938250Y-107909892D01*
X144939669Y-107907667D01*
X144999957Y-107813400D01*
X145047367Y-107740359D01*
X145084011Y-107685854D01*
X145111997Y-107647198D01*
X145133435Y-107621701D01*
X145150434Y-107606675D01*
X145165105Y-107599431D01*
X145179556Y-107597279D01*
X145183240Y-107597222D01*
X145217445Y-107597222D01*
X145217445Y-107925558D01*
X145217510Y-108030023D01*
X145217949Y-108110184D01*
X145219126Y-108169957D01*
X145221408Y-108213259D01*
X145225157Y-108244009D01*
X145230741Y-108266123D01*
X145238522Y-108283518D01*
X145248868Y-108300112D01*
X145252893Y-108306060D01*
X145276425Y-108334885D01*
X145305751Y-108356630D01*
X145346681Y-108373849D01*
X145405028Y-108389100D01*
X145471445Y-108402204D01*
X145549174Y-108410134D01*
X145630078Y-108408024D01*
X145702805Y-108396625D01*
X145740963Y-108384315D01*
X145791759Y-108362434D01*
X145800575Y-108159745D01*
X145801962Y-108120973D01*
X145803922Y-108055840D01*
X145806409Y-107966203D01*
X145809378Y-107853917D01*
X145812783Y-107720836D01*
X145816579Y-107568817D01*
X145820722Y-107399715D01*
X145825165Y-107215385D01*
X145829863Y-107017682D01*
X145834771Y-106808463D01*
X145839844Y-106589581D01*
X145845036Y-106362893D01*
X145850302Y-106130254D01*
X145850868Y-106105042D01*
X146075845Y-106105042D01*
X146084684Y-106312728D01*
X146110730Y-106500110D01*
X146154984Y-106669986D01*
X146218445Y-106825155D01*
X146302111Y-106968417D01*
X146406983Y-107102570D01*
X146447752Y-107146714D01*
X146533242Y-107226792D01*
X146613833Y-107282638D01*
X146693698Y-107316743D01*
X146753115Y-107329239D01*
X146836686Y-107337030D01*
X146930073Y-107340937D01*
X147025552Y-107341085D01*
X147115400Y-107337596D01*
X147191894Y-107330596D01*
X147242952Y-107321390D01*
X147386456Y-107270200D01*
X147519606Y-107195237D01*
X147638603Y-107099619D01*
X147739645Y-106986465D01*
X147818932Y-106858892D01*
X147827033Y-106842278D01*
X147852588Y-106793741D01*
X147878808Y-106752530D01*
X147897084Y-106730602D01*
X147923168Y-106693772D01*
X147945691Y-106637929D01*
X147961822Y-106572274D01*
X147968730Y-106506007D01*
X147968801Y-106497522D01*
X147955762Y-106411272D01*
X147917677Y-106337867D01*
X147854760Y-106277564D01*
X147767225Y-106230621D01*
X147738175Y-106219852D01*
X147649768Y-106202429D01*
X147568395Y-106212089D01*
X147495500Y-106248251D01*
X147432528Y-106310336D01*
X147403142Y-106354462D01*
X147325369Y-106471940D01*
X147238785Y-106568458D01*
X147169788Y-106627276D01*
X147091937Y-106683302D01*
X147028902Y-106719119D01*
X146976719Y-106735583D01*
X146931424Y-106733551D01*
X146889051Y-106713880D01*
X146862934Y-106693575D01*
X146836170Y-106665194D01*
X146815935Y-106630561D01*
X146801412Y-106585625D01*
X146791787Y-106526335D01*
X146786241Y-106448639D01*
X146783960Y-106348488D01*
X146783778Y-106300765D01*
X146783934Y-106219990D01*
X146784897Y-106162488D01*
X146787408Y-106123310D01*
X146792209Y-106097507D01*
X146800042Y-106080130D01*
X146811648Y-106066231D01*
X146820156Y-106058043D01*
X146840618Y-106041727D01*
X146864883Y-106030864D01*
X146899739Y-106023835D01*
X146951975Y-106019023D01*
X146994231Y-106016539D01*
X147063214Y-106011804D01*
X147114694Y-106004448D01*
X147159390Y-105991826D01*
X147208019Y-105971294D01*
X147239748Y-105955958D01*
X147354186Y-105884650D01*
X147461712Y-105788742D01*
X147560401Y-105671413D01*
X147648325Y-105535843D01*
X147723559Y-105385210D01*
X147784176Y-105222692D01*
X147828250Y-105051470D01*
X147844220Y-104958444D01*
X147854294Y-104809519D01*
X147840738Y-104675551D01*
X147804360Y-104557381D01*
X147745966Y-104455846D01*
X147666363Y-104371785D01*
X147566357Y-104306037D01*
X147446756Y-104259440D01*
X147308365Y-104232832D01*
X147151993Y-104227053D01*
X147140928Y-104227429D01*
X147070818Y-104230554D01*
X147020056Y-104235041D01*
X146979779Y-104243059D01*
X146941125Y-104256777D01*
X146895231Y-104278363D01*
X146860311Y-104296108D01*
X146786756Y-104337732D01*
X146730789Y-104377569D01*
X146700985Y-104407193D01*
X146669914Y-104443726D01*
X146628257Y-104487726D01*
X146596277Y-104518980D01*
X146507250Y-104618586D01*
X146423743Y-104745008D01*
X146346212Y-104897297D01*
X146275115Y-105074505D01*
X146210907Y-105275684D01*
X146184142Y-105374722D01*
X146132719Y-105597342D01*
X146097917Y-105799932D01*
X146079364Y-105984993D01*
X146075845Y-106105042D01*
X145850868Y-106105042D01*
X145852375Y-106037944D01*
X145857695Y-105804235D01*
X145863052Y-105576230D01*
X145868396Y-105355743D01*
X145873674Y-105144587D01*
X145878838Y-104944573D01*
X145883836Y-104757514D01*
X145888617Y-104585223D01*
X145893130Y-104429512D01*
X145897325Y-104292193D01*
X145901152Y-104175080D01*
X145904558Y-104079984D01*
X145907495Y-104008718D01*
X145909910Y-103963095D01*
X145910757Y-103952018D01*
X145917492Y-103877266D01*
X145919558Y-103824554D01*
X145914060Y-103787755D01*
X145898105Y-103760743D01*
X145868799Y-103737392D01*
X145823247Y-103711576D01*
X145788500Y-103693194D01*
X145696855Y-103649707D01*
X145611930Y-103622091D01*
X145523626Y-103608198D01*
X145421847Y-103605881D01*
X145384403Y-103607251D01*
X145307074Y-103612236D01*
X145250620Y-103619527D01*
X145207708Y-103630454D01*
X145172157Y-103645750D01*
X145121499Y-103673346D01*
X145089410Y-103697685D01*
X145071657Y-103726267D01*
X145064012Y-103766594D01*
X145062243Y-103826166D01*
X145062222Y-103840675D01*
X145062857Y-103882382D01*
X145064646Y-103948061D01*
X145067418Y-104033491D01*
X145071003Y-104134453D01*
X145075228Y-104246728D01*
X145079924Y-104366095D01*
X145084918Y-104488336D01*
X145090040Y-104609229D01*
X145095117Y-104724556D01*
X145099980Y-104830097D01*
X145104457Y-104921632D01*
X145108376Y-104994942D01*
X145110449Y-105029353D01*
X145117294Y-105135540D01*
X144994434Y-105164889D01*
X144889905Y-105194271D01*
X144796967Y-105231200D01*
X144706471Y-105280104D01*
X144609268Y-105345411D01*
X144585701Y-105362697D01*
X144472402Y-105452369D01*
X144370333Y-105544061D01*
X144283518Y-105633760D01*
X144215977Y-105717451D01*
X144189049Y-105758542D01*
X144108742Y-105917203D01*
X144041332Y-106099571D01*
X143987182Y-106304065D01*
X143946659Y-106529104D01*
X143920127Y-106773107D01*
X143909575Y-106969278D01*
X143906815Y-107188548D01*
X143699926Y-107188548D01*
X143700335Y-107170660D01*
X143705264Y-106952939D01*
X143709558Y-106760343D01*
X143713232Y-106591327D01*
X143716300Y-106444347D01*
X143718778Y-106317858D01*
X143720680Y-106210314D01*
X143722021Y-106120172D01*
X143722816Y-106045886D01*
X143723079Y-105985913D01*
X143722827Y-105938706D01*
X143722073Y-105902722D01*
X143720832Y-105876416D01*
X143719120Y-105858242D01*
X143716950Y-105846657D01*
X143714339Y-105840116D01*
X143711300Y-105837073D01*
X143709938Y-105836479D01*
X143694457Y-105819521D01*
X143693445Y-105812991D01*
X143681135Y-105800976D01*
X143647584Y-105781420D01*
X143597864Y-105756993D01*
X143537043Y-105730364D01*
X143534695Y-105729391D01*
X143375945Y-105663781D01*
X143160750Y-105663891D01*
X142945556Y-105664000D01*
X142533568Y-105664000D01*
X142524171Y-105648024D01*
X142475012Y-105591488D01*
X142436205Y-105564533D01*
X142396466Y-105547036D01*
X142358257Y-105538165D01*
X142315759Y-105538394D01*
X142263154Y-105548199D01*
X142194624Y-105568052D01*
X142130313Y-105589466D01*
X142042421Y-105630404D01*
X141946219Y-105694690D01*
X141844463Y-105779708D01*
X141739912Y-105882845D01*
X141635323Y-106001487D01*
X141533452Y-106133019D01*
X141486154Y-106200222D01*
X141434595Y-106275100D01*
X141382638Y-106349232D01*
X141334745Y-106416342D01*
X141295377Y-106470156D01*
X141277337Y-106493923D01*
X141219192Y-106577998D01*
X141183595Y-106655529D01*
X141169101Y-106733943D01*
X140797430Y-106733943D01*
X140771647Y-106718221D01*
X140752674Y-106708346D01*
X140708589Y-106686612D01*
X140673276Y-106672418D01*
X140638560Y-106664188D01*
X140596267Y-106660346D01*
X140538222Y-106659316D01*
X140498674Y-106659369D01*
X140422744Y-106660641D01*
X140367485Y-106664533D01*
X140325389Y-106672068D01*
X140288950Y-106684272D01*
X140276451Y-106689696D01*
X140199118Y-106737142D01*
X140129225Y-106806794D01*
X140064661Y-106900998D01*
X140031896Y-106961656D01*
X139999933Y-107028613D01*
X139980295Y-107079623D01*
X139970423Y-107122717D01*
X139967764Y-107163024D01*
X139966206Y-107207281D01*
X139958952Y-107232903D01*
X139941338Y-107249458D01*
X139920041Y-107260927D01*
X139883198Y-107275125D01*
X139861008Y-107272083D01*
X139856888Y-107268688D01*
X139851290Y-107250410D01*
X139846951Y-107207488D01*
X139843836Y-107139074D01*
X139841908Y-107044319D01*
X139841132Y-106922375D01*
X139841111Y-106895900D01*
X139841111Y-106538889D01*
X138994445Y-106538889D01*
X138757617Y-106538889D01*
X138737486Y-106508474D01*
X138691776Y-106468526D01*
X138625691Y-106423544D01*
X138566162Y-106386432D01*
X138462554Y-106323637D01*
X138379733Y-106275488D01*
X138315167Y-106240729D01*
X138266327Y-106218110D01*
X138230680Y-106206375D01*
X138205696Y-106204272D01*
X138200256Y-106205242D01*
X138174428Y-106221995D01*
X138137820Y-106260445D01*
X138093248Y-106317559D01*
X138084032Y-106330383D01*
X138037265Y-106396246D01*
X137985734Y-106468818D01*
X137938573Y-106535232D01*
X137926277Y-106552548D01*
X137893221Y-106600877D01*
X137867632Y-106641670D01*
X137853259Y-106668791D01*
X137851445Y-106675102D01*
X135963117Y-106675102D01*
X135993295Y-106671189D01*
X136029098Y-106661522D01*
X136055394Y-106643939D01*
X136074090Y-106614216D01*
X136087092Y-106568131D01*
X136096307Y-106501459D01*
X136102285Y-106429727D01*
X136104469Y-106389012D01*
X136107148Y-106322656D01*
X136110250Y-106233236D01*
X136113701Y-106123327D01*
X136117429Y-105995505D01*
X136121361Y-105852347D01*
X136125426Y-105696427D01*
X136129550Y-105530323D01*
X136133661Y-105356609D01*
X136137687Y-105177863D01*
X136138205Y-105154173D01*
X136142613Y-104951169D01*
X136146389Y-104774496D01*
X136149527Y-104622268D01*
X136152024Y-104492601D01*
X136153874Y-104383610D01*
X136155074Y-104293410D01*
X136155619Y-104220116D01*
X136155505Y-104161843D01*
X136154727Y-104116707D01*
X136153280Y-104082822D01*
X136151162Y-104058304D01*
X136148366Y-104041268D01*
X136144889Y-104029829D01*
X136140727Y-104022103D01*
X136135874Y-104016204D01*
X136135551Y-104015856D01*
X136112081Y-103999269D01*
X136068614Y-103975956D01*
X136011563Y-103949137D01*
X135953500Y-103924498D01*
X135798278Y-103861908D01*
X135584885Y-103876175D01*
X135371493Y-103890442D01*
X134019027Y-103890442D01*
X134127397Y-103669552D01*
X134342650Y-103290784D01*
X134446539Y-103130349D01*
X135244139Y-103130349D01*
X135256923Y-103161306D01*
X135283221Y-103196688D01*
X135321099Y-103239612D01*
X135417058Y-103344194D01*
X135501918Y-103432819D01*
X135574408Y-103504284D01*
X135633253Y-103557385D01*
X135677181Y-103590921D01*
X135704919Y-103603688D01*
X135706578Y-103603778D01*
X135725379Y-103598340D01*
X135753502Y-103580771D01*
X135793252Y-103549188D01*
X135846932Y-103501705D01*
X135916847Y-103436439D01*
X135950259Y-103404564D01*
X136013128Y-103343453D01*
X136068361Y-103288130D01*
X136112894Y-103241798D01*
X136143664Y-103207663D01*
X136157606Y-103188928D01*
X136158111Y-103187175D01*
X136146688Y-103146409D01*
X136113510Y-103091996D01*
X136060209Y-103026080D01*
X135988420Y-102950807D01*
X135949828Y-102913806D01*
X135896733Y-102862989D01*
X135851237Y-102817236D01*
X135817367Y-102780762D01*
X135799150Y-102757784D01*
X135797338Y-102754149D01*
X135777855Y-102734232D01*
X135740276Y-102721201D01*
X135694304Y-102717075D01*
X135650500Y-102723604D01*
X135627259Y-102736963D01*
X135587749Y-102766301D01*
X135536203Y-102808200D01*
X135476852Y-102859242D01*
X135425715Y-102905168D01*
X135352592Y-102972617D01*
X135299095Y-103024951D01*
X135264003Y-103066079D01*
X135246091Y-103099909D01*
X135244139Y-103130349D01*
X134446539Y-103130349D01*
X134582117Y-102920977D01*
X134761030Y-102675807D01*
X136447784Y-102675807D01*
X136448457Y-102716313D01*
X136449803Y-102780866D01*
X136451772Y-102867385D01*
X136454312Y-102973789D01*
X136457373Y-103097995D01*
X136460903Y-103237921D01*
X136464851Y-103391486D01*
X136469167Y-103556608D01*
X136473800Y-103731205D01*
X136476628Y-103836611D01*
X136481692Y-104025044D01*
X136486690Y-104211972D01*
X136491546Y-104394514D01*
X136496185Y-104569787D01*
X136500531Y-104734909D01*
X136504509Y-104886998D01*
X136508043Y-105023174D01*
X136511058Y-105140552D01*
X136513478Y-105236253D01*
X136515227Y-105307393D01*
X136515571Y-105321868D01*
X136518096Y-105424130D01*
X136520525Y-105502106D01*
X136523302Y-105559731D01*
X136526870Y-105600934D01*
X136531675Y-105629649D01*
X136538159Y-105649808D01*
X136546768Y-105665342D01*
X136555728Y-105677393D01*
X136581169Y-105704768D01*
X136601899Y-105719097D01*
X136604629Y-105719664D01*
X136623607Y-105731694D01*
X136628241Y-105739944D01*
X136648384Y-105757664D01*
X136689740Y-105772353D01*
X136745359Y-105782729D01*
X136808284Y-105787508D01*
X136871564Y-105785409D01*
X136873613Y-105785204D01*
X136952693Y-105772858D01*
X137030274Y-105753302D01*
X137099125Y-105728967D01*
X137152016Y-105702281D01*
X137175389Y-105683807D01*
X137187504Y-105669321D01*
X137195932Y-105652697D01*
X137201270Y-105628977D01*
X137204114Y-105593200D01*
X137205061Y-105540410D01*
X137204709Y-105465645D01*
X137204479Y-105442093D01*
X137203073Y-105362309D01*
X137200406Y-105262583D01*
X137196753Y-105151155D01*
X137192385Y-105036262D01*
X137187575Y-104926144D01*
X137186936Y-104912699D01*
X137181281Y-104771265D01*
X137179865Y-104652062D01*
X137183751Y-104549275D01*
X137194003Y-104457092D01*
X137211685Y-104369699D01*
X137237858Y-104281284D01*
X137273588Y-104186033D01*
X137319936Y-104078133D01*
X137352805Y-104005944D01*
X137401677Y-103904268D01*
X137449947Y-103811689D01*
X137495639Y-103731462D01*
X137536781Y-103666843D01*
X137571398Y-103621086D01*
X137597516Y-103597447D01*
X137601650Y-103595626D01*
X137635598Y-103598260D01*
X137668260Y-103627404D01*
X137698611Y-103681348D01*
X137725622Y-103758381D01*
X137743364Y-103831699D01*
X137754204Y-103891877D01*
X137767346Y-103977525D01*
X137782465Y-104086011D01*
X137799237Y-104214706D01*
X137817338Y-104360977D01*
X137836445Y-104522196D01*
X137856232Y-104695730D01*
X137876376Y-104878950D01*
X137896553Y-105069224D01*
X137900431Y-105106611D01*
X137915237Y-105248030D01*
X137928149Y-105364263D01*
X137939961Y-105458219D01*
X137951468Y-105532807D01*
X137963465Y-105590936D01*
X137976745Y-105635512D01*
X137992103Y-105669446D01*
X138010333Y-105695645D01*
X138032230Y-105717018D01*
X138058587Y-105736474D01*
X138075484Y-105747546D01*
X138123355Y-105776283D01*
X138170943Y-105801794D01*
X138190111Y-105810816D01*
X138249333Y-105826610D01*
X138321438Y-105832012D01*
X138393118Y-105826924D01*
X138447755Y-105812683D01*
X138507392Y-105774438D01*
X138558331Y-105712338D01*
X138601765Y-105625414D01*
X138609385Y-105606124D01*
X138615722Y-105587587D01*
X138620892Y-105567134D01*
X138625012Y-105542096D01*
X138628196Y-105509805D01*
X138630561Y-105467591D01*
X138632222Y-105412785D01*
X138633294Y-105342719D01*
X138633894Y-105254723D01*
X138634138Y-105146128D01*
X138634140Y-105014266D01*
X138634037Y-104880833D01*
X138632940Y-104646809D01*
X138629921Y-104437785D01*
X138624745Y-104250591D01*
X138617178Y-104082054D01*
X138606987Y-103929003D01*
X138593936Y-103788268D01*
X138577792Y-103656677D01*
X138558320Y-103531058D01*
X138535286Y-103408240D01*
X138519899Y-103335667D01*
X138480748Y-103194214D01*
X138429970Y-103068997D01*
X138369156Y-102962394D01*
X138299898Y-102876785D01*
X138223786Y-102814546D01*
X138148041Y-102779663D01*
X138102152Y-102769826D01*
X138043984Y-102762626D01*
X137980946Y-102758312D01*
X137920442Y-102757136D01*
X137869881Y-102759348D01*
X137836670Y-102765198D01*
X137829572Y-102768890D01*
X137809227Y-102780361D01*
X137772478Y-102796350D01*
X137749536Y-102805183D01*
X137674102Y-102842970D01*
X137605774Y-102899483D01*
X137541819Y-102977634D01*
X137479506Y-103080336D01*
X137464386Y-103109167D01*
X137422974Y-103195234D01*
X137396634Y-103261793D01*
X137385985Y-103307245D01*
X137385778Y-103312415D01*
X137381116Y-103349652D01*
X137364355Y-103368172D01*
X137356492Y-103371282D01*
X137330151Y-103375797D01*
X137319937Y-103373307D01*
X137317614Y-103357791D01*
X137314859Y-103317900D01*
X137311844Y-103257478D01*
X137308745Y-103180365D01*
X137305733Y-103090403D01*
X137303362Y-103006295D01*
X137300461Y-102908224D01*
X137297142Y-102819560D01*
X137293607Y-102744182D01*
X137290059Y-102685968D01*
X137286697Y-102648798D01*
X137284141Y-102636648D01*
X137268746Y-102635165D01*
X137229500Y-102634707D01*
X137170684Y-102635149D01*
X137096581Y-102636363D01*
X137011475Y-102638221D01*
X136919648Y-102640598D01*
X136825382Y-102643366D01*
X136732961Y-102646399D01*
X136646668Y-102649569D01*
X136570784Y-102652750D01*
X136509593Y-102655814D01*
X136467378Y-102658636D01*
X136448421Y-102661087D01*
X136447836Y-102661431D01*
X136447784Y-102675807D01*
X134761030Y-102675807D01*
X134844021Y-102562082D01*
X135126586Y-102216048D01*
X135374532Y-101943613D01*
X137782370Y-101943613D01*
X137786009Y-101974045D01*
X137796461Y-102013265D01*
X137801125Y-102029276D01*
X137819549Y-102078650D01*
X137847281Y-102125265D01*
X137889717Y-102177526D01*
X137911771Y-102201632D01*
X137960464Y-102249926D01*
X138021666Y-102305202D01*
X138088167Y-102361456D01*
X138152759Y-102412680D01*
X138208232Y-102452870D01*
X138230105Y-102466836D01*
X138249088Y-102465001D01*
X138291990Y-102452327D01*
X138356960Y-102429481D01*
X138442146Y-102397127D01*
X138545697Y-102355934D01*
X138600931Y-102333402D01*
X138694009Y-102295446D01*
X138778269Y-102261631D01*
X138850283Y-102233291D01*
X138906623Y-102211756D01*
X138943859Y-102198358D01*
X138958563Y-102194429D01*
X138958617Y-102194469D01*
X138959658Y-102209052D01*
X138961192Y-102250021D01*
X138963177Y-102315543D01*
X138965569Y-102403787D01*
X138968325Y-102512923D01*
X138971403Y-102641117D01*
X138974759Y-102786538D01*
X138978350Y-102947355D01*
X138982133Y-103121736D01*
X138986066Y-103307849D01*
X138990104Y-103503864D01*
X138994206Y-103707947D01*
X138994358Y-103715628D01*
X138999150Y-103956083D01*
X139003476Y-104169937D01*
X139007397Y-104358807D01*
X139010968Y-104524307D01*
X139014249Y-104668055D01*
X139017297Y-104791667D01*
X139020170Y-104896758D01*
X139022926Y-104984946D01*
X139025623Y-105057846D01*
X139028319Y-105117074D01*
X139031071Y-105164247D01*
X139033938Y-105200982D01*
X139036978Y-105228893D01*
X139040247Y-105249598D01*
X139043805Y-105264712D01*
X139047710Y-105275852D01*
X139050469Y-105281744D01*
X139104289Y-105356235D01*
X139181560Y-105418092D01*
X139213167Y-105436010D01*
X139278165Y-105457683D01*
X139356627Y-105466417D01*
X139436900Y-105462151D01*
X139507334Y-105444822D01*
X139523611Y-105437668D01*
X139598405Y-105399908D01*
X139651549Y-105371176D01*
X139686831Y-105348275D01*
X139708040Y-105328011D01*
X139718964Y-105307187D01*
X139723390Y-105282608D01*
X139724329Y-105268342D01*
X139725003Y-105245380D01*
X139726075Y-105196253D01*
X139727511Y-105123019D01*
X139727831Y-105105723D01*
X142917988Y-105105723D01*
X142920286Y-105122775D01*
X142928618Y-105140552D01*
X142945944Y-105162026D01*
X142975224Y-105190169D01*
X143019418Y-105227954D01*
X143081487Y-105278351D01*
X143122681Y-105311222D01*
X143190353Y-105364733D01*
X143252935Y-105413645D01*
X143306080Y-105454604D01*
X143345446Y-105484261D01*
X143365443Y-105498480D01*
X143410870Y-105515995D01*
X143454958Y-105507354D01*
X143500558Y-105471818D01*
X143510478Y-105461000D01*
X143535820Y-105430664D01*
X143572821Y-105384530D01*
X143616137Y-105329327D01*
X143652819Y-105281753D01*
X143696998Y-105225241D01*
X143739195Y-105173514D01*
X143774189Y-105132846D01*
X143794308Y-105111718D01*
X143820201Y-105082891D01*
X143833569Y-105058916D01*
X143834087Y-105055088D01*
X143820779Y-105016934D01*
X143782805Y-104966655D01*
X143720728Y-104904773D01*
X143635112Y-104831807D01*
X143526521Y-104748280D01*
X143416579Y-104669368D01*
X143373431Y-104641152D01*
X143341760Y-104627495D01*
X143311181Y-104625103D01*
X143286450Y-104628114D01*
X143241345Y-104641280D01*
X143220377Y-104663321D01*
X143219849Y-104664864D01*
X143206706Y-104689805D01*
X143181090Y-104727581D01*
X143152159Y-104765430D01*
X143111836Y-104817955D01*
X143070838Y-104875330D01*
X143048177Y-104909388D01*
X143014931Y-104957018D01*
X142979026Y-105001473D01*
X142960246Y-105021390D01*
X142927077Y-105064214D01*
X142917988Y-105105723D01*
X139727831Y-105105723D01*
X139729275Y-105027730D01*
X139731332Y-104912443D01*
X139733645Y-104779212D01*
X139736180Y-104630093D01*
X139738901Y-104467141D01*
X139741772Y-104292410D01*
X139744757Y-104107956D01*
X139747822Y-103915834D01*
X139748739Y-103857778D01*
X139751958Y-103655998D01*
X139754988Y-103470244D01*
X140058703Y-103470244D01*
X140072579Y-103641875D01*
X140102555Y-103797736D01*
X140148990Y-103939912D01*
X140212242Y-104070490D01*
X140292670Y-104191553D01*
X140355294Y-104267212D01*
X140418503Y-104335829D01*
X140471317Y-104387259D01*
X140520552Y-104426685D01*
X140573024Y-104459289D01*
X140635546Y-104490252D01*
X140667114Y-104504306D01*
X140720413Y-104525830D01*
X140766269Y-104538874D01*
X140815773Y-104545560D01*
X140880016Y-104548011D01*
X140896512Y-104548186D01*
X140972004Y-104545962D01*
X141053101Y-104539135D01*
X141124458Y-104529075D01*
X141136301Y-104526776D01*
X141297005Y-104480289D01*
X141442348Y-104410785D01*
X141571056Y-104319126D01*
X141681859Y-104206171D01*
X141750064Y-104111778D01*
X141780762Y-104066403D01*
X141810519Y-104027520D01*
X141829087Y-104007285D01*
X141851109Y-103981188D01*
X141859000Y-103960999D01*
X141864209Y-103938546D01*
X141877790Y-103899265D01*
X141894592Y-103857032D01*
X141924683Y-103776336D01*
X141938657Y-103711331D01*
X141936896Y-103654813D01*
X141919784Y-103599576D01*
X141909436Y-103577621D01*
X141876178Y-103524326D01*
X141842777Y-103493453D01*
X141835477Y-103489993D01*
X141796780Y-103471267D01*
X141760471Y-103448733D01*
X141721882Y-103428241D01*
X141672926Y-103410790D01*
X141658874Y-103407227D01*
X141574927Y-103401595D01*
X141497612Y-103422497D01*
X141429499Y-103468540D01*
X141373158Y-103538330D01*
X141354661Y-103572236D01*
X141321991Y-103625201D01*
X141271958Y-103688867D01*
X141209989Y-103757288D01*
X141141511Y-103824518D01*
X141071951Y-103884612D01*
X141063324Y-103891425D01*
X141027434Y-103916228D01*
X140995991Y-103926267D01*
X140954743Y-103925342D01*
X140941602Y-103923887D01*
X140872873Y-103910735D01*
X140830415Y-103890820D01*
X140814845Y-103864440D01*
X140814778Y-103862365D01*
X140804298Y-103835467D01*
X140792670Y-103823557D01*
X140774331Y-103795044D01*
X140761515Y-103743072D01*
X140754516Y-103671914D01*
X140753627Y-103585843D01*
X140759143Y-103489133D01*
X140765539Y-103428660D01*
X140775329Y-103354570D01*
X140784036Y-103303356D01*
X140793075Y-103269779D01*
X140803864Y-103248605D01*
X140817821Y-103234595D01*
X140818106Y-103234378D01*
X140847669Y-103219989D01*
X140864466Y-103223026D01*
X140887856Y-103227474D01*
X140931289Y-103223126D01*
X140988574Y-103211584D01*
X141053518Y-103194452D01*
X141119930Y-103173333D01*
X141181617Y-103149830D01*
X141224501Y-103129814D01*
X141321187Y-103066834D01*
X141418310Y-102981143D01*
X141511491Y-102877838D01*
X141596351Y-102762015D01*
X141668510Y-102638771D01*
X141696412Y-102580588D01*
X141739371Y-102467860D01*
X141773801Y-102344917D01*
X141798707Y-102218447D01*
X141813095Y-102095136D01*
X141815971Y-101981673D01*
X141806341Y-101884745D01*
X141802524Y-101866640D01*
X141760906Y-101745259D01*
X141697509Y-101641816D01*
X141612367Y-101556342D01*
X141505514Y-101488868D01*
X141376986Y-101439425D01*
X141307339Y-101422050D01*
X141176105Y-101407787D01*
X141045635Y-101420905D01*
X140915507Y-101461573D01*
X140785301Y-101529960D01*
X140654593Y-101626233D01*
X140546667Y-101726182D01*
X140451909Y-101839612D01*
X140366461Y-101979089D01*
X140290273Y-102144746D01*
X140223292Y-102336717D01*
X140165464Y-102555136D01*
X140116738Y-102800135D01*
X140110098Y-102839879D01*
X140077821Y-103071331D01*
X140060570Y-103280758D01*
X140058703Y-103470244D01*
X139754988Y-103470244D01*
X139755224Y-103455805D01*
X139758489Y-103259853D01*
X139761707Y-103070800D01*
X139764829Y-102891303D01*
X139767808Y-102724019D01*
X139770598Y-102571603D01*
X139773150Y-102436714D01*
X139775417Y-102322007D01*
X139777353Y-102230140D01*
X139778910Y-102163769D01*
X139778943Y-102162468D01*
X139787899Y-101814770D01*
X140156700Y-101670251D01*
X140277372Y-101622754D01*
X140374365Y-101583544D01*
X140450319Y-101550726D01*
X140507878Y-101522406D01*
X140549682Y-101496692D01*
X140578374Y-101471688D01*
X140596597Y-101445500D01*
X140606991Y-101416235D01*
X140612200Y-101381999D01*
X140614817Y-101341836D01*
X140612924Y-101251889D01*
X140596181Y-101183357D01*
X140563406Y-101132963D01*
X140529877Y-101106473D01*
X140489974Y-101088916D01*
X140445719Y-101078990D01*
X140407663Y-101078240D01*
X140388300Y-101085737D01*
X140372643Y-101093018D01*
X140334371Y-101107912D01*
X140277586Y-101128942D01*
X140206392Y-101154628D01*
X140124890Y-101183494D01*
X140037182Y-101214061D01*
X139947373Y-101244851D01*
X139934715Y-101249147D01*
X139887884Y-101262861D01*
X139850124Y-101270058D01*
X139832409Y-101269710D01*
X139825331Y-101261785D01*
X139820106Y-101241957D01*
X139816491Y-101206834D01*
X139814244Y-101153026D01*
X139813120Y-101077140D01*
X139812867Y-100997193D01*
X139812097Y-100888606D01*
X139809159Y-100804415D01*
X139803082Y-100740821D01*
X139792894Y-100694022D01*
X139777622Y-100660220D01*
X139756297Y-100635613D01*
X139727945Y-100616401D01*
X139713609Y-100608977D01*
X139692430Y-100599964D01*
X139668960Y-100594021D01*
X139638249Y-100590966D01*
X139595346Y-100590617D01*
X139535303Y-100592794D01*
X139453168Y-100597315D01*
X139431386Y-100598621D01*
X139342852Y-100603425D01*
X139254418Y-100607255D01*
X139174184Y-100609824D01*
X139110251Y-100610848D01*
X139088402Y-100610718D01*
X139025468Y-100611300D01*
X138984768Y-100616314D01*
X138960540Y-100626628D01*
X138955804Y-100630704D01*
X138949621Y-100639392D01*
X138944999Y-100653542D01*
X138941900Y-100676214D01*
X138940281Y-100710470D01*
X138940104Y-100759370D01*
X138941326Y-100825976D01*
X138943909Y-100913350D01*
X138947810Y-101024551D01*
X138949864Y-101079934D01*
X138953532Y-101186999D01*
X138956229Y-101284861D01*
X138957909Y-101369991D01*
X138958528Y-101438859D01*
X138958040Y-101487934D01*
X138956399Y-101513688D01*
X138955462Y-101516628D01*
X138936373Y-101526452D01*
X138901382Y-101539525D01*
X138888611Y-101543667D01*
X138857159Y-101554071D01*
X138804619Y-101572089D01*
X138736470Y-101595816D01*
X138658194Y-101623344D01*
X138585222Y-101649222D01*
X138485457Y-101683486D01*
X138369325Y-101721365D01*
X138247781Y-101759403D01*
X138131782Y-101794146D01*
X138066102Y-101812893D01*
X137967929Y-101840351D01*
X137893979Y-101862382D01*
X137841349Y-101881354D01*
X137807139Y-101899637D01*
X137788446Y-101919600D01*
X137782370Y-101943613D01*
X135374532Y-101943613D01*
X135428037Y-101884824D01*
X135746599Y-101570361D01*
X136080495Y-101274606D01*
X136427949Y-100999510D01*
X136787186Y-100747022D01*
X137156431Y-100519091D01*
X137162290Y-100515724D01*
X137216909Y-100485532D01*
X137293353Y-100444961D01*
X137387991Y-100395819D01*
X137497197Y-100339920D01*
X137617340Y-100279074D01*
X137744794Y-100215093D01*
X137875927Y-100149787D01*
X138007113Y-100084969D01*
X138134723Y-100022450D01*
X138255127Y-99964040D01*
X138364697Y-99911552D01*
X138459804Y-99866796D01*
X138493500Y-99851228D01*
X138947960Y-99648191D01*
X139138541Y-99568049D01*
X141909897Y-99568049D01*
X141940724Y-100030163D01*
X141946069Y-100110275D01*
X141953114Y-100215851D01*
X141961679Y-100344194D01*
X141971585Y-100492610D01*
X141982652Y-100658402D01*
X141994699Y-100838874D01*
X142007547Y-101031331D01*
X142021015Y-101233078D01*
X142034923Y-101441417D01*
X142049093Y-101653654D01*
X142063343Y-101867092D01*
X142070006Y-101966889D01*
X142084128Y-102178621D01*
X142098161Y-102389490D01*
X142111936Y-102596899D01*
X142125281Y-102798254D01*
X142138025Y-102990958D01*
X142149996Y-103172415D01*
X142161025Y-103340030D01*
X142170938Y-103491206D01*
X142179567Y-103623347D01*
X142186738Y-103733858D01*
X142192281Y-103820143D01*
X142194445Y-103854283D01*
X142202444Y-103979839D01*
X142209504Y-104080479D01*
X142216486Y-104159452D01*
X142224252Y-104220005D01*
X142233663Y-104265388D01*
X142245581Y-104298850D01*
X142260868Y-104323638D01*
X142280384Y-104343001D01*
X142304990Y-104360189D01*
X142333049Y-104376980D01*
X142362454Y-104392343D01*
X142391765Y-104401525D01*
X142428867Y-104405683D01*
X142481647Y-104405976D01*
X142522658Y-104404827D01*
X142590124Y-104401518D01*
X142638005Y-104395743D01*
X142674932Y-104385650D01*
X142709536Y-104369386D01*
X142722694Y-104361894D01*
X142768435Y-104329211D01*
X142802781Y-104288006D01*
X142828092Y-104242324D01*
X142867945Y-104161167D01*
X142880628Y-101909740D01*
X142881978Y-101659049D01*
X142883167Y-101415547D01*
X142884194Y-101180776D01*
X142885055Y-100956278D01*
X142885751Y-100743596D01*
X142886278Y-100544271D01*
X142886634Y-100359846D01*
X142886818Y-100191862D01*
X142886828Y-100041862D01*
X142886661Y-99911389D01*
X142886316Y-99801984D01*
X142885791Y-99715189D01*
X142885084Y-99652546D01*
X142884193Y-99615598D01*
X142883527Y-99606157D01*
X142868415Y-99558364D01*
X142841211Y-99519762D01*
X142799474Y-99489546D01*
X142740765Y-99466911D01*
X142662643Y-99451052D01*
X142562669Y-99441166D01*
X142438402Y-99436445D01*
X142367000Y-99435773D01*
X142243265Y-99437711D01*
X142144330Y-99444596D01*
X142067099Y-99457105D01*
X142008475Y-99475914D01*
X141965361Y-99501701D01*
X141938777Y-99529368D01*
X141909897Y-99568049D01*
X139138541Y-99568049D01*
X139384602Y-99464577D01*
X139805507Y-99299798D01*
X140212759Y-99153265D01*
X140608438Y-99024390D01*
X140994628Y-98912584D01*
X141373411Y-98817260D01*
X141746869Y-98737829D01*
X142117083Y-98673703D01*
X142486137Y-98624293D01*
X142856113Y-98589011D01*
X142994945Y-98579338D01*
X143119565Y-98573430D01*
X143269135Y-98569691D01*
X143440464Y-98568157D01*
X143630359Y-98568864D01*
X143764000Y-98570571D01*
X144135449Y-98581394D01*
X144483226Y-98601757D01*
X144810375Y-98632094D01*
X145119937Y-98672842D01*
X145414954Y-98724434D01*
X145698470Y-98787306D01*
X145973525Y-98861892D01*
X146120556Y-98907500D01*
X146300465Y-98969690D01*
X146472905Y-99036897D01*
X146634535Y-99107476D01*
X146782014Y-99179781D01*
X146912000Y-99252166D01*
X147021154Y-99322986D01*
X147106134Y-99390594D01*
X147111714Y-99395746D01*
X147137694Y-99417550D01*
X147153697Y-99426353D01*
X147155216Y-99425860D01*
X147157971Y-99411227D01*
X147164335Y-99370947D01*
X147173972Y-99307318D01*
X147186546Y-99222636D01*
X147201719Y-99119200D01*
X147219158Y-98999308D01*
X147238524Y-98865256D01*
X147259482Y-98719344D01*
X147281695Y-98563869D01*
X147293943Y-98477805D01*
X147427826Y-97535777D01*
X147278663Y-97487804D01*
X147065759Y-97425134D01*
X146828641Y-97365886D01*
X146571178Y-97310706D01*
X146297243Y-97260245D01*
X146010705Y-97215150D01*
X145715437Y-97176070D01*
X145415307Y-97143654D01*
X145114189Y-97118550D01*
X145048111Y-97114068D01*
X145041884Y-97112771D01*
X145062795Y-97111504D01*
X145109760Y-97110272D01*
X145181692Y-97109083D01*
X145277510Y-97107943D01*
X145396126Y-97106857D01*
X145536459Y-97105833D01*
X145697421Y-97104876D01*
X145877931Y-97103994D01*
X146076901Y-97103192D01*
X146293250Y-97102476D01*
X146525891Y-97101854D01*
X146773740Y-97101332D01*
X147035713Y-97100915D01*
X147310725Y-97100611D01*
X147344695Y-97100582D01*
X149817667Y-97098556D01*
X149817667Y-112719556D01*
G36*
X121933232Y-141474916D02*
G01*
X121916878Y-141608188D01*
X121910503Y-141618790D01*
X121860774Y-141798457D01*
X121863935Y-141880167D01*
X121840229Y-142001445D01*
X121729270Y-142005469D01*
X121560925Y-141897287D01*
X121475500Y-141814514D01*
X121322024Y-141621609D01*
X121311188Y-141502908D01*
X121448190Y-141433708D01*
X121560167Y-141412024D01*
X121808212Y-141405919D01*
X121933232Y-141474916D01*
X121933232Y-141474916D01*
G37*
X121933232Y-141474916D02*
X121916878Y-141608188D01*
X121910503Y-141618790D01*
X121860774Y-141798457D01*
X121863935Y-141880167D01*
X121840229Y-142001445D01*
X121729270Y-142005469D01*
X121560925Y-141897287D01*
X121475500Y-141814514D01*
X121322024Y-141621609D01*
X121311188Y-141502908D01*
X121448190Y-141433708D01*
X121560167Y-141412024D01*
X121808212Y-141405919D01*
X121933232Y-141474916D01*
G36*
X120072289Y-141177326D02*
G01*
X120149943Y-141365780D01*
X120145138Y-141500354D01*
X120139284Y-141638532D01*
X120171198Y-141869102D01*
X120228603Y-142141503D01*
X120299224Y-142405174D01*
X120370784Y-142609552D01*
X120431008Y-142704078D01*
X120437777Y-142705667D01*
X120566274Y-142635289D01*
X120687671Y-142472325D01*
X120742805Y-142324667D01*
X121115667Y-142324667D01*
X121158000Y-142367000D01*
X121200334Y-142324667D01*
X121158000Y-142282334D01*
X121115667Y-142324667D01*
X120742805Y-142324667D01*
X120756114Y-142289025D01*
X120754719Y-142206273D01*
X120764617Y-142113000D01*
X120946334Y-142113000D01*
X120975220Y-142195466D01*
X120983670Y-142197667D01*
X121055956Y-142138338D01*
X121073334Y-142113000D01*
X121068138Y-142052603D01*
X121298648Y-142052603D01*
X121319249Y-142099918D01*
X121404499Y-142190812D01*
X121453509Y-142172166D01*
X121454334Y-142160330D01*
X121394197Y-142088718D01*
X121356585Y-142062582D01*
X121298648Y-142052603D01*
X121068138Y-142052603D01*
X121066621Y-142034981D01*
X121035997Y-142028334D01*
X120949779Y-142089794D01*
X120946334Y-142113000D01*
X120764617Y-142113000D01*
X120774644Y-142018520D01*
X120893365Y-141846847D01*
X121060038Y-141746099D01*
X121179773Y-141747759D01*
X121439170Y-141893162D01*
X121554822Y-142079449D01*
X121517936Y-142280944D01*
X121406308Y-142409334D01*
X121336352Y-142538931D01*
X121274777Y-142770103D01*
X121254426Y-142896808D01*
X121189256Y-143197464D01*
X121084971Y-143465829D01*
X120963853Y-143655788D01*
X120855867Y-143721667D01*
X120844880Y-143784525D01*
X120910139Y-143938944D01*
X120927515Y-143970201D01*
X120995206Y-144141176D01*
X121002212Y-144273144D01*
X120959360Y-144325964D01*
X120877475Y-144259498D01*
X120857729Y-144228962D01*
X120719158Y-144007796D01*
X120632474Y-143908710D01*
X120566936Y-143905982D01*
X120519149Y-143945652D01*
X120469922Y-144050320D01*
X120515623Y-144098107D01*
X120586233Y-144205489D01*
X120605440Y-144355789D01*
X120569627Y-144467584D01*
X120532738Y-144483667D01*
X120437533Y-144419953D01*
X120319119Y-144272000D01*
X120186606Y-144127472D01*
X120054847Y-144060741D01*
X119967157Y-144079755D01*
X119966855Y-144192462D01*
X119973014Y-144208500D01*
X120041722Y-144462595D01*
X119997712Y-144606367D01*
X119963094Y-144625912D01*
X119869937Y-144580438D01*
X119771773Y-144424604D01*
X119765879Y-144410778D01*
X119657526Y-144245919D01*
X119516242Y-144136874D01*
X119383726Y-144097116D01*
X119301679Y-144140117D01*
X119305915Y-144262172D01*
X119365756Y-144525363D01*
X119332075Y-144670537D01*
X119243294Y-144717257D01*
X119142492Y-144688155D01*
X119076190Y-144530719D01*
X119052734Y-144408882D01*
X118993745Y-144177339D01*
X118894953Y-144069145D01*
X118808440Y-144045048D01*
X118685311Y-143999967D01*
X118621237Y-143878995D01*
X118591263Y-143643791D01*
X118585979Y-143360785D01*
X118605703Y-143116036D01*
X118615769Y-143065414D01*
X118646557Y-142987889D01*
X119958556Y-142987889D01*
X119970178Y-143038223D01*
X120015000Y-143044334D01*
X120084690Y-143013355D01*
X120071445Y-142987889D01*
X119970965Y-142977756D01*
X119958556Y-142987889D01*
X118646557Y-142987889D01*
X118667596Y-142934914D01*
X118769245Y-142891846D01*
X118976816Y-142913596D01*
X118987831Y-142915446D01*
X119259754Y-142928143D01*
X119308947Y-142903222D01*
X120212556Y-142903222D01*
X120224178Y-142953557D01*
X120269000Y-142959667D01*
X120338690Y-142928689D01*
X120325445Y-142903222D01*
X120224965Y-142893089D01*
X120212556Y-142903222D01*
X119308947Y-142903222D01*
X119374749Y-142869887D01*
X120584397Y-142869887D01*
X120692832Y-142837951D01*
X120873454Y-142712955D01*
X120993868Y-142581305D01*
X121009159Y-142486671D01*
X121007268Y-142484611D01*
X120912174Y-142495209D01*
X120758029Y-142603962D01*
X120712859Y-142646657D01*
X120584472Y-142803398D01*
X120584397Y-142869887D01*
X119374749Y-142869887D01*
X119396588Y-142858824D01*
X119481339Y-142705667D01*
X119845667Y-142705667D01*
X119910096Y-142787873D01*
X119930334Y-142790334D01*
X120012540Y-142725904D01*
X120015000Y-142705667D01*
X119950571Y-142623460D01*
X119930334Y-142621000D01*
X119848127Y-142685429D01*
X119845667Y-142705667D01*
X119481339Y-142705667D01*
X119492081Y-142686255D01*
X119517781Y-142621000D01*
X119676334Y-142621000D01*
X119707312Y-142690690D01*
X119732778Y-142677445D01*
X119742911Y-142576965D01*
X119732778Y-142564556D01*
X119682444Y-142576178D01*
X119676334Y-142621000D01*
X119517781Y-142621000D01*
X119567800Y-142494000D01*
X119930334Y-142494000D01*
X119972667Y-142536334D01*
X120015000Y-142494000D01*
X119972667Y-142451667D01*
X119930334Y-142494000D01*
X119567800Y-142494000D01*
X119597106Y-142419592D01*
X119600392Y-142409334D01*
X120099667Y-142409334D01*
X120142000Y-142451667D01*
X120184334Y-142409334D01*
X120142000Y-142367000D01*
X120099667Y-142409334D01*
X119600392Y-142409334D01*
X119641084Y-142282334D01*
X119930334Y-142282334D01*
X119961312Y-142352024D01*
X119986778Y-142338778D01*
X119996911Y-142238298D01*
X119986778Y-142225889D01*
X119936444Y-142237511D01*
X119930334Y-142282334D01*
X119641084Y-142282334D01*
X119695361Y-142112938D01*
X119770546Y-141820400D01*
X119806357Y-141596080D01*
X119801563Y-141514756D01*
X119800122Y-141318074D01*
X119848380Y-141176597D01*
X119945141Y-140995798D01*
X120072289Y-141177326D01*
X120072289Y-141177326D01*
G37*
X120072289Y-141177326D02*
X120149943Y-141365780D01*
X120145138Y-141500354D01*
X120139284Y-141638532D01*
X120171198Y-141869102D01*
X120228603Y-142141503D01*
X120299224Y-142405174D01*
X120370784Y-142609552D01*
X120431008Y-142704078D01*
X120437777Y-142705667D01*
X120566274Y-142635289D01*
X120687671Y-142472325D01*
X120742805Y-142324667D01*
X121115667Y-142324667D01*
X121158000Y-142367000D01*
X121200334Y-142324667D01*
X121158000Y-142282334D01*
X121115667Y-142324667D01*
X120742805Y-142324667D01*
X120756114Y-142289025D01*
X120754719Y-142206273D01*
X120764617Y-142113000D01*
X120946334Y-142113000D01*
X120975220Y-142195466D01*
X120983670Y-142197667D01*
X121055956Y-142138338D01*
X121073334Y-142113000D01*
X121068138Y-142052603D01*
X121298648Y-142052603D01*
X121319249Y-142099918D01*
X121404499Y-142190812D01*
X121453509Y-142172166D01*
X121454334Y-142160330D01*
X121394197Y-142088718D01*
X121356585Y-142062582D01*
X121298648Y-142052603D01*
X121068138Y-142052603D01*
X121066621Y-142034981D01*
X121035997Y-142028334D01*
X120949779Y-142089794D01*
X120946334Y-142113000D01*
X120764617Y-142113000D01*
X120774644Y-142018520D01*
X120893365Y-141846847D01*
X121060038Y-141746099D01*
X121179773Y-141747759D01*
X121439170Y-141893162D01*
X121554822Y-142079449D01*
X121517936Y-142280944D01*
X121406308Y-142409334D01*
X121336352Y-142538931D01*
X121274777Y-142770103D01*
X121254426Y-142896808D01*
X121189256Y-143197464D01*
X121084971Y-143465829D01*
X120963853Y-143655788D01*
X120855867Y-143721667D01*
X120844880Y-143784525D01*
X120910139Y-143938944D01*
X120927515Y-143970201D01*
X120995206Y-144141176D01*
X121002212Y-144273144D01*
X120959360Y-144325964D01*
X120877475Y-144259498D01*
X120857729Y-144228962D01*
X120719158Y-144007796D01*
X120632474Y-143908710D01*
X120566936Y-143905982D01*
X120519149Y-143945652D01*
X120469922Y-144050320D01*
X120515623Y-144098107D01*
X120586233Y-144205489D01*
X120605440Y-144355789D01*
X120569627Y-144467584D01*
X120532738Y-144483667D01*
X120437533Y-144419953D01*
X120319119Y-144272000D01*
X120186606Y-144127472D01*
X120054847Y-144060741D01*
X119967157Y-144079755D01*
X119966855Y-144192462D01*
X119973014Y-144208500D01*
X120041722Y-144462595D01*
X119997712Y-144606367D01*
X119963094Y-144625912D01*
X119869937Y-144580438D01*
X119771773Y-144424604D01*
X119765879Y-144410778D01*
X119657526Y-144245919D01*
X119516242Y-144136874D01*
X119383726Y-144097116D01*
X119301679Y-144140117D01*
X119305915Y-144262172D01*
X119365756Y-144525363D01*
X119332075Y-144670537D01*
X119243294Y-144717257D01*
X119142492Y-144688155D01*
X119076190Y-144530719D01*
X119052734Y-144408882D01*
X118993745Y-144177339D01*
X118894953Y-144069145D01*
X118808440Y-144045048D01*
X118685311Y-143999967D01*
X118621237Y-143878995D01*
X118591263Y-143643791D01*
X118585979Y-143360785D01*
X118605703Y-143116036D01*
X118615769Y-143065414D01*
X118646557Y-142987889D01*
X119958556Y-142987889D01*
X119970178Y-143038223D01*
X120015000Y-143044334D01*
X120084690Y-143013355D01*
X120071445Y-142987889D01*
X119970965Y-142977756D01*
X119958556Y-142987889D01*
X118646557Y-142987889D01*
X118667596Y-142934914D01*
X118769245Y-142891846D01*
X118976816Y-142913596D01*
X118987831Y-142915446D01*
X119259754Y-142928143D01*
X119308947Y-142903222D01*
X120212556Y-142903222D01*
X120224178Y-142953557D01*
X120269000Y-142959667D01*
X120338690Y-142928689D01*
X120325445Y-142903222D01*
X120224965Y-142893089D01*
X120212556Y-142903222D01*
X119308947Y-142903222D01*
X119374749Y-142869887D01*
X120584397Y-142869887D01*
X120692832Y-142837951D01*
X120873454Y-142712955D01*
X120993868Y-142581305D01*
X121009159Y-142486671D01*
X121007268Y-142484611D01*
X120912174Y-142495209D01*
X120758029Y-142603962D01*
X120712859Y-142646657D01*
X120584472Y-142803398D01*
X120584397Y-142869887D01*
X119374749Y-142869887D01*
X119396588Y-142858824D01*
X119481339Y-142705667D01*
X119845667Y-142705667D01*
X119910096Y-142787873D01*
X119930334Y-142790334D01*
X120012540Y-142725904D01*
X120015000Y-142705667D01*
X119950571Y-142623460D01*
X119930334Y-142621000D01*
X119848127Y-142685429D01*
X119845667Y-142705667D01*
X119481339Y-142705667D01*
X119492081Y-142686255D01*
X119517781Y-142621000D01*
X119676334Y-142621000D01*
X119707312Y-142690690D01*
X119732778Y-142677445D01*
X119742911Y-142576965D01*
X119732778Y-142564556D01*
X119682444Y-142576178D01*
X119676334Y-142621000D01*
X119517781Y-142621000D01*
X119567800Y-142494000D01*
X119930334Y-142494000D01*
X119972667Y-142536334D01*
X120015000Y-142494000D01*
X119972667Y-142451667D01*
X119930334Y-142494000D01*
X119567800Y-142494000D01*
X119597106Y-142419592D01*
X119600392Y-142409334D01*
X120099667Y-142409334D01*
X120142000Y-142451667D01*
X120184334Y-142409334D01*
X120142000Y-142367000D01*
X120099667Y-142409334D01*
X119600392Y-142409334D01*
X119641084Y-142282334D01*
X119930334Y-142282334D01*
X119961312Y-142352024D01*
X119986778Y-142338778D01*
X119996911Y-142238298D01*
X119986778Y-142225889D01*
X119936444Y-142237511D01*
X119930334Y-142282334D01*
X119641084Y-142282334D01*
X119695361Y-142112938D01*
X119770546Y-141820400D01*
X119806357Y-141596080D01*
X119801563Y-141514756D01*
X119800122Y-141318074D01*
X119848380Y-141176597D01*
X119945141Y-140995798D01*
X120072289Y-141177326D01*
D10*
X157106252Y-141530000D02*
X156583748Y-141530000D01*
X157106252Y-142950000D02*
X156583748Y-142950000D01*
X113605000Y-101540000D02*
X114935000Y-101540000D01*
X113605000Y-102870000D02*
X113605000Y-101540000D01*
X116205000Y-101540000D02*
X118805000Y-101540000D01*
X116205000Y-104140000D02*
X116205000Y-101540000D01*
X113605000Y-104140000D02*
X116205000Y-104140000D01*
X118805000Y-101540000D02*
X118805000Y-114360000D01*
X113605000Y-104140000D02*
X113605000Y-114360000D01*
X113605000Y-114360000D02*
X118805000Y-114360000D01*
X131241000Y-95869000D02*
X129951000Y-95869000D01*
X151461000Y-115139000D02*
X151461000Y-114189000D01*
X150511000Y-115139000D02*
X151461000Y-115139000D01*
X131241000Y-115139000D02*
X131241000Y-114189000D01*
X132191000Y-115139000D02*
X131241000Y-115139000D01*
X151461000Y-94919000D02*
X151461000Y-95869000D01*
X150511000Y-94919000D02*
X151461000Y-94919000D01*
X131241000Y-94919000D02*
X131241000Y-95869000D01*
X132191000Y-94919000D02*
X131241000Y-94919000D01*
X119813000Y-106291748D02*
X119813000Y-106814252D01*
X121233000Y-106291748D02*
X121233000Y-106814252D01*
X115645000Y-99067252D02*
X115645000Y-98544748D01*
X114225000Y-99067252D02*
X114225000Y-98544748D01*
X160754000Y-93559000D02*
X158754000Y-93559000D01*
X158754000Y-114159000D02*
X171954000Y-114159000D01*
X160754000Y-93359000D02*
X171954000Y-93359000D01*
X160754000Y-93359000D02*
X160754000Y-93559000D01*
X119193000Y-96580000D02*
X119193000Y-95250000D01*
X120523000Y-96580000D02*
X119193000Y-96580000D01*
X119193000Y-93980000D02*
X119193000Y-91380000D01*
X121793000Y-93980000D02*
X119193000Y-93980000D01*
X121793000Y-96580000D02*
X121793000Y-93980000D01*
X119193000Y-91380000D02*
X126933000Y-91380000D01*
X121793000Y-96580000D02*
X126933000Y-96580000D01*
X126933000Y-96580000D02*
X126933000Y-91380000D01*
X173389000Y-143106000D02*
X170904000Y-143106000D01*
X173389000Y-144676000D02*
X173389000Y-143106000D01*
X170904000Y-144676000D02*
X173389000Y-144676000D01*
X150741748Y-142950000D02*
X151264252Y-142950000D01*
X150741748Y-141530000D02*
X151264252Y-141530000D01*
X197926000Y-93225000D02*
X180026000Y-93225000D01*
X197926000Y-144265000D02*
X197926000Y-93225000D01*
X180026000Y-144265000D02*
X197926000Y-144265000D01*
X180026000Y-93225000D02*
X180026000Y-144265000D01*
X195436000Y-93285000D02*
X189976000Y-93285000D01*
X195436000Y-144205000D02*
X195436000Y-93285000D01*
X182516000Y-144205000D02*
X195436000Y-144205000D01*
X182516000Y-93285000D02*
X182516000Y-144205000D01*
X187976000Y-93285000D02*
X182516000Y-93285000D01*
X189976000Y-93285000D02*
G75*
G02X187976000Y-93285000I-1000000J0D01*
G01*
X132341252Y-141530000D02*
X131818748Y-141530000D01*
X132341252Y-142950000D02*
X131818748Y-142950000D01*
X137421252Y-141530000D02*
X136898748Y-141530000D01*
X137421252Y-142950000D02*
X136898748Y-142950000D01*
X166123252Y-120448000D02*
X165600748Y-120448000D01*
X166123252Y-121868000D02*
X165600748Y-121868000D01*
X160647748Y-142950000D02*
X161170252Y-142950000D01*
X160647748Y-141530000D02*
X161170252Y-141530000D01*
X141343748Y-142950000D02*
X141866252Y-142950000D01*
X141343748Y-141530000D02*
X141866252Y-141530000D01*
X189730748Y-134822000D02*
X190253252Y-134822000D01*
X189730748Y-133402000D02*
X190253252Y-133402000D01*
X174617748Y-120725000D02*
X175140252Y-120725000D01*
X174617748Y-119305000D02*
X175140252Y-119305000D01*
X174364000Y-140395000D02*
X174364000Y-122495000D01*
X113164000Y-140395000D02*
X174364000Y-140395000D01*
X113164000Y-122495000D02*
X113164000Y-140395000D01*
X174364000Y-122495000D02*
X113164000Y-122495000D01*
X174304000Y-137905000D02*
X174304000Y-132445000D01*
X113224000Y-137905000D02*
X174304000Y-137905000D01*
X113224000Y-124985000D02*
X113224000Y-137905000D01*
X174304000Y-124985000D02*
X113224000Y-124985000D01*
X174304000Y-130445000D02*
X174304000Y-124985000D01*
X174304000Y-132445000D02*
G75*
G02X174304000Y-130445000I0J1000000D01*
G01*
X171569748Y-142569000D02*
X172092252Y-142569000D01*
X171569748Y-141149000D02*
X172092252Y-141149000D01*
X185046252Y-119305000D02*
X184523748Y-119305000D01*
X185046252Y-120725000D02*
X184523748Y-120725000D01*
X165600748Y-92912000D02*
X166123252Y-92912000D01*
X165600748Y-91492000D02*
X166123252Y-91492000D01*
D12*
X156761666Y-141196190D02*
X156595000Y-140958095D01*
X156475952Y-141196190D02*
X156475952Y-140696190D01*
X156666428Y-140696190D01*
X156714047Y-140720000D01*
X156737857Y-140743809D01*
X156761666Y-140791428D01*
X156761666Y-140862857D01*
X156737857Y-140910476D01*
X156714047Y-140934285D01*
X156666428Y-140958095D01*
X156475952Y-140958095D01*
X157214047Y-140696190D02*
X156975952Y-140696190D01*
X156952142Y-140934285D01*
X156975952Y-140910476D01*
X157023571Y-140886666D01*
X157142619Y-140886666D01*
X157190238Y-140910476D01*
X157214047Y-140934285D01*
X157237857Y-140981904D01*
X157237857Y-141100952D01*
X157214047Y-141148571D01*
X157190238Y-141172380D01*
X157142619Y-141196190D01*
X157023571Y-141196190D01*
X156975952Y-141172380D01*
X156952142Y-141148571D01*
D11*
X113839666Y-115149380D02*
X113839666Y-115863666D01*
X113792047Y-116006523D01*
X113696809Y-116101761D01*
X113553952Y-116149380D01*
X113458714Y-116149380D01*
X114839666Y-116149380D02*
X114268238Y-116149380D01*
X114553952Y-116149380D02*
X114553952Y-115149380D01*
X114458714Y-115292238D01*
X114363476Y-115387476D01*
X114268238Y-115435095D01*
X116054333Y-115149380D02*
X116054333Y-115863666D01*
X116006714Y-116006523D01*
X115911476Y-116101761D01*
X115768619Y-116149380D01*
X115673380Y-116149380D01*
X116387666Y-115149380D02*
X116959095Y-115149380D01*
X116673380Y-116149380D02*
X116673380Y-115149380D01*
X117244809Y-115863666D02*
X117721000Y-115863666D01*
X117149571Y-116149380D02*
X117482904Y-115149380D01*
X117816238Y-116149380D01*
X118673380Y-115197000D02*
X118578142Y-115149380D01*
X118435285Y-115149380D01*
X118292428Y-115197000D01*
X118197190Y-115292238D01*
X118149571Y-115387476D01*
X118101952Y-115577952D01*
X118101952Y-115720809D01*
X118149571Y-115911285D01*
X118197190Y-116006523D01*
X118292428Y-116101761D01*
X118435285Y-116149380D01*
X118530523Y-116149380D01*
X118673380Y-116101761D01*
X118721000Y-116054142D01*
X118721000Y-115720809D01*
X118530523Y-115720809D01*
X151765095Y-93559380D02*
X151765095Y-94368904D01*
X151812714Y-94464142D01*
X151860333Y-94511761D01*
X151955571Y-94559380D01*
X152146047Y-94559380D01*
X152241285Y-94511761D01*
X152288904Y-94464142D01*
X152336523Y-94368904D01*
X152336523Y-93559380D01*
X153241285Y-93892714D02*
X153241285Y-94559380D01*
X153003190Y-93511761D02*
X152765095Y-94226047D01*
X153384142Y-94226047D01*
D12*
X137874809Y-93055285D02*
X138041476Y-93055285D01*
X138112904Y-93317190D02*
X137874809Y-93317190D01*
X137874809Y-92817190D01*
X138112904Y-92817190D01*
X138327190Y-93317190D02*
X138327190Y-92817190D01*
X138517666Y-92817190D01*
X138565285Y-92841000D01*
X138589095Y-92864809D01*
X138612904Y-92912428D01*
X138612904Y-92983857D01*
X138589095Y-93031476D01*
X138565285Y-93055285D01*
X138517666Y-93079095D01*
X138327190Y-93079095D01*
X138827190Y-93317190D02*
X138827190Y-92817190D01*
X138993857Y-93174333D01*
X139160523Y-92817190D01*
X139160523Y-93317190D01*
X139351000Y-92817190D02*
X139684333Y-92817190D01*
X139470047Y-93317190D01*
X140112904Y-92817190D02*
X139874809Y-92817190D01*
X139851000Y-93055285D01*
X139874809Y-93031476D01*
X139922428Y-93007666D01*
X140041476Y-93007666D01*
X140089095Y-93031476D01*
X140112904Y-93055285D01*
X140136714Y-93102904D01*
X140136714Y-93221952D01*
X140112904Y-93269571D01*
X140089095Y-93293380D01*
X140041476Y-93317190D01*
X139922428Y-93317190D01*
X139874809Y-93293380D01*
X139851000Y-93269571D01*
X140612904Y-93317190D02*
X140327190Y-93317190D01*
X140470047Y-93317190D02*
X140470047Y-92817190D01*
X140422428Y-92888619D01*
X140374809Y-92936238D01*
X140327190Y-92960047D01*
X140803380Y-92864809D02*
X140827190Y-92841000D01*
X140874809Y-92817190D01*
X140993857Y-92817190D01*
X141041476Y-92841000D01*
X141065285Y-92864809D01*
X141089095Y-92912428D01*
X141089095Y-92960047D01*
X141065285Y-93031476D01*
X140779571Y-93317190D01*
X141089095Y-93317190D01*
X141279571Y-93174333D02*
X141517666Y-93174333D01*
X141231952Y-93317190D02*
X141398619Y-92817190D01*
X141565285Y-93317190D01*
X141731952Y-93055285D02*
X141898619Y-93055285D01*
X141970047Y-93317190D02*
X141731952Y-93317190D01*
X141731952Y-92817190D01*
X141970047Y-92817190D01*
X142517666Y-93364809D02*
X142470047Y-93341000D01*
X142422428Y-93293380D01*
X142351000Y-93221952D01*
X142303380Y-93198142D01*
X142255761Y-93198142D01*
X142279571Y-93317190D02*
X142231952Y-93293380D01*
X142184333Y-93245761D01*
X142160523Y-93150523D01*
X142160523Y-92983857D01*
X142184333Y-92888619D01*
X142231952Y-92841000D01*
X142279571Y-92817190D01*
X142374809Y-92817190D01*
X142422428Y-92841000D01*
X142470047Y-92888619D01*
X142493857Y-92983857D01*
X142493857Y-93150523D01*
X142470047Y-93245761D01*
X142422428Y-93293380D01*
X142374809Y-93317190D01*
X142279571Y-93317190D01*
X142874809Y-93055285D02*
X142708142Y-93055285D01*
X142708142Y-93317190D02*
X142708142Y-92817190D01*
X142946238Y-92817190D01*
X143136714Y-93317190D02*
X143136714Y-92817190D01*
X143327190Y-92817190D01*
X143374809Y-92841000D01*
X143398619Y-92864809D01*
X143422428Y-92912428D01*
X143422428Y-92983857D01*
X143398619Y-93031476D01*
X143374809Y-93055285D01*
X143327190Y-93079095D01*
X143136714Y-93079095D01*
X143898619Y-93317190D02*
X143612904Y-93317190D01*
X143755761Y-93317190D02*
X143755761Y-92817190D01*
X143708142Y-92888619D01*
X143660523Y-92936238D01*
X143612904Y-92960047D01*
X144327190Y-92983857D02*
X144327190Y-93317190D01*
X144208142Y-92793380D02*
X144089095Y-93150523D01*
X144398619Y-93150523D01*
X144803380Y-92983857D02*
X144803380Y-93317190D01*
X144684333Y-92793380D02*
X144565285Y-93150523D01*
X144874809Y-93150523D01*
X120328571Y-104620190D02*
X120161904Y-104382095D01*
X120042857Y-104620190D02*
X120042857Y-104120190D01*
X120233333Y-104120190D01*
X120280952Y-104144000D01*
X120304761Y-104167809D01*
X120328571Y-104215428D01*
X120328571Y-104286857D01*
X120304761Y-104334476D01*
X120280952Y-104358285D01*
X120233333Y-104382095D01*
X120042857Y-104382095D01*
X120804761Y-104620190D02*
X120519047Y-104620190D01*
X120661904Y-104620190D02*
X120661904Y-104120190D01*
X120614285Y-104191619D01*
X120566666Y-104239238D01*
X120519047Y-104263047D01*
X121114285Y-104120190D02*
X121161904Y-104120190D01*
X121209523Y-104144000D01*
X121233333Y-104167809D01*
X121257142Y-104215428D01*
X121280952Y-104310666D01*
X121280952Y-104429714D01*
X121257142Y-104524952D01*
X121233333Y-104572571D01*
X121209523Y-104596380D01*
X121161904Y-104620190D01*
X121114285Y-104620190D01*
X121066666Y-104596380D01*
X121042857Y-104572571D01*
X121019047Y-104524952D01*
X120995238Y-104429714D01*
X120995238Y-104310666D01*
X121019047Y-104215428D01*
X121042857Y-104167809D01*
X121066666Y-104144000D01*
X121114285Y-104120190D01*
X114851666Y-96873190D02*
X114685000Y-96635095D01*
X114565952Y-96873190D02*
X114565952Y-96373190D01*
X114756428Y-96373190D01*
X114804047Y-96397000D01*
X114827857Y-96420809D01*
X114851666Y-96468428D01*
X114851666Y-96539857D01*
X114827857Y-96587476D01*
X114804047Y-96611285D01*
X114756428Y-96635095D01*
X114565952Y-96635095D01*
X115089761Y-96873190D02*
X115185000Y-96873190D01*
X115232619Y-96849380D01*
X115256428Y-96825571D01*
X115304047Y-96754142D01*
X115327857Y-96658904D01*
X115327857Y-96468428D01*
X115304047Y-96420809D01*
X115280238Y-96397000D01*
X115232619Y-96373190D01*
X115137380Y-96373190D01*
X115089761Y-96397000D01*
X115065952Y-96420809D01*
X115042142Y-96468428D01*
X115042142Y-96587476D01*
X115065952Y-96635095D01*
X115089761Y-96658904D01*
X115137380Y-96682714D01*
X115232619Y-96682714D01*
X115280238Y-96658904D01*
X115304047Y-96635095D01*
X115327857Y-96587476D01*
D11*
X171323095Y-91654380D02*
X171323095Y-92463904D01*
X171370714Y-92559142D01*
X171418333Y-92606761D01*
X171513571Y-92654380D01*
X171704047Y-92654380D01*
X171799285Y-92606761D01*
X171846904Y-92559142D01*
X171894523Y-92463904D01*
X171894523Y-91654380D01*
X172894523Y-92654380D02*
X172323095Y-92654380D01*
X172608809Y-92654380D02*
X172608809Y-91654380D01*
X172513571Y-91797238D01*
X172418333Y-91892476D01*
X172323095Y-91940095D01*
D12*
X160000380Y-92920333D02*
X160238476Y-92920333D01*
X159952761Y-93063190D02*
X160119428Y-92563190D01*
X160286095Y-93063190D01*
X160428952Y-93039380D02*
X160500380Y-93063190D01*
X160619428Y-93063190D01*
X160667047Y-93039380D01*
X160690857Y-93015571D01*
X160714666Y-92967952D01*
X160714666Y-92920333D01*
X160690857Y-92872714D01*
X160667047Y-92848904D01*
X160619428Y-92825095D01*
X160524190Y-92801285D01*
X160476571Y-92777476D01*
X160452761Y-92753666D01*
X160428952Y-92706047D01*
X160428952Y-92658428D01*
X160452761Y-92610809D01*
X160476571Y-92587000D01*
X160524190Y-92563190D01*
X160643238Y-92563190D01*
X160714666Y-92587000D01*
X161143238Y-92563190D02*
X161048000Y-92563190D01*
X161000380Y-92587000D01*
X160976571Y-92610809D01*
X160928952Y-92682238D01*
X160905142Y-92777476D01*
X160905142Y-92967952D01*
X160928952Y-93015571D01*
X160952761Y-93039380D01*
X161000380Y-93063190D01*
X161095619Y-93063190D01*
X161143238Y-93039380D01*
X161167047Y-93015571D01*
X161190857Y-92967952D01*
X161190857Y-92848904D01*
X161167047Y-92801285D01*
X161143238Y-92777476D01*
X161095619Y-92753666D01*
X161000380Y-92753666D01*
X160952761Y-92777476D01*
X160928952Y-92801285D01*
X160905142Y-92848904D01*
X161690857Y-93015571D02*
X161667047Y-93039380D01*
X161595619Y-93063190D01*
X161548000Y-93063190D01*
X161476571Y-93039380D01*
X161428952Y-92991761D01*
X161405142Y-92944142D01*
X161381333Y-92848904D01*
X161381333Y-92777476D01*
X161405142Y-92682238D01*
X161428952Y-92634619D01*
X161476571Y-92587000D01*
X161548000Y-92563190D01*
X161595619Y-92563190D01*
X161667047Y-92587000D01*
X161690857Y-92610809D01*
X162119428Y-92729857D02*
X162119428Y-93063190D01*
X162000380Y-92539380D02*
X161881333Y-92896523D01*
X162190857Y-92896523D01*
X162476571Y-92563190D02*
X162524190Y-92563190D01*
X162571809Y-92587000D01*
X162595619Y-92610809D01*
X162619428Y-92658428D01*
X162643238Y-92753666D01*
X162643238Y-92872714D01*
X162619428Y-92967952D01*
X162595619Y-93015571D01*
X162571809Y-93039380D01*
X162524190Y-93063190D01*
X162476571Y-93063190D01*
X162428952Y-93039380D01*
X162405142Y-93015571D01*
X162381333Y-92967952D01*
X162357523Y-92872714D01*
X162357523Y-92753666D01*
X162381333Y-92658428D01*
X162405142Y-92610809D01*
X162428952Y-92587000D01*
X162476571Y-92563190D01*
X162952761Y-92563190D02*
X163000380Y-92563190D01*
X163048000Y-92587000D01*
X163071809Y-92610809D01*
X163095619Y-92658428D01*
X163119428Y-92753666D01*
X163119428Y-92872714D01*
X163095619Y-92967952D01*
X163071809Y-93015571D01*
X163048000Y-93039380D01*
X163000380Y-93063190D01*
X162952761Y-93063190D01*
X162905142Y-93039380D01*
X162881333Y-93015571D01*
X162857523Y-92967952D01*
X162833714Y-92872714D01*
X162833714Y-92753666D01*
X162857523Y-92658428D01*
X162881333Y-92610809D01*
X162905142Y-92587000D01*
X162952761Y-92563190D01*
X163405142Y-92777476D02*
X163357523Y-92753666D01*
X163333714Y-92729857D01*
X163309904Y-92682238D01*
X163309904Y-92658428D01*
X163333714Y-92610809D01*
X163357523Y-92587000D01*
X163405142Y-92563190D01*
X163500380Y-92563190D01*
X163548000Y-92587000D01*
X163571809Y-92610809D01*
X163595619Y-92658428D01*
X163595619Y-92682238D01*
X163571809Y-92729857D01*
X163548000Y-92753666D01*
X163500380Y-92777476D01*
X163405142Y-92777476D01*
X163357523Y-92801285D01*
X163333714Y-92825095D01*
X163309904Y-92872714D01*
X163309904Y-92967952D01*
X163333714Y-93015571D01*
X163357523Y-93039380D01*
X163405142Y-93063190D01*
X163500380Y-93063190D01*
X163548000Y-93039380D01*
X163571809Y-93015571D01*
X163595619Y-92967952D01*
X163595619Y-92872714D01*
X163571809Y-92825095D01*
X163548000Y-92801285D01*
X163500380Y-92777476D01*
D11*
X120316666Y-97496380D02*
X120316666Y-98210666D01*
X120269047Y-98353523D01*
X120173809Y-98448761D01*
X120030952Y-98496380D01*
X119935714Y-98496380D01*
X120745238Y-97591619D02*
X120792857Y-97544000D01*
X120888095Y-97496380D01*
X121126190Y-97496380D01*
X121221428Y-97544000D01*
X121269047Y-97591619D01*
X121316666Y-97686857D01*
X121316666Y-97782095D01*
X121269047Y-97924952D01*
X120697619Y-98496380D01*
X121316666Y-98496380D01*
X122626666Y-98496380D02*
X122626666Y-97496380D01*
X123293333Y-97496380D02*
X123483809Y-97496380D01*
X123579047Y-97544000D01*
X123674285Y-97639238D01*
X123721904Y-97829714D01*
X123721904Y-98163047D01*
X123674285Y-98353523D01*
X123579047Y-98448761D01*
X123483809Y-98496380D01*
X123293333Y-98496380D01*
X123198095Y-98448761D01*
X123102857Y-98353523D01*
X123055238Y-98163047D01*
X123055238Y-97829714D01*
X123102857Y-97639238D01*
X123198095Y-97544000D01*
X123293333Y-97496380D01*
X124150476Y-97972571D02*
X124483809Y-97972571D01*
X124626666Y-98496380D02*
X124150476Y-98496380D01*
X124150476Y-97496380D01*
X124626666Y-97496380D01*
X124960000Y-97496380D02*
X125626666Y-98496380D01*
X125626666Y-97496380D02*
X124960000Y-98496380D01*
X125864761Y-97496380D02*
X126436190Y-97496380D01*
X126150476Y-98496380D02*
X126150476Y-97496380D01*
D12*
X168715571Y-144069571D02*
X168691761Y-144093380D01*
X168620333Y-144117190D01*
X168572714Y-144117190D01*
X168501285Y-144093380D01*
X168453666Y-144045761D01*
X168429857Y-143998142D01*
X168406047Y-143902904D01*
X168406047Y-143831476D01*
X168429857Y-143736238D01*
X168453666Y-143688619D01*
X168501285Y-143641000D01*
X168572714Y-143617190D01*
X168620333Y-143617190D01*
X168691761Y-143641000D01*
X168715571Y-143664809D01*
X169191761Y-144117190D02*
X168906047Y-144117190D01*
X169048904Y-144117190D02*
X169048904Y-143617190D01*
X169001285Y-143688619D01*
X168953666Y-143736238D01*
X168906047Y-143760047D01*
X169477476Y-143831476D02*
X169429857Y-143807666D01*
X169406047Y-143783857D01*
X169382238Y-143736238D01*
X169382238Y-143712428D01*
X169406047Y-143664809D01*
X169429857Y-143641000D01*
X169477476Y-143617190D01*
X169572714Y-143617190D01*
X169620333Y-143641000D01*
X169644142Y-143664809D01*
X169667952Y-143712428D01*
X169667952Y-143736238D01*
X169644142Y-143783857D01*
X169620333Y-143807666D01*
X169572714Y-143831476D01*
X169477476Y-143831476D01*
X169429857Y-143855285D01*
X169406047Y-143879095D01*
X169382238Y-143926714D01*
X169382238Y-144021952D01*
X169406047Y-144069571D01*
X169429857Y-144093380D01*
X169477476Y-144117190D01*
X169572714Y-144117190D01*
X169620333Y-144093380D01*
X169644142Y-144069571D01*
X169667952Y-144021952D01*
X169667952Y-143926714D01*
X169644142Y-143879095D01*
X169620333Y-143855285D01*
X169572714Y-143831476D01*
X150919666Y-141196190D02*
X150753000Y-140958095D01*
X150633952Y-141196190D02*
X150633952Y-140696190D01*
X150824428Y-140696190D01*
X150872047Y-140720000D01*
X150895857Y-140743809D01*
X150919666Y-140791428D01*
X150919666Y-140862857D01*
X150895857Y-140910476D01*
X150872047Y-140934285D01*
X150824428Y-140958095D01*
X150633952Y-140958095D01*
X151395857Y-141196190D02*
X151110142Y-141196190D01*
X151253000Y-141196190D02*
X151253000Y-140696190D01*
X151205380Y-140767619D01*
X151157761Y-140815238D01*
X151110142Y-140839047D01*
D11*
X197485095Y-91527380D02*
X197485095Y-92336904D01*
X197532714Y-92432142D01*
X197580333Y-92479761D01*
X197675571Y-92527380D01*
X197866047Y-92527380D01*
X197961285Y-92479761D01*
X198008904Y-92432142D01*
X198056523Y-92336904D01*
X198056523Y-91527380D01*
X198485095Y-91622619D02*
X198532714Y-91575000D01*
X198627952Y-91527380D01*
X198866047Y-91527380D01*
X198961285Y-91575000D01*
X199008904Y-91622619D01*
X199056523Y-91717857D01*
X199056523Y-91813095D01*
X199008904Y-91955952D01*
X198437476Y-92527380D01*
X199056523Y-92527380D01*
D12*
X187571238Y-92309190D02*
X187904571Y-92309190D01*
X187571238Y-92809190D01*
X187904571Y-92809190D01*
X188166476Y-92523476D02*
X188118857Y-92499666D01*
X188095047Y-92475857D01*
X188071238Y-92428238D01*
X188071238Y-92404428D01*
X188095047Y-92356809D01*
X188118857Y-92333000D01*
X188166476Y-92309190D01*
X188261714Y-92309190D01*
X188309333Y-92333000D01*
X188333142Y-92356809D01*
X188356952Y-92404428D01*
X188356952Y-92428238D01*
X188333142Y-92475857D01*
X188309333Y-92499666D01*
X188261714Y-92523476D01*
X188166476Y-92523476D01*
X188118857Y-92547285D01*
X188095047Y-92571095D01*
X188071238Y-92618714D01*
X188071238Y-92713952D01*
X188095047Y-92761571D01*
X188118857Y-92785380D01*
X188166476Y-92809190D01*
X188261714Y-92809190D01*
X188309333Y-92785380D01*
X188333142Y-92761571D01*
X188356952Y-92713952D01*
X188356952Y-92618714D01*
X188333142Y-92571095D01*
X188309333Y-92547285D01*
X188261714Y-92523476D01*
X188666476Y-92309190D02*
X188714095Y-92309190D01*
X188761714Y-92333000D01*
X188785523Y-92356809D01*
X188809333Y-92404428D01*
X188833142Y-92499666D01*
X188833142Y-92618714D01*
X188809333Y-92713952D01*
X188785523Y-92761571D01*
X188761714Y-92785380D01*
X188714095Y-92809190D01*
X188666476Y-92809190D01*
X188618857Y-92785380D01*
X188595047Y-92761571D01*
X188571238Y-92713952D01*
X188547428Y-92618714D01*
X188547428Y-92499666D01*
X188571238Y-92404428D01*
X188595047Y-92356809D01*
X188618857Y-92333000D01*
X188666476Y-92309190D01*
X189333142Y-92761571D02*
X189309333Y-92785380D01*
X189237904Y-92809190D01*
X189190285Y-92809190D01*
X189118857Y-92785380D01*
X189071238Y-92737761D01*
X189047428Y-92690142D01*
X189023619Y-92594904D01*
X189023619Y-92523476D01*
X189047428Y-92428238D01*
X189071238Y-92380619D01*
X189118857Y-92333000D01*
X189190285Y-92309190D01*
X189237904Y-92309190D01*
X189309333Y-92333000D01*
X189333142Y-92356809D01*
X189547428Y-92809190D02*
X189547428Y-92309190D01*
X189737904Y-92309190D01*
X189785523Y-92333000D01*
X189809333Y-92356809D01*
X189833142Y-92404428D01*
X189833142Y-92475857D01*
X189809333Y-92523476D01*
X189785523Y-92547285D01*
X189737904Y-92571095D01*
X189547428Y-92571095D01*
X190047428Y-92309190D02*
X190047428Y-92713952D01*
X190071238Y-92761571D01*
X190095047Y-92785380D01*
X190142666Y-92809190D01*
X190237904Y-92809190D01*
X190285523Y-92785380D01*
X190309333Y-92761571D01*
X190333142Y-92713952D01*
X190333142Y-92309190D01*
X132005666Y-141196190D02*
X131839000Y-140958095D01*
X131719952Y-141196190D02*
X131719952Y-140696190D01*
X131910428Y-140696190D01*
X131958047Y-140720000D01*
X131981857Y-140743809D01*
X132005666Y-140791428D01*
X132005666Y-140862857D01*
X131981857Y-140910476D01*
X131958047Y-140934285D01*
X131910428Y-140958095D01*
X131719952Y-140958095D01*
X132196142Y-140743809D02*
X132219952Y-140720000D01*
X132267571Y-140696190D01*
X132386619Y-140696190D01*
X132434238Y-140720000D01*
X132458047Y-140743809D01*
X132481857Y-140791428D01*
X132481857Y-140839047D01*
X132458047Y-140910476D01*
X132172333Y-141196190D01*
X132481857Y-141196190D01*
X137076666Y-141196190D02*
X136910000Y-140958095D01*
X136790952Y-141196190D02*
X136790952Y-140696190D01*
X136981428Y-140696190D01*
X137029047Y-140720000D01*
X137052857Y-140743809D01*
X137076666Y-140791428D01*
X137076666Y-140862857D01*
X137052857Y-140910476D01*
X137029047Y-140934285D01*
X136981428Y-140958095D01*
X136790952Y-140958095D01*
X137243333Y-140696190D02*
X137552857Y-140696190D01*
X137386190Y-140886666D01*
X137457619Y-140886666D01*
X137505238Y-140910476D01*
X137529047Y-140934285D01*
X137552857Y-140981904D01*
X137552857Y-141100952D01*
X137529047Y-141148571D01*
X137505238Y-141172380D01*
X137457619Y-141196190D01*
X137314761Y-141196190D01*
X137267142Y-141172380D01*
X137243333Y-141148571D01*
X165778666Y-120114190D02*
X165612000Y-119876095D01*
X165492952Y-120114190D02*
X165492952Y-119614190D01*
X165683428Y-119614190D01*
X165731047Y-119638000D01*
X165754857Y-119661809D01*
X165778666Y-119709428D01*
X165778666Y-119780857D01*
X165754857Y-119828476D01*
X165731047Y-119852285D01*
X165683428Y-119876095D01*
X165492952Y-119876095D01*
X166207238Y-119780857D02*
X166207238Y-120114190D01*
X166088190Y-119590380D02*
X165969142Y-119947523D01*
X166278666Y-119947523D01*
X160825666Y-141196190D02*
X160659000Y-140958095D01*
X160539952Y-141196190D02*
X160539952Y-140696190D01*
X160730428Y-140696190D01*
X160778047Y-140720000D01*
X160801857Y-140743809D01*
X160825666Y-140791428D01*
X160825666Y-140862857D01*
X160801857Y-140910476D01*
X160778047Y-140934285D01*
X160730428Y-140958095D01*
X160539952Y-140958095D01*
X161254238Y-140696190D02*
X161159000Y-140696190D01*
X161111380Y-140720000D01*
X161087571Y-140743809D01*
X161039952Y-140815238D01*
X161016142Y-140910476D01*
X161016142Y-141100952D01*
X161039952Y-141148571D01*
X161063761Y-141172380D01*
X161111380Y-141196190D01*
X161206619Y-141196190D01*
X161254238Y-141172380D01*
X161278047Y-141148571D01*
X161301857Y-141100952D01*
X161301857Y-140981904D01*
X161278047Y-140934285D01*
X161254238Y-140910476D01*
X161206619Y-140886666D01*
X161111380Y-140886666D01*
X161063761Y-140910476D01*
X161039952Y-140934285D01*
X161016142Y-140981904D01*
X141521666Y-141196190D02*
X141355000Y-140958095D01*
X141235952Y-141196190D02*
X141235952Y-140696190D01*
X141426428Y-140696190D01*
X141474047Y-140720000D01*
X141497857Y-140743809D01*
X141521666Y-140791428D01*
X141521666Y-140862857D01*
X141497857Y-140910476D01*
X141474047Y-140934285D01*
X141426428Y-140958095D01*
X141235952Y-140958095D01*
X141688333Y-140696190D02*
X142021666Y-140696190D01*
X141807380Y-141196190D01*
X189908666Y-133068190D02*
X189742000Y-132830095D01*
X189622952Y-133068190D02*
X189622952Y-132568190D01*
X189813428Y-132568190D01*
X189861047Y-132592000D01*
X189884857Y-132615809D01*
X189908666Y-132663428D01*
X189908666Y-132734857D01*
X189884857Y-132782476D01*
X189861047Y-132806285D01*
X189813428Y-132830095D01*
X189622952Y-132830095D01*
X190194380Y-132782476D02*
X190146761Y-132758666D01*
X190122952Y-132734857D01*
X190099142Y-132687238D01*
X190099142Y-132663428D01*
X190122952Y-132615809D01*
X190146761Y-132592000D01*
X190194380Y-132568190D01*
X190289619Y-132568190D01*
X190337238Y-132592000D01*
X190361047Y-132615809D01*
X190384857Y-132663428D01*
X190384857Y-132687238D01*
X190361047Y-132734857D01*
X190337238Y-132758666D01*
X190289619Y-132782476D01*
X190194380Y-132782476D01*
X190146761Y-132806285D01*
X190122952Y-132830095D01*
X190099142Y-132877714D01*
X190099142Y-132972952D01*
X190122952Y-133020571D01*
X190146761Y-133044380D01*
X190194380Y-133068190D01*
X190289619Y-133068190D01*
X190337238Y-133044380D01*
X190361047Y-133020571D01*
X190384857Y-132972952D01*
X190384857Y-132877714D01*
X190361047Y-132830095D01*
X190337238Y-132806285D01*
X190289619Y-132782476D01*
X174795666Y-118923571D02*
X174771857Y-118947380D01*
X174700428Y-118971190D01*
X174652809Y-118971190D01*
X174581380Y-118947380D01*
X174533761Y-118899761D01*
X174509952Y-118852142D01*
X174486142Y-118756904D01*
X174486142Y-118685476D01*
X174509952Y-118590238D01*
X174533761Y-118542619D01*
X174581380Y-118495000D01*
X174652809Y-118471190D01*
X174700428Y-118471190D01*
X174771857Y-118495000D01*
X174795666Y-118518809D01*
X174962333Y-118471190D02*
X175271857Y-118471190D01*
X175105190Y-118661666D01*
X175176619Y-118661666D01*
X175224238Y-118685476D01*
X175248047Y-118709285D01*
X175271857Y-118756904D01*
X175271857Y-118875952D01*
X175248047Y-118923571D01*
X175224238Y-118947380D01*
X175176619Y-118971190D01*
X175033761Y-118971190D01*
X174986142Y-118947380D01*
X174962333Y-118923571D01*
D11*
X174879095Y-121753380D02*
X174879095Y-122562904D01*
X174926714Y-122658142D01*
X174974333Y-122705761D01*
X175069571Y-122753380D01*
X175260047Y-122753380D01*
X175355285Y-122705761D01*
X175402904Y-122658142D01*
X175450523Y-122562904D01*
X175450523Y-121753380D01*
X176355285Y-121753380D02*
X176164809Y-121753380D01*
X176069571Y-121801000D01*
X176021952Y-121848619D01*
X175926714Y-121991476D01*
X175879095Y-122181952D01*
X175879095Y-122562904D01*
X175926714Y-122658142D01*
X175974333Y-122705761D01*
X176069571Y-122753380D01*
X176260047Y-122753380D01*
X176355285Y-122705761D01*
X176402904Y-122658142D01*
X176450523Y-122562904D01*
X176450523Y-122324809D01*
X176402904Y-122229571D01*
X176355285Y-122181952D01*
X176260047Y-122134333D01*
X176069571Y-122134333D01*
X175974333Y-122181952D01*
X175926714Y-122229571D01*
X175879095Y-122324809D01*
X112760571Y-120737380D02*
X113332000Y-120737380D01*
X113046285Y-121737380D02*
X113046285Y-120737380D01*
X114046285Y-121689761D02*
X113951047Y-121737380D01*
X113760571Y-121737380D01*
X113665333Y-121689761D01*
X113617714Y-121594523D01*
X113617714Y-121213571D01*
X113665333Y-121118333D01*
X113760571Y-121070714D01*
X113951047Y-121070714D01*
X114046285Y-121118333D01*
X114093904Y-121213571D01*
X114093904Y-121308809D01*
X113617714Y-121404047D01*
X114903428Y-121689761D02*
X114808190Y-121737380D01*
X114617714Y-121737380D01*
X114522476Y-121689761D01*
X114474857Y-121594523D01*
X114474857Y-121213571D01*
X114522476Y-121118333D01*
X114617714Y-121070714D01*
X114808190Y-121070714D01*
X114903428Y-121118333D01*
X114951047Y-121213571D01*
X114951047Y-121308809D01*
X114474857Y-121404047D01*
X115379619Y-121070714D02*
X115379619Y-121737380D01*
X115379619Y-121165952D02*
X115427238Y-121118333D01*
X115522476Y-121070714D01*
X115665333Y-121070714D01*
X115760571Y-121118333D01*
X115808190Y-121213571D01*
X115808190Y-121737380D01*
X116236761Y-121689761D02*
X116332000Y-121737380D01*
X116522476Y-121737380D01*
X116617714Y-121689761D01*
X116665333Y-121594523D01*
X116665333Y-121546904D01*
X116617714Y-121451666D01*
X116522476Y-121404047D01*
X116379619Y-121404047D01*
X116284380Y-121356428D01*
X116236761Y-121261190D01*
X116236761Y-121213571D01*
X116284380Y-121118333D01*
X116379619Y-121070714D01*
X116522476Y-121070714D01*
X116617714Y-121118333D01*
X116998666Y-121070714D02*
X117236761Y-121737380D01*
X117474857Y-121070714D02*
X117236761Y-121737380D01*
X117141523Y-121975476D01*
X117093904Y-122023095D01*
X116998666Y-122070714D01*
X117760571Y-120737380D02*
X118379619Y-120737380D01*
X118046285Y-121118333D01*
X118189142Y-121118333D01*
X118284380Y-121165952D01*
X118332000Y-121213571D01*
X118379619Y-121308809D01*
X118379619Y-121546904D01*
X118332000Y-121642142D01*
X118284380Y-121689761D01*
X118189142Y-121737380D01*
X117903428Y-121737380D01*
X117808190Y-121689761D01*
X117760571Y-121642142D01*
X118808190Y-121642142D02*
X118855809Y-121689761D01*
X118808190Y-121737380D01*
X118760571Y-121689761D01*
X118808190Y-121642142D01*
X118808190Y-121737380D01*
X119760571Y-120737380D02*
X119284380Y-120737380D01*
X119236761Y-121213571D01*
X119284380Y-121165952D01*
X119379619Y-121118333D01*
X119617714Y-121118333D01*
X119712952Y-121165952D01*
X119760571Y-121213571D01*
X119808190Y-121308809D01*
X119808190Y-121546904D01*
X119760571Y-121642142D01*
X119712952Y-121689761D01*
X119617714Y-121737380D01*
X119379619Y-121737380D01*
X119284380Y-121689761D01*
X119236761Y-121642142D01*
D12*
X168715571Y-142037571D02*
X168691761Y-142061380D01*
X168620333Y-142085190D01*
X168572714Y-142085190D01*
X168501285Y-142061380D01*
X168453666Y-142013761D01*
X168429857Y-141966142D01*
X168406047Y-141870904D01*
X168406047Y-141799476D01*
X168429857Y-141704238D01*
X168453666Y-141656619D01*
X168501285Y-141609000D01*
X168572714Y-141585190D01*
X168620333Y-141585190D01*
X168691761Y-141609000D01*
X168715571Y-141632809D01*
X169191761Y-142085190D02*
X168906047Y-142085190D01*
X169048904Y-142085190D02*
X169048904Y-141585190D01*
X169001285Y-141656619D01*
X168953666Y-141704238D01*
X168906047Y-141728047D01*
X169358428Y-141585190D02*
X169691761Y-141585190D01*
X169477476Y-142085190D01*
X184701666Y-118923571D02*
X184677857Y-118947380D01*
X184606428Y-118971190D01*
X184558809Y-118971190D01*
X184487380Y-118947380D01*
X184439761Y-118899761D01*
X184415952Y-118852142D01*
X184392142Y-118756904D01*
X184392142Y-118685476D01*
X184415952Y-118590238D01*
X184439761Y-118542619D01*
X184487380Y-118495000D01*
X184558809Y-118471190D01*
X184606428Y-118471190D01*
X184677857Y-118495000D01*
X184701666Y-118518809D01*
X184892142Y-118518809D02*
X184915952Y-118495000D01*
X184963571Y-118471190D01*
X185082619Y-118471190D01*
X185130238Y-118495000D01*
X185154047Y-118518809D01*
X185177857Y-118566428D01*
X185177857Y-118614047D01*
X185154047Y-118685476D01*
X184868333Y-118971190D01*
X185177857Y-118971190D01*
X165778666Y-91110571D02*
X165754857Y-91134380D01*
X165683428Y-91158190D01*
X165635809Y-91158190D01*
X165564380Y-91134380D01*
X165516761Y-91086761D01*
X165492952Y-91039142D01*
X165469142Y-90943904D01*
X165469142Y-90872476D01*
X165492952Y-90777238D01*
X165516761Y-90729619D01*
X165564380Y-90682000D01*
X165635809Y-90658190D01*
X165683428Y-90658190D01*
X165754857Y-90682000D01*
X165778666Y-90705809D01*
X166254857Y-91158190D02*
X165969142Y-91158190D01*
X166112000Y-91158190D02*
X166112000Y-90658190D01*
X166064380Y-90729619D01*
X166016761Y-90777238D01*
X165969142Y-90801047D01*
M02*
