G04 #@! TF.GenerationSoftware,KiCad,Pcbnew,(5.1.2-1)-1*
G04 #@! TF.CreationDate,2020-07-08T23:16:20+01:00*
G04 #@! TF.ProjectId,tranZPUter-SW,7472616e-5a50-4557-9465-722d53572e6b,rev?*
G04 #@! TF.SameCoordinates,Original*
G04 #@! TF.FileFunction,Paste,Bot*
G04 #@! TF.FilePolarity,Positive*
%FSLAX46Y46*%
G04 Gerber Fmt 4.6, Leading zero omitted, Abs format (unit mm)*
G04 Created by KiCad (PCBNEW (5.1.2-1)-1) date 2020-07-08 23:16:20*
%MOMM*%
%LPD*%
G04 APERTURE LIST*
%ADD10R,1.500000X2.000000*%
%ADD11R,3.800000X2.000000*%
%ADD12C,0.100000*%
%ADD13C,1.425000*%
%ADD14C,0.875000*%
%ADD15R,0.800000X2.000000*%
G04 APERTURE END LIST*
D10*
X189879000Y-117069000D03*
X185279000Y-117069000D03*
X187579000Y-117069000D03*
D11*
X187579000Y-110769000D03*
D12*
G36*
X188355504Y-121807204D02*
G01*
X188379773Y-121810804D01*
X188403571Y-121816765D01*
X188426671Y-121825030D01*
X188448849Y-121835520D01*
X188469893Y-121848133D01*
X188489598Y-121862747D01*
X188507777Y-121879223D01*
X188524253Y-121897402D01*
X188538867Y-121917107D01*
X188551480Y-121938151D01*
X188561970Y-121960329D01*
X188570235Y-121983429D01*
X188576196Y-122007227D01*
X188579796Y-122031496D01*
X188581000Y-122056000D01*
X188581000Y-122981000D01*
X188579796Y-123005504D01*
X188576196Y-123029773D01*
X188570235Y-123053571D01*
X188561970Y-123076671D01*
X188551480Y-123098849D01*
X188538867Y-123119893D01*
X188524253Y-123139598D01*
X188507777Y-123157777D01*
X188489598Y-123174253D01*
X188469893Y-123188867D01*
X188448849Y-123201480D01*
X188426671Y-123211970D01*
X188403571Y-123220235D01*
X188379773Y-123226196D01*
X188355504Y-123229796D01*
X188331000Y-123231000D01*
X187081000Y-123231000D01*
X187056496Y-123229796D01*
X187032227Y-123226196D01*
X187008429Y-123220235D01*
X186985329Y-123211970D01*
X186963151Y-123201480D01*
X186942107Y-123188867D01*
X186922402Y-123174253D01*
X186904223Y-123157777D01*
X186887747Y-123139598D01*
X186873133Y-123119893D01*
X186860520Y-123098849D01*
X186850030Y-123076671D01*
X186841765Y-123053571D01*
X186835804Y-123029773D01*
X186832204Y-123005504D01*
X186831000Y-122981000D01*
X186831000Y-122056000D01*
X186832204Y-122031496D01*
X186835804Y-122007227D01*
X186841765Y-121983429D01*
X186850030Y-121960329D01*
X186860520Y-121938151D01*
X186873133Y-121917107D01*
X186887747Y-121897402D01*
X186904223Y-121879223D01*
X186922402Y-121862747D01*
X186942107Y-121848133D01*
X186963151Y-121835520D01*
X186985329Y-121825030D01*
X187008429Y-121816765D01*
X187032227Y-121810804D01*
X187056496Y-121807204D01*
X187081000Y-121806000D01*
X188331000Y-121806000D01*
X188355504Y-121807204D01*
X188355504Y-121807204D01*
G37*
D13*
X187706000Y-122518500D03*
D12*
G36*
X188355504Y-118832204D02*
G01*
X188379773Y-118835804D01*
X188403571Y-118841765D01*
X188426671Y-118850030D01*
X188448849Y-118860520D01*
X188469893Y-118873133D01*
X188489598Y-118887747D01*
X188507777Y-118904223D01*
X188524253Y-118922402D01*
X188538867Y-118942107D01*
X188551480Y-118963151D01*
X188561970Y-118985329D01*
X188570235Y-119008429D01*
X188576196Y-119032227D01*
X188579796Y-119056496D01*
X188581000Y-119081000D01*
X188581000Y-120006000D01*
X188579796Y-120030504D01*
X188576196Y-120054773D01*
X188570235Y-120078571D01*
X188561970Y-120101671D01*
X188551480Y-120123849D01*
X188538867Y-120144893D01*
X188524253Y-120164598D01*
X188507777Y-120182777D01*
X188489598Y-120199253D01*
X188469893Y-120213867D01*
X188448849Y-120226480D01*
X188426671Y-120236970D01*
X188403571Y-120245235D01*
X188379773Y-120251196D01*
X188355504Y-120254796D01*
X188331000Y-120256000D01*
X187081000Y-120256000D01*
X187056496Y-120254796D01*
X187032227Y-120251196D01*
X187008429Y-120245235D01*
X186985329Y-120236970D01*
X186963151Y-120226480D01*
X186942107Y-120213867D01*
X186922402Y-120199253D01*
X186904223Y-120182777D01*
X186887747Y-120164598D01*
X186873133Y-120144893D01*
X186860520Y-120123849D01*
X186850030Y-120101671D01*
X186841765Y-120078571D01*
X186835804Y-120054773D01*
X186832204Y-120030504D01*
X186831000Y-120006000D01*
X186831000Y-119081000D01*
X186832204Y-119056496D01*
X186835804Y-119032227D01*
X186841765Y-119008429D01*
X186850030Y-118985329D01*
X186860520Y-118963151D01*
X186873133Y-118942107D01*
X186887747Y-118922402D01*
X186904223Y-118904223D01*
X186922402Y-118887747D01*
X186942107Y-118873133D01*
X186963151Y-118860520D01*
X186985329Y-118850030D01*
X187008429Y-118841765D01*
X187032227Y-118835804D01*
X187056496Y-118832204D01*
X187081000Y-118831000D01*
X188331000Y-118831000D01*
X188355504Y-118832204D01*
X188355504Y-118832204D01*
G37*
D13*
X187706000Y-119543500D03*
D12*
G36*
X185815504Y-121770204D02*
G01*
X185839773Y-121773804D01*
X185863571Y-121779765D01*
X185886671Y-121788030D01*
X185908849Y-121798520D01*
X185929893Y-121811133D01*
X185949598Y-121825747D01*
X185967777Y-121842223D01*
X185984253Y-121860402D01*
X185998867Y-121880107D01*
X186011480Y-121901151D01*
X186021970Y-121923329D01*
X186030235Y-121946429D01*
X186036196Y-121970227D01*
X186039796Y-121994496D01*
X186041000Y-122019000D01*
X186041000Y-122944000D01*
X186039796Y-122968504D01*
X186036196Y-122992773D01*
X186030235Y-123016571D01*
X186021970Y-123039671D01*
X186011480Y-123061849D01*
X185998867Y-123082893D01*
X185984253Y-123102598D01*
X185967777Y-123120777D01*
X185949598Y-123137253D01*
X185929893Y-123151867D01*
X185908849Y-123164480D01*
X185886671Y-123174970D01*
X185863571Y-123183235D01*
X185839773Y-123189196D01*
X185815504Y-123192796D01*
X185791000Y-123194000D01*
X184541000Y-123194000D01*
X184516496Y-123192796D01*
X184492227Y-123189196D01*
X184468429Y-123183235D01*
X184445329Y-123174970D01*
X184423151Y-123164480D01*
X184402107Y-123151867D01*
X184382402Y-123137253D01*
X184364223Y-123120777D01*
X184347747Y-123102598D01*
X184333133Y-123082893D01*
X184320520Y-123061849D01*
X184310030Y-123039671D01*
X184301765Y-123016571D01*
X184295804Y-122992773D01*
X184292204Y-122968504D01*
X184291000Y-122944000D01*
X184291000Y-122019000D01*
X184292204Y-121994496D01*
X184295804Y-121970227D01*
X184301765Y-121946429D01*
X184310030Y-121923329D01*
X184320520Y-121901151D01*
X184333133Y-121880107D01*
X184347747Y-121860402D01*
X184364223Y-121842223D01*
X184382402Y-121825747D01*
X184402107Y-121811133D01*
X184423151Y-121798520D01*
X184445329Y-121788030D01*
X184468429Y-121779765D01*
X184492227Y-121773804D01*
X184516496Y-121770204D01*
X184541000Y-121769000D01*
X185791000Y-121769000D01*
X185815504Y-121770204D01*
X185815504Y-121770204D01*
G37*
D13*
X185166000Y-122481500D03*
D12*
G36*
X185815504Y-118795204D02*
G01*
X185839773Y-118798804D01*
X185863571Y-118804765D01*
X185886671Y-118813030D01*
X185908849Y-118823520D01*
X185929893Y-118836133D01*
X185949598Y-118850747D01*
X185967777Y-118867223D01*
X185984253Y-118885402D01*
X185998867Y-118905107D01*
X186011480Y-118926151D01*
X186021970Y-118948329D01*
X186030235Y-118971429D01*
X186036196Y-118995227D01*
X186039796Y-119019496D01*
X186041000Y-119044000D01*
X186041000Y-119969000D01*
X186039796Y-119993504D01*
X186036196Y-120017773D01*
X186030235Y-120041571D01*
X186021970Y-120064671D01*
X186011480Y-120086849D01*
X185998867Y-120107893D01*
X185984253Y-120127598D01*
X185967777Y-120145777D01*
X185949598Y-120162253D01*
X185929893Y-120176867D01*
X185908849Y-120189480D01*
X185886671Y-120199970D01*
X185863571Y-120208235D01*
X185839773Y-120214196D01*
X185815504Y-120217796D01*
X185791000Y-120219000D01*
X184541000Y-120219000D01*
X184516496Y-120217796D01*
X184492227Y-120214196D01*
X184468429Y-120208235D01*
X184445329Y-120199970D01*
X184423151Y-120189480D01*
X184402107Y-120176867D01*
X184382402Y-120162253D01*
X184364223Y-120145777D01*
X184347747Y-120127598D01*
X184333133Y-120107893D01*
X184320520Y-120086849D01*
X184310030Y-120064671D01*
X184301765Y-120041571D01*
X184295804Y-120017773D01*
X184292204Y-119993504D01*
X184291000Y-119969000D01*
X184291000Y-119044000D01*
X184292204Y-119019496D01*
X184295804Y-118995227D01*
X184301765Y-118971429D01*
X184310030Y-118948329D01*
X184320520Y-118926151D01*
X184333133Y-118905107D01*
X184347747Y-118885402D01*
X184364223Y-118867223D01*
X184382402Y-118850747D01*
X184402107Y-118836133D01*
X184423151Y-118823520D01*
X184445329Y-118813030D01*
X184468429Y-118804765D01*
X184492227Y-118798804D01*
X184516496Y-118795204D01*
X184541000Y-118794000D01*
X185791000Y-118794000D01*
X185815504Y-118795204D01*
X185815504Y-118795204D01*
G37*
D13*
X185166000Y-119506500D03*
D12*
G36*
X137298691Y-100491053D02*
G01*
X137319926Y-100494203D01*
X137340750Y-100499419D01*
X137360962Y-100506651D01*
X137380368Y-100515830D01*
X137398781Y-100526866D01*
X137416024Y-100539654D01*
X137431930Y-100554070D01*
X137446346Y-100569976D01*
X137459134Y-100587219D01*
X137470170Y-100605632D01*
X137479349Y-100625038D01*
X137486581Y-100645250D01*
X137491797Y-100666074D01*
X137494947Y-100687309D01*
X137496000Y-100708750D01*
X137496000Y-101221250D01*
X137494947Y-101242691D01*
X137491797Y-101263926D01*
X137486581Y-101284750D01*
X137479349Y-101304962D01*
X137470170Y-101324368D01*
X137459134Y-101342781D01*
X137446346Y-101360024D01*
X137431930Y-101375930D01*
X137416024Y-101390346D01*
X137398781Y-101403134D01*
X137380368Y-101414170D01*
X137360962Y-101423349D01*
X137340750Y-101430581D01*
X137319926Y-101435797D01*
X137298691Y-101438947D01*
X137277250Y-101440000D01*
X136839750Y-101440000D01*
X136818309Y-101438947D01*
X136797074Y-101435797D01*
X136776250Y-101430581D01*
X136756038Y-101423349D01*
X136736632Y-101414170D01*
X136718219Y-101403134D01*
X136700976Y-101390346D01*
X136685070Y-101375930D01*
X136670654Y-101360024D01*
X136657866Y-101342781D01*
X136646830Y-101324368D01*
X136637651Y-101304962D01*
X136630419Y-101284750D01*
X136625203Y-101263926D01*
X136622053Y-101242691D01*
X136621000Y-101221250D01*
X136621000Y-100708750D01*
X136622053Y-100687309D01*
X136625203Y-100666074D01*
X136630419Y-100645250D01*
X136637651Y-100625038D01*
X136646830Y-100605632D01*
X136657866Y-100587219D01*
X136670654Y-100569976D01*
X136685070Y-100554070D01*
X136700976Y-100539654D01*
X136718219Y-100526866D01*
X136736632Y-100515830D01*
X136756038Y-100506651D01*
X136776250Y-100499419D01*
X136797074Y-100494203D01*
X136818309Y-100491053D01*
X136839750Y-100490000D01*
X137277250Y-100490000D01*
X137298691Y-100491053D01*
X137298691Y-100491053D01*
G37*
D14*
X137058500Y-100965000D03*
D12*
G36*
X135723691Y-100491053D02*
G01*
X135744926Y-100494203D01*
X135765750Y-100499419D01*
X135785962Y-100506651D01*
X135805368Y-100515830D01*
X135823781Y-100526866D01*
X135841024Y-100539654D01*
X135856930Y-100554070D01*
X135871346Y-100569976D01*
X135884134Y-100587219D01*
X135895170Y-100605632D01*
X135904349Y-100625038D01*
X135911581Y-100645250D01*
X135916797Y-100666074D01*
X135919947Y-100687309D01*
X135921000Y-100708750D01*
X135921000Y-101221250D01*
X135919947Y-101242691D01*
X135916797Y-101263926D01*
X135911581Y-101284750D01*
X135904349Y-101304962D01*
X135895170Y-101324368D01*
X135884134Y-101342781D01*
X135871346Y-101360024D01*
X135856930Y-101375930D01*
X135841024Y-101390346D01*
X135823781Y-101403134D01*
X135805368Y-101414170D01*
X135785962Y-101423349D01*
X135765750Y-101430581D01*
X135744926Y-101435797D01*
X135723691Y-101438947D01*
X135702250Y-101440000D01*
X135264750Y-101440000D01*
X135243309Y-101438947D01*
X135222074Y-101435797D01*
X135201250Y-101430581D01*
X135181038Y-101423349D01*
X135161632Y-101414170D01*
X135143219Y-101403134D01*
X135125976Y-101390346D01*
X135110070Y-101375930D01*
X135095654Y-101360024D01*
X135082866Y-101342781D01*
X135071830Y-101324368D01*
X135062651Y-101304962D01*
X135055419Y-101284750D01*
X135050203Y-101263926D01*
X135047053Y-101242691D01*
X135046000Y-101221250D01*
X135046000Y-100708750D01*
X135047053Y-100687309D01*
X135050203Y-100666074D01*
X135055419Y-100645250D01*
X135062651Y-100625038D01*
X135071830Y-100605632D01*
X135082866Y-100587219D01*
X135095654Y-100569976D01*
X135110070Y-100554070D01*
X135125976Y-100539654D01*
X135143219Y-100526866D01*
X135161632Y-100515830D01*
X135181038Y-100506651D01*
X135201250Y-100499419D01*
X135222074Y-100494203D01*
X135243309Y-100491053D01*
X135264750Y-100490000D01*
X135702250Y-100490000D01*
X135723691Y-100491053D01*
X135723691Y-100491053D01*
G37*
D14*
X135483500Y-100965000D03*
D12*
G36*
X145883691Y-108238053D02*
G01*
X145904926Y-108241203D01*
X145925750Y-108246419D01*
X145945962Y-108253651D01*
X145965368Y-108262830D01*
X145983781Y-108273866D01*
X146001024Y-108286654D01*
X146016930Y-108301070D01*
X146031346Y-108316976D01*
X146044134Y-108334219D01*
X146055170Y-108352632D01*
X146064349Y-108372038D01*
X146071581Y-108392250D01*
X146076797Y-108413074D01*
X146079947Y-108434309D01*
X146081000Y-108455750D01*
X146081000Y-108968250D01*
X146079947Y-108989691D01*
X146076797Y-109010926D01*
X146071581Y-109031750D01*
X146064349Y-109051962D01*
X146055170Y-109071368D01*
X146044134Y-109089781D01*
X146031346Y-109107024D01*
X146016930Y-109122930D01*
X146001024Y-109137346D01*
X145983781Y-109150134D01*
X145965368Y-109161170D01*
X145945962Y-109170349D01*
X145925750Y-109177581D01*
X145904926Y-109182797D01*
X145883691Y-109185947D01*
X145862250Y-109187000D01*
X145424750Y-109187000D01*
X145403309Y-109185947D01*
X145382074Y-109182797D01*
X145361250Y-109177581D01*
X145341038Y-109170349D01*
X145321632Y-109161170D01*
X145303219Y-109150134D01*
X145285976Y-109137346D01*
X145270070Y-109122930D01*
X145255654Y-109107024D01*
X145242866Y-109089781D01*
X145231830Y-109071368D01*
X145222651Y-109051962D01*
X145215419Y-109031750D01*
X145210203Y-109010926D01*
X145207053Y-108989691D01*
X145206000Y-108968250D01*
X145206000Y-108455750D01*
X145207053Y-108434309D01*
X145210203Y-108413074D01*
X145215419Y-108392250D01*
X145222651Y-108372038D01*
X145231830Y-108352632D01*
X145242866Y-108334219D01*
X145255654Y-108316976D01*
X145270070Y-108301070D01*
X145285976Y-108286654D01*
X145303219Y-108273866D01*
X145321632Y-108262830D01*
X145341038Y-108253651D01*
X145361250Y-108246419D01*
X145382074Y-108241203D01*
X145403309Y-108238053D01*
X145424750Y-108237000D01*
X145862250Y-108237000D01*
X145883691Y-108238053D01*
X145883691Y-108238053D01*
G37*
D14*
X145643500Y-108712000D03*
D12*
G36*
X147458691Y-108238053D02*
G01*
X147479926Y-108241203D01*
X147500750Y-108246419D01*
X147520962Y-108253651D01*
X147540368Y-108262830D01*
X147558781Y-108273866D01*
X147576024Y-108286654D01*
X147591930Y-108301070D01*
X147606346Y-108316976D01*
X147619134Y-108334219D01*
X147630170Y-108352632D01*
X147639349Y-108372038D01*
X147646581Y-108392250D01*
X147651797Y-108413074D01*
X147654947Y-108434309D01*
X147656000Y-108455750D01*
X147656000Y-108968250D01*
X147654947Y-108989691D01*
X147651797Y-109010926D01*
X147646581Y-109031750D01*
X147639349Y-109051962D01*
X147630170Y-109071368D01*
X147619134Y-109089781D01*
X147606346Y-109107024D01*
X147591930Y-109122930D01*
X147576024Y-109137346D01*
X147558781Y-109150134D01*
X147540368Y-109161170D01*
X147520962Y-109170349D01*
X147500750Y-109177581D01*
X147479926Y-109182797D01*
X147458691Y-109185947D01*
X147437250Y-109187000D01*
X146999750Y-109187000D01*
X146978309Y-109185947D01*
X146957074Y-109182797D01*
X146936250Y-109177581D01*
X146916038Y-109170349D01*
X146896632Y-109161170D01*
X146878219Y-109150134D01*
X146860976Y-109137346D01*
X146845070Y-109122930D01*
X146830654Y-109107024D01*
X146817866Y-109089781D01*
X146806830Y-109071368D01*
X146797651Y-109051962D01*
X146790419Y-109031750D01*
X146785203Y-109010926D01*
X146782053Y-108989691D01*
X146781000Y-108968250D01*
X146781000Y-108455750D01*
X146782053Y-108434309D01*
X146785203Y-108413074D01*
X146790419Y-108392250D01*
X146797651Y-108372038D01*
X146806830Y-108352632D01*
X146817866Y-108334219D01*
X146830654Y-108316976D01*
X146845070Y-108301070D01*
X146860976Y-108286654D01*
X146878219Y-108273866D01*
X146896632Y-108262830D01*
X146916038Y-108253651D01*
X146936250Y-108246419D01*
X146957074Y-108241203D01*
X146978309Y-108238053D01*
X146999750Y-108237000D01*
X147437250Y-108237000D01*
X147458691Y-108238053D01*
X147458691Y-108238053D01*
G37*
D14*
X147218500Y-108712000D03*
D12*
G36*
X139850691Y-100554053D02*
G01*
X139871926Y-100557203D01*
X139892750Y-100562419D01*
X139912962Y-100569651D01*
X139932368Y-100578830D01*
X139950781Y-100589866D01*
X139968024Y-100602654D01*
X139983930Y-100617070D01*
X139998346Y-100632976D01*
X140011134Y-100650219D01*
X140022170Y-100668632D01*
X140031349Y-100688038D01*
X140038581Y-100708250D01*
X140043797Y-100729074D01*
X140046947Y-100750309D01*
X140048000Y-100771750D01*
X140048000Y-101209250D01*
X140046947Y-101230691D01*
X140043797Y-101251926D01*
X140038581Y-101272750D01*
X140031349Y-101292962D01*
X140022170Y-101312368D01*
X140011134Y-101330781D01*
X139998346Y-101348024D01*
X139983930Y-101363930D01*
X139968024Y-101378346D01*
X139950781Y-101391134D01*
X139932368Y-101402170D01*
X139912962Y-101411349D01*
X139892750Y-101418581D01*
X139871926Y-101423797D01*
X139850691Y-101426947D01*
X139829250Y-101428000D01*
X139316750Y-101428000D01*
X139295309Y-101426947D01*
X139274074Y-101423797D01*
X139253250Y-101418581D01*
X139233038Y-101411349D01*
X139213632Y-101402170D01*
X139195219Y-101391134D01*
X139177976Y-101378346D01*
X139162070Y-101363930D01*
X139147654Y-101348024D01*
X139134866Y-101330781D01*
X139123830Y-101312368D01*
X139114651Y-101292962D01*
X139107419Y-101272750D01*
X139102203Y-101251926D01*
X139099053Y-101230691D01*
X139098000Y-101209250D01*
X139098000Y-100771750D01*
X139099053Y-100750309D01*
X139102203Y-100729074D01*
X139107419Y-100708250D01*
X139114651Y-100688038D01*
X139123830Y-100668632D01*
X139134866Y-100650219D01*
X139147654Y-100632976D01*
X139162070Y-100617070D01*
X139177976Y-100602654D01*
X139195219Y-100589866D01*
X139213632Y-100578830D01*
X139233038Y-100569651D01*
X139253250Y-100562419D01*
X139274074Y-100557203D01*
X139295309Y-100554053D01*
X139316750Y-100553000D01*
X139829250Y-100553000D01*
X139850691Y-100554053D01*
X139850691Y-100554053D01*
G37*
D14*
X139573000Y-100990500D03*
D12*
G36*
X139850691Y-98979053D02*
G01*
X139871926Y-98982203D01*
X139892750Y-98987419D01*
X139912962Y-98994651D01*
X139932368Y-99003830D01*
X139950781Y-99014866D01*
X139968024Y-99027654D01*
X139983930Y-99042070D01*
X139998346Y-99057976D01*
X140011134Y-99075219D01*
X140022170Y-99093632D01*
X140031349Y-99113038D01*
X140038581Y-99133250D01*
X140043797Y-99154074D01*
X140046947Y-99175309D01*
X140048000Y-99196750D01*
X140048000Y-99634250D01*
X140046947Y-99655691D01*
X140043797Y-99676926D01*
X140038581Y-99697750D01*
X140031349Y-99717962D01*
X140022170Y-99737368D01*
X140011134Y-99755781D01*
X139998346Y-99773024D01*
X139983930Y-99788930D01*
X139968024Y-99803346D01*
X139950781Y-99816134D01*
X139932368Y-99827170D01*
X139912962Y-99836349D01*
X139892750Y-99843581D01*
X139871926Y-99848797D01*
X139850691Y-99851947D01*
X139829250Y-99853000D01*
X139316750Y-99853000D01*
X139295309Y-99851947D01*
X139274074Y-99848797D01*
X139253250Y-99843581D01*
X139233038Y-99836349D01*
X139213632Y-99827170D01*
X139195219Y-99816134D01*
X139177976Y-99803346D01*
X139162070Y-99788930D01*
X139147654Y-99773024D01*
X139134866Y-99755781D01*
X139123830Y-99737368D01*
X139114651Y-99717962D01*
X139107419Y-99697750D01*
X139102203Y-99676926D01*
X139099053Y-99655691D01*
X139098000Y-99634250D01*
X139098000Y-99196750D01*
X139099053Y-99175309D01*
X139102203Y-99154074D01*
X139107419Y-99133250D01*
X139114651Y-99113038D01*
X139123830Y-99093632D01*
X139134866Y-99075219D01*
X139147654Y-99057976D01*
X139162070Y-99042070D01*
X139177976Y-99027654D01*
X139195219Y-99014866D01*
X139213632Y-99003830D01*
X139233038Y-98994651D01*
X139253250Y-98987419D01*
X139274074Y-98982203D01*
X139295309Y-98979053D01*
X139316750Y-98978000D01*
X139829250Y-98978000D01*
X139850691Y-98979053D01*
X139850691Y-98979053D01*
G37*
D14*
X139573000Y-99415500D03*
D12*
G36*
X145883691Y-109762053D02*
G01*
X145904926Y-109765203D01*
X145925750Y-109770419D01*
X145945962Y-109777651D01*
X145965368Y-109786830D01*
X145983781Y-109797866D01*
X146001024Y-109810654D01*
X146016930Y-109825070D01*
X146031346Y-109840976D01*
X146044134Y-109858219D01*
X146055170Y-109876632D01*
X146064349Y-109896038D01*
X146071581Y-109916250D01*
X146076797Y-109937074D01*
X146079947Y-109958309D01*
X146081000Y-109979750D01*
X146081000Y-110492250D01*
X146079947Y-110513691D01*
X146076797Y-110534926D01*
X146071581Y-110555750D01*
X146064349Y-110575962D01*
X146055170Y-110595368D01*
X146044134Y-110613781D01*
X146031346Y-110631024D01*
X146016930Y-110646930D01*
X146001024Y-110661346D01*
X145983781Y-110674134D01*
X145965368Y-110685170D01*
X145945962Y-110694349D01*
X145925750Y-110701581D01*
X145904926Y-110706797D01*
X145883691Y-110709947D01*
X145862250Y-110711000D01*
X145424750Y-110711000D01*
X145403309Y-110709947D01*
X145382074Y-110706797D01*
X145361250Y-110701581D01*
X145341038Y-110694349D01*
X145321632Y-110685170D01*
X145303219Y-110674134D01*
X145285976Y-110661346D01*
X145270070Y-110646930D01*
X145255654Y-110631024D01*
X145242866Y-110613781D01*
X145231830Y-110595368D01*
X145222651Y-110575962D01*
X145215419Y-110555750D01*
X145210203Y-110534926D01*
X145207053Y-110513691D01*
X145206000Y-110492250D01*
X145206000Y-109979750D01*
X145207053Y-109958309D01*
X145210203Y-109937074D01*
X145215419Y-109916250D01*
X145222651Y-109896038D01*
X145231830Y-109876632D01*
X145242866Y-109858219D01*
X145255654Y-109840976D01*
X145270070Y-109825070D01*
X145285976Y-109810654D01*
X145303219Y-109797866D01*
X145321632Y-109786830D01*
X145341038Y-109777651D01*
X145361250Y-109770419D01*
X145382074Y-109765203D01*
X145403309Y-109762053D01*
X145424750Y-109761000D01*
X145862250Y-109761000D01*
X145883691Y-109762053D01*
X145883691Y-109762053D01*
G37*
D14*
X145643500Y-110236000D03*
D12*
G36*
X147458691Y-109762053D02*
G01*
X147479926Y-109765203D01*
X147500750Y-109770419D01*
X147520962Y-109777651D01*
X147540368Y-109786830D01*
X147558781Y-109797866D01*
X147576024Y-109810654D01*
X147591930Y-109825070D01*
X147606346Y-109840976D01*
X147619134Y-109858219D01*
X147630170Y-109876632D01*
X147639349Y-109896038D01*
X147646581Y-109916250D01*
X147651797Y-109937074D01*
X147654947Y-109958309D01*
X147656000Y-109979750D01*
X147656000Y-110492250D01*
X147654947Y-110513691D01*
X147651797Y-110534926D01*
X147646581Y-110555750D01*
X147639349Y-110575962D01*
X147630170Y-110595368D01*
X147619134Y-110613781D01*
X147606346Y-110631024D01*
X147591930Y-110646930D01*
X147576024Y-110661346D01*
X147558781Y-110674134D01*
X147540368Y-110685170D01*
X147520962Y-110694349D01*
X147500750Y-110701581D01*
X147479926Y-110706797D01*
X147458691Y-110709947D01*
X147437250Y-110711000D01*
X146999750Y-110711000D01*
X146978309Y-110709947D01*
X146957074Y-110706797D01*
X146936250Y-110701581D01*
X146916038Y-110694349D01*
X146896632Y-110685170D01*
X146878219Y-110674134D01*
X146860976Y-110661346D01*
X146845070Y-110646930D01*
X146830654Y-110631024D01*
X146817866Y-110613781D01*
X146806830Y-110595368D01*
X146797651Y-110575962D01*
X146790419Y-110555750D01*
X146785203Y-110534926D01*
X146782053Y-110513691D01*
X146781000Y-110492250D01*
X146781000Y-109979750D01*
X146782053Y-109958309D01*
X146785203Y-109937074D01*
X146790419Y-109916250D01*
X146797651Y-109896038D01*
X146806830Y-109876632D01*
X146817866Y-109858219D01*
X146830654Y-109840976D01*
X146845070Y-109825070D01*
X146860976Y-109810654D01*
X146878219Y-109797866D01*
X146896632Y-109786830D01*
X146916038Y-109777651D01*
X146936250Y-109770419D01*
X146957074Y-109765203D01*
X146978309Y-109762053D01*
X146999750Y-109761000D01*
X147437250Y-109761000D01*
X147458691Y-109762053D01*
X147458691Y-109762053D01*
G37*
D14*
X147218500Y-110236000D03*
D12*
G36*
X145883691Y-103920053D02*
G01*
X145904926Y-103923203D01*
X145925750Y-103928419D01*
X145945962Y-103935651D01*
X145965368Y-103944830D01*
X145983781Y-103955866D01*
X146001024Y-103968654D01*
X146016930Y-103983070D01*
X146031346Y-103998976D01*
X146044134Y-104016219D01*
X146055170Y-104034632D01*
X146064349Y-104054038D01*
X146071581Y-104074250D01*
X146076797Y-104095074D01*
X146079947Y-104116309D01*
X146081000Y-104137750D01*
X146081000Y-104650250D01*
X146079947Y-104671691D01*
X146076797Y-104692926D01*
X146071581Y-104713750D01*
X146064349Y-104733962D01*
X146055170Y-104753368D01*
X146044134Y-104771781D01*
X146031346Y-104789024D01*
X146016930Y-104804930D01*
X146001024Y-104819346D01*
X145983781Y-104832134D01*
X145965368Y-104843170D01*
X145945962Y-104852349D01*
X145925750Y-104859581D01*
X145904926Y-104864797D01*
X145883691Y-104867947D01*
X145862250Y-104869000D01*
X145424750Y-104869000D01*
X145403309Y-104867947D01*
X145382074Y-104864797D01*
X145361250Y-104859581D01*
X145341038Y-104852349D01*
X145321632Y-104843170D01*
X145303219Y-104832134D01*
X145285976Y-104819346D01*
X145270070Y-104804930D01*
X145255654Y-104789024D01*
X145242866Y-104771781D01*
X145231830Y-104753368D01*
X145222651Y-104733962D01*
X145215419Y-104713750D01*
X145210203Y-104692926D01*
X145207053Y-104671691D01*
X145206000Y-104650250D01*
X145206000Y-104137750D01*
X145207053Y-104116309D01*
X145210203Y-104095074D01*
X145215419Y-104074250D01*
X145222651Y-104054038D01*
X145231830Y-104034632D01*
X145242866Y-104016219D01*
X145255654Y-103998976D01*
X145270070Y-103983070D01*
X145285976Y-103968654D01*
X145303219Y-103955866D01*
X145321632Y-103944830D01*
X145341038Y-103935651D01*
X145361250Y-103928419D01*
X145382074Y-103923203D01*
X145403309Y-103920053D01*
X145424750Y-103919000D01*
X145862250Y-103919000D01*
X145883691Y-103920053D01*
X145883691Y-103920053D01*
G37*
D14*
X145643500Y-104394000D03*
D12*
G36*
X147458691Y-103920053D02*
G01*
X147479926Y-103923203D01*
X147500750Y-103928419D01*
X147520962Y-103935651D01*
X147540368Y-103944830D01*
X147558781Y-103955866D01*
X147576024Y-103968654D01*
X147591930Y-103983070D01*
X147606346Y-103998976D01*
X147619134Y-104016219D01*
X147630170Y-104034632D01*
X147639349Y-104054038D01*
X147646581Y-104074250D01*
X147651797Y-104095074D01*
X147654947Y-104116309D01*
X147656000Y-104137750D01*
X147656000Y-104650250D01*
X147654947Y-104671691D01*
X147651797Y-104692926D01*
X147646581Y-104713750D01*
X147639349Y-104733962D01*
X147630170Y-104753368D01*
X147619134Y-104771781D01*
X147606346Y-104789024D01*
X147591930Y-104804930D01*
X147576024Y-104819346D01*
X147558781Y-104832134D01*
X147540368Y-104843170D01*
X147520962Y-104852349D01*
X147500750Y-104859581D01*
X147479926Y-104864797D01*
X147458691Y-104867947D01*
X147437250Y-104869000D01*
X146999750Y-104869000D01*
X146978309Y-104867947D01*
X146957074Y-104864797D01*
X146936250Y-104859581D01*
X146916038Y-104852349D01*
X146896632Y-104843170D01*
X146878219Y-104832134D01*
X146860976Y-104819346D01*
X146845070Y-104804930D01*
X146830654Y-104789024D01*
X146817866Y-104771781D01*
X146806830Y-104753368D01*
X146797651Y-104733962D01*
X146790419Y-104713750D01*
X146785203Y-104692926D01*
X146782053Y-104671691D01*
X146781000Y-104650250D01*
X146781000Y-104137750D01*
X146782053Y-104116309D01*
X146785203Y-104095074D01*
X146790419Y-104074250D01*
X146797651Y-104054038D01*
X146806830Y-104034632D01*
X146817866Y-104016219D01*
X146830654Y-103998976D01*
X146845070Y-103983070D01*
X146860976Y-103968654D01*
X146878219Y-103955866D01*
X146896632Y-103944830D01*
X146916038Y-103935651D01*
X146936250Y-103928419D01*
X146957074Y-103923203D01*
X146978309Y-103920053D01*
X146999750Y-103919000D01*
X147437250Y-103919000D01*
X147458691Y-103920053D01*
X147458691Y-103920053D01*
G37*
D14*
X147218500Y-104394000D03*
D12*
G36*
X146454691Y-100554053D02*
G01*
X146475926Y-100557203D01*
X146496750Y-100562419D01*
X146516962Y-100569651D01*
X146536368Y-100578830D01*
X146554781Y-100589866D01*
X146572024Y-100602654D01*
X146587930Y-100617070D01*
X146602346Y-100632976D01*
X146615134Y-100650219D01*
X146626170Y-100668632D01*
X146635349Y-100688038D01*
X146642581Y-100708250D01*
X146647797Y-100729074D01*
X146650947Y-100750309D01*
X146652000Y-100771750D01*
X146652000Y-101209250D01*
X146650947Y-101230691D01*
X146647797Y-101251926D01*
X146642581Y-101272750D01*
X146635349Y-101292962D01*
X146626170Y-101312368D01*
X146615134Y-101330781D01*
X146602346Y-101348024D01*
X146587930Y-101363930D01*
X146572024Y-101378346D01*
X146554781Y-101391134D01*
X146536368Y-101402170D01*
X146516962Y-101411349D01*
X146496750Y-101418581D01*
X146475926Y-101423797D01*
X146454691Y-101426947D01*
X146433250Y-101428000D01*
X145920750Y-101428000D01*
X145899309Y-101426947D01*
X145878074Y-101423797D01*
X145857250Y-101418581D01*
X145837038Y-101411349D01*
X145817632Y-101402170D01*
X145799219Y-101391134D01*
X145781976Y-101378346D01*
X145766070Y-101363930D01*
X145751654Y-101348024D01*
X145738866Y-101330781D01*
X145727830Y-101312368D01*
X145718651Y-101292962D01*
X145711419Y-101272750D01*
X145706203Y-101251926D01*
X145703053Y-101230691D01*
X145702000Y-101209250D01*
X145702000Y-100771750D01*
X145703053Y-100750309D01*
X145706203Y-100729074D01*
X145711419Y-100708250D01*
X145718651Y-100688038D01*
X145727830Y-100668632D01*
X145738866Y-100650219D01*
X145751654Y-100632976D01*
X145766070Y-100617070D01*
X145781976Y-100602654D01*
X145799219Y-100589866D01*
X145817632Y-100578830D01*
X145837038Y-100569651D01*
X145857250Y-100562419D01*
X145878074Y-100557203D01*
X145899309Y-100554053D01*
X145920750Y-100553000D01*
X146433250Y-100553000D01*
X146454691Y-100554053D01*
X146454691Y-100554053D01*
G37*
D14*
X146177000Y-100990500D03*
D12*
G36*
X146454691Y-98979053D02*
G01*
X146475926Y-98982203D01*
X146496750Y-98987419D01*
X146516962Y-98994651D01*
X146536368Y-99003830D01*
X146554781Y-99014866D01*
X146572024Y-99027654D01*
X146587930Y-99042070D01*
X146602346Y-99057976D01*
X146615134Y-99075219D01*
X146626170Y-99093632D01*
X146635349Y-99113038D01*
X146642581Y-99133250D01*
X146647797Y-99154074D01*
X146650947Y-99175309D01*
X146652000Y-99196750D01*
X146652000Y-99634250D01*
X146650947Y-99655691D01*
X146647797Y-99676926D01*
X146642581Y-99697750D01*
X146635349Y-99717962D01*
X146626170Y-99737368D01*
X146615134Y-99755781D01*
X146602346Y-99773024D01*
X146587930Y-99788930D01*
X146572024Y-99803346D01*
X146554781Y-99816134D01*
X146536368Y-99827170D01*
X146516962Y-99836349D01*
X146496750Y-99843581D01*
X146475926Y-99848797D01*
X146454691Y-99851947D01*
X146433250Y-99853000D01*
X145920750Y-99853000D01*
X145899309Y-99851947D01*
X145878074Y-99848797D01*
X145857250Y-99843581D01*
X145837038Y-99836349D01*
X145817632Y-99827170D01*
X145799219Y-99816134D01*
X145781976Y-99803346D01*
X145766070Y-99788930D01*
X145751654Y-99773024D01*
X145738866Y-99755781D01*
X145727830Y-99737368D01*
X145718651Y-99717962D01*
X145711419Y-99697750D01*
X145706203Y-99676926D01*
X145703053Y-99655691D01*
X145702000Y-99634250D01*
X145702000Y-99196750D01*
X145703053Y-99175309D01*
X145706203Y-99154074D01*
X145711419Y-99133250D01*
X145718651Y-99113038D01*
X145727830Y-99093632D01*
X145738866Y-99075219D01*
X145751654Y-99057976D01*
X145766070Y-99042070D01*
X145781976Y-99027654D01*
X145799219Y-99014866D01*
X145817632Y-99003830D01*
X145837038Y-98994651D01*
X145857250Y-98987419D01*
X145878074Y-98982203D01*
X145899309Y-98979053D01*
X145920750Y-98978000D01*
X146433250Y-98978000D01*
X146454691Y-98979053D01*
X146454691Y-98979053D01*
G37*
D14*
X146177000Y-99415500D03*
D12*
G36*
X143152691Y-100554053D02*
G01*
X143173926Y-100557203D01*
X143194750Y-100562419D01*
X143214962Y-100569651D01*
X143234368Y-100578830D01*
X143252781Y-100589866D01*
X143270024Y-100602654D01*
X143285930Y-100617070D01*
X143300346Y-100632976D01*
X143313134Y-100650219D01*
X143324170Y-100668632D01*
X143333349Y-100688038D01*
X143340581Y-100708250D01*
X143345797Y-100729074D01*
X143348947Y-100750309D01*
X143350000Y-100771750D01*
X143350000Y-101209250D01*
X143348947Y-101230691D01*
X143345797Y-101251926D01*
X143340581Y-101272750D01*
X143333349Y-101292962D01*
X143324170Y-101312368D01*
X143313134Y-101330781D01*
X143300346Y-101348024D01*
X143285930Y-101363930D01*
X143270024Y-101378346D01*
X143252781Y-101391134D01*
X143234368Y-101402170D01*
X143214962Y-101411349D01*
X143194750Y-101418581D01*
X143173926Y-101423797D01*
X143152691Y-101426947D01*
X143131250Y-101428000D01*
X142618750Y-101428000D01*
X142597309Y-101426947D01*
X142576074Y-101423797D01*
X142555250Y-101418581D01*
X142535038Y-101411349D01*
X142515632Y-101402170D01*
X142497219Y-101391134D01*
X142479976Y-101378346D01*
X142464070Y-101363930D01*
X142449654Y-101348024D01*
X142436866Y-101330781D01*
X142425830Y-101312368D01*
X142416651Y-101292962D01*
X142409419Y-101272750D01*
X142404203Y-101251926D01*
X142401053Y-101230691D01*
X142400000Y-101209250D01*
X142400000Y-100771750D01*
X142401053Y-100750309D01*
X142404203Y-100729074D01*
X142409419Y-100708250D01*
X142416651Y-100688038D01*
X142425830Y-100668632D01*
X142436866Y-100650219D01*
X142449654Y-100632976D01*
X142464070Y-100617070D01*
X142479976Y-100602654D01*
X142497219Y-100589866D01*
X142515632Y-100578830D01*
X142535038Y-100569651D01*
X142555250Y-100562419D01*
X142576074Y-100557203D01*
X142597309Y-100554053D01*
X142618750Y-100553000D01*
X143131250Y-100553000D01*
X143152691Y-100554053D01*
X143152691Y-100554053D01*
G37*
D14*
X142875000Y-100990500D03*
D12*
G36*
X143152691Y-98979053D02*
G01*
X143173926Y-98982203D01*
X143194750Y-98987419D01*
X143214962Y-98994651D01*
X143234368Y-99003830D01*
X143252781Y-99014866D01*
X143270024Y-99027654D01*
X143285930Y-99042070D01*
X143300346Y-99057976D01*
X143313134Y-99075219D01*
X143324170Y-99093632D01*
X143333349Y-99113038D01*
X143340581Y-99133250D01*
X143345797Y-99154074D01*
X143348947Y-99175309D01*
X143350000Y-99196750D01*
X143350000Y-99634250D01*
X143348947Y-99655691D01*
X143345797Y-99676926D01*
X143340581Y-99697750D01*
X143333349Y-99717962D01*
X143324170Y-99737368D01*
X143313134Y-99755781D01*
X143300346Y-99773024D01*
X143285930Y-99788930D01*
X143270024Y-99803346D01*
X143252781Y-99816134D01*
X143234368Y-99827170D01*
X143214962Y-99836349D01*
X143194750Y-99843581D01*
X143173926Y-99848797D01*
X143152691Y-99851947D01*
X143131250Y-99853000D01*
X142618750Y-99853000D01*
X142597309Y-99851947D01*
X142576074Y-99848797D01*
X142555250Y-99843581D01*
X142535038Y-99836349D01*
X142515632Y-99827170D01*
X142497219Y-99816134D01*
X142479976Y-99803346D01*
X142464070Y-99788930D01*
X142449654Y-99773024D01*
X142436866Y-99755781D01*
X142425830Y-99737368D01*
X142416651Y-99717962D01*
X142409419Y-99697750D01*
X142404203Y-99676926D01*
X142401053Y-99655691D01*
X142400000Y-99634250D01*
X142400000Y-99196750D01*
X142401053Y-99175309D01*
X142404203Y-99154074D01*
X142409419Y-99133250D01*
X142416651Y-99113038D01*
X142425830Y-99093632D01*
X142436866Y-99075219D01*
X142449654Y-99057976D01*
X142464070Y-99042070D01*
X142479976Y-99027654D01*
X142497219Y-99014866D01*
X142515632Y-99003830D01*
X142535038Y-98994651D01*
X142555250Y-98987419D01*
X142576074Y-98982203D01*
X142597309Y-98979053D01*
X142618750Y-98978000D01*
X143131250Y-98978000D01*
X143152691Y-98979053D01*
X143152691Y-98979053D01*
G37*
D14*
X142875000Y-99415500D03*
D12*
G36*
X137425691Y-107349053D02*
G01*
X137446926Y-107352203D01*
X137467750Y-107357419D01*
X137487962Y-107364651D01*
X137507368Y-107373830D01*
X137525781Y-107384866D01*
X137543024Y-107397654D01*
X137558930Y-107412070D01*
X137573346Y-107427976D01*
X137586134Y-107445219D01*
X137597170Y-107463632D01*
X137606349Y-107483038D01*
X137613581Y-107503250D01*
X137618797Y-107524074D01*
X137621947Y-107545309D01*
X137623000Y-107566750D01*
X137623000Y-108079250D01*
X137621947Y-108100691D01*
X137618797Y-108121926D01*
X137613581Y-108142750D01*
X137606349Y-108162962D01*
X137597170Y-108182368D01*
X137586134Y-108200781D01*
X137573346Y-108218024D01*
X137558930Y-108233930D01*
X137543024Y-108248346D01*
X137525781Y-108261134D01*
X137507368Y-108272170D01*
X137487962Y-108281349D01*
X137467750Y-108288581D01*
X137446926Y-108293797D01*
X137425691Y-108296947D01*
X137404250Y-108298000D01*
X136966750Y-108298000D01*
X136945309Y-108296947D01*
X136924074Y-108293797D01*
X136903250Y-108288581D01*
X136883038Y-108281349D01*
X136863632Y-108272170D01*
X136845219Y-108261134D01*
X136827976Y-108248346D01*
X136812070Y-108233930D01*
X136797654Y-108218024D01*
X136784866Y-108200781D01*
X136773830Y-108182368D01*
X136764651Y-108162962D01*
X136757419Y-108142750D01*
X136752203Y-108121926D01*
X136749053Y-108100691D01*
X136748000Y-108079250D01*
X136748000Y-107566750D01*
X136749053Y-107545309D01*
X136752203Y-107524074D01*
X136757419Y-107503250D01*
X136764651Y-107483038D01*
X136773830Y-107463632D01*
X136784866Y-107445219D01*
X136797654Y-107427976D01*
X136812070Y-107412070D01*
X136827976Y-107397654D01*
X136845219Y-107384866D01*
X136863632Y-107373830D01*
X136883038Y-107364651D01*
X136903250Y-107357419D01*
X136924074Y-107352203D01*
X136945309Y-107349053D01*
X136966750Y-107348000D01*
X137404250Y-107348000D01*
X137425691Y-107349053D01*
X137425691Y-107349053D01*
G37*
D14*
X137185500Y-107823000D03*
D12*
G36*
X135850691Y-107349053D02*
G01*
X135871926Y-107352203D01*
X135892750Y-107357419D01*
X135912962Y-107364651D01*
X135932368Y-107373830D01*
X135950781Y-107384866D01*
X135968024Y-107397654D01*
X135983930Y-107412070D01*
X135998346Y-107427976D01*
X136011134Y-107445219D01*
X136022170Y-107463632D01*
X136031349Y-107483038D01*
X136038581Y-107503250D01*
X136043797Y-107524074D01*
X136046947Y-107545309D01*
X136048000Y-107566750D01*
X136048000Y-108079250D01*
X136046947Y-108100691D01*
X136043797Y-108121926D01*
X136038581Y-108142750D01*
X136031349Y-108162962D01*
X136022170Y-108182368D01*
X136011134Y-108200781D01*
X135998346Y-108218024D01*
X135983930Y-108233930D01*
X135968024Y-108248346D01*
X135950781Y-108261134D01*
X135932368Y-108272170D01*
X135912962Y-108281349D01*
X135892750Y-108288581D01*
X135871926Y-108293797D01*
X135850691Y-108296947D01*
X135829250Y-108298000D01*
X135391750Y-108298000D01*
X135370309Y-108296947D01*
X135349074Y-108293797D01*
X135328250Y-108288581D01*
X135308038Y-108281349D01*
X135288632Y-108272170D01*
X135270219Y-108261134D01*
X135252976Y-108248346D01*
X135237070Y-108233930D01*
X135222654Y-108218024D01*
X135209866Y-108200781D01*
X135198830Y-108182368D01*
X135189651Y-108162962D01*
X135182419Y-108142750D01*
X135177203Y-108121926D01*
X135174053Y-108100691D01*
X135173000Y-108079250D01*
X135173000Y-107566750D01*
X135174053Y-107545309D01*
X135177203Y-107524074D01*
X135182419Y-107503250D01*
X135189651Y-107483038D01*
X135198830Y-107463632D01*
X135209866Y-107445219D01*
X135222654Y-107427976D01*
X135237070Y-107412070D01*
X135252976Y-107397654D01*
X135270219Y-107384866D01*
X135288632Y-107373830D01*
X135308038Y-107364651D01*
X135328250Y-107357419D01*
X135349074Y-107352203D01*
X135370309Y-107349053D01*
X135391750Y-107348000D01*
X135829250Y-107348000D01*
X135850691Y-107349053D01*
X135850691Y-107349053D01*
G37*
D14*
X135610500Y-107823000D03*
D12*
G36*
X139342691Y-108250053D02*
G01*
X139363926Y-108253203D01*
X139384750Y-108258419D01*
X139404962Y-108265651D01*
X139424368Y-108274830D01*
X139442781Y-108285866D01*
X139460024Y-108298654D01*
X139475930Y-108313070D01*
X139490346Y-108328976D01*
X139503134Y-108346219D01*
X139514170Y-108364632D01*
X139523349Y-108384038D01*
X139530581Y-108404250D01*
X139535797Y-108425074D01*
X139538947Y-108446309D01*
X139540000Y-108467750D01*
X139540000Y-108905250D01*
X139538947Y-108926691D01*
X139535797Y-108947926D01*
X139530581Y-108968750D01*
X139523349Y-108988962D01*
X139514170Y-109008368D01*
X139503134Y-109026781D01*
X139490346Y-109044024D01*
X139475930Y-109059930D01*
X139460024Y-109074346D01*
X139442781Y-109087134D01*
X139424368Y-109098170D01*
X139404962Y-109107349D01*
X139384750Y-109114581D01*
X139363926Y-109119797D01*
X139342691Y-109122947D01*
X139321250Y-109124000D01*
X138808750Y-109124000D01*
X138787309Y-109122947D01*
X138766074Y-109119797D01*
X138745250Y-109114581D01*
X138725038Y-109107349D01*
X138705632Y-109098170D01*
X138687219Y-109087134D01*
X138669976Y-109074346D01*
X138654070Y-109059930D01*
X138639654Y-109044024D01*
X138626866Y-109026781D01*
X138615830Y-109008368D01*
X138606651Y-108988962D01*
X138599419Y-108968750D01*
X138594203Y-108947926D01*
X138591053Y-108926691D01*
X138590000Y-108905250D01*
X138590000Y-108467750D01*
X138591053Y-108446309D01*
X138594203Y-108425074D01*
X138599419Y-108404250D01*
X138606651Y-108384038D01*
X138615830Y-108364632D01*
X138626866Y-108346219D01*
X138639654Y-108328976D01*
X138654070Y-108313070D01*
X138669976Y-108298654D01*
X138687219Y-108285866D01*
X138705632Y-108274830D01*
X138725038Y-108265651D01*
X138745250Y-108258419D01*
X138766074Y-108253203D01*
X138787309Y-108250053D01*
X138808750Y-108249000D01*
X139321250Y-108249000D01*
X139342691Y-108250053D01*
X139342691Y-108250053D01*
G37*
D14*
X139065000Y-108686500D03*
D12*
G36*
X139342691Y-109825053D02*
G01*
X139363926Y-109828203D01*
X139384750Y-109833419D01*
X139404962Y-109840651D01*
X139424368Y-109849830D01*
X139442781Y-109860866D01*
X139460024Y-109873654D01*
X139475930Y-109888070D01*
X139490346Y-109903976D01*
X139503134Y-109921219D01*
X139514170Y-109939632D01*
X139523349Y-109959038D01*
X139530581Y-109979250D01*
X139535797Y-110000074D01*
X139538947Y-110021309D01*
X139540000Y-110042750D01*
X139540000Y-110480250D01*
X139538947Y-110501691D01*
X139535797Y-110522926D01*
X139530581Y-110543750D01*
X139523349Y-110563962D01*
X139514170Y-110583368D01*
X139503134Y-110601781D01*
X139490346Y-110619024D01*
X139475930Y-110634930D01*
X139460024Y-110649346D01*
X139442781Y-110662134D01*
X139424368Y-110673170D01*
X139404962Y-110682349D01*
X139384750Y-110689581D01*
X139363926Y-110694797D01*
X139342691Y-110697947D01*
X139321250Y-110699000D01*
X138808750Y-110699000D01*
X138787309Y-110697947D01*
X138766074Y-110694797D01*
X138745250Y-110689581D01*
X138725038Y-110682349D01*
X138705632Y-110673170D01*
X138687219Y-110662134D01*
X138669976Y-110649346D01*
X138654070Y-110634930D01*
X138639654Y-110619024D01*
X138626866Y-110601781D01*
X138615830Y-110583368D01*
X138606651Y-110563962D01*
X138599419Y-110543750D01*
X138594203Y-110522926D01*
X138591053Y-110501691D01*
X138590000Y-110480250D01*
X138590000Y-110042750D01*
X138591053Y-110021309D01*
X138594203Y-110000074D01*
X138599419Y-109979250D01*
X138606651Y-109959038D01*
X138615830Y-109939632D01*
X138626866Y-109921219D01*
X138639654Y-109903976D01*
X138654070Y-109888070D01*
X138669976Y-109873654D01*
X138687219Y-109860866D01*
X138705632Y-109849830D01*
X138725038Y-109840651D01*
X138745250Y-109833419D01*
X138766074Y-109828203D01*
X138787309Y-109825053D01*
X138808750Y-109824000D01*
X139321250Y-109824000D01*
X139342691Y-109825053D01*
X139342691Y-109825053D01*
G37*
D14*
X139065000Y-110261500D03*
D12*
G36*
X140993691Y-108250053D02*
G01*
X141014926Y-108253203D01*
X141035750Y-108258419D01*
X141055962Y-108265651D01*
X141075368Y-108274830D01*
X141093781Y-108285866D01*
X141111024Y-108298654D01*
X141126930Y-108313070D01*
X141141346Y-108328976D01*
X141154134Y-108346219D01*
X141165170Y-108364632D01*
X141174349Y-108384038D01*
X141181581Y-108404250D01*
X141186797Y-108425074D01*
X141189947Y-108446309D01*
X141191000Y-108467750D01*
X141191000Y-108905250D01*
X141189947Y-108926691D01*
X141186797Y-108947926D01*
X141181581Y-108968750D01*
X141174349Y-108988962D01*
X141165170Y-109008368D01*
X141154134Y-109026781D01*
X141141346Y-109044024D01*
X141126930Y-109059930D01*
X141111024Y-109074346D01*
X141093781Y-109087134D01*
X141075368Y-109098170D01*
X141055962Y-109107349D01*
X141035750Y-109114581D01*
X141014926Y-109119797D01*
X140993691Y-109122947D01*
X140972250Y-109124000D01*
X140459750Y-109124000D01*
X140438309Y-109122947D01*
X140417074Y-109119797D01*
X140396250Y-109114581D01*
X140376038Y-109107349D01*
X140356632Y-109098170D01*
X140338219Y-109087134D01*
X140320976Y-109074346D01*
X140305070Y-109059930D01*
X140290654Y-109044024D01*
X140277866Y-109026781D01*
X140266830Y-109008368D01*
X140257651Y-108988962D01*
X140250419Y-108968750D01*
X140245203Y-108947926D01*
X140242053Y-108926691D01*
X140241000Y-108905250D01*
X140241000Y-108467750D01*
X140242053Y-108446309D01*
X140245203Y-108425074D01*
X140250419Y-108404250D01*
X140257651Y-108384038D01*
X140266830Y-108364632D01*
X140277866Y-108346219D01*
X140290654Y-108328976D01*
X140305070Y-108313070D01*
X140320976Y-108298654D01*
X140338219Y-108285866D01*
X140356632Y-108274830D01*
X140376038Y-108265651D01*
X140396250Y-108258419D01*
X140417074Y-108253203D01*
X140438309Y-108250053D01*
X140459750Y-108249000D01*
X140972250Y-108249000D01*
X140993691Y-108250053D01*
X140993691Y-108250053D01*
G37*
D14*
X140716000Y-108686500D03*
D12*
G36*
X140993691Y-109825053D02*
G01*
X141014926Y-109828203D01*
X141035750Y-109833419D01*
X141055962Y-109840651D01*
X141075368Y-109849830D01*
X141093781Y-109860866D01*
X141111024Y-109873654D01*
X141126930Y-109888070D01*
X141141346Y-109903976D01*
X141154134Y-109921219D01*
X141165170Y-109939632D01*
X141174349Y-109959038D01*
X141181581Y-109979250D01*
X141186797Y-110000074D01*
X141189947Y-110021309D01*
X141191000Y-110042750D01*
X141191000Y-110480250D01*
X141189947Y-110501691D01*
X141186797Y-110522926D01*
X141181581Y-110543750D01*
X141174349Y-110563962D01*
X141165170Y-110583368D01*
X141154134Y-110601781D01*
X141141346Y-110619024D01*
X141126930Y-110634930D01*
X141111024Y-110649346D01*
X141093781Y-110662134D01*
X141075368Y-110673170D01*
X141055962Y-110682349D01*
X141035750Y-110689581D01*
X141014926Y-110694797D01*
X140993691Y-110697947D01*
X140972250Y-110699000D01*
X140459750Y-110699000D01*
X140438309Y-110697947D01*
X140417074Y-110694797D01*
X140396250Y-110689581D01*
X140376038Y-110682349D01*
X140356632Y-110673170D01*
X140338219Y-110662134D01*
X140320976Y-110649346D01*
X140305070Y-110634930D01*
X140290654Y-110619024D01*
X140277866Y-110601781D01*
X140266830Y-110583368D01*
X140257651Y-110563962D01*
X140250419Y-110543750D01*
X140245203Y-110522926D01*
X140242053Y-110501691D01*
X140241000Y-110480250D01*
X140241000Y-110042750D01*
X140242053Y-110021309D01*
X140245203Y-110000074D01*
X140250419Y-109979250D01*
X140257651Y-109959038D01*
X140266830Y-109939632D01*
X140277866Y-109921219D01*
X140290654Y-109903976D01*
X140305070Y-109888070D01*
X140320976Y-109873654D01*
X140338219Y-109860866D01*
X140356632Y-109849830D01*
X140376038Y-109840651D01*
X140396250Y-109833419D01*
X140417074Y-109828203D01*
X140438309Y-109825053D01*
X140459750Y-109824000D01*
X140972250Y-109824000D01*
X140993691Y-109825053D01*
X140993691Y-109825053D01*
G37*
D14*
X140716000Y-110261500D03*
D12*
G36*
X143406691Y-108250053D02*
G01*
X143427926Y-108253203D01*
X143448750Y-108258419D01*
X143468962Y-108265651D01*
X143488368Y-108274830D01*
X143506781Y-108285866D01*
X143524024Y-108298654D01*
X143539930Y-108313070D01*
X143554346Y-108328976D01*
X143567134Y-108346219D01*
X143578170Y-108364632D01*
X143587349Y-108384038D01*
X143594581Y-108404250D01*
X143599797Y-108425074D01*
X143602947Y-108446309D01*
X143604000Y-108467750D01*
X143604000Y-108905250D01*
X143602947Y-108926691D01*
X143599797Y-108947926D01*
X143594581Y-108968750D01*
X143587349Y-108988962D01*
X143578170Y-109008368D01*
X143567134Y-109026781D01*
X143554346Y-109044024D01*
X143539930Y-109059930D01*
X143524024Y-109074346D01*
X143506781Y-109087134D01*
X143488368Y-109098170D01*
X143468962Y-109107349D01*
X143448750Y-109114581D01*
X143427926Y-109119797D01*
X143406691Y-109122947D01*
X143385250Y-109124000D01*
X142872750Y-109124000D01*
X142851309Y-109122947D01*
X142830074Y-109119797D01*
X142809250Y-109114581D01*
X142789038Y-109107349D01*
X142769632Y-109098170D01*
X142751219Y-109087134D01*
X142733976Y-109074346D01*
X142718070Y-109059930D01*
X142703654Y-109044024D01*
X142690866Y-109026781D01*
X142679830Y-109008368D01*
X142670651Y-108988962D01*
X142663419Y-108968750D01*
X142658203Y-108947926D01*
X142655053Y-108926691D01*
X142654000Y-108905250D01*
X142654000Y-108467750D01*
X142655053Y-108446309D01*
X142658203Y-108425074D01*
X142663419Y-108404250D01*
X142670651Y-108384038D01*
X142679830Y-108364632D01*
X142690866Y-108346219D01*
X142703654Y-108328976D01*
X142718070Y-108313070D01*
X142733976Y-108298654D01*
X142751219Y-108285866D01*
X142769632Y-108274830D01*
X142789038Y-108265651D01*
X142809250Y-108258419D01*
X142830074Y-108253203D01*
X142851309Y-108250053D01*
X142872750Y-108249000D01*
X143385250Y-108249000D01*
X143406691Y-108250053D01*
X143406691Y-108250053D01*
G37*
D14*
X143129000Y-108686500D03*
D12*
G36*
X143406691Y-109825053D02*
G01*
X143427926Y-109828203D01*
X143448750Y-109833419D01*
X143468962Y-109840651D01*
X143488368Y-109849830D01*
X143506781Y-109860866D01*
X143524024Y-109873654D01*
X143539930Y-109888070D01*
X143554346Y-109903976D01*
X143567134Y-109921219D01*
X143578170Y-109939632D01*
X143587349Y-109959038D01*
X143594581Y-109979250D01*
X143599797Y-110000074D01*
X143602947Y-110021309D01*
X143604000Y-110042750D01*
X143604000Y-110480250D01*
X143602947Y-110501691D01*
X143599797Y-110522926D01*
X143594581Y-110543750D01*
X143587349Y-110563962D01*
X143578170Y-110583368D01*
X143567134Y-110601781D01*
X143554346Y-110619024D01*
X143539930Y-110634930D01*
X143524024Y-110649346D01*
X143506781Y-110662134D01*
X143488368Y-110673170D01*
X143468962Y-110682349D01*
X143448750Y-110689581D01*
X143427926Y-110694797D01*
X143406691Y-110697947D01*
X143385250Y-110699000D01*
X142872750Y-110699000D01*
X142851309Y-110697947D01*
X142830074Y-110694797D01*
X142809250Y-110689581D01*
X142789038Y-110682349D01*
X142769632Y-110673170D01*
X142751219Y-110662134D01*
X142733976Y-110649346D01*
X142718070Y-110634930D01*
X142703654Y-110619024D01*
X142690866Y-110601781D01*
X142679830Y-110583368D01*
X142670651Y-110563962D01*
X142663419Y-110543750D01*
X142658203Y-110522926D01*
X142655053Y-110501691D01*
X142654000Y-110480250D01*
X142654000Y-110042750D01*
X142655053Y-110021309D01*
X142658203Y-110000074D01*
X142663419Y-109979250D01*
X142670651Y-109959038D01*
X142679830Y-109939632D01*
X142690866Y-109921219D01*
X142703654Y-109903976D01*
X142718070Y-109888070D01*
X142733976Y-109873654D01*
X142751219Y-109860866D01*
X142769632Y-109849830D01*
X142789038Y-109840651D01*
X142809250Y-109833419D01*
X142830074Y-109828203D01*
X142851309Y-109825053D01*
X142872750Y-109824000D01*
X143385250Y-109824000D01*
X143406691Y-109825053D01*
X143406691Y-109825053D01*
G37*
D14*
X143129000Y-110261500D03*
D15*
X142863000Y-135001000D03*
X141363000Y-135001000D03*
M02*
