M48
; DRILL file {KiCad (5.1.2-1)-1} date Wednesday, 08 July 2020 at 23:16:25
; FORMAT={-:-/ absolute / metric / decimal}
; #@! TF.CreationDate,2020-07-08T23:16:25+01:00
; #@! TF.GenerationSoftware,Kicad,Pcbnew,(5.1.2-1)-1
; #@! TF.FileFunction,Plated,1,2,PTH
FMAT,2
METRIC
T1C0.400
T2C0.762
T3C0.800
T4C1.000
T5C2.200
%
G90
G05
T1
X118.68Y-125.793
X124.735Y-132.023
X125.085Y-127.751
X125.095Y-121.812
X125.26Y-115.903
X125.791Y-126.309
X125.898Y-120.455
X127.097Y-121.816
X127.641Y-109.162
X127.975Y-130.175
X128.063Y-116.601
X128.222Y-92.989
X128.701Y-108.87
X128.714Y-97.779
X129.817Y-122.047
X129.854Y-142.608
X131.07Y-133.889
X131.905Y-114.531
X131.96Y-117.911
X132.207Y-107.823
X132.423Y-133.36
X132.715Y-95.885
X132.932Y-110.533
X133.925Y-132.684
X134.057Y-93.026
X136.592Y-135.79
X137.033Y-102.362
X137.033Y-104.267
X137.668Y-108.966
X138.176Y-100.965
X138.682Y-140.292
X139.319Y-114.173
X139.573Y-95.885
X140.634Y-130.553
X140.716Y-100.965
X141.524Y-118.084
X141.732Y-100.965
X141.986Y-108.585
X142.088Y-91.678
X143.129Y-114.173
X143.135Y-95.89
X143.749Y-118.064
X144.002Y-136.385
X144.399Y-108.712
X144.526Y-110.236
X144.85Y-118.215
X145.279Y-114.338
X145.796Y-107.442
X146.599Y-135.663
X147.066Y-95.885
X147.125Y-126.088
X147.193Y-100.965
X147.292Y-93.017
X147.376Y-113.23
X147.966Y-114.055
X148.536Y-121.304
X149.014Y-124.823
X149.537Y-127.871
X150.47Y-109.377
X150.495Y-102.743
X150.495Y-112.268
X150.513Y-110.378
X150.552Y-105.779
X150.658Y-98.537
X150.664Y-99.864
X150.832Y-119.192
X150.852Y-94.3
X152.61Y-119.188
X152.772Y-140.723
X152.865Y-92.295
X153.359Y-97.795
X153.467Y-98.831
X153.957Y-119.019
X154.399Y-134.103
X154.424Y-116.811
X154.427Y-95.641
X154.429Y-96.779
X155.041Y-92.976
X155.173Y-100.779
X155.476Y-116.545
X155.525Y-118.626
X155.872Y-136.525
X156.193Y-105.534
X156.562Y-133.969
X156.967Y-109.1
X157.197Y-121.546
X157.259Y-131.91
X157.66Y-103.39
X158.098Y-122.06
X158.496Y-114.554
X158.688Y-132.94
X160.075Y-127.403
X160.387Y-120.845
X160.478Y-140.625
X161.161Y-100.505
X161.756Y-102.494
X163.913Y-131.918
X164.46Y-105.796
X165.038Y-109.057
X165.089Y-110.756
X166.541Y-96.346
X166.624Y-122.558
X167.017Y-144.428
X167.449Y-114.754
X168.172Y-100.994
X168.219Y-135.984
X168.293Y-128.628
X169.24Y-103.441
X169.491Y-108.59
X170.11Y-117.414
X171.961Y-128.062
X172.431Y-98.236
X172.466Y-94.234
X172.505Y-109.877
X172.632Y-111.374
X173.879Y-112.707
X173.999Y-132.63
X174.447Y-135.753
X174.682Y-95.951
X174.942Y-110.698
X175.095Y-130.506
X175.396Y-135.238
X175.944Y-97.693
X176.15Y-136.844
X176.279Y-95.353
X187.445Y-92.246
X188.976Y-135.636
X189.275Y-120.949
X191.486Y-138.984
X191.915Y-131.283
X113.412Y-144.399
X113.895Y-143.232
X113.895Y-145.566
X115.062Y-142.749
X115.062Y-146.049
X116.229Y-143.232
X116.229Y-145.566
X116.712Y-144.399
X113.412Y-92.964
X113.895Y-91.797
X113.895Y-94.131
X115.062Y-91.314
X115.062Y-94.614
X116.229Y-91.797
X116.229Y-94.131
X116.712Y-92.964
T2
X114.554Y-130.175
X114.554Y-135.255
X117.094Y-130.175
X117.094Y-135.255
X119.634Y-130.175
X119.634Y-135.255
X122.174Y-130.175
X122.174Y-135.255
X124.714Y-130.175
X124.714Y-135.255
X127.254Y-126.365
X127.254Y-128.905
X127.254Y-131.445
X127.254Y-133.985
X127.254Y-136.525
X129.794Y-130.175
X129.794Y-135.255
X132.334Y-130.175
X132.334Y-135.255
X134.874Y-130.175
X134.874Y-135.255
X150.114Y-130.175
X150.114Y-135.255
X152.654Y-130.175
X152.654Y-135.255
X155.194Y-130.175
X155.194Y-135.255
X156.464Y-126.365
X157.734Y-130.175
X157.734Y-135.255
X159.004Y-126.365
X160.274Y-136.525
X161.544Y-126.365
X162.814Y-136.525
X164.084Y-126.365
X165.354Y-136.525
X166.624Y-126.365
X170.434Y-136.525
T3
X178.562Y-94.615
X178.562Y-97.155
X178.562Y-99.695
X178.562Y-102.235
X178.562Y-104.775
X178.562Y-107.315
X178.562Y-109.855
X178.562Y-112.395
X178.562Y-114.935
X178.562Y-117.475
X178.562Y-120.015
X178.562Y-122.555
X178.562Y-125.095
X178.562Y-127.635
X178.562Y-130.175
X178.562Y-132.715
X178.562Y-135.255
X178.562Y-137.795
X178.562Y-140.335
X178.562Y-142.875
X193.802Y-94.615
X193.802Y-97.155
X193.802Y-99.695
X193.802Y-102.235
X193.802Y-104.775
X193.802Y-107.315
X193.802Y-109.855
X193.802Y-112.395
X193.802Y-114.935
X193.802Y-117.475
X193.802Y-120.015
X193.802Y-122.555
X193.802Y-125.095
X193.802Y-127.635
X193.802Y-130.175
X193.802Y-132.715
X193.802Y-135.255
X193.802Y-137.795
X193.802Y-140.335
X193.802Y-142.875
X181.356Y-94.615
X181.356Y-97.155
X181.356Y-99.695
X181.356Y-102.235
X181.356Y-104.775
X181.356Y-107.315
X181.356Y-109.855
X181.356Y-112.395
X181.356Y-114.935
X181.356Y-117.475
X181.356Y-120.015
X181.356Y-122.555
X181.356Y-125.095
X181.356Y-127.635
X181.356Y-130.175
X181.356Y-132.715
X181.356Y-135.255
X181.356Y-137.795
X181.356Y-140.335
X181.356Y-142.875
X196.596Y-94.615
X196.596Y-97.155
X196.596Y-99.695
X196.596Y-102.235
X196.596Y-104.775
X196.596Y-107.315
X196.596Y-109.855
X196.596Y-112.395
X196.596Y-114.935
X196.596Y-117.475
X196.596Y-120.015
X196.596Y-122.555
X196.596Y-125.095
X196.596Y-127.635
X196.596Y-130.175
X196.596Y-132.715
X196.596Y-135.255
X196.596Y-137.795
X196.596Y-140.335
X196.596Y-142.875
X114.554Y-123.825
X114.554Y-139.065
X117.094Y-123.825
X117.094Y-139.065
X119.634Y-123.825
X119.634Y-139.065
X122.174Y-123.825
X122.174Y-139.065
X124.714Y-123.825
X124.714Y-139.065
X127.254Y-123.825
X127.254Y-139.065
X129.794Y-123.825
X129.794Y-139.065
X132.334Y-123.825
X132.334Y-139.065
X134.874Y-123.825
X134.874Y-139.065
X137.414Y-123.825
X137.414Y-139.065
X139.954Y-123.825
X139.954Y-139.065
X142.494Y-123.825
X142.494Y-139.065
X145.034Y-123.825
X145.034Y-139.065
X147.574Y-123.825
X147.574Y-139.065
X150.114Y-123.825
X150.114Y-139.065
X152.654Y-123.825
X152.654Y-139.065
X155.194Y-123.825
X155.194Y-139.065
X157.734Y-123.825
X157.734Y-139.065
X160.274Y-123.825
X160.274Y-139.065
X162.814Y-123.825
X162.814Y-139.065
X165.354Y-123.825
X165.354Y-139.065
X167.894Y-123.825
X167.894Y-139.065
X170.434Y-123.825
X170.434Y-139.065
X172.974Y-123.825
X172.974Y-139.065
T4
X114.935Y-102.87
X114.935Y-105.41
X114.935Y-107.95
X114.935Y-110.49
X114.935Y-113.03
X117.475Y-102.87
X117.475Y-105.41
X117.475Y-107.95
X117.475Y-110.49
X117.475Y-113.03
X120.523Y-92.71
X120.523Y-95.25
X123.063Y-92.71
X123.063Y-95.25
X125.603Y-92.71
X125.603Y-95.25
T5
X115.062Y-144.399
X115.062Y-92.964
T0
M30
