G04 #@! TF.GenerationSoftware,KiCad,Pcbnew,(5.1.2-1)-1*
G04 #@! TF.CreationDate,2020-07-08T23:16:21+01:00*
G04 #@! TF.ProjectId,tranZPUter-SW,7472616e-5a50-4557-9465-722d53572e6b,rev?*
G04 #@! TF.SameCoordinates,Original*
G04 #@! TF.FileFunction,Other,Fab,Top*
%FSLAX46Y46*%
G04 Gerber Fmt 4.6, Leading zero omitted, Abs format (unit mm)*
G04 Created by KiCad (PCBNEW (5.1.2-1)-1) date 2020-07-08 23:16:21*
%MOMM*%
%LPD*%
G04 APERTURE LIST*
%ADD10C,0.100000*%
%ADD11C,0.080000*%
%ADD12C,0.150000*%
G04 APERTURE END LIST*
D10*
X155845000Y-141640000D02*
X157845000Y-141640000D01*
X155845000Y-142840000D02*
X155845000Y-141640000D01*
X157845000Y-142840000D02*
X155845000Y-142840000D01*
X157845000Y-141640000D02*
X157845000Y-142840000D01*
X113665000Y-102870000D02*
X114935000Y-101600000D01*
X113665000Y-114300000D02*
X113665000Y-102870000D01*
X118745000Y-114300000D02*
X113665000Y-114300000D01*
X118745000Y-101600000D02*
X118745000Y-114300000D01*
X114935000Y-101600000D02*
X118745000Y-101600000D01*
X131351000Y-96029000D02*
X132351000Y-95029000D01*
X131351000Y-115029000D02*
X131351000Y-96029000D01*
X151351000Y-115029000D02*
X131351000Y-115029000D01*
X151351000Y-95029000D02*
X151351000Y-115029000D01*
X132351000Y-95029000D02*
X151351000Y-95029000D01*
X119923000Y-107553000D02*
X119923000Y-105553000D01*
X121123000Y-107553000D02*
X119923000Y-107553000D01*
X121123000Y-105553000D02*
X121123000Y-107553000D01*
X119923000Y-105553000D02*
X121123000Y-105553000D01*
X115535000Y-97806000D02*
X115535000Y-99806000D01*
X114335000Y-97806000D02*
X115535000Y-97806000D01*
X114335000Y-99806000D02*
X114335000Y-97806000D01*
X115535000Y-99806000D02*
X114335000Y-99806000D01*
X160304000Y-94559000D02*
X161304000Y-93559000D01*
X161304000Y-93559000D02*
X170404000Y-93559000D01*
X170404000Y-93559000D02*
X170404000Y-113959000D01*
X170404000Y-113959000D02*
X160304000Y-113959000D01*
X160304000Y-113959000D02*
X160304000Y-94559000D01*
X120523000Y-96520000D02*
X119253000Y-95250000D01*
X126873000Y-96520000D02*
X120523000Y-96520000D01*
X126873000Y-91440000D02*
X126873000Y-96520000D01*
X119253000Y-91440000D02*
X126873000Y-91440000D01*
X119253000Y-95250000D02*
X119253000Y-91440000D01*
X170904000Y-143466000D02*
X170904000Y-144316000D01*
X172504000Y-143466000D02*
X170904000Y-143466000D01*
X172504000Y-144016000D02*
X172504000Y-143466000D01*
X172204000Y-144316000D02*
X172504000Y-144016000D01*
X170904000Y-144316000D02*
X172204000Y-144316000D01*
X152003000Y-142840000D02*
X150003000Y-142840000D01*
X152003000Y-141640000D02*
X152003000Y-142840000D01*
X150003000Y-141640000D02*
X152003000Y-141640000D01*
X150003000Y-142840000D02*
X150003000Y-141640000D01*
X197866000Y-93285000D02*
X180086000Y-93285000D01*
X197866000Y-144205000D02*
X197866000Y-93285000D01*
X180086000Y-144205000D02*
X197866000Y-144205000D01*
X180086000Y-93285000D02*
X180086000Y-144205000D01*
X181611000Y-94345000D02*
X182611000Y-93345000D01*
X181611000Y-144145000D02*
X181611000Y-94345000D01*
X196341000Y-144145000D02*
X181611000Y-144145000D01*
X196341000Y-93345000D02*
X196341000Y-144145000D01*
X182611000Y-93345000D02*
X196341000Y-93345000D01*
X131080000Y-141640000D02*
X133080000Y-141640000D01*
X131080000Y-142840000D02*
X131080000Y-141640000D01*
X133080000Y-142840000D02*
X131080000Y-142840000D01*
X133080000Y-141640000D02*
X133080000Y-142840000D01*
X136160000Y-141640000D02*
X138160000Y-141640000D01*
X136160000Y-142840000D02*
X136160000Y-141640000D01*
X138160000Y-142840000D02*
X136160000Y-142840000D01*
X138160000Y-141640000D02*
X138160000Y-142840000D01*
X164862000Y-120558000D02*
X166862000Y-120558000D01*
X164862000Y-121758000D02*
X164862000Y-120558000D01*
X166862000Y-121758000D02*
X164862000Y-121758000D01*
X166862000Y-120558000D02*
X166862000Y-121758000D01*
X161909000Y-142840000D02*
X159909000Y-142840000D01*
X161909000Y-141640000D02*
X161909000Y-142840000D01*
X159909000Y-141640000D02*
X161909000Y-141640000D01*
X159909000Y-142840000D02*
X159909000Y-141640000D01*
X142605000Y-142840000D02*
X140605000Y-142840000D01*
X142605000Y-141640000D02*
X142605000Y-142840000D01*
X140605000Y-141640000D02*
X142605000Y-141640000D01*
X140605000Y-142840000D02*
X140605000Y-141640000D01*
X190992000Y-134712000D02*
X188992000Y-134712000D01*
X190992000Y-133512000D02*
X190992000Y-134712000D01*
X188992000Y-133512000D02*
X190992000Y-133512000D01*
X188992000Y-134712000D02*
X188992000Y-133512000D01*
X195072000Y-93285000D02*
X177292000Y-93285000D01*
X195072000Y-144205000D02*
X195072000Y-93285000D01*
X177292000Y-144205000D02*
X195072000Y-144205000D01*
X177292000Y-93285000D02*
X177292000Y-144205000D01*
X178817000Y-94345000D02*
X179817000Y-93345000D01*
X178817000Y-144145000D02*
X178817000Y-94345000D01*
X193547000Y-144145000D02*
X178817000Y-144145000D01*
X193547000Y-93345000D02*
X193547000Y-144145000D01*
X179817000Y-93345000D02*
X193547000Y-93345000D01*
X175879000Y-120615000D02*
X173879000Y-120615000D01*
X175879000Y-119415000D02*
X175879000Y-120615000D01*
X173879000Y-119415000D02*
X175879000Y-119415000D01*
X173879000Y-120615000D02*
X173879000Y-119415000D01*
X174304000Y-140335000D02*
X174304000Y-122555000D01*
X113224000Y-140335000D02*
X174304000Y-140335000D01*
X113224000Y-122555000D02*
X113224000Y-140335000D01*
X174304000Y-122555000D02*
X113224000Y-122555000D01*
X173244000Y-124080000D02*
X174244000Y-125080000D01*
X113284000Y-124080000D02*
X173244000Y-124080000D01*
X113284000Y-138810000D02*
X113284000Y-124080000D01*
X174244000Y-138810000D02*
X113284000Y-138810000D01*
X174244000Y-125080000D02*
X174244000Y-138810000D01*
X172831000Y-142459000D02*
X170831000Y-142459000D01*
X172831000Y-141259000D02*
X172831000Y-142459000D01*
X170831000Y-141259000D02*
X172831000Y-141259000D01*
X170831000Y-142459000D02*
X170831000Y-141259000D01*
X183785000Y-119415000D02*
X185785000Y-119415000D01*
X183785000Y-120615000D02*
X183785000Y-119415000D01*
X185785000Y-120615000D02*
X183785000Y-120615000D01*
X185785000Y-119415000D02*
X185785000Y-120615000D01*
X166862000Y-92802000D02*
X164862000Y-92802000D01*
X166862000Y-91602000D02*
X166862000Y-92802000D01*
X164862000Y-91602000D02*
X166862000Y-91602000D01*
X164862000Y-92802000D02*
X164862000Y-91602000D01*
D11*
X156761666Y-142466190D02*
X156595000Y-142228095D01*
X156475952Y-142466190D02*
X156475952Y-141966190D01*
X156666428Y-141966190D01*
X156714047Y-141990000D01*
X156737857Y-142013809D01*
X156761666Y-142061428D01*
X156761666Y-142132857D01*
X156737857Y-142180476D01*
X156714047Y-142204285D01*
X156666428Y-142228095D01*
X156475952Y-142228095D01*
X157214047Y-141966190D02*
X156975952Y-141966190D01*
X156952142Y-142204285D01*
X156975952Y-142180476D01*
X157023571Y-142156666D01*
X157142619Y-142156666D01*
X157190238Y-142180476D01*
X157214047Y-142204285D01*
X157237857Y-142251904D01*
X157237857Y-142370952D01*
X157214047Y-142418571D01*
X157190238Y-142442380D01*
X157142619Y-142466190D01*
X157023571Y-142466190D01*
X156975952Y-142442380D01*
X156952142Y-142418571D01*
D12*
X115657380Y-108283333D02*
X116371666Y-108283333D01*
X116514523Y-108330952D01*
X116609761Y-108426190D01*
X116657380Y-108569047D01*
X116657380Y-108664285D01*
X116657380Y-107283333D02*
X116657380Y-107854761D01*
X116657380Y-107569047D02*
X115657380Y-107569047D01*
X115800238Y-107664285D01*
X115895476Y-107759523D01*
X115943095Y-107854761D01*
X140589095Y-104481380D02*
X140589095Y-105290904D01*
X140636714Y-105386142D01*
X140684333Y-105433761D01*
X140779571Y-105481380D01*
X140970047Y-105481380D01*
X141065285Y-105433761D01*
X141112904Y-105386142D01*
X141160523Y-105290904D01*
X141160523Y-104481380D01*
X142065285Y-104814714D02*
X142065285Y-105481380D01*
X141827190Y-104433761D02*
X141589095Y-105148047D01*
X142208142Y-105148047D01*
D11*
X131996666Y-142466190D02*
X131830000Y-142228095D01*
X131710952Y-142466190D02*
X131710952Y-141966190D01*
X131901428Y-141966190D01*
X131949047Y-141990000D01*
X131972857Y-142013809D01*
X131996666Y-142061428D01*
X131996666Y-142132857D01*
X131972857Y-142180476D01*
X131949047Y-142204285D01*
X131901428Y-142228095D01*
X131710952Y-142228095D01*
X132187142Y-142013809D02*
X132210952Y-141990000D01*
X132258571Y-141966190D01*
X132377619Y-141966190D01*
X132425238Y-141990000D01*
X132449047Y-142013809D01*
X132472857Y-142061428D01*
X132472857Y-142109047D01*
X132449047Y-142180476D01*
X132163333Y-142466190D01*
X132472857Y-142466190D01*
X160825666Y-142466190D02*
X160659000Y-142228095D01*
X160539952Y-142466190D02*
X160539952Y-141966190D01*
X160730428Y-141966190D01*
X160778047Y-141990000D01*
X160801857Y-142013809D01*
X160825666Y-142061428D01*
X160825666Y-142132857D01*
X160801857Y-142180476D01*
X160778047Y-142204285D01*
X160730428Y-142228095D01*
X160539952Y-142228095D01*
X161254238Y-141966190D02*
X161159000Y-141966190D01*
X161111380Y-141990000D01*
X161087571Y-142013809D01*
X161039952Y-142085238D01*
X161016142Y-142180476D01*
X161016142Y-142370952D01*
X161039952Y-142418571D01*
X161063761Y-142442380D01*
X161111380Y-142466190D01*
X161206619Y-142466190D01*
X161254238Y-142442380D01*
X161278047Y-142418571D01*
X161301857Y-142370952D01*
X161301857Y-142251904D01*
X161278047Y-142204285D01*
X161254238Y-142180476D01*
X161206619Y-142156666D01*
X161111380Y-142156666D01*
X161063761Y-142180476D01*
X161039952Y-142204285D01*
X161016142Y-142251904D01*
D12*
X114600095Y-144851380D02*
X114600095Y-143851380D01*
X114600095Y-144327571D02*
X115171523Y-144327571D01*
X115171523Y-144851380D02*
X115171523Y-143851380D01*
X115600095Y-143946619D02*
X115647714Y-143899000D01*
X115742952Y-143851380D01*
X115981047Y-143851380D01*
X116076285Y-143899000D01*
X116123904Y-143946619D01*
X116171523Y-144041857D01*
X116171523Y-144137095D01*
X116123904Y-144279952D01*
X115552476Y-144851380D01*
X116171523Y-144851380D01*
X114600095Y-93416380D02*
X114600095Y-92416380D01*
X114600095Y-92892571D02*
X115171523Y-92892571D01*
X115171523Y-93416380D02*
X115171523Y-92416380D01*
X116171523Y-93416380D02*
X115600095Y-93416380D01*
X115885809Y-93416380D02*
X115885809Y-92416380D01*
X115790571Y-92559238D01*
X115695333Y-92654476D01*
X115600095Y-92702095D01*
M02*
